<svg width="63" height="77" viewBox="0 0 63 77" fill="none" xmlns="http://www.w3.org/2000/svg">
<path d="M53.721 76H9.72099C6.92098 76 3.55433 72.6667 2.22101 71V63C2.22101 57.8 7.221 50.5 9.72099 47.5C19.321 40.7 13.721 38.3333 9.72099 38L4.22099 34C-2.97901 27.6 3.55433 23 7.72099 21.5C17.321 19.9 27.0543 12.5 30.721 9C30.321 3 33.221 1.16667 34.721 1C41.921 2.6 46.3877 9 47.721 12C51.321 15.2 50.221 30.6667 49.221 38C46.821 40.8 47.221 48.8333 47.721 52.5C47.321 56.1 55.221 61 59.221 63C63.621 62.2 61.0543 67 59.221 69.5L53.721 76Z" stroke="black"/>
</svg>
