<?xml version="1.0" encoding="UTF-8"?>
<!DOCTYPE svg PUBLIC "-//W3C//DTD SVG 1.1//EN" "http://www.w3.org/Graphics/SVG/1.1/DTD/svg11.dtd">
<svg xmlns="http://www.w3.org/2000/svg" version="1.1" width="419px" height="306px" style="shape-rendering:geometricPrecision; text-rendering:geometricPrecision; image-rendering:optimizeQuality; fill-rule:evenodd; clip-rule:evenodd" xmlns:xlink="http://www.w3.org/1999/xlink">
<g><path style="opacity:0.012" fill="#fefffe" d="M 131.5,-0.5 C 132.5,-0.5 133.5,-0.5 134.5,-0.5C 173.496,5.2371 212.83,7.40376 252.5,6C 256.816,5.00363 261.149,4.1703 265.5,3.5C 264.039,15.0148 260.872,26.0148 256,36.5C 254.724,42.4932 253.557,48.4932 252.5,54.5C 254.039,57.7456 255.706,60.9123 257.5,64C 265.619,68.6425 274.119,72.1425 283,74.5C 283.615,76.1161 284.615,77.4495 286,78.5C 286.783,84.5508 287.783,90.5508 289,96.5C 291.526,100.69 295.026,103.857 299.5,106C 311.559,107.879 322.892,105.879 333.5,100C 346.33,91.4172 359.33,83.0839 372.5,75C 377.184,74.6499 381.851,74.1499 386.5,73.5C 393.236,76.3666 399.903,79.5332 406.5,83C 409.952,86.7336 412.785,90.9003 415,95.5C 416.136,102.314 417.302,108.981 418.5,115.5C 418.5,119.5 418.5,123.5 418.5,127.5C 416.971,142.123 413.638,156.456 408.5,170.5C 410.683,179.4 414.016,187.734 418.5,195.5C 418.5,201.167 418.5,206.833 418.5,212.5C 410.415,233.891 408.749,255.891 413.5,278.5C 412.897,281.622 411.23,284.122 408.5,286C 403.833,288.333 399.167,290.667 394.5,293C 373.978,295.577 354.145,293.077 335,285.5C 330.129,286.13 325.295,286.963 320.5,288C 314.419,295.6 307.085,301.433 298.5,305.5C 297.5,305.5 296.5,305.5 295.5,305.5C 295.649,304.448 295.483,303.448 295,302.5C 292.5,298.833 290,295.167 287.5,291.5C 283.167,289 278.833,286.5 274.5,284C 256.681,278.061 239.015,271.727 221.5,265C 200.342,254.255 179.342,243.255 158.5,232C 150.803,223.969 142.803,216.302 134.5,209C 130.24,207.692 126.074,206.192 122,204.5C 118.528,206.479 115.362,208.812 112.5,211.5C 103.058,213.146 93.7251,215.313 84.5,218C 78.5,218.667 72.5,218.667 66.5,218C 62.6527,217.668 59.1527,216.502 56,214.5C 54.4832,211.657 52.9832,208.823 51.5,206C 52.1476,204.56 52.4809,203.06 52.5,201.5C 48.644,201.971 44.8107,202.638 41,203.5C 32.7684,201.703 29.6017,196.703 31.5,188.5C 36.9749,186.609 40.9749,183.109 43.5,178C 42.5,177 41.5,176 40.5,175C 33.0423,174.29 29.709,170.123 30.5,162.5C 31.675,162.719 32.675,162.386 33.5,161.5C 34.1805,159.111 35.0138,156.778 36,154.5C 38.2089,152.627 40.0422,150.46 41.5,148C 37.9682,147.919 34.4682,148.419 31,149.5C 27.256,147.748 23.4227,146.081 19.5,144.5C 18.3861,143.277 18.2195,141.944 19,140.5C 27.9504,129.741 38.7837,126.908 51.5,132C 55.9498,133.114 59.9498,132.28 63.5,129.5C 64.6655,125.506 65.8321,121.506 67,117.5C 71.3755,115.042 75.8755,114.875 80.5,117C 82.7798,120.947 85.4465,124.613 88.5,128C 90.4357,128.813 92.4357,129.313 94.5,129.5C 94.3343,125.154 94.501,120.821 95,116.5C 97.8333,112.333 101.333,108.833 105.5,106C 98.9539,97.9203 96.7872,88.7536 99,78.5C 101.703,75.462 104.703,72.7954 108,70.5C 107.118,62.5206 104.618,55.0206 100.5,48C 101.653,39.8455 106.32,35.5121 114.5,35C 118.667,31.5 122.833,28 127,24.5C 126.56,15.7403 128.06,7.40693 131.5,-0.5 Z"/></g>
<g><path style="opacity:0.004" fill="#fefffe" d="M 13.5,142.5 C 14.6009,141.402 15.9343,141.235 17.5,142C 16.2068,142.49 14.8734,142.657 13.5,142.5 Z"/></g>
<g><path style="opacity:0.004" fill="#fefffe" d="M 6.5,143.5 C 7.60093,142.402 8.93426,142.235 10.5,143C 9.20677,143.49 7.87344,143.657 6.5,143.5 Z"/></g>
<g><path style="opacity:0.004" fill="#fefffe" d="M -0.5,144.5 C -0.5,144.167 -0.5,143.833 -0.5,143.5C 4.83333,143.833 4.83333,144.167 -0.5,144.5 Z"/></g>
<g><path style="opacity:0.004" fill="#fefffe" d="M 111.5,213.5 C 112.833,214.167 112.833,214.167 111.5,213.5 Z"/></g>
<g><path style="opacity:0.004" fill="#fefffe" d="M 110.5,215.5 C 111.833,216.167 111.833,216.167 110.5,215.5 Z"/></g>
<g><path style="opacity:0.004" fill="#fefffe" d="M 110.5,216.5 C 109.833,217.167 109.833,217.167 110.5,216.5 Z"/></g>
<g><path style="opacity:0.004" fill="#fefffe" d="M 106.5,221.5 C 107.833,222.167 107.833,222.167 106.5,221.5 Z"/></g>
<g><path style="opacity:0.004" fill="#fefffe" d="M 105.5,223.5 C 106.833,224.167 106.833,224.167 105.5,223.5 Z"/></g>
<g><path style="opacity:0.004" fill="#fefffe" d="M 105.5,224.5 C 104.833,225.167 104.833,225.167 105.5,224.5 Z"/></g>
<g><path style="opacity:0.004" fill="#fefffe" d="M 104.5,225.5 C 103.833,226.167 103.833,226.167 104.5,225.5 Z"/></g>
<g><path style="opacity:0.004" fill="#fefffe" d="M 103.5,226.5 C 102.833,227.167 102.833,227.167 103.5,226.5 Z"/></g>
<g><path style="opacity:0.004" fill="#fefffe" d="M 102.5,227.5 C 101.833,228.167 101.833,228.167 102.5,227.5 Z"/></g>
<g><path style="opacity:0.004" fill="#fefffe" d="M 92.5,237.5 C 93.6341,239.966 93.8007,242.633 93,245.5C 92.5026,242.854 92.3359,240.187 92.5,237.5 Z"/></g>
</svg>
