<?xml version="1.0" encoding="UTF-8"?>
<!DOCTYPE svg PUBLIC "-//W3C//DTD SVG 1.1//EN" "http://www.w3.org/Graphics/SVG/1.1/DTD/svg11.dtd">
<svg xmlns="http://www.w3.org/2000/svg" version="1.1" width="197px" height="154px" style="shape-rendering:geometricPrecision; text-rendering:geometricPrecision; image-rendering:optimizeQuality; fill-rule:evenodd; clip-rule:evenodd" xmlns:xlink="http://www.w3.org/1999/xlink">
<g><path style="opacity:0.012" fill="#fefffe" d="M 148.5,-0.5 C 152.5,-0.5 156.5,-0.5 160.5,-0.5C 162.34,1.66895 164.674,3.00228 167.5,3.5C 168.065,8.14933 168.565,12.816 169,17.5C 174.945,32.3469 184.112,45.0136 196.5,55.5C 196.5,58.8333 196.5,62.1667 196.5,65.5C 193.23,75.0558 189.063,84.3892 184,93.5C 183.667,105.833 183.333,118.167 183,130.5C 178.833,136 174.667,141.5 170.5,147C 168.635,148.301 166.635,148.635 164.5,148C 162.833,146.333 161.167,144.667 159.5,143C 152.76,140.752 145.927,138.919 139,137.5C 132.821,138.24 126.654,139.073 120.5,140C 108.362,144.431 96.3624,148.931 84.5,153.5C 81.5,153.5 78.5,153.5 75.5,153.5C 69.9834,152.642 64.3168,151.809 58.5,151C 52.8651,146.367 47.5318,141.367 42.5,136C 36.1159,134.321 29.7826,132.488 23.5,130.5C 19.2042,125.282 16.8709,119.282 16.5,112.5C 17.4959,112.414 18.3292,112.748 19,113.5C 19.3333,112.833 19.6667,112.167 20,111.5C 20.9135,104.62 22.0802,97.7862 23.5,91C 25.0671,89.1896 27.0671,88.023 29.5,87.5C 30.8655,84.3134 31.6988,80.9801 32,77.5C 37.3332,72.1477 37.9999,66.1477 34,59.5C 25.6937,53.8156 18.0271,47.4822 11,40.5C 10.6598,34.5464 11.8264,28.8797 14.5,23.5C 12.2338,22.6858 9.90049,22.1858 7.5,22C 12.3254,22.4994 15.6587,20.6661 17.5,16.5C 22.4403,15.1204 27.4403,13.9538 32.5,13C 34.8333,11.3333 37.1667,9.66667 39.5,8C 45.7346,8.95197 51.9013,8.45197 58,6.5C 67.9914,10.078 77.8248,14.078 87.5,18.5C 91.4321,14.0817 96.4321,12.2484 102.5,13C 103.833,12.3333 105.167,11.6667 106.5,11C 115.793,12.3896 124.793,11.3896 133.5,8C 138.27,4.619 143.27,1.78567 148.5,-0.5 Z"/></g>
<g><path style="opacity:0.004" fill="#fefffe" d="M -0.5,21.5 C -0.5,21.1667 -0.5,20.8333 -0.5,20.5C 3.5,20.8333 3.5,21.1667 -0.5,21.5 Z"/></g>
<g><path style="opacity:0.004" fill="#fefffe" d="M 11.5,106.5 C 12.5,105.167 13.5,105.167 14.5,106.5C 13.5,106.5 12.5,106.5 11.5,106.5 Z"/></g>
<g><path style="opacity:0.004" fill="#fefffe" d="M 11.5,106.5 C 10.8333,107.167 10.8333,107.167 11.5,106.5 Z"/></g>
<g><path style="opacity:0.004" fill="#fefffe" d="M 14.5,106.5 C 15.8333,107.167 15.8333,107.167 14.5,106.5 Z"/></g>
<g><path style="opacity:0.004" fill="#fefffe" d="M 10.5,107.5 C 9.83333,108.167 9.83333,108.167 10.5,107.5 Z"/></g>
<g><path style="opacity:0.004" fill="#fefffe" d="M 9.5,108.5 C 8.83333,109.167 8.83333,109.167 9.5,108.5 Z"/></g>
<g><path style="opacity:0.004" fill="#fefffe" d="M 8.5,109.5 C 7.83333,110.167 7.83333,110.167 8.5,109.5 Z"/></g>
<g><path style="opacity:0.004" fill="#fefffe" d="M 7.5,110.5 C 7.66018,112.199 7.49351,113.866 7,115.5C 6.22039,113.613 6.38705,111.946 7.5,110.5 Z"/></g>
<g><path style="opacity:0.004" fill="#fefffe" d="M 16.5,112.5 C 15.475,112.103 15.3083,111.437 16,110.5C 16.4643,111.094 16.631,111.761 16.5,112.5 Z"/></g>
<g><path style="opacity:0.004" fill="#fefffe" d="M 5.5,119.5 C 6.57346,120.251 6.74012,121.251 6,122.5C 5.51722,121.552 5.35055,120.552 5.5,119.5 Z"/></g>
<g><path style="opacity:0.004" fill="#fefffe" d="M 4.5,123.5 C 5.57346,124.251 5.74012,125.251 5,126.5C 4.51722,125.552 4.35055,124.552 4.5,123.5 Z"/></g>
<g><path style="opacity:0.004" fill="#fefffe" d="M 3.5,128.5 C 4.52502,128.897 4.69169,129.563 4,130.5C 3.53566,129.906 3.36899,129.239 3.5,128.5 Z"/></g>
<g><path style="opacity:0.004" fill="#fefffe" d="M 2.5,132.5 C 3.52502,132.897 3.69169,133.563 3,134.5C 2.53566,133.906 2.36899,133.239 2.5,132.5 Z"/></g>
<g><path style="opacity:0.004" fill="#fefffe" d="M 1.5,135.5 C 2.52502,135.897 2.69169,136.563 2,137.5C 1.53566,136.906 1.36899,136.239 1.5,135.5 Z"/></g>
</svg>
