<?xml version="1.0" encoding="UTF-8"?>
<!DOCTYPE svg PUBLIC "-//W3C//DTD SVG 1.1//EN" "http://www.w3.org/Graphics/SVG/1.1/DTD/svg11.dtd">
<svg xmlns="http://www.w3.org/2000/svg" version="1.1" width="482px" height="530px" style="shape-rendering:geometricPrecision; text-rendering:geometricPrecision; image-rendering:optimizeQuality; fill-rule:evenodd; clip-rule:evenodd" xmlns:xlink="http://www.w3.org/1999/xlink">
<g><path style="opacity:0.012" fill="#fefffe" d="M 376.5,-0.5 C 376.833,-0.5 377.167,-0.5 377.5,-0.5C 381.728,2.5608 385.061,6.39413 387.5,11C 384.021,17.4701 381.021,24.1368 378.5,31C 380.177,35.5314 383.51,38.198 388.5,39C 397.575,39.7666 406.575,40.7666 415.5,42C 424.782,53.3907 432.949,65.5574 440,78.5C 440.331,82.5274 439.998,86.5274 439,90.5C 436.647,98.7073 434.147,106.874 431.5,115C 432.204,118.128 432.704,121.294 433,124.5C 439.533,134.706 447.2,144.039 456,152.5C 461.527,162.221 466.527,172.221 471,182.5C 472.913,189.362 474.079,196.362 474.5,203.5C 471.793,221.866 468.127,240.033 463.5,258C 463.727,263.745 464.893,269.245 467,274.5C 470.884,281.622 475.717,287.955 481.5,293.5C 481.5,296.167 481.5,298.833 481.5,301.5C 475.484,314.018 466.484,323.852 454.5,331C 446.051,339.397 440.884,349.564 439,361.5C 421.344,383.916 398.51,398.083 370.5,404C 365.269,407.024 360.769,410.857 357,415.5C 356.667,417.167 356.333,418.833 356,420.5C 351.5,425 347,429.5 342.5,434C 340.773,433.24 339.106,432.073 337.5,430.5C 334.204,431.556 331.871,433.723 330.5,437C 327.5,438 324.5,439 321.5,440C 318.925,444.056 316.925,448.389 315.5,453C 313.5,453.667 311.5,454.333 309.5,455C 301.012,463.9 291.012,470.234 279.5,474C 276.667,477.328 274.334,480.995 272.5,485C 263.311,489.381 253.644,492.047 243.5,493C 240.725,496.563 237.725,499.896 234.5,503C 228.373,506.379 222.039,509.379 215.5,512C 211.116,514.717 207.782,518.384 205.5,523C 201.278,524.941 197.278,527.108 193.5,529.5C 191.833,529.5 190.167,529.5 188.5,529.5C 170.752,523.088 152.585,517.754 134,513.5C 125.477,514.121 116.977,514.954 108.5,516C 104.347,518.915 99.68,520.249 94.5,520C 89.3058,523.061 84.3058,526.227 79.5,529.5C 78.1667,529.5 76.8333,529.5 75.5,529.5C 62.5608,523.345 49.2274,517.845 35.5,513C 32.2436,511.541 29.5769,509.374 27.5,506.5C 25.2046,505.568 22.8713,504.735 20.5,504C 16.6759,498.078 11.3425,494.078 4.5,492C 2.96252,490.293 1.29585,488.793 -0.5,487.5C -0.5,486.5 -0.5,485.5 -0.5,484.5C 1.58059,483.377 3.74726,482.377 6,481.5C 13.5209,483.255 21.0209,485.089 28.5,487C 33.1667,489.667 37.8333,492.333 42.5,495C 66.8653,502.94 90.1986,500.774 112.5,488.5C 114.968,489.803 117.301,491.303 119.5,493C 128.914,494.549 138.247,493.883 147.5,491C 150.412,489.76 153.079,488.094 155.5,486C 169.669,484.708 183.335,481.374 196.5,476C 215.169,464.161 229.502,448.328 239.5,428.5C 247.856,424.731 256.523,423.731 265.5,425.5C 268.757,425.582 271.591,424.582 274,422.5C 274.996,418.184 275.83,413.851 276.5,409.5C 269.918,408.118 263.252,407.284 256.5,407C 252.136,404.818 247.802,402.651 243.5,400.5C 247.457,392.93 252.624,386.263 259,380.5C 260.211,377.448 261.045,374.281 261.5,371C 259.58,368.073 257.247,365.406 254.5,363C 246.244,360.205 238.578,356.372 231.5,351.5C 242.181,346.244 253.514,343.744 265.5,344C 305.876,329.41 347.543,323.41 390.5,326C 395.097,324.358 399.597,322.524 404,320.5C 406.783,313.918 410.783,308.252 416,303.5C 418.246,299.509 420.079,295.343 421.5,291C 420.182,289.01 418.848,287.01 417.5,285C 412.969,283.829 408.469,282.662 404,281.5C 389.902,282.137 375.735,282.304 361.5,282C 343.688,286.536 326.021,291.536 308.5,297C 290.371,296.83 272.704,299.83 255.5,306C 245.755,307.465 236.088,307.298 226.5,305.5C 219.301,307.233 212.301,309.566 205.5,312.5C 204.529,311.038 204.862,309.705 206.5,308.5C 210.167,307 213.833,305.5 217.5,304C 221.487,300.003 226.154,297.003 231.5,295C 240.457,292.511 249.457,290.177 258.5,288C 263.969,286.526 268.469,283.692 272,279.5C 271.382,274.173 273.049,269.84 277,266.5C 276.782,260.868 276.616,255.201 276.5,249.5C 281.763,249.789 286.596,248.455 291,245.5C 296.167,248.333 301.667,249.5 307.5,249C 315.515,246.672 322.515,242.672 328.5,237C 331.5,236.667 334.5,236.333 337.5,236C 342.5,229.667 347.5,223.333 352.5,217C 345.327,217.918 339.66,215.251 335.5,209C 346.936,210.288 357.269,207.454 366.5,200.5C 372.788,203.131 377.288,201.131 380,194.5C 380.225,187.544 381.059,180.711 382.5,174C 380.208,172.71 378.208,171.043 376.5,169C 369.876,169.038 363.542,167.704 357.5,165C 361.44,160.222 366.106,156.388 371.5,153.5C 372.795,149.62 372.795,145.786 371.5,142C 370.5,141.333 369.5,141.333 368.5,142C 360.796,146.202 353.796,151.369 347.5,157.5C 345.838,168.998 339.838,171.998 329.5,166.5C 325.729,163.011 325.562,159.345 329,155.5C 332.669,152.455 335.002,148.788 336,144.5C 334.5,146 333,147.5 331.5,149C 324.842,149.5 318.175,149.666 311.5,149.5C 311.261,147.533 311.594,145.699 312.5,144C 316.5,142.667 320.5,141.333 324.5,140C 326.081,138.172 327.415,136.172 328.5,134C 330.235,133.349 331.902,133.515 333.5,134.5C 335.316,133.185 336.983,131.685 338.5,130C 337.133,127.699 336.466,125.199 336.5,122.5C 341.535,122.879 345.535,121.046 348.5,117C 352.235,116.044 355.901,114.878 359.5,113.5C 360.452,111.955 360.785,110.288 360.5,108.5C 362.792,108.244 364.959,108.577 367,109.5C 367.667,108.167 367.667,106.833 367,105.5C 364.833,102 362.667,98.5 360.5,95C 364.907,91.0481 369.407,87.2148 374,83.5C 374.422,81.6447 374.922,79.8114 375.5,78C 375.387,76.7202 374.72,75.8869 373.5,75.5C 364.755,77.7589 357.089,81.9255 350.5,88C 345.167,90.6667 339.833,93.3333 334.5,96C 329.277,96.0197 324.277,97.0197 319.5,99C 314.882,101.95 310.548,105.284 306.5,109C 299.159,108.765 292.159,110.099 285.5,113C 276.475,113.474 267.475,113.474 258.5,113C 254.156,115.171 250.156,117.837 246.5,121C 245,121.167 243.5,121.333 242,121.5C 235.767,120.301 229.6,119.134 223.5,118C 220.5,121.667 217.5,125.333 214.5,129C 210.789,129.844 207.123,130.844 203.5,132C 200.465,135.37 197.132,138.37 193.5,141C 184.495,143.537 175.495,146.204 166.5,149C 163.833,150.333 161.167,151.667 158.5,153C 153.371,161.91 147.037,169.91 139.5,177C 128.139,184.862 124.973,182.362 130,169.5C 133.969,165.231 136.635,160.231 138,154.5C 139.643,152.023 141.476,149.69 143.5,147.5C 150.95,147.354 157.95,145.521 164.5,142C 174.741,129.515 184.741,116.848 194.5,104C 198.52,101.966 202.52,99.9656 206.5,98C 227.167,93 247.833,88 268.5,83C 279.149,81.8532 284.815,76.0199 285.5,65.5C 293.12,60.5769 301.454,57.9102 310.5,57.5C 311.959,55.417 313.292,53.2503 314.5,51C 313.209,47.5447 313.209,44.0447 314.5,40.5C 329.544,31.2994 343.544,20.6328 356.5,8.5C 355.319,6.80197 355.319,5.1353 356.5,3.5C 358.667,2.20808 361,1.37474 363.5,1C 368.019,0.824739 372.353,0.324739 376.5,-0.5 Z"/></g>
</svg>
