<?xml version="1.0" encoding="UTF-8"?>
<!DOCTYPE svg PUBLIC "-//W3C//DTD SVG 1.1//EN" "http://www.w3.org/Graphics/SVG/1.1/DTD/svg11.dtd">
<svg xmlns="http://www.w3.org/2000/svg" version="1.1" width="220px" height="139px" style="shape-rendering:geometricPrecision; text-rendering:geometricPrecision; image-rendering:optimizeQuality; fill-rule:evenodd; clip-rule:evenodd" xmlns:xlink="http://www.w3.org/1999/xlink">
<g><path style="opacity:0.012" fill="#fefffe" d="M -0.5,-0.5 C 46.8333,-0.5 94.1667,-0.5 141.5,-0.5C 147.709,11.7207 154.376,23.7207 161.5,35.5C 165.05,36.0157 168.383,37.0157 171.5,38.5C 172.751,42.9097 174.084,47.243 175.5,51.5C 177.329,52.2824 178.829,51.6157 180,49.5C 180.808,44.5209 183.642,41.8542 188.5,41.5C 189.656,45.7925 190.656,50.1259 191.5,54.5C 194.829,54.0015 197.995,53.0015 201,51.5C 203,52.8333 205,54.1667 207,55.5C 208.156,63.4489 208.822,71.4489 209,79.5C 212.369,83.0374 215.869,86.3707 219.5,89.5C 219.5,90.8333 219.5,92.1667 219.5,93.5C 213.158,93.3338 206.825,93.5005 200.5,94C 198.167,95 195.833,96 193.5,97C 190.696,101.235 188.363,105.735 186.5,110.5C 182.82,106.817 179.486,102.817 176.5,98.5C 181.119,93.7099 182.619,88.0433 181,81.5C 180.653,79.8198 179.653,78.8198 178,78.5C 172.764,81.2331 167.931,84.5664 163.5,88.5C 163.047,102.468 156.047,108.634 142.5,107C 139.02,104.354 135.686,101.521 132.5,98.5C 120.699,105.803 109.032,113.303 97.5,121C 95.257,122.136 92.9237,122.97 90.5,123.5C 91.2899,122.206 92.2899,121.039 93.5,120C 62.1684,119.5 30.8351,119.333 -0.5,119.5C -0.5,79.5 -0.5,39.5 -0.5,-0.5 Z"/></g>
<g><path style="opacity:0.004" fill="#fefffe" d="M 200.5,9.5 C 201.833,10.1667 201.833,10.1667 200.5,9.5 Z"/></g>
<g><path style="opacity:0.004" fill="#fefffe" d="M 198.5,10.5 C 199.833,11.1667 199.833,11.1667 198.5,10.5 Z"/></g>
<g><path style="opacity:0.004" fill="#fefffe" d="M 198.5,11.5 C 197.833,12.1667 197.833,12.1667 198.5,11.5 Z"/></g>
<g><path style="opacity:0.004" fill="#fefffe" d="M 194.5,13.5 C 195.833,14.1667 195.833,14.1667 194.5,13.5 Z"/></g>
<g><path style="opacity:0.004" fill="#fefffe" d="M 191.5,15.5 C 192.833,16.1667 192.833,16.1667 191.5,15.5 Z"/></g>
<g><path style="opacity:0.004" fill="#fefffe" d="M 188.5,17.5 C 189.833,18.1667 189.833,18.1667 188.5,17.5 Z"/></g>
<g><path style="opacity:0.004" fill="#fefffe" d="M 188.5,18.5 C 187.833,19.1667 187.833,19.1667 188.5,18.5 Z"/></g>
<g><path style="opacity:0.004" fill="#fefffe" d="M 187.5,19.5 C 186.833,20.1667 186.833,20.1667 187.5,19.5 Z"/></g>
<g><path style="opacity:0.004" fill="#fefffe" d="M 185.5,22.5 C 186.833,23.1667 186.833,23.1667 185.5,22.5 Z"/></g>
<g><path style="opacity:0.004" fill="#fefffe" d="M 185.5,26.5 C 186.622,28.2884 186.789,30.2884 186,32.5C 185.505,30.5273 185.338,28.5273 185.5,26.5 Z"/></g>
<g><path style="opacity:0.004" fill="#fefffe" d="M 186.5,34.5 C 187.525,34.8966 187.692,35.5632 187,36.5C 186.536,35.9056 186.369,35.2389 186.5,34.5 Z"/></g>
<g><path style="opacity:0.004" fill="#fefffe" d="M 187.5,38.5 C 188.833,39.1667 188.833,39.1667 187.5,38.5 Z"/></g>
<g><path style="opacity:0.004" fill="#fefffe" d="M 90.5,123.5 C 89.8333,124.167 89.8333,124.167 90.5,123.5 Z"/></g>
<g><path style="opacity:0.004" fill="#fefffe" d="M 86.5,125.5 C 87.8333,126.167 87.8333,126.167 86.5,125.5 Z"/></g>
<g><path style="opacity:0.004" fill="#fefffe" d="M 84.5,126.5 C 85.8333,127.167 85.8333,127.167 84.5,126.5 Z"/></g>
<g><path style="opacity:0.004" fill="#fefffe" d="M 82.5,127.5 C 83.8333,128.167 83.8333,128.167 82.5,127.5 Z"/></g>
<g><path style="opacity:0.004" fill="#fefffe" d="M 80.5,128.5 C 81.8333,129.167 81.8333,129.167 80.5,128.5 Z"/></g>
<g><path style="opacity:0.004" fill="#fefffe" d="M 78.5,129.5 C 79.8333,130.167 79.8333,130.167 78.5,129.5 Z"/></g>
<g><path style="opacity:0.004" fill="#fefffe" d="M 76.5,130.5 C 77.8333,131.167 77.8333,131.167 76.5,130.5 Z"/></g>
<g><path style="opacity:0.004" fill="#fefffe" d="M 74.5,132.5 C 74.8417,131.662 75.5084,131.328 76.5,131.5C 76.1583,132.338 75.4916,132.672 74.5,132.5 Z"/></g>
<g><path style="opacity:0.004" fill="#fefffe" d="M 72.5,133.5 C 72.8417,132.662 73.5084,132.328 74.5,132.5C 74.1583,133.338 73.4916,133.672 72.5,133.5 Z"/></g>
<g><path style="opacity:0.004" fill="#fefffe" d="M 72.5,133.5 C 71.8333,134.167 71.8333,134.167 72.5,133.5 Z"/></g>
<g><path style="opacity:0.004" fill="#fefffe" d="M 69.5,134.5 C 70.8333,135.167 70.8333,135.167 69.5,134.5 Z"/></g>
<g><path style="opacity:0.004" fill="#fefffe" d="M 67.5,135.5 C 68.8333,136.167 68.8333,136.167 67.5,135.5 Z"/></g>
<g><path style="opacity:0.004" fill="#fefffe" d="M 65.5,136.5 C 66.8333,137.167 66.8333,137.167 65.5,136.5 Z"/></g>
<g><path style="opacity:0.004" fill="#fefffe" d="M 62.5,138.5 C 63.1667,137.167 63.8333,137.167 64.5,138.5C 63.8333,138.5 63.1667,138.5 62.5,138.5 Z"/></g>
</svg>
