<?xml version="1.0" encoding="UTF-8"?>
<!DOCTYPE svg PUBLIC "-//W3C//DTD SVG 1.1//EN" "http://www.w3.org/Graphics/SVG/1.1/DTD/svg11.dtd">
<svg xmlns="http://www.w3.org/2000/svg" version="1.1" width="315px" height="290px" style="shape-rendering:geometricPrecision; text-rendering:geometricPrecision; image-rendering:optimizeQuality; fill-rule:evenodd; clip-rule:evenodd" xmlns:xlink="http://www.w3.org/1999/xlink">
<g><path style="opacity:0.012" fill="#fefffe" d="M 263.5,-0.5 C 264.167,-0.5 264.833,-0.5 265.5,-0.5C 266.616,9.0657 270.449,17.399 277,24.5C 286.751,31.2947 296.917,37.4614 307.5,43C 312.662,46.9565 314.995,52.1232 314.5,58.5C 314.5,67.1667 314.5,75.8333 314.5,84.5C 310.596,97.8004 303.929,109.634 294.5,120C 283.428,128.952 270.928,135.119 257,138.5C 255.098,140.627 253.431,142.96 252,145.5C 251.085,154.147 250.418,162.814 250,171.5C 245.088,178.816 244.088,186.483 247,194.5C 257.046,205.048 267.546,215.048 278.5,224.5C 280.993,227.102 282.16,230.102 282,233.5C 274.131,237.572 265.964,241.072 257.5,244C 240.225,255.554 223.391,267.721 207,280.5C 198.894,279.638 190.727,279.472 182.5,280C 171.934,277.767 164.768,271.6 161,261.5C 157.353,257.018 153.519,252.685 149.5,248.5C 134.778,242.435 119.445,239.268 103.5,239C 85.6469,228.238 67.3135,218.238 48.5,209C 34.5878,206.658 20.5878,205.158 6.5,204.5C 6.43319,202.599 6.76652,200.766 7.5,199C 4.90497,192.36 2.2383,185.86 -0.5,179.5C -0.5,178.5 -0.5,177.5 -0.5,176.5C 0.739932,173.976 1.9066,171.309 3,168.5C 10.6089,161.713 17.9422,154.713 25,147.5C 25.4709,145.754 26.1376,144.087 27,142.5C 27.3333,131.833 27.6667,121.167 28,110.5C 28.8485,107.302 30.3485,104.469 32.5,102C 37.103,98.7816 41.9363,95.9482 47,93.5C 54.6312,95.1549 61.7979,97.9883 68.5,102C 71.0825,107.838 74.4158,113.171 78.5,118C 81.8333,118.667 85.1667,118.667 88.5,118C 110.833,104.333 133.167,90.6667 155.5,77C 173.932,65.8131 193.932,61.4798 215.5,64C 227.092,62.4574 236.259,56.9574 243,47.5C 247.686,32.4407 253.352,17.7741 260,3.5C 261.376,2.29493 262.542,0.961599 263.5,-0.5 Z"/></g>
<g><path style="opacity:0.004" fill="#fefffe" d="M 1.5,204.5 C 2.25057,203.427 3.25057,203.26 4.5,204C 3.55198,204.483 2.55198,204.649 1.5,204.5 Z"/></g>
<g><path style="opacity:0.004" fill="#fefffe" d="M 203.5,281.5 C 204.833,282.167 204.833,282.167 203.5,281.5 Z"/></g>
<g><path style="opacity:0.004" fill="#fefffe" d="M 203.5,282.5 C 202.833,283.167 202.833,283.167 203.5,282.5 Z"/></g>
<g><path style="opacity:0.004" fill="#fefffe" d="M 200.5,283.5 C 201.833,284.167 201.833,284.167 200.5,283.5 Z"/></g>
<g><path style="opacity:0.004" fill="#fefffe" d="M 200.5,284.5 C 199.833,285.167 199.833,285.167 200.5,284.5 Z"/></g>
<g><path style="opacity:0.004" fill="#fefffe" d="M 196.5,286.5 C 197.833,287.167 197.833,287.167 196.5,286.5 Z"/></g>
<g><path style="opacity:0.004" fill="#fefffe" d="M 196.5,287.5 C 195.833,288.167 195.833,288.167 196.5,287.5 Z"/></g>
<g><path style="opacity:0.004" fill="#fefffe" d="M 195.5,288.5 C 195.5,288.833 195.5,289.167 195.5,289.5C 194.83,289.019 194.83,288.685 195.5,288.5 Z"/></g>
</svg>
