<?xml version="1.0" encoding="UTF-8"?>
<!DOCTYPE svg PUBLIC "-//W3C//DTD SVG 1.1//EN" "http://www.w3.org/Graphics/SVG/1.1/DTD/svg11.dtd">
<svg xmlns="http://www.w3.org/2000/svg" version="1.1" width="266px" height="235px" style="shape-rendering:geometricPrecision; text-rendering:geometricPrecision; image-rendering:optimizeQuality; fill-rule:evenodd; clip-rule:evenodd" xmlns:xlink="http://www.w3.org/1999/xlink">
<g><path style="opacity:0.012" fill="#fefffe" d="M 165.5,-0.5 C 165.833,-0.5 166.167,-0.5 166.5,-0.5C 169.019,2.64833 171.686,5.815 174.5,9C 179.844,9.38979 185.178,9.88979 190.5,10.5C 197.455,10.5384 201.122,7.20505 201.5,0.5C 202.552,0.350549 203.552,0.517215 204.5,1C 208.642,5.65387 210.808,11.1539 211,17.5C 211.333,26.1667 211.667,34.8333 212,43.5C 212.667,46.1667 213.333,48.8333 214,51.5C 222.243,56.8711 231.076,61.0377 240.5,64C 246.958,68.1235 252.458,73.2902 257,79.5C 257.498,82.8168 257.665,86.1501 257.5,89.5C 254.136,88.8728 252.136,90.2061 251.5,93.5C 257.379,102.516 259.212,112.183 257,122.5C 259.696,126.68 262.53,130.68 265.5,134.5C 265.5,137.5 265.5,140.5 265.5,143.5C 263.706,149.008 260.872,154.008 257,158.5C 256,162.167 255,165.833 254,169.5C 244.359,181.231 232.193,188.731 217.5,192C 215.547,196.283 212.214,198.617 207.5,199C 206.773,202.921 205.44,206.588 203.5,210C 201.5,210.5 199.5,211 197.5,211.5C 194.278,210.031 190.944,209.531 187.5,210C 179.649,217.352 171.649,224.519 163.5,231.5C 163.167,231.333 162.833,231.167 162.5,231C 164.745,227.693 166.245,224.193 167,220.5C 162.922,219.198 158.755,218.198 154.5,217.5C 154.274,210.792 153.608,204.125 152.5,197.5C 146.461,198.679 142.128,202.012 139.5,207.5C 138.335,208.584 137.002,209.417 135.5,210C 113.551,213.728 91.5513,217.061 69.5,220C 63.0515,222.391 56.7181,225.058 50.5,228C 48.2101,229.777 46.5434,231.944 45.5,234.5C 43.1667,234.5 40.8333,234.5 38.5,234.5C 35.5365,233.742 32.8698,232.242 30.5,230C 27.4082,226.154 24.4082,222.321 21.5,218.5C 18.6443,220.522 16.311,223.022 14.5,226C 12.6297,227.366 10.6297,228.533 8.5,229.5C 8.0509,225.917 6.71757,222.75 4.5,220C 8.33945,216.991 12.0061,213.824 15.5,210.5C 11.8779,206.187 7.21122,203.687 1.5,203C 0.882779,200.723 0.216112,198.556 -0.5,196.5C -0.5,195.5 -0.5,194.5 -0.5,193.5C 1.87074,190.628 4.87074,188.794 8.5,188C 16.2046,188.005 23.8712,188.338 31.5,189C 38.5143,183.24 45.5143,177.574 52.5,172C 56.3502,170.495 60.1835,168.995 64,167.5C 63.6395,170.924 62.6395,174.258 61,177.5C 57.6827,180.806 54.8494,184.472 52.5,188.5C 53,188.833 53.5,189.167 54,189.5C 59.4428,187.797 64.9428,186.297 70.5,185C 75.1442,182.359 78.3109,178.525 80,173.5C 82.6443,171.69 85.1443,169.69 87.5,167.5C 88.5225,157.941 91.6892,148.941 97,140.5C 101.893,136.609 107.06,133.109 112.5,130C 113.304,128.229 114.471,126.729 116,125.5C 116.166,118.006 114.666,110.839 111.5,104C 112.46,102.581 113.293,101.081 114,99.5C 122.392,94.4655 130.058,88.4655 137,81.5C 137.798,79.7412 137.631,78.0745 136.5,76.5C 130.271,79.8908 123.604,81.7241 116.5,82C 109.562,88.2725 102.062,93.7725 94,98.5C 97.6941,87.1117 103.027,76.445 110,66.5C 117.517,60.7392 124.85,54.7392 132,48.5C 133.797,44.5198 134.963,40.3531 135.5,36C 134.343,32.8865 133.843,29.7198 134,26.5C 140.547,19.4701 148.381,14.3035 157.5,11C 161.587,8.09218 164.253,4.25885 165.5,-0.5 Z"/></g>
</svg>
