<?xml version="1.0" encoding="UTF-8"?>
<!DOCTYPE svg PUBLIC "-//W3C//DTD SVG 1.1//EN" "http://www.w3.org/Graphics/SVG/1.1/DTD/svg11.dtd">
<svg xmlns="http://www.w3.org/2000/svg" version="1.1" width="577px" height="1192px" style="shape-rendering:geometricPrecision; text-rendering:geometricPrecision; image-rendering:optimizeQuality; fill-rule:evenodd; clip-rule:evenodd" xmlns:xlink="http://www.w3.org/1999/xlink">
<g><path style="opacity:0.012" fill="#fefffe" d="M -0.5,-0.5 C 68.5,-0.5 137.5,-0.5 206.5,-0.5C 209.614,4.22146 212.614,9.05479 215.5,14C 212.45,21.73 207.783,28.3966 201.5,34C 190.482,35.6773 182.482,41.5107 177.5,51.5C 178.48,52.9814 179.647,54.3147 181,55.5C 181.333,60.1667 181.667,64.8333 182,69.5C 183.556,70.5196 184.722,71.853 185.5,73.5C 184.861,76.4748 184.361,79.4748 184,82.5C 179.085,86.7436 174.919,91.5769 171.5,97C 172.26,98.4411 172.926,99.9411 173.5,101.5C 172.808,106.652 172.142,111.819 171.5,117C 172.27,118.775 173.437,120.275 175,121.5C 187.27,114.187 199.437,114.187 211.5,121.5C 215.593,132.047 217.76,143.047 218,154.5C 222.012,162.011 227.845,163.677 235.5,159.5C 240.214,162.406 244.548,161.906 248.5,158C 254.233,156.32 260.067,155.153 266,154.5C 273.092,155.892 280.259,156.725 287.5,157C 291.419,158.54 294.919,160.707 298,163.5C 310.037,158.927 321.87,153.761 333.5,148C 337.394,145.41 340.227,146.243 342,150.5C 342.167,152.333 342.333,154.167 342.5,156C 340.616,167.636 338.95,179.302 337.5,191C 337.667,193.167 337.833,195.333 338,197.5C 341.169,199.827 343.336,202.827 344.5,206.5C 343.269,211.501 343.269,216.501 344.5,221.5C 350.019,223.119 355.686,223.952 361.5,224C 367.736,227.567 373.403,231.9 378.5,237C 381.167,238.333 383.833,239.667 386.5,241C 388.049,246.005 388.882,251.171 389,256.5C 389.75,257.126 390.584,257.626 391.5,258C 397.912,257.695 403.912,259.028 409.5,262C 414.667,268.5 419.833,275 425,281.5C 427.628,279.874 429.961,277.874 432,275.5C 434.132,278.316 436.965,279.649 440.5,279.5C 444.273,279.14 447.939,278.307 451.5,277C 453.049,275.786 454.215,274.286 455,272.5C 455.734,266.754 457.234,261.254 459.5,256C 461.615,255.443 463.615,254.609 465.5,253.5C 470.443,254.52 475.277,255.854 480,257.5C 484.421,255.915 487.254,252.915 488.5,248.5C 494.832,249.281 501.165,248.948 507.5,247.5C 511.181,248.27 514.848,249.103 518.5,250C 524.798,255.876 527.798,263.209 527.5,272C 527.153,277.246 526.32,282.412 525,287.5C 520.833,292.333 516.667,297.167 512.5,302C 503.902,306.881 495.735,312.381 488,318.5C 487.03,320.274 486.196,322.107 485.5,324C 486.269,328.887 487.269,333.72 488.5,338.5C 486.622,340.754 484.456,342.754 482,344.5C 481.575,348.051 479.741,350.384 476.5,351.5C 474.575,351.41 473.408,350.41 473,348.5C 474.215,339.56 470.381,335.227 461.5,335.5C 454.58,323.996 447.914,312.329 441.5,300.5C 394.498,299.736 347.498,299.069 300.5,298.5C 300.5,338.167 300.5,377.833 300.5,417.5C 331.834,417.881 363.167,418.381 394.5,419C 373.213,436.14 348.879,445.14 321.5,446C 319.999,447.252 318.332,448.252 316.5,449C 314.82,453.532 312.987,458.032 311,462.5C 307.197,466.756 304.031,471.423 301.5,476.5C 298.049,475.04 297.383,475.373 299.5,477.5C 295.874,478.122 292.207,478.289 288.5,478C 281.94,482.441 275.44,482.274 269,477.5C 267.827,481.337 265.827,484.671 263,487.5C 261.958,492.227 260.791,496.894 259.5,501.5C 266.617,501.39 273.284,503.056 279.5,506.5C 280.748,505.96 281.915,505.293 283,504.5C 287.549,507.686 292.715,509.519 298.5,510C 302.581,515.581 307.914,519.415 314.5,521.5C 316.746,525.659 319.246,529.659 322,533.5C 324.685,538.727 323.685,543.061 319,546.5C 318.366,551.156 316.033,554.823 312,557.5C 311.333,559.833 311.333,562.167 312,564.5C 314,567.167 316,569.833 318,572.5C 318.133,575.525 319.133,578.192 321,580.5C 323.136,590.928 324.636,601.595 325.5,612.5C 322.518,612.896 319.851,612.229 317.5,610.5C 315.183,612.316 313.016,614.316 311,616.5C 310.845,618.856 310.845,621.189 311,623.5C 306.397,629.986 300.23,632.32 292.5,630.5C 288.619,633.273 284.285,634.606 279.5,634.5C 279.797,637.724 279.13,640.724 277.5,643.5C 278.309,645.071 278.643,646.738 278.5,648.5C 287.603,647.032 295.603,649.532 302.5,656C 305.833,656.333 309.167,656.667 312.5,657C 315.376,662.89 318.709,668.557 322.5,674C 319.976,678.009 316.31,680.176 311.5,680.5C 306.442,679.973 301.776,678.306 297.5,675.5C 296.707,675.931 295.873,676.265 295,676.5C 291.277,674.257 287.277,672.59 283,671.5C 281.605,671.78 280.438,672.447 279.5,673.5C 278.262,677.064 276.596,680.398 274.5,683.5C 276.316,684.815 277.983,686.315 279.5,688C 284.917,690.79 290.084,693.957 295,697.5C 295.717,703.225 295.384,708.891 294,714.5C 289.653,716.393 285.153,717.893 280.5,719C 278.762,722.844 279.429,726.177 282.5,729C 285.072,731.287 288.072,732.453 291.5,732.5C 292.038,736.44 291.538,740.44 290,744.5C 286.543,747.027 283.21,749.694 280,752.5C 277.205,750.707 274.705,748.54 272.5,746C 267.593,745.651 262.927,746.318 258.5,748C 256.167,745.667 253.833,743.333 251.5,741C 248.21,741.369 244.877,741.369 241.5,741C 239.65,737.638 237.317,734.638 234.5,732C 231.167,731.667 227.833,731.333 224.5,731C 222.884,730.385 221.551,729.385 220.5,728C 219.167,727.833 217.833,727.667 216.5,727.5C 213.885,728.154 211.385,728.154 209,727.5C 205.249,728.915 202.416,731.415 200.5,735C 199.551,735.617 198.718,735.451 198,734.5C 195.37,738.132 192.37,741.465 189,744.5C 186.421,742.079 185.587,742.579 186.5,746C 184.934,748.912 184.101,752.079 184,755.5C 182.818,757.344 181.651,759.177 180.5,761C 182.068,763.631 181.568,765.797 179,767.5C 179.714,773.984 177.714,779.317 173,783.5C 172.727,788.229 172.061,792.896 171,797.5C 170.667,797.833 170.333,798.167 170,798.5C 169.692,797.692 169.192,797.025 168.5,796.5C 165.623,797.343 163.456,799.01 162,801.5C 162.503,810.739 161.003,819.572 157.5,828C 158.09,830.196 158.757,832.362 159.5,834.5C 158.579,836.756 156.912,837.756 154.5,837.5C 154.149,841.701 151.983,844.701 148,846.5C 148.369,849.79 148.369,853.123 148,856.5C 143.616,860.375 143.616,864.375 148,868.5C 148.667,875.167 148.667,881.833 148,888.5C 146.141,889.645 145.307,891.312 145.5,893.5C 145.967,896.148 147.134,898.481 149,900.5C 152.167,902.333 154.667,904.833 156.5,908C 159.146,908.497 161.813,908.664 164.5,908.5C 163.632,914.236 161.132,919.236 157,923.5C 155.154,926.569 154.154,929.902 154,933.5C 146.716,944.723 149.883,949.223 163.5,947C 165.746,945.961 167.913,944.794 170,943.5C 171.092,940.291 172.259,937.124 173.5,934C 176.5,933 179.5,932 182.5,931C 182.967,927.535 184.967,925.868 188.5,926C 190.59,921.184 193.757,920.017 198,922.5C 200.596,920.98 203.429,920.147 206.5,920C 212.248,913.17 217.248,905.837 221.5,898C 221.095,897.055 220.428,896.388 219.5,896C 221.05,892.396 223.217,889.229 226,886.5C 226.333,886.833 226.667,887.167 227,887.5C 227.667,892.833 227.667,898.167 227,903.5C 221.161,909.177 216.827,915.843 214,923.5C 212.775,928.925 213.609,933.925 216.5,938.5C 215.282,938.109 214.448,938.776 214,940.5C 212.142,952.174 212.142,963.841 214,975.5C 220.071,980.574 225.071,986.574 229,993.5C 232,995.833 235,998.167 238,1000.5C 239.448,1007.78 239.614,1015.12 238.5,1022.5C 237.127,1022.34 235.793,1022.51 234.5,1023C 234.545,1025.64 234.712,1028.47 235,1031.5C 236.252,1033 237.252,1034.67 238,1036.5C 246.046,1037.18 253.379,1039.85 260,1044.5C 259.96,1050.39 260.96,1056.05 263,1061.5C 266.167,1064 269.333,1066.5 272.5,1069C 276.395,1070.27 280.395,1070.77 284.5,1070.5C 285.036,1078.31 286.369,1085.98 288.5,1093.5C 302.496,1092.97 316.496,1092.47 330.5,1092C 338.055,1092.66 344.555,1090.49 350,1085.5C 350.249,1082.82 351.249,1080.49 353,1078.5C 353.965,1080.26 355.132,1080.59 356.5,1079.5C 357.441,1076.18 357.608,1072.85 357,1069.5C 358.753,1070.63 360.587,1071.63 362.5,1072.5C 364.059,1071.55 365.726,1070.89 367.5,1070.5C 370.828,1071.83 374.162,1073.16 377.5,1074.5C 380.19,1072.81 382.19,1070.47 383.5,1067.5C 387.248,1066.16 390.915,1066.32 394.5,1068C 398.535,1071.7 402.202,1075.7 405.5,1080C 414.729,1080.32 423.896,1081.15 433,1082.5C 435.5,1082.33 438,1082.17 440.5,1082C 446.034,1075.8 451.534,1069.64 457,1063.5C 458.626,1064.29 460.126,1065.29 461.5,1066.5C 456.722,1071.61 452.722,1077.28 449.5,1083.5C 449.833,1083.83 450.167,1084.17 450.5,1084.5C 453.515,1082.55 456.681,1080.88 460,1079.5C 463.731,1082.95 466.898,1082.78 469.5,1079C 479.855,1074.72 490.189,1071.22 500.5,1068.5C 503.82,1072.9 507.82,1073.56 512.5,1070.5C 513.701,1065.8 516.701,1062.97 521.5,1062C 522.919,1058.41 525.252,1055.58 528.5,1053.5C 536.184,1055.08 543.517,1057.58 550.5,1061C 557.185,1061.95 563.851,1062.95 570.5,1064C 573.395,1066.32 575.395,1069.16 576.5,1072.5C 576.5,1073.83 576.5,1075.17 576.5,1076.5C 569.146,1079.16 561.979,1082.5 555,1086.5C 550.431,1083.95 545.598,1082.78 540.5,1083C 536.797,1087.52 532.13,1089.19 526.5,1088C 523.298,1092.44 518.965,1095.1 513.5,1096C 507.584,1096.19 501.751,1096.69 496,1097.5C 490.799,1095.2 485.966,1096.04 481.5,1100C 478.132,1100.54 474.799,1100.38 471.5,1099.5C 471.461,1102.32 470.795,1104.99 469.5,1107.5C 462.56,1107.41 456.227,1109.24 450.5,1113C 445.597,1113.94 440.93,1113.27 436.5,1111C 435.978,1110.44 435.645,1109.77 435.5,1109C 439.354,1102.7 437.521,1099.2 430,1098.5C 426.39,1100.12 423.39,1102.45 421,1105.5C 420.667,1105.17 420.333,1104.83 420,1104.5C 417.569,1106.09 414.903,1107.09 412,1107.5C 406.78,1107.41 401.613,1106.91 396.5,1106C 394.543,1104.01 392.543,1102.01 390.5,1100C 384.9,1101.3 379.234,1101.63 373.5,1101C 370.577,1103.05 367.743,1105.21 365,1107.5C 363.814,1113.08 363.148,1118.75 363,1124.5C 356.615,1130.22 350.282,1135.89 344,1141.5C 343.311,1140.64 342.478,1139.98 341.5,1139.5C 336.995,1141.25 332.995,1143.75 329.5,1147C 325.167,1147.33 320.833,1147.67 316.5,1148C 313.833,1150 311.167,1152 308.5,1154C 303.917,1155.14 299.251,1155.81 294.5,1156C 292.875,1156.85 292.542,1157.85 293.5,1159C 300.504,1161.25 307.504,1163.59 314.5,1166C 317.592,1167.42 319.592,1169.76 320.5,1173C 316.247,1175.58 312.247,1178.58 308.5,1182C 299.029,1184.37 290.029,1187.54 281.5,1191.5C 280.5,1191.5 279.5,1191.5 278.5,1191.5C 275.608,1186.96 273.774,1181.96 273,1176.5C 269.644,1171.27 265.31,1169.93 260,1172.5C 255.897,1167.29 252.563,1161.63 250,1155.5C 247.949,1147.58 246.283,1139.58 245,1131.5C 243.833,1129 242,1127.17 239.5,1126C 224.579,1124.8 209.912,1126.13 195.5,1130C 188.549,1137.49 179.882,1140.99 169.5,1140.5C 164.274,1138.55 159.274,1136.05 154.5,1133C 138.833,1120 123.167,1107 107.5,1094C 96.7312,1086.45 85.0645,1080.78 72.5,1077C 59.4138,1076.04 46.4138,1076.71 33.5,1079C 22.1046,1082.08 10.7712,1085.24 -0.5,1088.5C -0.5,725.5 -0.5,362.5 -0.5,-0.5 Z M 335.5,152.5 C 336.675,152.281 337.675,152.614 338.5,153.5C 333.551,163.178 329.884,173.345 327.5,184C 328.722,186.704 329.722,189.538 330.5,192.5C 328.549,195.786 326.215,198.786 323.5,201.5C 318.176,202.495 314.509,200.328 312.5,195C 309.966,194.484 307.8,193.317 306,191.5C 306.434,187.548 306.434,183.548 306,179.5C 305.887,177.026 304.887,175.026 303,173.5C 302.087,170.648 302.92,168.481 305.5,167C 314.138,165.797 321.471,162.13 327.5,156C 330.309,154.907 332.976,153.74 335.5,152.5 Z"/></g>
<g><path style="opacity:0.006" fill="#fefffe" d="M 237.5,1155.5 C 239.033,1159.61 238.367,1160.11 235.5,1157C 236.416,1156.72 237.082,1156.22 237.5,1155.5 Z"/></g>
</svg>
