<?xml version="1.0" encoding="UTF-8"?>
<!DOCTYPE svg PUBLIC "-//W3C//DTD SVG 1.1//EN" "http://www.w3.org/Graphics/SVG/1.1/DTD/svg11.dtd">
<svg xmlns="http://www.w3.org/2000/svg" version="1.1" width="265px" height="170px" style="shape-rendering:geometricPrecision; text-rendering:geometricPrecision; image-rendering:optimizeQuality; fill-rule:evenodd; clip-rule:evenodd" xmlns:xlink="http://www.w3.org/1999/xlink">
<g><path style="opacity:0.012" fill="#fefffe" d="M 182.5,-0.5 C 183.167,-0.5 183.833,-0.5 184.5,-0.5C 185.366,5.78716 189.032,8.28716 195.5,7C 196.665,8.08359 197.998,8.91692 199.5,9.5C 201.08,13.1676 201.747,16.8343 201.5,20.5C 211.604,23.4868 221.938,24.9868 232.5,25C 234.667,27.1667 236.833,29.3333 239,31.5C 239.19,37.4155 239.69,43.2488 240.5,49C 235.074,48.7538 231.574,51.2538 230,56.5C 229.245,59.6883 228.411,62.8549 227.5,66C 230.308,75.9889 231.142,86.1556 230,96.5C 227.715,98.9066 225.549,101.407 223.5,104C 221.212,104.822 218.878,105.489 216.5,106C 207.421,106.823 198.421,108.157 189.5,110C 183.803,112.691 178.97,116.525 175,121.5C 173.595,125.072 173.262,128.739 174,132.5C 175.901,138.628 178.068,144.628 180.5,150.5C 180.169,155.165 178.836,159.498 176.5,163.5C 170.716,161.628 165.049,159.461 159.5,157C 148.167,150.333 136.833,143.667 125.5,137C 121.853,136.226 118.186,135.559 114.5,135C 107.15,128.971 103.65,121.138 104,111.5C 97.0475,105.884 89.2141,102.051 80.5,100C 59.8333,99.6667 39.1667,99.3333 18.5,99C 11.7859,94.9817 5.45255,90.4817 -0.5,85.5C -0.5,84.5 -0.5,83.5 -0.5,82.5C 2.13029,80.3719 4.63029,78.0386 7,75.5C 11.6013,62.9012 19.768,53.4012 31.5,47C 41.372,46.4157 51.0387,44.7491 60.5,42C 71.2344,29.249 84.901,22.9157 101.5,23C 108.5,20.6667 115.5,18.3333 122.5,16C 126.553,13.6133 129.553,10.28 131.5,6C 134.382,4.39207 137.382,3.05874 140.5,2C 150.244,1.18829 159.911,1.68829 169.5,3.5C 174.35,3.56018 178.684,2.22685 182.5,-0.5 Z"/></g>
<g><path style="opacity:0.004" fill="#fefffe" d="M 264.5,46.5 C 264.5,46.8333 264.5,47.1667 264.5,47.5C 256.5,47.1667 256.5,46.8333 264.5,46.5 Z"/></g>
<g><path style="opacity:0.004" fill="#fefffe" d="M 244.5,48.5 C 247.304,47.3622 250.304,47.1955 253.5,48C 250.518,48.498 247.518,48.6646 244.5,48.5 Z"/></g>
<g><path style="opacity:0.004" fill="#fefffe" d="M 179.5,163.5 C 180.833,164.167 180.833,164.167 179.5,163.5 Z"/></g>
<g><path style="opacity:0.004" fill="#fefffe" d="M 182.5,165.5 C 182.897,164.475 183.563,164.308 184.5,165C 183.906,165.464 183.239,165.631 182.5,165.5 Z"/></g>
<g><path style="opacity:0.004" fill="#fefffe" d="M 185.5,166.5 C 185.897,165.475 186.563,165.308 187.5,166C 186.906,166.464 186.239,166.631 185.5,166.5 Z"/></g>
<g><path style="opacity:0.004" fill="#fefffe" d="M 189.5,167.5 C 188.833,166.167 188.833,166.167 189.5,167.5 Z"/></g>
<g><path style="opacity:0.004" fill="#fefffe" d="M 189.5,167.5 C 190.167,167.5 190.5,167.833 190.5,168.5C 190.167,168.167 189.833,167.833 189.5,167.5 Z"/></g>
<g><path style="opacity:0.004" fill="#fefffe" d="M 190.5,168.5 C 191.167,168.5 191.5,168.833 191.5,169.5C 191.167,169.167 190.833,168.833 190.5,168.5 Z"/></g>
</svg>
