<?xml version="1.0" encoding="UTF-8"?>
<!DOCTYPE svg PUBLIC "-//W3C//DTD SVG 1.1//EN" "http://www.w3.org/Graphics/SVG/1.1/DTD/svg11.dtd">
<svg xmlns="http://www.w3.org/2000/svg" version="1.1" width="383px" height="458px" style="shape-rendering:geometricPrecision; text-rendering:geometricPrecision; image-rendering:optimizeQuality; fill-rule:evenodd; clip-rule:evenodd" xmlns:xlink="http://www.w3.org/1999/xlink">
<g><path style="opacity:0.004" fill="#fefffe" d="M 91.5,-0.5 C 91.8333,-0.5 92.1667,-0.5 92.5,-0.5C 92.1667,2.16667 91.8333,2.16667 91.5,-0.5 Z"/></g>
<g><path style="opacity:0.004" fill="#fefffe" d="M 92.5,3.5 C 93.525,3.89657 93.6917,4.56323 93,5.5C 92.5357,4.90558 92.369,4.23891 92.5,3.5 Z"/></g>
<g><path style="opacity:0.004" fill="#fefffe" d="M 93.5,8.5 C 94.5735,9.25057 94.7401,10.2506 94,11.5C 93.5172,10.552 93.3505,9.55198 93.5,8.5 Z"/></g>
<g><path style="opacity:0.004" fill="#fefffe" d="M 94.5,13.5 C 95.5735,14.2506 95.7401,15.2506 95,16.5C 94.5172,15.552 94.3505,14.552 94.5,13.5 Z"/></g>
<g><path style="opacity:0.004" fill="#fefffe" d="M 95.5,18.5 C 96.5735,19.2506 96.7401,20.2506 96,21.5C 95.5172,20.552 95.3505,19.552 95.5,18.5 Z"/></g>
<g><path style="opacity:0.012" fill="#fefffe" d="M 382.5,375.5 C 382.5,376.833 382.5,378.167 382.5,379.5C 373.2,381.352 363.867,383.019 354.5,384.5C 354.261,386.467 354.594,388.301 355.5,390C 345.249,388.526 334.916,387.859 324.5,388C 315.298,392.191 305.798,395.357 296,397.5C 281.201,395.286 266.368,395.119 251.5,397C 240.662,398.542 229.829,400.042 219,401.5C 214.667,400.055 210.501,398.222 206.5,396C 202.167,395.333 197.833,395.333 193.5,396C 178.977,401.856 168.31,411.856 161.5,426C 155.476,428.452 149.643,431.285 144,434.5C 143.517,433.552 143.351,432.552 143.5,431.5C 140.478,431.804 137.478,432.304 134.5,433C 113.5,433.667 92.5,433.667 71.5,433C 51.1629,431.136 30.8296,429.303 10.5,427.5C 7.64839,420.562 9.14839,414.896 15,410.5C 17.8261,404.178 21.1595,398.178 25,392.5C 25.4269,388.324 25.9269,384.158 26.5,380C 25.5052,373.349 23.5052,367.016 20.5,361C 24.1186,355.601 27.6186,350.101 31,344.5C 31.5093,333.379 32.8426,322.379 35,311.5C 36.3926,307.714 38.0593,304.048 40,300.5C 50.7517,290.084 61.0851,279.417 71,268.5C 73.4927,259.183 76.826,250.183 81,241.5C 81.5582,232.467 82.3916,223.467 83.5,214.5C 85.8522,212.329 88.1855,210.162 90.5,208C 89.0834,202.919 88.0834,197.752 87.5,192.5C 89.0223,187.954 90.689,183.454 92.5,179C 91.7826,172.675 91.1159,166.342 90.5,160C 90.6032,158.439 90.9366,156.939 91.5,155.5C 86.9745,146.123 83.3078,136.457 80.5,126.5C 82.0977,122.874 83.5977,119.207 85,115.5C 89.7489,111.422 93.7489,106.755 97,101.5C 97.3172,92.1399 97.9838,82.8066 99,73.5C 99.8996,68.693 102.066,64.693 105.5,61.5C 109.389,60.5558 113.056,59.0558 116.5,57C 124.099,57.8266 130.765,55.8266 136.5,51C 142.936,47.2289 147.103,41.7289 149,34.5C 154.509,24.6426 163.009,20.476 174.5,22C 179.988,23.607 185.322,25.607 190.5,28C 193.516,32.015 197.183,35.3483 201.5,38C 206.375,38.7528 211.208,38.5862 216,37.5C 218.823,38.9832 221.657,40.4832 224.5,42C 232.066,56.5686 240.066,70.9019 248.5,85C 256.886,91.7198 265.553,98.0532 274.5,104C 281.491,103.617 287.991,105.117 294,108.5C 298.717,118.36 302.05,128.694 304,139.5C 307.376,148.25 312.709,155.584 320,161.5C 321.08,163.996 322.414,166.33 324,168.5C 324.307,172.62 323.64,176.62 322,180.5C 319.62,185.427 317.12,190.261 314.5,195C 316.198,199.363 318.698,203.196 322,206.5C 323.53,210.09 324.864,213.757 326,217.5C 326.933,227.302 328.6,236.969 331,246.5C 333.618,251.451 337.284,255.451 342,258.5C 340.614,269.45 345.447,275.283 356.5,276C 360.276,279.048 362.942,282.881 364.5,287.5C 362.06,289.489 359.227,290.823 356,291.5C 352.278,289.962 348.445,289.462 344.5,290C 348.028,293.187 351.861,296.021 356,298.5C 358.697,303.029 358.53,307.196 355.5,311C 349.18,312.584 342.847,312.751 336.5,311.5C 336.343,312.873 336.51,314.207 337,315.5C 340.667,318.167 344.333,320.833 348,323.5C 348.333,326.5 348.667,329.5 349,332.5C 357.35,339.761 366.85,345.095 377.5,348.5C 377.325,355.852 378.158,363.185 380,370.5C 380.374,372.491 381.207,374.158 382.5,375.5 Z"/></g>
<g><path style="opacity:0.004" fill="#fefffe" d="M 96.5,23.5 C 97.5735,24.2506 97.7401,25.2506 97,26.5C 96.5172,25.552 96.3505,24.552 96.5,23.5 Z"/></g>
<g><path style="opacity:0.004" fill="#fefffe" d="M 97.5,28.5 C 98.5735,29.2506 98.7401,30.2506 98,31.5C 97.5172,30.552 97.3505,29.552 97.5,28.5 Z"/></g>
<g><path style="opacity:0.004" fill="#fefffe" d="M 98.5,33.5 C 99.5735,34.2506 99.7401,35.2506 99,36.5C 98.5172,35.552 98.3505,34.552 98.5,33.5 Z"/></g>
<g><path style="opacity:0.004" fill="#fefffe" d="M 99.5,38.5 C 100.573,39.2506 100.74,40.2506 100,41.5C 99.5172,40.552 99.3505,39.552 99.5,38.5 Z"/></g>
<g><path style="opacity:0.004" fill="#fefffe" d="M 100.5,44.5 C 101.525,44.8966 101.692,45.5632 101,46.5C 100.536,45.9056 100.369,45.2389 100.5,44.5 Z"/></g>
<g><path style="opacity:0.004" fill="#fefffe" d="M 101.5,47.5 C 102.833,48.1667 102.833,48.1667 101.5,47.5 Z"/></g>
<g><path style="opacity:0.004" fill="#fefffe" d="M 102.5,49.5 C 103.833,50.1667 103.833,50.1667 102.5,49.5 Z"/></g>
<g><path style="opacity:0.004" fill="#fefffe" d="M 103.5,51.5 C 104.833,52.1667 104.833,52.1667 103.5,51.5 Z"/></g>
<g><path style="opacity:0.004" fill="#fefffe" d="M 104.5,53.5 C 105.833,54.1667 105.833,54.1667 104.5,53.5 Z"/></g>
<g><path style="opacity:0.004" fill="#fefffe" d="M 105.5,55.5 C 106.833,56.1667 106.833,56.1667 105.5,55.5 Z"/></g>
<g><path style="opacity:0.004" fill="#fefffe" d="M 106.5,58.5 C 107.833,59.1667 107.833,59.1667 106.5,58.5 Z"/></g>
<g><path style="opacity:0.004" fill="#fefffe" d="M 10.5,427.5 C 9.83333,428.167 9.83333,428.167 10.5,427.5 Z"/></g>
<g><path style="opacity:0.004" fill="#fefffe" d="M 8.5,429.5 C 9.52502,429.897 9.69169,430.563 9,431.5C 8.53566,430.906 8.36899,430.239 8.5,429.5 Z"/></g>
<g><path style="opacity:0.004" fill="#fefffe" d="M 7.5,432.5 C 8.52502,432.897 8.69169,433.563 8,434.5C 7.53566,433.906 7.36899,433.239 7.5,432.5 Z"/></g>
<g><path style="opacity:0.004" fill="#fefffe" d="M 6.5,451.5 C 6.33398,446.156 6.50065,440.823 7,435.5C 7.81741,441.016 7.65074,446.35 6.5,451.5 Z"/></g>
<g><path style="opacity:0.004" fill="#fefffe" d="M 6.5,451.5 C 5.83333,452.167 5.83333,452.167 6.5,451.5 Z"/></g>
<g><path style="opacity:0.004" fill="#fefffe" d="M 5.5,452.5 C 4.83333,453.167 4.83333,453.167 5.5,452.5 Z"/></g>
<g><path style="opacity:0.004" fill="#fefffe" d="M 4.5,453.5 C 3.83333,454.167 3.83333,454.167 4.5,453.5 Z"/></g>
<g><path style="opacity:0.004" fill="#fefffe" d="M 0.5,455.5 C 1.83333,456.167 1.83333,456.167 0.5,455.5 Z"/></g>
<g><path style="opacity:0.004" fill="#fefffe" d="M -0.5,456.5 C -0.166667,456.5 0.166667,456.5 0.5,456.5C 0.5,456.833 0.5,457.167 0.5,457.5C 0.166667,457.167 -0.166667,456.833 -0.5,456.5 Z"/></g>
</svg>
