<?xml version="1.0" encoding="UTF-8"?>
<!DOCTYPE svg PUBLIC "-//W3C//DTD SVG 1.1//EN" "http://www.w3.org/Graphics/SVG/1.1/DTD/svg11.dtd">
<svg xmlns="http://www.w3.org/2000/svg" version="1.1" width="401px" height="249px" style="shape-rendering:geometricPrecision; text-rendering:geometricPrecision; image-rendering:optimizeQuality; fill-rule:evenodd; clip-rule:evenodd" xmlns:xlink="http://www.w3.org/1999/xlink">
<g><path style="opacity:0.012" fill="#fefffe" d="M 134.5,-0.5 C 134.833,-0.5 135.167,-0.5 135.5,-0.5C 136.65,6.82261 140.65,11.9893 147.5,15C 158.5,15.6667 169.5,15.6667 180.5,15C 183.136,14.0657 185.803,13.2324 188.5,12.5C 193.83,13.333 199.163,14.1664 204.5,15C 210.383,20.1911 217.216,23.3578 225,24.5C 229.823,21.0145 234.656,17.5145 239.5,14C 251.504,13.867 263.504,13.867 275.5,14C 281.724,12.7356 287.891,11.2356 294,9.5C 298.594,14.4737 303.094,19.6404 307.5,25C 311.5,25.6667 315.5,25.6667 319.5,25C 328.231,22.2008 336.897,19.2008 345.5,16C 355.885,15.1303 366.218,15.4636 376.5,17C 378.26,21.4447 379.927,25.9447 381.5,30.5C 372.607,50.8505 371.274,71.6838 377.5,93C 373.833,93.3333 370.167,93.6667 366.5,94C 362.667,97.1667 358.833,100.333 355,103.5C 352.863,109.579 350.529,115.579 348,121.5C 347.601,141.037 341.101,158.204 328.5,173C 322.167,178 315.833,183 309.5,188C 296.519,192.579 283.186,195.579 269.5,197C 262.833,200.333 256.167,203.667 249.5,207C 246.697,211.436 243.531,215.603 240,219.5C 237.184,218.338 234.35,217.171 231.5,216C 225.412,206.041 218.912,205.541 212,214.5C 209.231,225.969 202.064,230.469 190.5,228C 186,224.572 181,223.238 175.5,224C 174.058,228.011 172.058,231.678 169.5,235C 164.869,237.988 159.869,239.822 154.5,240.5C 154.5,239.167 154.5,237.833 154.5,236.5C 146.086,233.463 137.753,230.13 129.5,226.5C 108.993,230.114 88.3265,231.28 67.5,230C 60.9762,224.642 54.3096,219.475 47.5,214.5C 34.8267,197.167 23.6601,178.833 14,159.5C 11,157.167 8,154.833 5,152.5C 3.62754,144.875 3.2942,137.208 4,129.5C 6.37018,122.056 8.53685,114.556 10.5,107C 8.79645,102.059 6.79645,97.2258 4.5,92.5C 3.15017,91.0499 1.4835,90.3832 -0.5,90.5C -0.5,90.1667 -0.5,89.8333 -0.5,89.5C 14.3207,91.2123 29.1541,92.8789 44,94.5C 63.5589,92.9514 75.8923,82.6181 81,63.5C 81.5014,51.3245 84.1681,39.6578 89,28.5C 93.0768,25.212 97.2435,22.0453 101.5,19C 107.596,18.3617 113.596,17.3617 119.5,16C 125.098,10.9086 130.098,5.40858 134.5,-0.5 Z"/></g>
<g><path style="opacity:0.004" fill="#fefffe" d="M 378.5,93.5 C 379.833,94.1667 379.833,94.1667 378.5,93.5 Z"/></g>
<g><path style="opacity:0.004" fill="#fefffe" d="M 380.5,94.5 C 381.833,95.1667 381.833,95.1667 380.5,94.5 Z"/></g>
<g><path style="opacity:0.004" fill="#fefffe" d="M 383.5,96.5 C 382.833,95.1667 382.833,95.1667 383.5,96.5 Z"/></g>
<g><path style="opacity:0.004" fill="#fefffe" d="M 383.5,96.5 C 384.833,97.1667 384.833,97.1667 383.5,96.5 Z"/></g>
<g><path style="opacity:0.004" fill="#fefffe" d="M 385.5,97.5 C 386.833,98.1667 386.833,98.1667 385.5,97.5 Z"/></g>
<g><path style="opacity:0.004" fill="#fefffe" d="M 388.5,99.5 C 387.833,98.1667 387.833,98.1667 388.5,99.5 Z"/></g>
<g><path style="opacity:0.004" fill="#fefffe" d="M 388.5,99.5 C 389.873,99.3433 391.207,99.51 392.5,100C 390.934,100.765 389.601,100.598 388.5,99.5 Z"/></g>
<g><path style="opacity:0.004" fill="#fefffe" d="M 400.5,100.5 C 400.5,100.833 400.5,101.167 400.5,101.5C 396.5,101.167 396.5,100.833 400.5,100.5 Z"/></g>
<g><path style="opacity:0.004" fill="#fefffe" d="M 289.5,216.5 C 290.601,215.402 291.934,215.235 293.5,216C 292.207,216.49 290.873,216.657 289.5,216.5 Z"/></g>
<g><path style="opacity:0.004" fill="#fefffe" d="M 299.5,216.5 C 301.288,215.378 303.288,215.211 305.5,216C 303.527,216.495 301.527,216.662 299.5,216.5 Z"/></g>
<g><path style="opacity:0.004" fill="#fefffe" d="M 282.5,217.5 C 283.601,216.402 284.934,216.235 286.5,217C 285.207,217.49 283.873,217.657 282.5,217.5 Z"/></g>
<g><path style="opacity:0.004" fill="#fefffe" d="M 272.5,218.5 C 274.288,217.378 276.288,217.211 278.5,218C 276.527,218.495 274.527,218.662 272.5,218.5 Z"/></g>
<g><path style="opacity:0.004" fill="#fefffe" d="M 261.5,219.5 C 263.288,218.378 265.288,218.211 267.5,219C 265.527,219.495 263.527,219.662 261.5,219.5 Z"/></g>
<g><path style="opacity:0.004" fill="#fefffe" d="M 242.5,220.5 C 246.981,219.352 251.648,219.185 256.5,220C 251.845,220.499 247.179,220.666 242.5,220.5 Z"/></g>
<g><path style="opacity:0.004" fill="#fefffe" d="M 154.5,248.5 C 154.167,248.5 153.833,248.5 153.5,248.5C 153.833,243.167 154.167,243.167 154.5,248.5 Z"/></g>
</svg>
