<?xml version="1.0" encoding="UTF-8"?>
<!DOCTYPE svg PUBLIC "-//W3C//DTD SVG 1.1//EN" "http://www.w3.org/Graphics/SVG/1.1/DTD/svg11.dtd">
<svg xmlns="http://www.w3.org/2000/svg" version="1.1" width="580px" height="354px" style="shape-rendering:geometricPrecision; text-rendering:geometricPrecision; image-rendering:optimizeQuality; fill-rule:evenodd; clip-rule:evenodd" xmlns:xlink="http://www.w3.org/1999/xlink">
<g><path style="opacity:0.012" fill="#fefffe" d="M 190.5,-0.5 C 288.833,-0.5 387.167,-0.5 485.5,-0.5C 487.502,2.33375 490.002,4.66708 493,6.5C 493.423,15.5374 492.923,24.5374 491.5,33.5C 491.882,38.2455 492.716,42.9121 494,47.5C 500.596,54.7955 508.596,59.7955 518,62.5C 517.28,70.0534 519.28,76.7201 524,82.5C 524.333,85.8333 524.667,89.1667 525,92.5C 527.213,95.0946 529.047,97.9279 530.5,101C 529.777,103.553 528.444,105.72 526.5,107.5C 530.943,116.489 534.609,125.822 537.5,135.5C 536.523,138.263 535.857,141.096 535.5,144C 536.692,152.099 538.358,160.099 540.5,168C 539.006,170.639 538.339,173.472 538.5,176.5C 542.893,176.457 543.226,176.957 539.5,178C 537.164,182.182 533.831,185.015 529.5,186.5C 522.436,185.32 515.436,183.82 508.5,182C 501.663,177.747 494.663,173.747 487.5,170C 481.404,161.882 473.571,156.382 464,153.5C 452.885,156.307 442.718,161.141 433.5,168C 424.491,172.171 415.491,176.338 406.5,180.5C 405.881,188.57 403.881,196.237 400.5,203.5C 387.284,193.821 372.951,185.988 357.5,180C 349.569,178.152 341.569,177.152 333.5,177C 331.392,177.36 329.392,178.027 327.5,179C 320.066,185.769 312.066,191.769 303.5,197C 293.22,196.409 282.887,196.409 272.5,197C 259.628,208.106 244.961,216.106 228.5,221C 214.564,233.931 201.731,247.764 190,262.5C 185.018,266.648 180.184,270.981 175.5,275.5C 168.217,274.368 160.883,274.201 153.5,275C 144.715,281.379 135.049,286.046 124.5,289C 122.508,289.574 121.008,290.741 120,292.5C 119.692,291.692 119.192,291.025 118.5,290.5C 114.874,288.902 111.207,287.402 107.5,286C 96.9602,285.482 86.4602,285.982 76,287.5C 69.491,286.387 62.991,285.221 56.5,284C 47.4852,278.656 40.4852,273.656 35.5,269C 35.2596,266.109 36.0929,263.609 38,261.5C 44.6286,252.537 52.2952,244.537 61,237.5C 61.9704,235.726 62.8037,233.893 63.5,232C 59.1001,225.257 55.1001,218.257 51.5,211C 53.1951,206.443 55.0284,201.943 57,197.5C 62.3333,193.5 67,188.833 71,183.5C 73.093,176.281 74.093,168.948 74,161.5C 70.2744,156.772 66.9411,151.772 64,146.5C 58.3333,141.5 52.6667,136.5 47,131.5C 46.2571,129.559 46.4238,127.726 47.5,126C 50.2004,125.747 52.867,125.747 55.5,126C 59.6149,123.552 63.4482,120.719 67,117.5C 67.4966,115.19 67.6633,112.857 67.5,110.5C 73.2979,110.481 78.9646,110.981 84.5,112C 92.9603,104.268 102.294,97.7679 112.5,92.5C 113.334,81.4996 118.5,78.8329 128,84.5C 131.357,80.1051 135.857,78.2718 141.5,79C 143.333,77.1667 145.167,75.3333 147,73.5C 146.607,68.8676 146.607,64.2009 147,59.5C 151.721,55.0475 155.721,50.0475 159,44.5C 166.666,36.8248 173.666,28.4915 180,19.5C 181.739,17.2589 183.906,15.5922 186.5,14.5C 188.591,9.71485 189.924,4.71485 190.5,-0.5 Z"/></g>
<g><path style="opacity:0.004" fill="#fefffe" d="M 552.5,172.5 C 553.833,173.167 553.833,173.167 552.5,172.5 Z"/></g>
<g><path style="opacity:0.004" fill="#fefffe" d="M 555.5,173.5 C 555.897,172.475 556.563,172.308 557.5,173C 556.906,173.464 556.239,173.631 555.5,173.5 Z"/></g>
<g><path style="opacity:0.004" fill="#fefffe" d="M 550.5,173.5 C 551.833,174.167 551.833,174.167 550.5,173.5 Z"/></g>
<g><path style="opacity:0.004" fill="#fefffe" d="M 560.5,173.5 C 561.833,174.167 561.833,174.167 560.5,173.5 Z"/></g>
<g><path style="opacity:0.004" fill="#fefffe" d="M 547.5,174.5 C 548.833,175.167 548.833,175.167 547.5,174.5 Z"/></g>
<g><path style="opacity:0.004" fill="#fefffe" d="M 565.5,175.5 C 564.833,174.167 564.833,174.167 565.5,175.5 Z"/></g>
<g><path style="opacity:0.004" fill="#fefffe" d="M 544.5,175.5 C 545.833,176.167 545.833,176.167 544.5,175.5 Z"/></g>
<g><path style="opacity:0.004" fill="#fefffe" d="M 565.5,175.5 C 566.525,175.897 566.692,176.563 566,177.5C 565.536,176.906 565.369,176.239 565.5,175.5 Z"/></g>
<g><path style="opacity:0.004" fill="#fefffe" d="M 567.5,180.5 C 566.833,179.167 566.833,179.167 567.5,180.5 Z"/></g>
<g><path style="opacity:0.004" fill="#fefffe" d="M 567.5,180.5 C 568.167,180.5 568.5,180.833 568.5,181.5C 568.167,181.167 567.833,180.833 567.5,180.5 Z"/></g>
<g><path style="opacity:0.004" fill="#fefffe" d="M 568.5,181.5 C 569.833,182.167 569.833,182.167 568.5,181.5 Z"/></g>
<g><path style="opacity:0.004" fill="#fefffe" d="M 579.5,185.5 C 579.5,185.833 579.5,186.167 579.5,186.5C 570.167,186.167 570.167,185.833 579.5,185.5 Z"/></g>
<g><path style="opacity:0.004" fill="#fefffe" d="M 400.5,203.5 C 401.167,203.5 401.5,203.833 401.5,204.5C 401.167,204.167 400.833,203.833 400.5,203.5 Z"/></g>
<g><path style="opacity:0.004" fill="#fefffe" d="M 401.5,204.5 C 402.167,204.5 402.5,204.833 402.5,205.5C 402.167,205.167 401.833,204.833 401.5,204.5 Z"/></g>
<g><path style="opacity:0.004" fill="#fefffe" d="M 402.5,205.5 C 403.167,205.5 403.5,205.833 403.5,206.5C 403.167,206.167 402.833,205.833 402.5,205.5 Z"/></g>
<g><path style="opacity:0.004" fill="#fefffe" d="M 403.5,206.5 C 404.167,206.5 404.5,206.833 404.5,207.5C 404.167,207.167 403.833,206.833 403.5,206.5 Z"/></g>
<g><path style="opacity:0.004" fill="#fefffe" d="M 404.5,207.5 C 405.167,207.5 405.5,207.833 405.5,208.5C 405.167,208.167 404.833,207.833 404.5,207.5 Z"/></g>
<g><path style="opacity:0.004" fill="#fefffe" d="M 405.5,208.5 C 406.167,208.5 406.5,208.833 406.5,209.5C 406.167,209.167 405.833,208.833 405.5,208.5 Z"/></g>
<g><path style="opacity:0.004" fill="#fefffe" d="M 406.5,209.5 C 407.167,209.5 407.5,209.833 407.5,210.5C 407.167,210.167 406.833,209.833 406.5,209.5 Z"/></g>
<g><path style="opacity:0.004" fill="#fefffe" d="M 407.5,210.5 C 408.833,211.167 408.833,211.167 407.5,210.5 Z"/></g>
<g><path style="opacity:0.004" fill="#fefffe" d="M 417.5,221.5 C 416.833,220.167 416.833,220.167 417.5,221.5 Z"/></g>
<g><path style="opacity:0.004" fill="#fefffe" d="M 417.5,221.5 C 418.167,221.5 418.5,221.833 418.5,222.5C 418.167,222.167 417.833,221.833 417.5,221.5 Z"/></g>
<g><path style="opacity:0.004" fill="#fefffe" d="M 418.5,222.5 C 419.167,222.5 419.5,222.833 419.5,223.5C 419.167,223.167 418.833,222.833 418.5,222.5 Z"/></g>
<g><path style="opacity:0.004" fill="#fefffe" d="M 419.5,223.5 C 420.167,223.5 420.5,223.833 420.5,224.5C 420.167,224.167 419.833,223.833 419.5,223.5 Z"/></g>
<g><path style="opacity:0.004" fill="#fefffe" d="M 420.5,224.5 C 421.167,224.5 421.5,224.833 421.5,225.5C 421.167,225.167 420.833,224.833 420.5,224.5 Z"/></g>
<g><path style="opacity:0.004" fill="#fefffe" d="M 421.5,225.5 C 422.167,225.5 422.5,225.833 422.5,226.5C 422.167,226.167 421.833,225.833 421.5,225.5 Z"/></g>
<g><path style="opacity:0.004" fill="#fefffe" d="M 422.5,226.5 C 423.167,226.5 423.5,226.833 423.5,227.5C 423.167,227.167 422.833,226.833 422.5,226.5 Z"/></g>
<g><path style="opacity:0.004" fill="#fefffe" d="M 423.5,227.5 C 424.167,227.5 424.5,227.833 424.5,228.5C 424.167,228.167 423.833,227.833 423.5,227.5 Z"/></g>
<g><path style="opacity:0.004" fill="#fefffe" d="M 424.5,228.5 C 425.167,228.5 425.5,228.833 425.5,229.5C 425.167,229.167 424.833,228.833 424.5,228.5 Z"/></g>
<g><path style="opacity:0.004" fill="#fefffe" d="M 425.5,229.5 C 426.833,230.167 426.833,230.167 425.5,229.5 Z"/></g>
<g><path style="opacity:0.004" fill="#fefffe" d="M 427.5,232.5 C 426.833,231.167 426.833,231.167 427.5,232.5 Z"/></g>
<g><path style="opacity:0.004" fill="#fefffe" d="M 427.5,232.5 C 428.167,232.5 428.5,232.833 428.5,233.5C 428.167,233.167 427.833,232.833 427.5,232.5 Z"/></g>
<g><path style="opacity:0.004" fill="#fefffe" d="M 428.5,233.5 C 429.833,234.167 429.833,234.167 428.5,233.5 Z"/></g>
<g><path style="opacity:0.004" fill="#fefffe" d="M 431.5,237.5 C 430.833,236.167 430.833,236.167 431.5,237.5 Z"/></g>
<g><path style="opacity:0.004" fill="#fefffe" d="M 431.5,237.5 C 432.833,238.167 432.833,238.167 431.5,237.5 Z"/></g>
<g><path style="opacity:0.004" fill="#fefffe" d="M 433.5,240.5 C 434.634,242.966 434.801,245.633 434,248.5C 433.503,245.854 433.336,243.187 433.5,240.5 Z"/></g>
<g><path style="opacity:0.004" fill="#fefffe" d="M 432.5,254.5 C 433.525,254.897 433.692,255.563 433,256.5C 432.536,255.906 432.369,255.239 432.5,254.5 Z"/></g>
<g><path style="opacity:0.004" fill="#fefffe" d="M 431.5,257.5 C 432.833,258.167 432.833,258.167 431.5,257.5 Z"/></g>
<g><path style="opacity:0.004" fill="#fefffe" d="M 430.5,259.5 C 431.833,260.167 431.833,260.167 430.5,259.5 Z"/></g>
<g><path style="opacity:0.004" fill="#fefffe" d="M 429.5,263.5 C 429.369,262.761 429.536,262.094 430,261.5C 430.692,262.437 430.525,263.103 429.5,263.5 Z"/></g>
<g><path style="opacity:0.004" fill="#fefffe" d="M 429.5,263.5 C 428.833,264.167 428.833,264.167 429.5,263.5 Z"/></g>
<g><path style="opacity:0.004" fill="#fefffe" d="M 427.5,265.5 C 428.833,266.167 428.833,266.167 427.5,265.5 Z"/></g>
<g><path style="opacity:0.004" fill="#fefffe" d="M 427.5,266.5 C 426.833,267.167 426.833,267.167 427.5,266.5 Z"/></g>
<g><path style="opacity:0.004" fill="#fefffe" d="M 23.5,269.5 C 23.8966,268.475 24.5632,268.308 25.5,269C 24.9056,269.464 24.2389,269.631 23.5,269.5 Z"/></g>
<g><path style="opacity:0.004" fill="#fefffe" d="M 28.5,269.5 C 27.8333,268.167 27.8333,268.167 28.5,269.5 Z"/></g>
<g><path style="opacity:0.004" fill="#fefffe" d="M 20.5,269.5 C 21.5735,270.251 21.7401,271.251 21,272.5C 20.5172,271.552 20.3505,270.552 20.5,269.5 Z"/></g>
<g><path style="opacity:0.004" fill="#fefffe" d="M 28.5,269.5 C 29.1667,269.5 29.5,269.833 29.5,270.5C 29.1667,270.167 28.8333,269.833 28.5,269.5 Z"/></g>
<g><path style="opacity:0.004" fill="#fefffe" d="M 424.5,269.5 C 425.833,270.167 425.833,270.167 424.5,269.5 Z"/></g>
<g><path style="opacity:0.004" fill="#fefffe" d="M 29.5,270.5 C 30.1667,270.5 30.5,270.833 30.5,271.5C 30.1667,271.167 29.8333,270.833 29.5,270.5 Z"/></g>
<g><path style="opacity:0.004" fill="#fefffe" d="M 424.5,270.5 C 423.833,271.167 423.833,271.167 424.5,270.5 Z"/></g>
<g><path style="opacity:0.004" fill="#fefffe" d="M 30.5,271.5 C 31.1667,271.5 31.5,271.833 31.5,272.5C 31.1667,272.167 30.8333,271.833 30.5,271.5 Z"/></g>
<g><path style="opacity:0.004" fill="#fefffe" d="M 31.5,272.5 C 32.1667,272.5 32.5,272.833 32.5,273.5C 32.1667,273.167 31.8333,272.833 31.5,272.5 Z"/></g>
<g><path style="opacity:0.004" fill="#fefffe" d="M 354.5,273.5 C 356.628,272.371 358.961,272.204 361.5,273C 359.19,273.497 356.857,273.663 354.5,273.5 Z"/></g>
<g><path style="opacity:0.004" fill="#fefffe" d="M 422.5,272.5 C 423.833,273.167 423.833,273.167 422.5,272.5 Z"/></g>
<g><path style="opacity:0.004" fill="#fefffe" d="M 32.5,273.5 C 33.1667,273.5 33.5,273.833 33.5,274.5C 33.1667,274.167 32.8333,273.833 32.5,273.5 Z"/></g>
<g><path style="opacity:0.004" fill="#fefffe" d="M 352.5,273.5 C 353.833,274.167 353.833,274.167 352.5,273.5 Z"/></g>
<g><path style="opacity:0.004" fill="#fefffe" d="M 364.5,274.5 C 365.601,273.402 366.934,273.235 368.5,274C 367.207,274.49 365.873,274.657 364.5,274.5 Z"/></g>
<g><path style="opacity:0.004" fill="#fefffe" d="M 422.5,273.5 C 421.833,274.167 421.833,274.167 422.5,273.5 Z"/></g>
<g><path style="opacity:0.004" fill="#fefffe" d="M 33.5,274.5 C 34.1667,274.5 34.5,274.833 34.5,275.5C 34.1667,275.167 33.8333,274.833 33.5,274.5 Z"/></g>
<g><path style="opacity:0.004" fill="#fefffe" d="M 349.5,274.5 C 350.833,275.167 350.833,275.167 349.5,274.5 Z"/></g>
<g><path style="opacity:0.004" fill="#fefffe" d="M 370.5,275.5 C 370.897,274.475 371.563,274.308 372.5,275C 371.906,275.464 371.239,275.631 370.5,275.5 Z"/></g>
<g><path style="opacity:0.004" fill="#fefffe" d="M 34.5,275.5 C 35.1667,275.5 35.5,275.833 35.5,276.5C 35.1667,276.167 34.8333,275.833 34.5,275.5 Z"/></g>
<g><path style="opacity:0.004" fill="#fefffe" d="M 346.5,276.5 C 346.897,275.475 347.563,275.308 348.5,276C 347.906,276.464 347.239,276.631 346.5,276.5 Z"/></g>
<g><path style="opacity:0.004" fill="#fefffe" d="M 373.5,275.5 C 374.833,276.167 374.833,276.167 373.5,275.5 Z"/></g>
<g><path style="opacity:0.004" fill="#fefffe" d="M 19.5,278.5 C 19.369,277.761 19.5357,277.094 20,276.5C 20.6917,277.437 20.525,278.103 19.5,278.5 Z"/></g>
<g><path style="opacity:0.004" fill="#fefffe" d="M 35.5,276.5 C 36.8333,277.167 36.8333,277.167 35.5,276.5 Z"/></g>
<g><path style="opacity:0.004" fill="#fefffe" d="M 343.5,277.5 C 343.897,276.475 344.563,276.308 345.5,277C 344.906,277.464 344.239,277.631 343.5,277.5 Z"/></g>
<g><path style="opacity:0.004" fill="#fefffe" d="M 375.5,276.5 C 376.833,277.167 376.833,277.167 375.5,276.5 Z"/></g>
<g><path style="opacity:0.004" fill="#fefffe" d="M -0.5,277.5 C 0.166667,277.5 0.5,277.833 0.5,278.5C 0.166667,278.167 -0.166667,277.833 -0.5,277.5 Z"/></g>
<g><path style="opacity:0.004" fill="#fefffe" d="M 341.5,277.5 C 342.833,278.167 342.833,278.167 341.5,277.5 Z"/></g>
<g><path style="opacity:0.004" fill="#fefffe" d="M 377.5,277.5 C 378.833,278.167 378.833,278.167 377.5,277.5 Z"/></g>
<g><path style="opacity:0.004" fill="#fefffe" d="M 418.5,277.5 C 419.833,278.167 419.833,278.167 418.5,277.5 Z"/></g>
<g><path style="opacity:0.004" fill="#fefffe" d="M 0.5,278.5 C 1.16667,278.5 1.5,278.833 1.5,279.5C 1.16667,279.167 0.833333,278.833 0.5,278.5 Z"/></g>
<g><path style="opacity:0.004" fill="#fefffe" d="M 19.5,278.5 C 18.8333,279.167 18.8333,279.167 19.5,278.5 Z"/></g>
<g><path style="opacity:0.004" fill="#fefffe" d="M 339.5,278.5 C 340.833,279.167 340.833,279.167 339.5,278.5 Z"/></g>
<g><path style="opacity:0.004" fill="#fefffe" d="M 379.5,278.5 C 380.833,279.167 380.833,279.167 379.5,278.5 Z"/></g>
<g><path style="opacity:0.004" fill="#fefffe" d="M 418.5,278.5 C 417.833,279.167 417.833,279.167 418.5,278.5 Z"/></g>
<g><path style="opacity:0.004" fill="#fefffe" d="M 1.5,279.5 C 2.16667,279.5 2.5,279.833 2.5,280.5C 2.16667,280.167 1.83333,279.833 1.5,279.5 Z"/></g>
<g><path style="opacity:0.004" fill="#fefffe" d="M 18.5,279.5 C 17.8333,280.167 17.8333,280.167 18.5,279.5 Z"/></g>
<g><path style="opacity:0.004" fill="#fefffe" d="M 337.5,279.5 C 338.833,280.167 338.833,280.167 337.5,279.5 Z"/></g>
<g><path style="opacity:0.004" fill="#fefffe" d="M 381.5,279.5 C 382.833,280.167 382.833,280.167 381.5,279.5 Z"/></g>
<g><path style="opacity:0.004" fill="#fefffe" d="M 417.5,279.5 C 416.833,280.167 416.833,280.167 417.5,279.5 Z"/></g>
<g><path style="opacity:0.004" fill="#fefffe" d="M 2.5,280.5 C 3.83333,281.167 3.83333,281.167 2.5,280.5 Z"/></g>
<g><path style="opacity:0.004" fill="#fefffe" d="M 17.5,280.5 C 16.8333,281.167 16.8333,281.167 17.5,280.5 Z"/></g>
<g><path style="opacity:0.004" fill="#fefffe" d="M 335.5,280.5 C 336.833,281.167 336.833,281.167 335.5,280.5 Z"/></g>
<g><path style="opacity:0.004" fill="#fefffe" d="M 383.5,280.5 C 384.833,281.167 384.833,281.167 383.5,280.5 Z"/></g>
<g><path style="opacity:0.004" fill="#fefffe" d="M 416.5,280.5 C 415.833,281.167 415.833,281.167 416.5,280.5 Z"/></g>
<g><path style="opacity:0.004" fill="#fefffe" d="M 335.5,281.5 C 334.833,282.167 334.833,282.167 335.5,281.5 Z"/></g>
<g><path style="opacity:0.004" fill="#fefffe" d="M 385.5,282.5 C 385.897,281.475 386.563,281.308 387.5,282C 386.906,282.464 386.239,282.631 385.5,282.5 Z"/></g>
<g><path style="opacity:0.004" fill="#fefffe" d="M 415.5,281.5 C 414.833,282.167 414.833,282.167 415.5,281.5 Z"/></g>
<g><path style="opacity:0.004" fill="#fefffe" d="M 4.5,283.5 C 3.83333,282.167 3.83333,282.167 4.5,283.5 Z"/></g>
<g><path style="opacity:0.004" fill="#fefffe" d="M 14.5,282.5 C 15.8333,283.167 15.8333,283.167 14.5,282.5 Z"/></g>
<g><path style="opacity:0.004" fill="#fefffe" d="M 332.5,282.5 C 333.833,283.167 333.833,283.167 332.5,282.5 Z"/></g>
<g><path style="opacity:0.004" fill="#fefffe" d="M 388.5,282.5 C 389.833,283.167 389.833,283.167 388.5,282.5 Z"/></g>
<g><path style="opacity:0.004" fill="#fefffe" d="M 412.5,282.5 C 413.833,283.167 413.833,283.167 412.5,282.5 Z"/></g>
<g><path style="opacity:0.004" fill="#fefffe" d="M 4.5,283.5 C 5.16667,283.5 5.5,283.833 5.5,284.5C 5.16667,284.167 4.83333,283.833 4.5,283.5 Z"/></g>
<g><path style="opacity:0.004" fill="#fefffe" d="M 332.5,283.5 C 331.833,284.167 331.833,284.167 332.5,283.5 Z"/></g>
<g><path style="opacity:0.004" fill="#fefffe" d="M 390.5,284.5 C 390.897,283.475 391.563,283.308 392.5,284C 391.906,284.464 391.239,284.631 390.5,284.5 Z"/></g>
<g><path style="opacity:0.004" fill="#fefffe" d="M 410.5,283.5 C 411.833,284.167 411.833,284.167 410.5,283.5 Z"/></g>
<g><path style="opacity:0.004" fill="#fefffe" d="M 5.5,284.5 C 6.83333,285.167 6.83333,285.167 5.5,284.5 Z"/></g>
<g><path style="opacity:0.004" fill="#fefffe" d="M 13.5,284.5 C 14.8333,285.167 14.8333,285.167 13.5,284.5 Z"/></g>
<g><path style="opacity:0.004" fill="#fefffe" d="M 329.5,284.5 C 330.833,285.167 330.833,285.167 329.5,284.5 Z"/></g>
<g><path style="opacity:0.004" fill="#fefffe" d="M 393.5,284.5 C 394.833,285.167 394.833,285.167 393.5,284.5 Z"/></g>
<g><path style="opacity:0.004" fill="#fefffe" d="M 407.5,285.5 C 407.897,284.475 408.563,284.308 409.5,285C 408.906,285.464 408.239,285.631 407.5,285.5 Z"/></g>
<g><path style="opacity:0.004" fill="#fefffe" d="M 13.5,285.5 C 12.3991,286.598 11.0657,286.765 9.5,286C 10.7932,285.51 12.1266,285.343 13.5,285.5 Z"/></g>
<g><path style="opacity:0.004" fill="#fefffe" d="M 398.5,286.5 C 400.966,285.366 403.633,285.199 406.5,286C 403.854,286.497 401.187,286.664 398.5,286.5 Z"/></g>
<g><path style="opacity:0.004" fill="#fefffe" d="M 327.5,286.5 C 328.833,287.167 328.833,287.167 327.5,286.5 Z"/></g>
<g><path style="opacity:0.004" fill="#fefffe" d="M 327.5,287.5 C 326.833,288.167 326.833,288.167 327.5,287.5 Z"/></g>
<g><path style="opacity:0.004" fill="#fefffe" d="M 325.5,289.5 C 326.833,290.167 326.833,290.167 325.5,289.5 Z"/></g>
<g><path style="opacity:0.004" fill="#fefffe" d="M 324.5,291.5 C 325.833,292.167 325.833,292.167 324.5,291.5 Z"/></g>
<g><path style="opacity:0.004" fill="#fefffe" d="M 322.5,294.5 C 323.833,295.167 323.833,295.167 322.5,294.5 Z"/></g>
<g><path style="opacity:0.004" fill="#fefffe" d="M 321.5,296.5 C 322.833,297.167 322.833,297.167 321.5,296.5 Z"/></g>
<g><path style="opacity:0.004" fill="#fefffe" d="M 120.5,297.5 C 121.573,298.251 121.74,299.251 121,300.5C 120.517,299.552 120.351,298.552 120.5,297.5 Z"/></g>
<g><path style="opacity:0.004" fill="#fefffe" d="M 320.5,298.5 C 321.833,299.167 321.833,299.167 320.5,298.5 Z"/></g>
<g><path style="opacity:0.004" fill="#fefffe" d="M 320.5,299.5 C 319.833,300.167 319.833,300.167 320.5,299.5 Z"/></g>
<g><path style="opacity:0.004" fill="#fefffe" d="M 318.5,301.5 C 319.833,302.167 319.833,302.167 318.5,301.5 Z"/></g>
<g><path style="opacity:0.004" fill="#fefffe" d="M 318.5,302.5 C 317.833,303.167 317.833,303.167 318.5,302.5 Z"/></g>
<g><path style="opacity:0.004" fill="#fefffe" d="M 316.5,304.5 C 317.833,305.167 317.833,305.167 316.5,304.5 Z"/></g>
<g><path style="opacity:0.004" fill="#fefffe" d="M 121.5,306.5 C 122.833,307.167 122.833,307.167 121.5,306.5 Z"/></g>
<g><path style="opacity:0.004" fill="#fefffe" d="M 315.5,306.5 C 316.833,307.167 316.833,307.167 315.5,306.5 Z"/></g>
<g><path style="opacity:0.004" fill="#fefffe" d="M 315.5,307.5 C 314.833,308.167 314.833,308.167 315.5,307.5 Z"/></g>
<g><path style="opacity:0.004" fill="#fefffe" d="M 120.5,308.5 C 121.833,309.167 121.833,309.167 120.5,308.5 Z"/></g>
<g><path style="opacity:0.004" fill="#fefffe" d="M 313.5,309.5 C 314.833,310.167 314.833,310.167 313.5,309.5 Z"/></g>
<g><path style="opacity:0.004" fill="#fefffe" d="M 119.5,310.5 C 120.833,311.167 120.833,311.167 119.5,310.5 Z"/></g>
<g><path style="opacity:0.004" fill="#fefffe" d="M 312.5,311.5 C 313.833,312.167 313.833,312.167 312.5,311.5 Z"/></g>
<g><path style="opacity:0.004" fill="#fefffe" d="M 118.5,312.5 C 119.833,313.167 119.833,313.167 118.5,312.5 Z"/></g>
<g><path style="opacity:0.004" fill="#fefffe" d="M 312.5,312.5 C 311.833,313.167 311.833,313.167 312.5,312.5 Z"/></g>
<g><path style="opacity:0.004" fill="#fefffe" d="M 117.5,314.5 C 118.833,315.167 118.833,315.167 117.5,314.5 Z"/></g>
<g><path style="opacity:0.004" fill="#fefffe" d="M 310.5,314.5 C 311.833,315.167 311.833,315.167 310.5,314.5 Z"/></g>
<g><path style="opacity:0.004" fill="#fefffe" d="M 309.5,316.5 C 310.833,317.167 310.833,317.167 309.5,316.5 Z"/></g>
<g><path style="opacity:0.004" fill="#fefffe" d="M 115.5,317.5 C 116.833,318.167 116.833,318.167 115.5,317.5 Z"/></g>
<g><path style="opacity:0.004" fill="#fefffe" d="M 309.5,317.5 C 308.833,318.167 308.833,318.167 309.5,317.5 Z"/></g>
<g><path style="opacity:0.004" fill="#fefffe" d="M 114.5,319.5 C 115.833,320.167 115.833,320.167 114.5,319.5 Z"/></g>
<g><path style="opacity:0.004" fill="#fefffe" d="M 307.5,319.5 C 308.833,320.167 308.833,320.167 307.5,319.5 Z"/></g>
<g><path style="opacity:0.004" fill="#fefffe" d="M 307.5,320.5 C 306.833,321.167 306.833,321.167 307.5,320.5 Z"/></g>
<g><path style="opacity:0.004" fill="#fefffe" d="M 113.5,321.5 C 114.833,322.167 114.833,322.167 113.5,321.5 Z"/></g>
<g><path style="opacity:0.004" fill="#fefffe" d="M 305.5,324.5 C 305.369,323.761 305.536,323.094 306,322.5C 306.692,323.437 306.525,324.103 305.5,324.5 Z"/></g>
<g><path style="opacity:0.004" fill="#fefffe" d="M 112.5,323.5 C 113.833,324.167 113.833,324.167 112.5,323.5 Z"/></g>
<g><path style="opacity:0.004" fill="#fefffe" d="M 305.5,324.5 C 305.631,325.239 305.464,325.906 305,326.5C 304.308,325.563 304.475,324.897 305.5,324.5 Z"/></g>
<g><path style="opacity:0.004" fill="#fefffe" d="M 111.5,325.5 C 112.833,326.167 112.833,326.167 111.5,325.5 Z"/></g>
<g><path style="opacity:0.004" fill="#fefffe" d="M 110.5,327.5 C 111.833,328.167 111.833,328.167 110.5,327.5 Z"/></g>
<g><path style="opacity:0.004" fill="#fefffe" d="M 303.5,327.5 C 304.833,328.167 304.833,328.167 303.5,327.5 Z"/></g>
<g><path style="opacity:0.004" fill="#fefffe" d="M 109.5,329.5 C 110.833,330.167 110.833,330.167 109.5,329.5 Z"/></g>
<g><path style="opacity:0.004" fill="#fefffe" d="M 302.5,329.5 C 303.833,330.167 303.833,330.167 302.5,329.5 Z"/></g>
<g><path style="opacity:0.004" fill="#fefffe" d="M 108.5,331.5 C 109.833,332.167 109.833,332.167 108.5,331.5 Z"/></g>
<g><path style="opacity:0.004" fill="#fefffe" d="M 301.5,331.5 C 302.833,332.167 302.833,332.167 301.5,331.5 Z"/></g>
<g><path style="opacity:0.004" fill="#fefffe" d="M 107.5,333.5 C 108.833,334.167 108.833,334.167 107.5,333.5 Z"/></g>
<g><path style="opacity:0.004" fill="#fefffe" d="M 300.5,335.5 C 300.369,334.761 300.536,334.094 301,333.5C 301.692,334.437 301.525,335.103 300.5,335.5 Z"/></g>
<g><path style="opacity:0.004" fill="#fefffe" d="M 300.5,335.5 C 300.631,336.239 300.464,336.906 300,337.5C 299.308,336.563 299.475,335.897 300.5,335.5 Z"/></g>
<g><path style="opacity:0.004" fill="#fefffe" d="M 298.5,338.5 C 299.833,339.167 299.833,339.167 298.5,338.5 Z"/></g>
<g><path style="opacity:0.004" fill="#fefffe" d="M 297.5,340.5 C 298.638,343.304 298.805,346.304 298,349.5C 297.502,346.518 297.335,343.518 297.5,340.5 Z"/></g>
<g><path style="opacity:0.004" fill="#fefffe" d="M 106.5,353.5 C 106.167,353.5 105.833,353.5 105.5,353.5C 105.833,346.833 106.167,346.833 106.5,353.5 Z"/></g>
</svg>
