<?xml version="1.0" encoding="UTF-8"?>
<!DOCTYPE svg PUBLIC "-//W3C//DTD SVG 1.1//EN" "http://www.w3.org/Graphics/SVG/1.1/DTD/svg11.dtd">
<svg xmlns="http://www.w3.org/2000/svg" version="1.1" width="508px" height="318px" style="shape-rendering:geometricPrecision; text-rendering:geometricPrecision; image-rendering:optimizeQuality; fill-rule:evenodd; clip-rule:evenodd" xmlns:xlink="http://www.w3.org/1999/xlink">
<g><path style="opacity:0.004" fill="#fefffe" d="M 506.5,-0.5 C 506.833,-0.5 507.167,-0.5 507.5,-0.5C 507.5,-0.166667 507.5,0.166667 507.5,0.5C 507.167,0.166667 506.833,-0.166667 506.5,-0.5 Z"/></g>
<g><path style="opacity:0.004" fill="#fefffe" d="M 504.5,2.5 C 505.833,3.16667 505.833,3.16667 504.5,2.5 Z"/></g>
<g><path style="opacity:0.004" fill="#fefffe" d="M 504.5,3.5 C 503.833,4.16667 503.833,4.16667 504.5,3.5 Z"/></g>
<g><path style="opacity:0.004" fill="#fefffe" d="M 503.5,4.5 C 502.833,5.16667 502.833,5.16667 503.5,4.5 Z"/></g>
<g><path style="opacity:0.004" fill="#fefffe" d="M 501.5,9.5 C 502.833,10.1667 502.833,10.1667 501.5,9.5 Z"/></g>
<g><path style="opacity:0.004" fill="#fefffe" d="M 501.5,10.5 C 500.833,11.1667 500.833,11.1667 501.5,10.5 Z"/></g>
<g><path style="opacity:0.004" fill="#fefffe" d="M 500.5,11.5 C 499.833,12.1667 499.833,12.1667 500.5,11.5 Z"/></g>
<g><path style="opacity:0.004" fill="#fefffe" d="M 493.5,17.5 C 494.833,18.1667 494.833,18.1667 493.5,17.5 Z"/></g>
<g><path style="opacity:0.004" fill="#fefffe" d="M 493.5,18.5 C 492.833,19.1667 492.833,19.1667 493.5,18.5 Z"/></g>
<g><path style="opacity:0.012" fill="#fefffe" d="M 488.5,23.5 C 488.622,34.2082 486.955,44.7082 483.5,55C 484.842,57.015 485.342,59.1817 485,61.5C 480.879,66.7485 477.545,72.4152 475,78.5C 472.833,80.6667 470.667,82.8333 468.5,85C 463.692,86.5688 459.359,88.9021 455.5,92C 457.365,97.7673 461.032,99.434 466.5,97C 467.826,94.8416 469.493,93.0082 471.5,91.5C 472.5,92 473.5,92.5 474.5,93C 473.407,95.4433 472.407,97.9433 471.5,100.5C 472.025,101.192 472.692,101.692 473.5,102C 472.584,102.374 471.75,102.874 471,103.5C 470.286,107.104 468.453,109.937 465.5,112C 457.77,113.726 450.937,117.226 445,122.5C 442.456,128.297 440.623,134.297 439.5,140.5C 428.364,143.371 417.364,143.037 406.5,139.5C 401.771,141.723 400.437,145.223 402.5,150C 400.833,152.333 399.167,154.667 397.5,157C 395.5,157.667 393.5,158.333 391.5,159C 381.401,159.049 371.401,159.716 361.5,161C 360.336,162.994 359.669,165.161 359.5,167.5C 362.068,173.666 360.401,178.166 354.5,181C 347.101,181.848 339.767,181.515 332.5,180C 329.902,177.299 327.569,174.466 325.5,171.5C 322.691,175.477 319.691,179.31 316.5,183C 307.443,185.94 299.61,190.774 293,197.5C 295.527,205.378 294.86,213.045 291,220.5C 284.36,226.319 277.36,231.652 270,236.5C 264.04,246.919 258.207,257.419 252.5,268C 254.456,267.778 256.29,266.945 258,265.5C 256.036,269.812 252.869,273.312 248.5,276C 244.274,277.798 239.94,279.298 235.5,280.5C 223.135,276.392 210.469,274.559 197.5,275C 189.56,278.232 181.393,280.399 173,281.5C 167.507,281.78 162.34,280.613 157.5,278C 152.666,274.748 147.666,271.748 142.5,269C 138.167,268.333 133.833,268.333 129.5,269C 116.345,275.373 102.678,280.373 88.5,284C 82,289.833 75.5,295.667 69,301.5C 65.6705,306.986 62.1705,312.32 58.5,317.5C 57.8333,317.5 57.1667,317.5 56.5,317.5C 49.0128,303.193 41.5128,288.86 34,274.5C 33.2846,267.75 33.7846,261.084 35.5,254.5C 34.9804,251.088 34.1471,247.755 33,244.5C 29.5,241 26,237.5 22.5,234C 19.5285,233.206 16.5285,232.539 13.5,232C 14.448,231.517 15.448,231.351 16.5,231.5C 16.3896,228.941 17.0562,226.608 18.5,224.5C 20.8333,223.333 23.1667,222.167 25.5,221C 33.5,220.667 41.5,220.333 49.5,220C 56.9064,216.556 62.7398,211.39 67,204.5C 70.8639,181.787 73.6973,158.953 75.5,136C 74.8773,132.519 74.3773,129.019 74,125.5C 71.0372,123.539 68.3706,121.206 66,118.5C 61.2545,98.272 57.0878,77.9387 53.5,57.5C 55.2643,50.2479 56.5976,42.9146 57.5,35.5C 56.0222,35.762 54.6888,35.4287 53.5,34.5C 56.002,33.2078 58.6686,32.5412 61.5,32.5C 68.4208,33.0402 75.0874,34.5402 81.5,37C 91.5,43.6667 101.5,50.3333 111.5,57C 123.5,62.6667 135.5,68.3333 147.5,74C 146.833,74.6667 146.167,75.3333 145.5,76C 149.64,80.5735 154.64,83.9069 160.5,86C 163.491,91.6552 168.158,94.9885 174.5,96C 176.711,98.7848 179.377,101.118 182.5,103C 194.905,107.024 206.905,112.024 218.5,118C 222.261,118.738 225.928,118.405 229.5,117C 234.938,111.281 241.605,108.281 249.5,108C 251.5,107 253.5,106 255.5,105C 263.546,104.599 271.546,103.766 279.5,102.5C 299.105,107.235 318.438,112.901 337.5,119.5C 341.833,117.333 346.167,115.167 350.5,113C 355.969,103.879 363.969,98.2124 374.5,96C 377.167,94.3333 379.833,92.6667 382.5,91C 384.257,88.1544 386.257,85.4878 388.5,83C 398.709,81.8662 408.375,79.0329 417.5,74.5C 419.957,71.086 422.291,67.586 424.5,64C 436.035,60.2247 446.035,53.8914 454.5,45C 456.459,44.0691 458.459,43.2357 460.5,42.5C 462.037,38.4214 463.871,34.4214 466,30.5C 469.401,28.8094 472.901,27.3094 476.5,26C 477.64,24.0266 478.973,22.1933 480.5,20.5C 482.098,19.5153 483.765,19.3486 485.5,20C 485.974,21.7286 486.974,22.8953 488.5,23.5 Z"/></g>
<g><path style="opacity:0.004" fill="#fefffe" d="M 492.5,19.5 C 491.833,20.1667 491.833,20.1667 492.5,19.5 Z"/></g>
<g><path style="opacity:0.004" fill="#fefffe" d="M 491.5,20.5 C 490.833,21.1667 490.833,21.1667 491.5,20.5 Z"/></g>
<g><path style="opacity:0.004" fill="#fefffe" d="M 490.5,21.5 C 489.833,22.1667 489.833,22.1667 490.5,21.5 Z"/></g>
<g><path style="opacity:0.004" fill="#fefffe" d="M 489.5,22.5 C 488.833,23.1667 488.833,23.1667 489.5,22.5 Z"/></g>
<g><path style="opacity:0.004" fill="#fefffe" d="M 482.5,100.5 C 482.897,99.475 483.563,99.3083 484.5,100C 483.906,100.464 483.239,100.631 482.5,100.5 Z"/></g>
<g><path style="opacity:0.004" fill="#fefffe" d="M 476.5,101.5 C 477.601,100.402 478.934,100.235 480.5,101C 479.207,101.49 477.873,101.657 476.5,101.5 Z"/></g>
<g><path style="opacity:0.004" fill="#fefffe" d="M 362.5,171.5 C 363.833,172.167 363.833,172.167 362.5,171.5 Z"/></g>
<g><path style="opacity:0.004" fill="#fefffe" d="M 364.5,173.5 C 365.833,174.167 365.833,174.167 364.5,173.5 Z"/></g>
<g><path style="opacity:0.004" fill="#fefffe" d="M 365.5,175.5 C 366.833,176.167 366.833,176.167 365.5,175.5 Z"/></g>
<g><path style="opacity:0.004" fill="#fefffe" d="M 366.5,177.5 C 367.833,178.167 367.833,178.167 366.5,177.5 Z"/></g>
<g><path style="opacity:0.004" fill="#fefffe" d="M 367.5,179.5 C 368.833,180.167 368.833,180.167 367.5,179.5 Z"/></g>
<g><path style="opacity:0.004" fill="#fefffe" d="M 368.5,183.5 C 369.525,183.897 369.692,184.563 369,185.5C 368.536,184.906 368.369,184.239 368.5,183.5 Z"/></g>
<g><path style="opacity:0.004" fill="#fefffe" d="M 369.5,188.5 C 370.598,189.601 370.765,190.934 370,192.5C 369.51,191.207 369.343,189.873 369.5,188.5 Z"/></g>
<g><path style="opacity:0.004" fill="#fefffe" d="M -0.5,229.5 C -0.5,229.167 -0.5,228.833 -0.5,228.5C 3.5,228.833 3.5,229.167 -0.5,229.5 Z"/></g>
<g><path style="opacity:0.004" fill="#fefffe" d="M 4.5,230.5 C 5.25057,229.427 6.25057,229.26 7.5,230C 6.55198,230.483 5.55198,230.649 4.5,230.5 Z"/></g>
<g><path style="opacity:0.004" fill="#fefffe" d="M 9.5,231.5 C 9.89657,230.475 10.5632,230.308 11.5,231C 10.9056,231.464 10.2389,231.631 9.5,231.5 Z"/></g>
</svg>
