<?xml version="1.0" encoding="UTF-8"?>
<!DOCTYPE svg PUBLIC "-//W3C//DTD SVG 1.1//EN" "http://www.w3.org/Graphics/SVG/1.1/DTD/svg11.dtd">
<svg xmlns="http://www.w3.org/2000/svg" version="1.1" width="447px" height="304px" style="shape-rendering:geometricPrecision; text-rendering:geometricPrecision; image-rendering:optimizeQuality; fill-rule:evenodd; clip-rule:evenodd" xmlns:xlink="http://www.w3.org/1999/xlink">
<g><path style="opacity:0.012" fill="#fefffe" d="M 217.5,-0.5 C 217.833,-0.5 218.167,-0.5 218.5,-0.5C 219.514,6.12018 220.347,12.7868 221,19.5C 222.333,21.5 223.667,23.5 225,25.5C 225.962,32.903 227.296,40.2364 229,47.5C 232.267,49.1011 235.767,49.9345 239.5,50C 243.104,55.0584 247.271,59.5584 252,63.5C 253,66.1667 254,68.8333 255,71.5C 262.914,66.2564 270.248,60.2564 277,53.5C 285.043,57.7162 289.21,64.3829 289.5,73.5C 292.84,76.4047 295.673,76.0714 298,72.5C 299.888,67.0552 302.555,62.0552 306,57.5C 310.077,54.212 314.244,51.0453 318.5,48C 320.635,47.3653 322.635,47.6986 324.5,49C 326.645,52.3124 329.312,55.1457 332.5,57.5C 340.126,54.5196 344.46,48.853 345.5,40.5C 347.768,39.4557 350.101,39.289 352.5,40C 355,42.5 357.5,45 360,47.5C 359.649,45.1141 359.815,42.7808 360.5,40.5C 367.177,46.3461 374.51,51.1794 382.5,55C 397.114,57.9752 411.78,58.1418 426.5,55.5C 432.295,57.0986 437.962,59.0986 443.5,61.5C 444.65,66.9434 445.65,72.2767 446.5,77.5C 446.5,77.8333 446.5,78.1667 446.5,78.5C 439.345,89.6432 433.678,101.477 429.5,114C 428.964,135.756 432.13,156.923 439,177.5C 440.339,185.369 441.839,193.202 443.5,201C 441.918,208.247 440.085,215.413 438,222.5C 433.167,228 428.333,233.5 423.5,239C 417.167,242 410.833,245 404.5,248C 398.833,248.333 393.167,248.667 387.5,249C 383.993,251.254 380.327,253.254 376.5,255C 369.233,262.931 362.733,271.431 357,280.5C 347.602,292.079 335.436,297.912 320.5,298C 313.985,296.502 308.652,293.169 304.5,288C 301.327,285.913 297.994,284.079 294.5,282.5C 292.556,283.189 290.556,283.689 288.5,284C 284.047,288.721 279.047,292.721 273.5,296C 253.505,295.499 233.505,295.832 213.5,297C 208.705,297.161 205.372,299.328 203.5,303.5C 203.167,303.5 202.833,303.5 202.5,303.5C 200.324,288.139 195.824,273.472 189,259.5C 188.146,251.813 187.146,244.146 186,236.5C 173.25,228.541 160.417,220.708 147.5,213C 141.207,211.725 134.874,211.392 128.5,212C 109.875,216.979 91.8753,223.646 74.5,232C 70.3053,232.809 66.3053,232.309 62.5,230.5C 59.7267,224.557 56.7267,218.724 53.5,213C 49.7808,212.612 46.1141,211.945 42.5,211C 35.9403,205.411 28.2736,202.911 19.5,203.5C 17.9593,199.827 18.2927,196.327 20.5,193C 20.2645,192.127 19.9312,191.293 19.5,190.5C 24.2995,189.184 28.7995,187.184 33,184.5C 40.3543,186.493 46.3543,184.493 51,178.5C 51.3744,176.102 51.3744,173.769 51,171.5C 53.4464,169.041 55.9464,166.708 58.5,164.5C 60.5098,166.171 62.8431,166.838 65.5,166.5C 65.6653,162.818 65.4986,159.152 65,155.5C 64.7547,153.337 63.7547,151.67 62,150.5C 62.2506,142.183 60.9173,134.183 58,126.5C 49.6859,119.008 50.0193,112.008 59,105.5C 59.1116,101.377 60.945,98.2105 64.5,96C 63.7362,93.9307 63.2362,91.764 63,89.5C 60.1483,85.7958 57.815,81.7958 56,77.5C 49.1437,75.6485 43.6437,71.8152 39.5,66C 33.8183,65.051 28.4849,63.2176 23.5,60.5C 22.5224,60.9767 21.6891,61.6433 21,62.5C 14.2689,58.9791 7.1022,56.9791 -0.5,56.5C -0.5,55.5 -0.5,54.5 -0.5,53.5C 2.20781,52.5041 2.87447,50.8375 1.5,48.5C 3.48763,43.0043 6.15429,37.8376 9.5,33C 13.1414,34.2016 16.9747,35.0349 21,35.5C 24.9094,35.5433 28.2427,34.21 31,31.5C 33.3997,32.0441 35.733,32.7108 38,33.5C 39.6883,32.6753 39.8549,31.6753 38.5,30.5C 39.9667,30.277 41.4667,29.9437 43,29.5C 45.0836,25.6641 47.417,21.9974 50,18.5C 53.0757,19.2883 56.2423,19.7883 59.5,20C 61.9203,26.1685 65.5869,31.5018 70.5,36C 77.2614,40.13 83.7614,44.63 90,49.5C 93.8574,58.7349 96.6907,68.2349 98.5,78C 108.85,84.176 119.516,89.8426 130.5,95C 136.5,99.6667 142.5,104.333 148.5,109C 159.139,112.449 169.806,112.782 180.5,110C 188.031,107.237 195.364,103.904 202.5,100C 219.901,97.2529 227.401,87.0862 225,69.5C 219.391,61.4081 216.391,52.4081 216,42.5C 213.699,39.2115 211.866,35.7115 210.5,32C 212.016,24.2476 212.849,16.4143 213,8.5C 214.527,5.44689 216.027,2.44689 217.5,-0.5 Z"/></g>
<g><path style="opacity:0.004" fill="#fefffe" d="M 54.5,8.5 C 55.525,8.89657 55.6917,9.56323 55,10.5C 54.5357,9.90558 54.369,9.23891 54.5,8.5 Z"/></g>
<g><path style="opacity:0.004" fill="#fefffe" d="M 53.5,11.5 C 54.8333,12.1667 54.8333,12.1667 53.5,11.5 Z"/></g>
<g><path style="opacity:0.004" fill="#fefffe" d="M 52.5,15.5 C 52.369,14.7611 52.5357,14.0944 53,13.5C 53.6917,14.4368 53.525,15.1034 52.5,15.5 Z"/></g>
<g><path style="opacity:0.004" fill="#fefffe" d="M 52.5,15.5 C 52.631,16.2389 52.4643,16.9056 52,17.5C 51.3083,16.5632 51.475,15.8966 52.5,15.5 Z"/></g>
<g><path style="opacity:0.004" fill="#fefffe" d="M 20.5,227.5 C 20.8966,226.475 21.5632,226.308 22.5,227C 21.9056,227.464 21.2389,227.631 20.5,227.5 Z"/></g>
<g><path style="opacity:0.004" fill="#fefffe" d="M 25.5,227.5 C 25.8966,226.475 26.5632,226.308 27.5,227C 26.9056,227.464 26.2389,227.631 25.5,227.5 Z"/></g>
<g><path style="opacity:0.004" fill="#fefffe" d="M 20.5,227.5 C 21.2389,227.631 21.9056,227.464 22.5,227C 21.5632,226.308 20.8966,226.475 20.5,227.5 Z"/></g>
<g><path style="opacity:0.004" fill="#fefffe" d="M 28.5,228.5 C 28.8966,227.475 29.5632,227.308 30.5,228C 29.9056,228.464 29.2389,228.631 28.5,228.5 Z"/></g>
<g><path style="opacity:0.004" fill="#fefffe" d="M 31.5,228.5 C 32.8333,229.167 32.8333,229.167 31.5,228.5 Z"/></g>
<g><path style="opacity:0.004" fill="#fefffe" d="M 37.5,230.5 C 38.1667,229.167 38.8333,229.167 39.5,230.5C 38.8333,230.5 38.1667,230.5 37.5,230.5 Z"/></g>
<g><path style="opacity:0.004" fill="#fefffe" d="M 18.5,230.5 C 19.525,230.897 19.6917,231.563 19,232.5C 18.5357,231.906 18.369,231.239 18.5,230.5 Z"/></g>
<g><path style="opacity:0.004" fill="#fefffe" d="M 34.5,230.5 C 35.8333,231.167 35.8333,231.167 34.5,230.5 Z"/></g>
<g><path style="opacity:0.004" fill="#fefffe" d="M 37.5,230.5 C 36.8333,231.167 36.8333,231.167 37.5,230.5 Z"/></g>
<g><path style="opacity:0.004" fill="#fefffe" d="M 39.5,230.5 C 40.8333,231.167 40.8333,231.167 39.5,230.5 Z"/></g>
<g><path style="opacity:0.004" fill="#fefffe" d="M 62.5,230.5 C 61.8333,231.167 61.8333,231.167 62.5,230.5 Z"/></g>
<g><path style="opacity:0.004" fill="#fefffe" d="M 41.5,231.5 C 42.8333,232.167 42.8333,232.167 41.5,231.5 Z"/></g>
<g><path style="opacity:0.004" fill="#fefffe" d="M 43.5,232.5 C 44.8333,233.167 44.8333,233.167 43.5,232.5 Z"/></g>
<g><path style="opacity:0.004" fill="#fefffe" d="M 17.5,233.5 C 18.8333,234.167 18.8333,234.167 17.5,233.5 Z"/></g>
<g><path style="opacity:0.004" fill="#fefffe" d="M 45.5,234.5 C 45.8966,233.475 46.5632,233.308 47.5,234C 46.9056,234.464 46.2389,234.631 45.5,234.5 Z"/></g>
<g><path style="opacity:0.004" fill="#fefffe" d="M 57.5,233.5 C 58.8333,234.167 58.8333,234.167 57.5,233.5 Z"/></g>
<g><path style="opacity:0.004" fill="#fefffe" d="M 48.5,235.5 C 49.6009,234.402 50.9343,234.235 52.5,235C 51.2068,235.49 49.8734,235.657 48.5,235.5 Z"/></g>
<g><path style="opacity:0.004" fill="#fefffe" d="M 55.5,234.5 C 56.8333,235.167 56.8333,235.167 55.5,234.5 Z"/></g>
<g><path style="opacity:0.004" fill="#fefffe" d="M 15.5,235.5 C 16.8333,236.167 16.8333,236.167 15.5,235.5 Z"/></g>
<g><path style="opacity:0.004" fill="#fefffe" d="M 18.5,241.5 C 17.8333,240.167 17.8333,240.167 18.5,241.5 Z"/></g>
<g><path style="opacity:0.004" fill="#fefffe" d="M 18.5,241.5 C 19.1667,241.5 19.5,241.833 19.5,242.5C 19.1667,242.167 18.8333,241.833 18.5,241.5 Z"/></g>
<g><path style="opacity:0.004" fill="#fefffe" d="M 19.5,242.5 C 20.8333,243.167 20.8333,243.167 19.5,242.5 Z"/></g>
<g><path style="opacity:0.004" fill="#fefffe" d="M 22.5,244.5 C 21.8333,243.167 21.8333,243.167 22.5,244.5 Z"/></g>
<g><path style="opacity:0.004" fill="#fefffe" d="M 22.5,244.5 C 23.1667,244.5 23.5,244.833 23.5,245.5C 23.1667,245.167 22.8333,244.833 22.5,244.5 Z"/></g>
<g><path style="opacity:0.004" fill="#fefffe" d="M 23.5,245.5 C 24.2389,245.369 24.9056,245.536 25.5,246C 24.5632,246.692 23.8966,246.525 23.5,245.5 Z"/></g>
<g><path style="opacity:0.004" fill="#fefffe" d="M 26.5,246.5 C 27.8333,247.167 27.8333,247.167 26.5,246.5 Z"/></g>
<g><path style="opacity:0.004" fill="#fefffe" d="M 28.5,247.5 C 29.8333,248.167 29.8333,248.167 28.5,247.5 Z"/></g>
<g><path style="opacity:0.004" fill="#fefffe" d="M 31.5,249.5 C 30.8333,248.167 30.8333,248.167 31.5,249.5 Z"/></g>
<g><path style="opacity:0.004" fill="#fefffe" d="M 31.5,249.5 C 32.8333,250.167 32.8333,250.167 31.5,249.5 Z"/></g>
<g><path style="opacity:0.004" fill="#fefffe" d="M 33.5,250.5 C 34.8333,251.167 34.8333,251.167 33.5,250.5 Z"/></g>
<g><path style="opacity:0.004" fill="#fefffe" d="M 35.5,252.5 C 36.5735,253.251 36.7401,254.251 36,255.5C 35.5172,254.552 35.3505,253.552 35.5,252.5 Z"/></g>
<g><path style="opacity:0.004" fill="#fefffe" d="M 35.5,259.5 C 36.6129,260.946 36.7796,262.613 36,264.5C 35.5065,262.866 35.3398,261.199 35.5,259.5 Z"/></g>
<g><path style="opacity:0.004" fill="#fefffe" d="M 34.5,269.5 C 34.369,268.761 34.5357,268.094 35,267.5C 35.6917,268.437 35.525,269.103 34.5,269.5 Z"/></g>
<g><path style="opacity:0.004" fill="#fefffe" d="M 34.5,269.5 C 35.525,269.103 35.6917,268.437 35,267.5C 34.5357,268.094 34.369,268.761 34.5,269.5 Z"/></g>
<g><path style="opacity:0.004" fill="#fefffe" d="M 30.5,270.5 C 31.8333,271.167 31.8333,271.167 30.5,270.5 Z"/></g>
</svg>
