<?xml version="1.0" encoding="UTF-8"?>
<!DOCTYPE svg PUBLIC "-//W3C//DTD SVG 1.1//EN" "http://www.w3.org/Graphics/SVG/1.1/DTD/svg11.dtd">
<svg xmlns="http://www.w3.org/2000/svg" version="1.1" width="459px" height="214px" style="shape-rendering:geometricPrecision; text-rendering:geometricPrecision; image-rendering:optimizeQuality; fill-rule:evenodd; clip-rule:evenodd" xmlns:xlink="http://www.w3.org/1999/xlink">
<g><path style="opacity:0.012" fill="#fefffe" d="M 277.5,-0.5 C 279.167,-0.5 280.833,-0.5 282.5,-0.5C 288.266,3.55851 294.266,7.39184 300.5,11C 313.624,12.6401 325.957,9.97347 337.5,3C 343.315,1.87118 348.981,0.704514 354.5,-0.5C 356.833,-0.5 359.167,-0.5 361.5,-0.5C 367.217,0.575288 372.717,2.57529 378,5.5C 381.763,13.5487 384.763,21.882 387,30.5C 389.5,33 392,35.5 394.5,38C 403.374,40.7318 411.874,44.2318 420,48.5C 424.038,57.4092 428.205,66.2425 432.5,75C 440.404,76.5592 448.071,78.8926 455.5,82C 456.897,83.3103 457.897,84.8103 458.5,86.5C 458.5,87.5 458.5,88.5 458.5,89.5C 448.97,99.1975 438.97,108.364 428.5,117C 421.312,119.297 413.978,120.964 406.5,122C 404.415,124.982 403.081,128.315 402.5,132C 405.082,142.592 404.915,153.092 402,163.5C 393.385,171.444 384.719,179.444 376,187.5C 374.1,191.203 372.6,195.037 371.5,199C 362.874,198.757 354.207,199.09 345.5,200C 343.667,201.167 341.833,202.333 340,203.5C 335.849,201.188 331.683,201.354 327.5,204C 326.292,206.25 324.959,208.417 323.5,210.5C 320.984,211.33 318.65,212.33 316.5,213.5C 315.167,213.5 313.833,213.5 312.5,213.5C 310.723,212.4 308.723,211.566 306.5,211C 295.377,200.934 283.043,192.6 269.5,186C 268.577,183.959 268.244,181.792 268.5,179.5C 266.473,179.662 264.473,179.495 262.5,179C 256.5,175.667 250.5,172.333 244.5,169C 236.402,167.809 228.735,168.976 221.5,172.5C 219.962,172.327 218.462,171.994 217,171.5C 209.786,175.107 202.452,178.441 195,181.5C 190.197,179.766 187.03,181.432 185.5,186.5C 179.202,188.556 172.868,188.389 166.5,186C 159.5,185.333 152.5,185.333 145.5,186C 139.189,188.127 132.856,190.127 126.5,192C 122.202,199.247 115.869,201.581 107.5,199C 105.957,197.286 104.29,195.786 102.5,194.5C 96.6627,194.334 91.6627,196.167 87.5,200C 80.1379,202.292 75.3045,199.792 73,192.5C 71.1552,194.087 69.1552,195.421 67,196.5C 64.6667,195.5 62.3333,194.5 60,193.5C 54.0523,196.606 47.719,198.273 41,198.5C 30.444,194.808 21.2774,188.975 13.5,181C 12.255,180.209 10.9217,179.709 9.5,179.5C 9.61071,178.883 9.94404,178.383 10.5,178C 6.92978,171.025 3.76311,163.858 1,156.5C 0.333333,152.167 0.333333,147.833 1,143.5C 4.71203,138.121 9.3787,133.787 15,130.5C 19.3333,120.5 23.6667,110.5 28,100.5C 34.5682,98.9322 38.9015,94.9322 41,88.5C 43.7109,84.7881 47.0442,81.7881 51,79.5C 55.2368,72.1927 59.0702,64.6927 62.5,57C 65.1123,56.3605 67.4457,55.1938 69.5,53.5C 74.7184,51.4788 79.0517,52.6455 82.5,57C 87.2279,57.1942 88.8946,59.3608 87.5,63.5C 89.0718,70.4035 93.4051,74.0702 100.5,74.5C 101.531,75.7003 102.365,77.0337 103,78.5C 108.556,70.8987 114.556,70.5654 121,77.5C 121.86,82.3882 123.693,86.8882 126.5,91C 136.321,90.7834 145.654,88.4501 154.5,84C 158.313,80.2643 162.313,76.7643 166.5,73.5C 164.502,69.3233 161.169,66.8233 156.5,66C 151.448,65.2563 146.448,64.2563 141.5,63C 140.257,61.8455 139.257,60.5122 138.5,59C 145.267,57.7135 151.934,56.0468 158.5,54C 160.349,52.907 162.016,51.5737 163.5,50C 169.017,49.916 174.351,48.916 179.5,47C 184.175,43.6605 189.175,40.8271 194.5,38.5C 199.198,34.0591 204.031,29.7258 209,25.5C 209.084,19.9828 210.084,14.6494 212,9.5C 220.176,2.44322 229.676,-0.390117 240.5,1C 243.453,3.79304 246.787,5.95971 250.5,7.5C 259.275,3.56988 268.275,0.903214 277.5,-0.5 Z"/></g>
<g><path style="opacity:0.004" fill="#fefffe" d="M 53.5,45.5 C 54.8333,46.1667 54.8333,46.1667 53.5,45.5 Z"/></g>
<g><path style="opacity:0.004" fill="#fefffe" d="M 56.5,47.5 C 55.8333,46.1667 55.8333,46.1667 56.5,47.5 Z"/></g>
<g><path style="opacity:0.004" fill="#fefffe" d="M 56.5,47.5 C 57.8333,48.1667 57.8333,48.1667 56.5,47.5 Z"/></g>
<g><path style="opacity:0.004" fill="#fefffe" d="M 59.5,49.5 C 58.8333,48.1667 58.8333,48.1667 59.5,49.5 Z"/></g>
<g><path style="opacity:0.004" fill="#fefffe" d="M 59.5,49.5 C 60.8333,50.1667 60.8333,50.1667 59.5,49.5 Z"/></g>
<g><path style="opacity:0.004" fill="#fefffe" d="M 62.5,51.5 C 61.8333,50.1667 61.8333,50.1667 62.5,51.5 Z"/></g>
<g><path style="opacity:0.004" fill="#fefffe" d="M 62.5,51.5 C 63.8333,52.1667 63.8333,52.1667 62.5,51.5 Z"/></g>
<g><path style="opacity:0.004" fill="#fefffe" d="M 65.5,53.5 C 64.8333,52.1667 64.8333,52.1667 65.5,53.5 Z"/></g>
<g><path style="opacity:0.004" fill="#fefffe" d="M 65.5,53.5 C 66.8333,54.1667 66.8333,54.1667 65.5,53.5 Z"/></g>
<g><path style="opacity:0.004" fill="#fefffe" d="M 9.5,179.5 C 8.83333,180.167 8.83333,180.167 9.5,179.5 Z"/></g>
<g><path style="opacity:0.004" fill="#fefffe" d="M 6.5,180.5 C 7.83333,181.167 7.83333,181.167 6.5,180.5 Z"/></g>
<g><path style="opacity:0.004" fill="#fefffe" d="M 4.5,181.5 C 5.83333,182.167 5.83333,182.167 4.5,181.5 Z"/></g>
<g><path style="opacity:0.004" fill="#fefffe" d="M 4.5,182.5 C 3.83333,183.167 3.83333,183.167 4.5,182.5 Z"/></g>
<g><path style="opacity:0.004" fill="#fefffe" d="M 3.5,183.5 C 2.83333,184.167 2.83333,184.167 3.5,183.5 Z"/></g>
<g><path style="opacity:0.004" fill="#fefffe" d="M 2.5,184.5 C 1.83333,185.167 1.83333,185.167 2.5,184.5 Z"/></g>
<g><path style="opacity:0.004" fill="#fefffe" d="M 1.5,185.5 C 0.833333,186.167 0.833333,186.167 1.5,185.5 Z"/></g>
<g><path style="opacity:0.004" fill="#fefffe" d="M -0.5,186.5 C -0.166667,186.5 0.166667,186.5 0.5,186.5C 0.31468,187.17 -0.0186536,187.17 -0.5,186.5 Z"/></g>
</svg>
