<?xml version="1.0" encoding="UTF-8"?>
<!DOCTYPE svg PUBLIC "-//W3C//DTD SVG 1.1//EN" "http://www.w3.org/Graphics/SVG/1.1/DTD/svg11.dtd">
<svg xmlns="http://www.w3.org/2000/svg" version="1.1" width="410px" height="222px" style="shape-rendering:geometricPrecision; text-rendering:geometricPrecision; image-rendering:optimizeQuality; fill-rule:evenodd; clip-rule:evenodd" xmlns:xlink="http://www.w3.org/1999/xlink">
<g><path style="opacity:0.012" fill="#fefffe" d="M 202.5,-0.5 C 204.167,-0.5 205.833,-0.5 207.5,-0.5C 221.391,0.598616 235.391,2.09862 249.5,4C 268.314,13.2378 286.647,23.2378 304.5,34C 320.557,34.487 336.057,37.6536 351,43.5C 357.789,49.9573 363.456,57.2906 368,65.5C 372.371,70.5229 377.871,73.6896 384.5,75C 392.882,75.7726 401.215,75.6059 409.5,74.5C 409.5,75.1667 409.5,75.8333 409.5,76.5C 401.397,82.7279 392.73,88.2279 383.5,93C 372.998,95.8615 362.331,97.8615 351.5,99C 339.876,100.314 331.21,105.981 325.5,116C 320.475,116.328 315.475,116.328 310.5,116C 304.824,121.495 300.158,127.662 296.5,134.5C 280.821,124.248 263.821,121.082 245.5,125C 226.603,130.949 208.27,138.283 190.5,147C 187.308,149.692 183.975,152.192 180.5,154.5C 175.997,160.501 170.997,166.001 165.5,171C 137.959,188.054 107.959,197.054 75.5,198C 63.5363,200.216 51.5363,202.216 39.5,204C 29.3177,202.594 19.3177,203.428 9.5,206.5C 7.52698,209.64 5.36031,212.64 3,215.5C 3.77867,191.274 8.77867,167.941 18,145.5C 18.6667,140.833 18.6667,136.167 18,131.5C 16.9597,126.415 15.9597,121.415 15,116.5C 17.172,115.415 19.172,114.081 21,112.5C 24.4527,107.379 28.2861,102.546 32.5,98C 38.8835,96.2813 42.3835,92.1146 43,85.5C 49.4442,80.6903 55.6109,75.5236 61.5,70C 72.6112,66.463 83.6112,62.6297 94.5,58.5C 99.0441,51.9118 103.711,45.4118 108.5,39C 129.222,32.5695 150.222,27.2362 171.5,23C 180.135,17.8655 186.468,10.6989 190.5,1.5C 194.647,0.833013 198.647,0.166346 202.5,-0.5 Z"/></g>
<g><path style="opacity:0.004" fill="#fefffe" d="M 296.5,134.5 C 297.525,134.897 297.692,135.563 297,136.5C 296.536,135.906 296.369,135.239 296.5,134.5 Z"/></g>
<g><path style="opacity:0.004" fill="#fefffe" d="M 297.5,138.5 C 298.573,139.251 298.74,140.251 298,141.5C 297.517,140.552 297.351,139.552 297.5,138.5 Z"/></g>
<g><path style="opacity:0.004" fill="#fefffe" d="M 297.5,142.5 C 298.622,144.288 298.789,146.288 298,148.5C 297.505,146.527 297.338,144.527 297.5,142.5 Z"/></g>
<g><path style="opacity:0.004" fill="#fefffe" d="M 95.5,197.5 C 96.8333,198.167 96.8333,198.167 95.5,197.5 Z"/></g>
<g><path style="opacity:0.004" fill="#fefffe" d="M 94.5,199.5 C 95.8333,200.167 95.8333,200.167 94.5,199.5 Z"/></g>
<g><path style="opacity:0.004" fill="#fefffe" d="M 93.5,201.5 C 94.8333,202.167 94.8333,202.167 93.5,201.5 Z"/></g>
<g><path style="opacity:0.004" fill="#fefffe" d="M 92.5,203.5 C 93.8333,204.167 93.8333,204.167 92.5,203.5 Z"/></g>
<g><path style="opacity:0.004" fill="#fefffe" d="M 91.5,205.5 C 92.8333,206.167 92.8333,206.167 91.5,205.5 Z"/></g>
<g><path style="opacity:0.004" fill="#fefffe" d="M 90.5,207.5 C 91.8333,208.167 91.8333,208.167 90.5,207.5 Z"/></g>
<g><path style="opacity:0.004" fill="#fefffe" d="M 89.5,209.5 C 90.8333,210.167 90.8333,210.167 89.5,209.5 Z"/></g>
<g><path style="opacity:0.004" fill="#fefffe" d="M 88.5,211.5 C 89.8333,212.167 89.8333,212.167 88.5,211.5 Z"/></g>
<g><path style="opacity:0.004" fill="#fefffe" d="M 87.5,213.5 C 88.8333,214.167 88.8333,214.167 87.5,213.5 Z"/></g>
<g><path style="opacity:0.004" fill="#fefffe" d="M 1.5,216.5 C 2.83333,217.167 2.83333,217.167 1.5,216.5 Z"/></g>
<g><path style="opacity:0.004" fill="#fefffe" d="M 0.5,218.5 C 1.83333,219.167 1.83333,219.167 0.5,218.5 Z"/></g>
<g><path style="opacity:0.004" fill="#fefffe" d="M -0.5,220.5 C 0.166667,220.5 0.5,220.833 0.5,221.5C 0.166667,221.167 -0.166667,220.833 -0.5,220.5 Z"/></g>
</svg>
