<?xml version="1.0" encoding="UTF-8"?>
<!DOCTYPE svg PUBLIC "-//W3C//DTD SVG 1.1//EN" "http://www.w3.org/Graphics/SVG/1.1/DTD/svg11.dtd">
<svg xmlns="http://www.w3.org/2000/svg" version="1.1" width="481px" height="1127px" style="shape-rendering:geometricPrecision; text-rendering:geometricPrecision; image-rendering:optimizeQuality; fill-rule:evenodd; clip-rule:evenodd" xmlns:xlink="http://www.w3.org/1999/xlink">
<g><path style="opacity:0.004" fill="#fefffe" d="M 331.5,-0.5 C 331.833,-0.5 332.167,-0.5 332.5,-0.5C 332.167,2.16667 331.833,2.16667 331.5,-0.5 Z"/></g>
<g><path style="opacity:0.004" fill="#fefffe" d="M 332.5,5.5 C 333.525,5.89657 333.692,6.56323 333,7.5C 332.536,6.90558 332.369,6.23891 332.5,5.5 Z"/></g>
<g><path style="opacity:0.004" fill="#fefffe" d="M 333.5,10.5 C 334.833,11.1667 334.833,11.1667 333.5,10.5 Z"/></g>
<g><path style="opacity:0.004" fill="#fefffe" d="M 334.5,13.5 C 335.833,14.1667 335.833,14.1667 334.5,13.5 Z"/></g>
<g><path style="opacity:0.004" fill="#fefffe" d="M 335.5,15.5 C 336.525,15.8966 336.692,16.5632 336,17.5C 335.536,16.9056 335.369,16.2389 335.5,15.5 Z"/></g>
<g><path style="opacity:0.004" fill="#fefffe" d="M 335.5,18.5 C 336.833,19.1667 336.833,19.1667 335.5,18.5 Z"/></g>
<g><path style="opacity:0.004" fill="#fefffe" d="M 331.5,20.5 C 331.897,19.475 332.563,19.3083 333.5,20C 332.906,20.4643 332.239,20.631 331.5,20.5 Z"/></g>
<g><path style="opacity:0.004" fill="#fefffe" d="M 327.5,21.5 C 327.897,20.475 328.563,20.3083 329.5,21C 328.906,21.4643 328.239,21.631 327.5,21.5 Z"/></g>
<g><path style="opacity:0.004" fill="#fefffe" d="M 320.5,22.5 C 321.251,21.4265 322.251,21.2599 323.5,22C 322.552,22.4828 321.552,22.6495 320.5,22.5 Z"/></g>
<g><path style="opacity:0.004" fill="#fefffe" d="M 314.5,23.5 C 314.897,22.475 315.563,22.3083 316.5,23C 315.906,23.4643 315.239,23.631 314.5,23.5 Z"/></g>
<g><path style="opacity:0.004" fill="#fefffe" d="M 310.5,24.5 C 310.897,23.475 311.563,23.3083 312.5,24C 311.906,24.4643 311.239,24.631 310.5,24.5 Z"/></g>
<g><path style="opacity:0.004" fill="#fefffe" d="M 307.5,25.5 C 308.573,26.2506 308.74,27.2506 308,28.5C 307.517,27.552 307.351,26.552 307.5,25.5 Z"/></g>
<g><path style="opacity:0.012" fill="#fefffe" d="M 480.5,98.5 C 480.5,99.5 480.5,100.5 480.5,101.5C 476.777,103.155 476.777,104.489 480.5,105.5C 480.5,445.833 480.5,786.167 480.5,1126.5C 479.5,1126.5 478.5,1126.5 477.5,1126.5C 473.688,1125.68 469.688,1125.18 465.5,1125C 452.158,1118 439.491,1110 427.5,1101C 407.718,1093.88 387.885,1093.71 368,1100.5C 360.354,1097.73 352.854,1094.56 345.5,1091C 343.791,1086.13 342.458,1081.13 341.5,1076C 344.199,1070.77 347.032,1065.6 350,1060.5C 351.581,1054.94 350.081,1050.44 345.5,1047C 330.935,1040.03 315.601,1037.03 299.5,1038C 288.824,1036.34 279.324,1032.17 271,1025.5C 269.444,1020.78 268.277,1015.94 267.5,1011C 268.429,1005.78 269.596,1000.62 271,995.5C 274.245,990.175 277.079,984.675 279.5,979C 278.817,974.228 277.817,969.561 276.5,965C 263.819,958.553 250.819,952.886 237.5,948C 230.765,940.595 223.432,933.928 215.5,928C 212.5,927 209.5,926 206.5,925C 191.17,924.5 175.837,924.333 160.5,924.5C 162.486,917.587 164.653,910.587 167,903.5C 167.638,896.792 167.305,890.126 166,883.5C 154.115,867.942 141.115,853.275 127,839.5C 123.526,833.72 121.026,827.553 119.5,821C 120.57,818.194 121.903,815.527 123.5,813C 132.355,810.362 141.355,808.362 150.5,807C 164.442,794.137 164.442,781.471 150.5,769C 143.089,768.49 136.089,766.49 129.5,763C 127.5,758.333 125.5,753.667 123.5,749C 124.95,742.94 125.45,736.773 125,730.5C 121.333,720.5 117.667,710.5 114,700.5C 113.819,687.828 113.819,675.162 114,662.5C 107.511,637.542 101.177,612.542 95,587.5C 91.6027,577.341 85.7694,569.008 77.5,562.5C 84.0452,549.149 87.3785,534.983 87.5,520C 87.0962,515.147 86.9295,510.313 87,505.5C 90.3623,500.97 93.5289,496.303 96.5,491.5C 104.02,484.812 111.687,478.312 119.5,472C 131.277,466.779 143.277,462.112 155.5,458C 159.088,455.623 162.588,453.123 166,450.5C 166.667,445.167 166.667,439.833 166,434.5C 156.853,428.036 147.186,422.369 137,417.5C 135.333,413.5 133.667,409.5 132,405.5C 130.089,393.886 129.089,382.219 129,370.5C 129.333,371.167 129.667,371.833 130,372.5C 133.421,370.539 136.921,368.706 140.5,367C 144.866,362.299 149.533,357.966 154.5,354C 159.208,353.304 163.874,352.471 168.5,351.5C 187.042,359.423 206.376,362.256 226.5,360C 233.422,357.294 239.589,353.46 245,348.5C 244.79,338.975 243.956,329.475 242.5,320C 243.672,304.301 246.672,288.967 251.5,274C 250.836,269.856 250.336,265.689 250,261.5C 245.875,253.958 243.042,245.958 241.5,237.5C 246.451,221.684 249.784,205.517 251.5,189C 250.122,179.806 248.622,170.639 247,161.5C 245.03,158.032 242.864,154.699 240.5,151.5C 234.833,148.333 229.167,145.167 223.5,142C 217.452,141.337 211.452,141.67 205.5,143C 192.833,151 180.167,159 167.5,167C 156.642,173.31 144.976,175.643 132.5,174C 122.084,168.337 117.584,159.504 119,147.5C 118,145.833 117,144.167 116,142.5C 106.794,139.65 97.9604,135.817 89.5,131C 88.1437,128.602 86.9771,126.102 86,123.5C 85.402,112.825 87.7353,102.825 93,93.5C 94.5,86.8333 96,80.1667 97.5,73.5C 97.1822,72.3527 96.5156,71.5194 95.5,71C 96.448,70.5172 97.448,70.3505 98.5,70.5C 98.3505,71.552 98.5172,72.552 99,73.5C 103.968,70.5994 109.135,68.0994 114.5,66C 121.31,51.8558 131.977,41.8558 146.5,36C 150.797,34.9085 155.131,34.5752 159.5,35C 164.197,37.2684 169.031,39.1017 174,40.5C 185.191,39.187 196.358,37.687 207.5,36C 222.576,35.078 237.576,35.578 252.5,37.5C 263.097,32.9126 273.93,29.2459 285,26.5C 292.575,27.4359 300.075,28.7692 307.5,30.5C 308.086,30.2907 308.586,29.9574 309,29.5C 309.642,31.7619 310.475,33.9285 311.5,36C 316.5,36.3333 321.5,36.6667 326.5,37C 328.833,40.6667 331.167,44.3333 333.5,48C 340.06,47.9616 346.393,46.9616 352.5,45C 358.135,53.7665 363.135,62.9331 367.5,72.5C 371.721,75.778 376.388,78.278 381.5,80C 382.38,81.3561 382.714,82.8561 382.5,84.5C 390.502,87.2516 398.002,90.9183 405,95.5C 410.765,92.5145 416.932,90.6811 423.5,90C 425.37,88.6338 427.37,87.4672 429.5,86.5C 434.507,87.2017 439.507,88.035 444.5,89C 451.435,95.1414 459.435,98.4748 468.5,99C 472.55,96.4455 476.55,96.2788 480.5,98.5 Z"/></g>
<g><path style="opacity:0.004" fill="#fefffe" d="M 90.5,72.5 C 91.2506,71.4265 92.2506,71.2599 93.5,72C 92.552,72.4828 91.552,72.6495 90.5,72.5 Z"/></g>
<g><path style="opacity:0.004" fill="#fefffe" d="M 86.5,73.5 C 86.8966,72.475 87.5632,72.3083 88.5,73C 87.9056,73.4643 87.2389,73.631 86.5,73.5 Z"/></g>
<g><path style="opacity:0.004" fill="#fefffe" d="M 27.5,317.5 C 28.8333,318.167 28.8333,318.167 27.5,317.5 Z"/></g>
<g><path style="opacity:0.004" fill="#fefffe" d="M 29.5,318.5 C 30.8333,319.167 30.8333,319.167 29.5,318.5 Z"/></g>
<g><path style="opacity:0.004" fill="#fefffe" d="M 31.5,319.5 C 32.8333,320.167 32.8333,320.167 31.5,319.5 Z"/></g>
<g><path style="opacity:0.004" fill="#fefffe" d="M 33.5,320.5 C 34.8333,321.167 34.8333,321.167 33.5,320.5 Z"/></g>
<g><path style="opacity:0.004" fill="#fefffe" d="M 35.5,321.5 C 36.8333,322.167 36.8333,322.167 35.5,321.5 Z"/></g>
<g><path style="opacity:0.004" fill="#fefffe" d="M 37.5,322.5 C 38.8333,323.167 38.8333,323.167 37.5,322.5 Z"/></g>
<g><path style="opacity:0.004" fill="#fefffe" d="M 40.5,324.5 C 39.8333,323.167 39.8333,323.167 40.5,324.5 Z"/></g>
<g><path style="opacity:0.004" fill="#fefffe" d="M 40.5,324.5 C 41.4916,324.328 42.1583,324.662 42.5,325.5C 41.5084,325.672 40.8417,325.338 40.5,324.5 Z"/></g>
<g><path style="opacity:0.004" fill="#fefffe" d="M 42.5,325.5 C 43.4916,325.328 44.1583,325.662 44.5,326.5C 43.5084,326.672 42.8417,326.338 42.5,325.5 Z"/></g>
<g><path style="opacity:0.004" fill="#fefffe" d="M 44.5,326.5 C 45.8333,327.167 45.8333,327.167 44.5,326.5 Z"/></g>
<g><path style="opacity:0.004" fill="#fefffe" d="M 46.5,327.5 C 47.8333,328.167 47.8333,328.167 46.5,327.5 Z"/></g>
<g><path style="opacity:0.004" fill="#fefffe" d="M 48.5,328.5 C 49.8333,329.167 49.8333,329.167 48.5,328.5 Z"/></g>
<g><path style="opacity:0.004" fill="#fefffe" d="M 50.5,329.5 C 51.8333,330.167 51.8333,330.167 50.5,329.5 Z"/></g>
<g><path style="opacity:0.004" fill="#fefffe" d="M 52.5,330.5 C 53.8333,331.167 53.8333,331.167 52.5,330.5 Z"/></g>
<g><path style="opacity:0.004" fill="#fefffe" d="M 54.5,332.5 C 54.8966,331.475 55.5632,331.308 56.5,332C 55.9056,332.464 55.2389,332.631 54.5,332.5 Z"/></g>
<g><path style="opacity:0.004" fill="#fefffe" d="M 57.5,332.5 C 58.8333,333.167 58.8333,333.167 57.5,332.5 Z"/></g>
<g><path style="opacity:0.004" fill="#fefffe" d="M 59.5,334.5 C 59.8966,333.475 60.5632,333.308 61.5,334C 60.9056,334.464 60.2389,334.631 59.5,334.5 Z"/></g>
<g><path style="opacity:0.004" fill="#fefffe" d="M 62.5,334.5 C 63.8333,335.167 63.8333,335.167 62.5,334.5 Z"/></g>
<g><path style="opacity:0.004" fill="#fefffe" d="M 64.5,336.5 C 64.8966,335.475 65.5632,335.308 66.5,336C 65.9056,336.464 65.2389,336.631 64.5,336.5 Z"/></g>
<g><path style="opacity:0.004" fill="#fefffe" d="M 67.5,336.5 C 68.8333,337.167 68.8333,337.167 67.5,336.5 Z"/></g>
<g><path style="opacity:0.004" fill="#fefffe" d="M 69.5,338.5 C 69.8966,337.475 70.5632,337.308 71.5,338C 70.9056,338.464 70.2389,338.631 69.5,338.5 Z"/></g>
<g><path style="opacity:0.004" fill="#fefffe" d="M 72.5,339.5 C 72.8966,338.475 73.5632,338.308 74.5,339C 73.9056,339.464 73.2389,339.631 72.5,339.5 Z"/></g>
<g><path style="opacity:0.004" fill="#fefffe" d="M 75.5,340.5 C 75.8966,339.475 76.5632,339.308 77.5,340C 76.9056,340.464 76.2389,340.631 75.5,340.5 Z"/></g>
<g><path style="opacity:0.004" fill="#fefffe" d="M 78.5,341.5 C 78.8966,340.475 79.5632,340.308 80.5,341C 79.9056,341.464 79.2389,341.631 78.5,341.5 Z"/></g>
<g><path style="opacity:0.004" fill="#fefffe" d="M 81.5,342.5 C 81.8966,341.475 82.5632,341.308 83.5,342C 82.9056,342.464 82.2389,342.631 81.5,342.5 Z"/></g>
<g><path style="opacity:0.004" fill="#fefffe" d="M 84.5,343.5 C 84.8966,342.475 85.5632,342.308 86.5,343C 85.9056,343.464 85.2389,343.631 84.5,343.5 Z"/></g>
<g><path style="opacity:0.004" fill="#fefffe" d="M 87.5,344.5 C 87.8966,343.475 88.5632,343.308 89.5,344C 88.9056,344.464 88.2389,344.631 87.5,344.5 Z"/></g>
<g><path style="opacity:0.004" fill="#fefffe" d="M 90.5,345.5 C 90.8966,344.475 91.5632,344.308 92.5,345C 91.9056,345.464 91.2389,345.631 90.5,345.5 Z"/></g>
<g><path style="opacity:0.004" fill="#fefffe" d="M 93.5,346.5 C 93.8966,345.475 94.5632,345.308 95.5,346C 94.9056,346.464 94.2389,346.631 93.5,346.5 Z"/></g>
<g><path style="opacity:0.004" fill="#fefffe" d="M 96.5,346.5 C 97.8333,347.167 97.8333,347.167 96.5,346.5 Z"/></g>
<g><path style="opacity:0.004" fill="#fefffe" d="M 99.5,347.5 C 100.833,348.167 100.833,348.167 99.5,347.5 Z"/></g>
<g><path style="opacity:0.004" fill="#fefffe" d="M 102.5,348.5 C 103.833,349.167 103.833,349.167 102.5,348.5 Z"/></g>
<g><path style="opacity:0.004" fill="#fefffe" d="M 104.5,350.5 C 104.897,349.475 105.563,349.308 106.5,350C 105.906,350.464 105.239,350.631 104.5,350.5 Z"/></g>
<g><path style="opacity:0.004" fill="#fefffe" d="M 108.5,351.5 C 107.833,350.167 107.833,350.167 108.5,351.5 Z"/></g>
<g><path style="opacity:0.004" fill="#fefffe" d="M 108.5,351.5 C 109.833,352.167 109.833,352.167 108.5,351.5 Z"/></g>
<g><path style="opacity:0.004" fill="#fefffe" d="M 110.5,352.5 C 111.833,353.167 111.833,353.167 110.5,352.5 Z"/></g>
<g><path style="opacity:0.004" fill="#fefffe" d="M 112.5,353.5 C 113.833,354.167 113.833,354.167 112.5,353.5 Z"/></g>
<g><path style="opacity:0.004" fill="#fefffe" d="M 115.5,355.5 C 114.833,354.167 114.833,354.167 115.5,355.5 Z"/></g>
<g><path style="opacity:0.004" fill="#fefffe" d="M 115.5,355.5 C 116.492,355.328 117.158,355.662 117.5,356.5C 116.508,356.672 115.842,356.338 115.5,355.5 Z"/></g>
<g><path style="opacity:0.004" fill="#fefffe" d="M 117.5,356.5 C 118.833,357.167 118.833,357.167 117.5,356.5 Z"/></g>
<g><path style="opacity:0.004" fill="#fefffe" d="M 119.5,357.5 C 120.833,358.167 120.833,358.167 119.5,357.5 Z"/></g>
<g><path style="opacity:0.004" fill="#fefffe" d="M 122.5,360.5 C 121.833,359.167 121.833,359.167 122.5,360.5 Z"/></g>
<g><path style="opacity:0.004" fill="#fefffe" d="M 122.5,360.5 C 123.833,361.167 123.833,361.167 122.5,360.5 Z"/></g>
<g><path style="opacity:0.004" fill="#fefffe" d="M 124.5,363.5 C 123.833,362.167 123.833,362.167 124.5,363.5 Z"/></g>
<g><path style="opacity:0.004" fill="#fefffe" d="M 124.5,363.5 C 125.833,364.167 125.833,364.167 124.5,363.5 Z"/></g>
<g><path style="opacity:0.004" fill="#fefffe" d="M 125.5,365.5 C 126.833,366.167 126.833,366.167 125.5,365.5 Z"/></g>
<g><path style="opacity:0.004" fill="#fefffe" d="M 127.5,368.5 C 126.833,367.167 126.833,367.167 127.5,368.5 Z"/></g>
<g><path style="opacity:0.004" fill="#fefffe" d="M 127.5,368.5 C 128.833,369.167 128.833,369.167 127.5,368.5 Z"/></g>
<g><path style="opacity:0.004" fill="#fefffe" d="M 18.5,405.5 C 19.8333,406.167 19.8333,406.167 18.5,405.5 Z"/></g>
<g><path style="opacity:0.004" fill="#fefffe" d="M 20.5,406.5 C 21.8333,407.167 21.8333,407.167 20.5,406.5 Z"/></g>
<g><path style="opacity:0.004" fill="#fefffe" d="M 22.5,408.5 C 23.0768,407.227 23.7435,407.227 24.5,408.5C 24.0302,409.463 23.3635,409.463 22.5,408.5 Z"/></g>
<g><path style="opacity:0.004" fill="#fefffe" d="M 18.5,412.5 C 18.8966,411.475 19.5632,411.308 20.5,412C 19.9056,412.464 19.2389,412.631 18.5,412.5 Z"/></g>
<g><path style="opacity:0.004" fill="#fefffe" d="M 16.5,434.5 C 15.8333,433.167 15.8333,433.167 16.5,434.5 Z"/></g>
<g><path style="opacity:0.004" fill="#fefffe" d="M 16.5,434.5 C 17.1667,434.5 17.5,434.833 17.5,435.5C 17.1667,435.167 16.8333,434.833 16.5,434.5 Z"/></g>
<g><path style="opacity:0.004" fill="#fefffe" d="M 17.5,435.5 C 18.8333,436.167 18.8333,436.167 17.5,435.5 Z"/></g>
<g><path style="opacity:0.004" fill="#fefffe" d="M 19.5,438.5 C 20.8333,439.167 20.8333,439.167 19.5,438.5 Z"/></g>
<g><path style="opacity:0.004" fill="#fefffe" d="M 17.5,439.5 C 18.8333,440.167 18.8333,440.167 17.5,439.5 Z"/></g>
<g><path style="opacity:0.004" fill="#fefffe" d="M 15.5,440.5 C 16.8333,441.167 16.8333,441.167 15.5,440.5 Z"/></g>
<g><path style="opacity:0.004" fill="#fefffe" d="M 75.5,562.5 C 76.8333,563.167 76.8333,563.167 75.5,562.5 Z"/></g>
<g><path style="opacity:0.004" fill="#fefffe" d="M 75.5,563.5 C 74.8333,564.167 74.8333,564.167 75.5,563.5 Z"/></g>
<g><path style="opacity:0.004" fill="#fefffe" d="M 74.5,564.5 C 73.8333,565.167 73.8333,565.167 74.5,564.5 Z"/></g>
<g><path style="opacity:0.004" fill="#fefffe" d="M 73.5,565.5 C 72.8333,566.167 72.8333,566.167 73.5,565.5 Z"/></g>
<g><path style="opacity:0.004" fill="#fefffe" d="M 69.5,567.5 C 70.8333,568.167 70.8333,568.167 69.5,567.5 Z"/></g>
<g><path style="opacity:0.004" fill="#fefffe" d="M 69.5,568.5 C 68.8333,569.167 68.8333,569.167 69.5,568.5 Z"/></g>
<g><path style="opacity:0.004" fill="#fefffe" d="M 68.5,569.5 C 67.8333,570.167 67.8333,570.167 68.5,569.5 Z"/></g>
<g><path style="opacity:0.004" fill="#fefffe" d="M 67.5,570.5 C 66.8333,571.167 66.8333,571.167 67.5,570.5 Z"/></g>
<g><path style="opacity:0.004" fill="#fefffe" d="M 66.5,571.5 C 65.8333,572.167 65.8333,572.167 66.5,571.5 Z"/></g>
<g><path style="opacity:0.004" fill="#fefffe" d="M 62.5,573.5 C 63.8333,574.167 63.8333,574.167 62.5,573.5 Z"/></g>
<g><path style="opacity:0.004" fill="#fefffe" d="M 62.5,574.5 C 61.8333,575.167 61.8333,575.167 62.5,574.5 Z"/></g>
<g><path style="opacity:0.004" fill="#fefffe" d="M 61.5,575.5 C 60.8333,576.167 60.8333,576.167 61.5,575.5 Z"/></g>
<g><path style="opacity:0.004" fill="#fefffe" d="M 60.5,576.5 C 59.8333,577.167 59.8333,577.167 60.5,576.5 Z"/></g>
<g><path style="opacity:0.004" fill="#fefffe" d="M 59.5,577.5 C 58.8333,578.167 58.8333,578.167 59.5,577.5 Z"/></g>
<g><path style="opacity:0.004" fill="#fefffe" d="M 56.5,578.5 C 57.8333,579.167 57.8333,579.167 56.5,578.5 Z"/></g>
<g><path style="opacity:0.004" fill="#fefffe" d="M 54.5,579.5 C 55.8333,580.167 55.8333,580.167 54.5,579.5 Z"/></g>
<g><path style="opacity:0.004" fill="#fefffe" d="M 54.5,580.5 C 53.8333,581.167 53.8333,581.167 54.5,580.5 Z"/></g>
<g><path style="opacity:0.004" fill="#fefffe" d="M 51.5,581.5 C 52.8333,582.167 52.8333,582.167 51.5,581.5 Z"/></g>
<g><path style="opacity:0.004" fill="#fefffe" d="M 48.5,583.5 C 49.8333,584.167 49.8333,584.167 48.5,583.5 Z"/></g>
<g><path style="opacity:0.004" fill="#fefffe" d="M 46.5,584.5 C 47.8333,585.167 47.8333,585.167 46.5,584.5 Z"/></g>
<g><path style="opacity:0.004" fill="#fefffe" d="M 46.5,585.5 C 45.8333,586.167 45.8333,586.167 46.5,585.5 Z"/></g>
<g><path style="opacity:0.004" fill="#fefffe" d="M 43.5,586.5 C 44.8333,587.167 44.8333,587.167 43.5,586.5 Z"/></g>
<g><path style="opacity:0.004" fill="#fefffe" d="M 41.5,587.5 C 42.8333,588.167 42.8333,588.167 41.5,587.5 Z"/></g>
<g><path style="opacity:0.004" fill="#fefffe" d="M 41.5,588.5 C 40.8333,589.167 40.8333,589.167 41.5,588.5 Z"/></g>
<g><path style="opacity:0.004" fill="#fefffe" d="M 38.5,589.5 C 39.8333,590.167 39.8333,590.167 38.5,589.5 Z"/></g>
<g><path style="opacity:0.004" fill="#fefffe" d="M 36.5,590.5 C 37.8333,591.167 37.8333,591.167 36.5,590.5 Z"/></g>
<g><path style="opacity:0.004" fill="#fefffe" d="M 36.5,591.5 C 36.1034,592.525 35.4368,592.692 34.5,592C 35.0944,591.536 35.7611,591.369 36.5,591.5 Z"/></g>
<g><path style="opacity:0.004" fill="#fefffe" d="M 30.5,593.5 C 30.8966,592.475 31.5632,592.308 32.5,593C 31.9056,593.464 31.2389,593.631 30.5,593.5 Z"/></g>
<g><path style="opacity:0.004" fill="#fefffe" d="M 27.5,594.5 C 27.8966,593.475 28.5632,593.308 29.5,594C 28.9056,594.464 28.2389,594.631 27.5,594.5 Z"/></g>
<g><path style="opacity:0.004" fill="#fefffe" d="M 23.5,595.5 C 23.8966,594.475 24.5632,594.308 25.5,595C 24.9056,595.464 24.2389,595.631 23.5,595.5 Z"/></g>
<g><path style="opacity:0.004" fill="#fefffe" d="M 20.5,596.5 C 20.8966,595.475 21.5632,595.308 22.5,596C 21.9056,596.464 21.2389,596.631 20.5,596.5 Z"/></g>
<g><path style="opacity:0.004" fill="#fefffe" d="M 17.5,597.5 C 17.8966,596.475 18.5632,596.308 19.5,597C 18.9056,597.464 18.2389,597.631 17.5,597.5 Z"/></g>
<g><path style="opacity:0.004" fill="#fefffe" d="M 13.5,598.5 C 13.8966,597.475 14.5632,597.308 15.5,598C 14.9056,598.464 14.2389,598.631 13.5,598.5 Z"/></g>
<g><path style="opacity:0.004" fill="#fefffe" d="M 9.5,599.5 C 10.2506,598.427 11.2506,598.26 12.5,599C 11.552,599.483 10.552,599.649 9.5,599.5 Z"/></g>
<g><path style="opacity:0.004" fill="#fefffe" d="M 4.5,600.5 C 5.25057,599.427 6.25057,599.26 7.5,600C 6.55198,600.483 5.55198,600.649 4.5,600.5 Z"/></g>
<g><path style="opacity:0.004" fill="#fefffe" d="M -0.5,601.5 C -0.5,601.167 -0.5,600.833 -0.5,600.5C 3.5,600.833 3.5,601.167 -0.5,601.5 Z"/></g>
<g><path style="opacity:0.004" fill="#fefffe" d="M 160.5,924.5 C 160.657,925.873 160.49,927.207 160,928.5C 159.235,926.934 159.402,925.601 160.5,924.5 Z"/></g>
<g><path style="opacity:0.004" fill="#fefffe" d="M 158.5,931.5 C 159.573,932.251 159.74,933.251 159,934.5C 158.517,933.552 158.351,932.552 158.5,931.5 Z"/></g>
<g><path style="opacity:0.004" fill="#fefffe" d="M 157.5,936.5 C 158.573,937.251 158.74,938.251 158,939.5C 157.517,938.552 157.351,937.552 157.5,936.5 Z"/></g>
<g><path style="opacity:0.004" fill="#fefffe" d="M 157.5,943.5 C 158.598,944.601 158.765,945.934 158,947.5C 157.51,946.207 157.343,944.873 157.5,943.5 Z"/></g>
<g><path style="opacity:0.004" fill="#fefffe" d="M 158.5,950.5 C 159.613,951.946 159.78,953.613 159,955.5C 158.506,953.866 158.34,952.199 158.5,950.5 Z"/></g>
<g><path style="opacity:0.004" fill="#fefffe" d="M 159.5,958.5 C 160.613,959.946 160.78,961.613 160,963.5C 159.506,961.866 159.34,960.199 159.5,958.5 Z"/></g>
<g><path style="opacity:0.004" fill="#fefffe" d="M 158.5,965.5 C 159.525,965.897 159.692,966.563 159,967.5C 158.536,966.906 158.369,966.239 158.5,965.5 Z"/></g>
<g><path style="opacity:0.004" fill="#fefffe" d="M 157.5,970.5 C 157.369,969.761 157.536,969.094 158,968.5C 158.692,969.437 158.525,970.103 157.5,970.5 Z"/></g>
<g><path style="opacity:0.004" fill="#fefffe" d="M 157.5,970.5 C 156.833,971.167 156.833,971.167 157.5,970.5 Z"/></g>
<g><path style="opacity:0.004" fill="#fefffe" d="M 156.5,971.5 C 155.833,972.167 155.833,972.167 156.5,971.5 Z"/></g>
<g><path style="opacity:0.004" fill="#fefffe" d="M 154.5,973.5 C 155.833,974.167 155.833,974.167 154.5,973.5 Z"/></g>
<g><path style="opacity:0.004" fill="#fefffe" d="M 154.5,974.5 C 153.833,975.167 153.833,975.167 154.5,974.5 Z"/></g>
<g><path style="opacity:0.004" fill="#fefffe" d="M 146.5,977.5 C 147.601,976.402 148.934,976.235 150.5,977C 149.207,977.49 147.873,977.657 146.5,977.5 Z"/></g>
</svg>
