<?xml version="1.0" encoding="UTF-8"?>
<!DOCTYPE svg PUBLIC "-//W3C//DTD SVG 1.1//EN" "http://www.w3.org/Graphics/SVG/1.1/DTD/svg11.dtd">
<svg xmlns="http://www.w3.org/2000/svg" version="1.1" width="243px" height="146px" style="shape-rendering:geometricPrecision; text-rendering:geometricPrecision; image-rendering:optimizeQuality; fill-rule:evenodd; clip-rule:evenodd" xmlns:xlink="http://www.w3.org/1999/xlink">
<g><path style="opacity:0.012" fill="#fefffe" d="M 94.5,-0.5 C 143.5,-0.5 192.5,-0.5 241.5,-0.5C 241.5,0.166667 241.833,0.5 242.5,0.5C 242.5,48.8333 242.5,97.1667 242.5,145.5C 174.5,145.5 106.5,145.5 38.5,145.5C 29.5517,132.712 20.385,120.045 11,107.5C 7.92598,104.714 4.75932,102.048 1.5,99.5C 0.972438,97.6639 0.305771,95.9972 -0.5,94.5C -0.5,93.8333 -0.5,93.1667 -0.5,92.5C 5.16321,91.4198 10.8299,91.2531 16.5,92C 19.7323,90.7695 22.3989,88.7695 24.5,86C 27.5,85.6667 30.5,85.3333 33.5,85C 53.9656,56.5588 74.2989,28.0588 94.5,-0.5 Z"/></g>
</svg>
