<?xml version="1.0" encoding="UTF-8"?>
<!DOCTYPE svg PUBLIC "-//W3C//DTD SVG 1.1//EN" "http://www.w3.org/Graphics/SVG/1.1/DTD/svg11.dtd">
<svg xmlns="http://www.w3.org/2000/svg" version="1.1" width="507px" height="395px" style="shape-rendering:geometricPrecision; text-rendering:geometricPrecision; image-rendering:optimizeQuality; fill-rule:evenodd; clip-rule:evenodd" xmlns:xlink="http://www.w3.org/1999/xlink">
<g><path style="opacity:0.012" fill="#fefffe" d="M 199.5,-0.5 C 200.5,-0.5 201.5,-0.5 202.5,-0.5C 211.096,3.90618 218.763,9.73951 225.5,17C 233.041,21.2701 240.707,25.2701 248.5,29C 255.664,31.7978 262.997,32.6312 270.5,31.5C 272.706,28.797 275.039,26.297 277.5,24C 281.637,23.0656 285.637,21.7322 289.5,20C 293.975,19.5325 298.309,20.1992 302.5,22C 303.63,25.8097 305.63,29.143 308.5,32C 315.585,32.7499 322.585,32.2499 329.5,30.5C 334.295,33.0668 338.962,35.9002 343.5,39C 348.887,39.7845 354.22,39.6178 359.5,38.5C 364.352,42.5181 368.685,47.0181 372.5,52C 376.425,51.4816 380.425,51.4816 384.5,52C 385.928,54.1847 387.595,56.1847 389.5,58C 394.959,60.9857 400.626,63.4857 406.5,65.5C 408.422,64.289 410.255,62.9557 412,61.5C 412.072,54.4975 415.238,49.6642 421.5,47C 427.479,47.3299 433.479,47.3299 439.5,47C 447.865,44.2672 456.198,41.4339 464.5,38.5C 468.804,39.2095 473.137,39.7095 477.5,40C 478.211,41.2547 479.044,42.4214 480,43.5C 480.667,42.1667 481.333,42.1667 482,43.5C 482.707,45.0806 483.54,46.5806 484.5,48C 483.743,49.5122 482.743,50.8455 481.5,52C 488.405,55.2388 492.738,60.5721 494.5,68C 492.152,72.2077 490.486,76.7077 489.5,81.5C 490.154,83.1151 490.654,84.7818 491,86.5C 493.921,88.3771 496.754,90.3771 499.5,92.5C 500.572,94.7169 501.239,97.0502 501.5,99.5C 499.084,105.44 500.751,109.773 506.5,112.5C 506.5,117.167 506.5,121.833 506.5,126.5C 504.144,129.365 502.144,132.532 500.5,136C 501.57,138.806 502.903,141.473 504.5,144C 500.82,155.527 495.653,166.36 489,176.5C 487,177.833 485,179.167 483,180.5C 483.006,188.226 481.006,195.226 477,201.5C 475.043,202.889 473.21,204.389 471.5,206C 470.306,209.555 468.972,213.055 467.5,216.5C 468.97,219.273 470.303,222.106 471.5,225C 469.803,229.09 468.303,233.257 467,237.5C 466.476,251.175 466.643,264.841 467.5,278.5C 459.666,277.183 453.5,273.183 449,266.5C 450.157,259.591 450.491,252.591 450,245.5C 447,241.833 444,238.167 441,234.5C 440.499,230.49 439.999,226.49 439.5,222.5C 431.856,222.845 424.856,221.012 418.5,217C 415.854,216.503 413.187,216.336 410.5,216.5C 410.272,220.39 410.606,224.224 411.5,228C 410.039,230.298 408.372,232.465 406.5,234.5C 409.5,238.684 408.666,242.018 404,244.5C 401.678,248.635 399.845,252.968 398.5,257.5C 399.208,260.458 400.208,263.291 401.5,266C 398.108,278.343 393.442,290.176 387.5,301.5C 376.767,302.928 366.1,304.595 355.5,306.5C 353.881,313.376 353.048,320.376 353,327.5C 345.937,332.306 338.27,335.972 330,338.5C 325.511,331.529 321.011,324.529 316.5,317.5C 308.101,315.982 300.434,312.815 293.5,308C 288.525,307.424 283.859,305.924 279.5,303.5C 278.738,304.628 278.071,305.795 277.5,307C 278.995,310.817 280.495,314.65 282,318.5C 286.565,321.245 291.398,323.411 296.5,325C 298.5,328 300.5,331 302.5,334C 301.167,335.333 299.833,336.667 298.5,338C 292.157,338.18 285.824,338.18 279.5,338C 290.44,340.902 294.607,347.735 292,358.5C 287.062,359.275 282.062,359.942 277,360.5C 275.486,360.23 273.986,359.897 272.5,359.5C 271.287,359.747 270.62,360.414 270.5,361.5C 269.521,358.375 269.187,355.042 269.5,351.5C 267.801,351.38 266.135,351.046 264.5,350.5C 256.992,351.149 249.492,351.816 242,352.5C 228.523,352.418 219.189,346.085 214,333.5C 210.167,329.667 206.333,325.833 202.5,322C 197.666,320.269 192.666,319.269 187.5,319C 184.833,317 182.167,315 179.5,313C 171.538,303.369 163.204,294.036 154.5,285C 145.869,282.884 138.369,284.717 132,290.5C 109.248,317.92 85.0817,344.087 59.5,369C 53.712,374.723 47.3787,379.723 40.5,384C 35.2521,386.144 29.9187,387.977 24.5,389.5C 24.5858,388.504 24.2524,387.671 23.5,387C 15.3446,381.67 7.34463,376.17 -0.5,370.5C -0.5,364.5 -0.5,358.5 -0.5,352.5C 9.11602,344.708 16.2827,335.041 21,323.5C 21.222,301.83 21.222,280.163 21,258.5C 25.4278,252.649 30.0945,246.983 35,241.5C 36.3279,236.558 36.6612,231.558 36,226.5C 33.3035,222.44 31.1368,218.107 29.5,213.5C 30.7189,209.395 32.2189,205.395 34,201.5C 34.3333,196.833 34.6667,192.167 35,187.5C 38,180.833 41,174.167 44,167.5C 51.4391,155.065 59.2725,142.898 67.5,131C 75.935,125.411 85.1017,121.577 95,119.5C 98.5,120 102,120.5 105.5,121C 114.157,124.661 122.823,128.327 131.5,132C 141.788,134.348 150.288,131.515 157,123.5C 161.395,117.434 165.395,111.1 169,104.5C 170.527,98.5851 170.861,92.5851 170,86.5C 159.202,74.0334 148.035,61.8667 136.5,50C 140.134,43.515 142.134,36.515 142.5,29C 142.833,28.1667 143.167,27.3333 143.5,26.5C 159.833,20.5006 175.167,12.6672 189.5,3C 192.98,1.89744 196.313,0.73077 199.5,-0.5 Z"/></g>
<g><path style="opacity:0.004" fill="#fefffe" d="M 270.5,361.5 C 271.167,361.5 271.5,361.833 271.5,362.5C 271.167,362.167 270.833,361.833 270.5,361.5 Z"/></g>
<g><path style="opacity:0.004" fill="#fefffe" d="M 271.5,362.5 C 272.833,363.167 272.833,363.167 271.5,362.5 Z"/></g>
<g><path style="opacity:0.004" fill="#fefffe" d="M 274.5,364.5 C 273.833,363.167 273.833,363.167 274.5,364.5 Z"/></g>
<g><path style="opacity:0.004" fill="#fefffe" d="M 274.5,364.5 C 275.833,365.167 275.833,365.167 274.5,364.5 Z"/></g>
<g><path style="opacity:0.004" fill="#fefffe" d="M 277.5,366.5 C 276.833,365.167 276.833,365.167 277.5,366.5 Z"/></g>
<g><path style="opacity:0.004" fill="#fefffe" d="M 277.5,366.5 C 278.167,366.5 278.5,366.833 278.5,367.5C 278.167,367.167 277.833,366.833 277.5,366.5 Z"/></g>
<g><path style="opacity:0.004" fill="#fefffe" d="M 278.5,367.5 C 279.833,368.167 279.833,368.167 278.5,367.5 Z"/></g>
<g><path style="opacity:0.004" fill="#fefffe" d="M 283.5,371.5 C 282.833,370.167 282.833,370.167 283.5,371.5 Z"/></g>
<g><path style="opacity:0.004" fill="#fefffe" d="M 283.5,371.5 C 284.833,372.167 284.833,372.167 283.5,371.5 Z"/></g>
<g><path style="opacity:0.004" fill="#fefffe" d="M 24.5,389.5 C 23.8333,390.167 23.8333,390.167 24.5,389.5 Z"/></g>
<g><path style="opacity:0.004" fill="#fefffe" d="M 21.5,390.5 C 22.8333,391.167 22.8333,391.167 21.5,390.5 Z"/></g>
<g><path style="opacity:0.004" fill="#fefffe" d="M 21.5,391.5 C 20.8333,392.167 20.8333,392.167 21.5,391.5 Z"/></g>
<g><path style="opacity:0.004" fill="#fefffe" d="M 18.5,394.5 C 17.8333,393.167 17.8333,393.167 18.5,394.5 Z"/></g>
</svg>
