<?xml version="1.0" encoding="UTF-8"?>
<!DOCTYPE svg PUBLIC "-//W3C//DTD SVG 1.1//EN" "http://www.w3.org/Graphics/SVG/1.1/DTD/svg11.dtd">
<svg xmlns="http://www.w3.org/2000/svg" version="1.1" width="1028px" height="675px" style="shape-rendering:geometricPrecision; text-rendering:geometricPrecision; image-rendering:optimizeQuality; fill-rule:evenodd; clip-rule:evenodd" xmlns:xlink="http://www.w3.org/1999/xlink">
<g><path style="opacity:0.012" fill="#fefffe" d="M 805.5,-0.5 C 808.167,-0.5 810.833,-0.5 813.5,-0.5C 817.61,1.60068 821.944,3.43401 826.5,5C 836.945,14.1024 844.112,25.269 848,38.5C 848.449,49.8863 849.449,61.2196 851,72.5C 855.971,82.8081 863.138,91.3081 872.5,98C 880.638,104.126 889.304,109.46 898.5,114C 910.87,117.345 922.87,121.679 934.5,127C 945.192,129.205 955.859,131.539 966.5,134C 970.758,135.384 974.258,137.884 977,141.5C 979.883,146.599 982.217,151.933 984,157.5C 985,168.833 986,180.167 987,191.5C 987.438,194.376 988.438,197.043 990,199.5C 1000.57,212.019 1013.07,222.019 1027.5,229.5C 1027.5,229.833 1027.5,230.167 1027.5,230.5C 1025.16,231.086 1022.99,232.086 1021,233.5C 1018.29,241.306 1014.62,248.64 1010,255.5C 1004.29,259.216 999.957,264.216 997,270.5C 994.412,273.253 991.245,274.92 987.5,275.5C 983.167,285.5 978.833,295.5 974.5,305.5C 972.664,306.919 970.664,308.086 968.5,309C 966.372,312.13 963.872,314.963 961,317.5C 960.189,321.496 959.856,325.496 960,329.5C 963.17,337.172 966.336,344.838 969.5,352.5C 963.922,357.903 958.088,363.236 952,368.5C 948.213,374.815 946.046,381.648 945.5,389C 947.582,398.825 949.582,408.658 951.5,418.5C 950.958,422.301 949.958,425.967 948.5,429.5C 942.645,434.523 936.645,439.356 930.5,444C 923.325,442.253 915.991,441.586 908.5,442C 900.179,444.242 893.012,448.408 887,454.5C 882.544,460.625 877.711,466.458 872.5,472C 868.608,473.64 864.608,474.973 860.5,476C 859.17,478.877 859.336,481.711 861,484.5C 864.298,488.8 867.965,492.8 872,496.5C 872.333,497.5 872.667,498.5 873,499.5C 873.333,508.167 873.667,516.833 874,525.5C 875.699,534.226 880.365,540.893 888,545.5C 892.473,555.779 897.473,565.779 903,575.5C 913.345,584.181 925.178,590.014 938.5,593C 946.694,597.194 952.861,603.361 957,611.5C 960.503,623.351 965.17,634.685 971,645.5C 977.756,652.97 985.589,659.137 994.5,664C 998.175,666.828 1000.84,670.328 1002.5,674.5C 683.5,674.5 364.5,674.5 45.5,674.5C 44.6776,658.839 44.5109,643.173 45,627.5C 51.7037,614.121 60.7037,602.455 72,592.5C 76.5762,584.588 82.5762,577.922 90,572.5C 92.4013,567.768 93.068,562.768 92,557.5C 90.9667,554.967 89.1334,553.301 86.5,552.5C 73.6575,557.282 60.6575,561.782 47.5,566C 29.8748,569.349 15.3748,564.182 4,550.5C 2.17763,546.843 0.677626,543.176 -0.5,539.5C -0.5,538.167 -0.5,536.833 -0.5,535.5C -0.157251,530.346 2.50942,526.846 7.5,525C 17.1348,523.922 26.8014,523.255 36.5,523C 42.6314,521.017 48.298,518.184 53.5,514.5C 53.0403,509.871 51.0403,506.038 47.5,503C 58.7777,502.846 70.111,502.012 81.5,500.5C 83.8333,500.667 86.1667,500.833 88.5,501C 90.699,502.697 93.0324,504.197 95.5,505.5C 98.8272,503.278 102.494,502.112 106.5,502C 109.329,500.753 111.995,499.253 114.5,497.5C 115.833,498.5 117.167,499.5 118.5,500.5C 122.058,497.065 124.891,493.065 127,488.5C 127.758,486.231 127.591,484.064 126.5,482C 129.403,479.961 131.737,480.627 133.5,484C 144.498,484.706 155.498,485.372 166.5,486C 175.444,487.561 182.61,492.061 188,499.5C 186.738,505.572 189.238,508.072 195.5,507C 202.98,500.595 211.647,496.928 221.5,496C 227.857,494.93 232.024,491.43 234,485.5C 237.041,488.573 238.874,487.907 239.5,483.5C 240.328,482.585 241.328,481.919 242.5,481.5C 243.193,471.66 245.693,462.327 250,453.5C 251.292,455.249 252.458,457.082 253.5,459C 262.934,462.7 272.434,466.2 282,469.5C 284.453,468.173 286.953,467.339 289.5,467C 288.547,468.955 287.213,470.622 285.5,472C 288.278,477.084 292.611,480.418 298.5,482C 302.178,482.418 305.845,482.918 309.5,483.5C 315.794,482.188 321.794,480.022 327.5,477C 331.824,476.13 336.158,475.297 340.5,474.5C 341.625,471.55 343.625,469.55 346.5,468.5C 353.702,471.404 361.036,473.571 368.5,475C 371,471.167 374.167,468 378,465.5C 379.935,467.102 382.101,468.269 384.5,469C 401.602,473.087 418.769,476.921 436,480.5C 446.239,480.776 455.572,478.109 464,472.5C 464.438,479.134 467.938,481.3 474.5,479C 475.624,478.751 476.624,478.251 477.5,477.5C 479.504,474.458 481.504,471.458 483.5,468.5C 486.673,470.587 490.006,472.421 493.5,474C 497.882,474.457 502.216,474.457 506.5,474C 507.051,475.398 507.384,476.732 507.5,478C 509.749,478.863 511.582,478.363 513,476.5C 515.92,480.514 516.753,480.347 515.5,476C 516.522,473.455 517.688,470.955 519,468.5C 521,467.167 523,465.833 525,464.5C 525.442,461.695 524.942,459.028 523.5,456.5C 525.641,454.472 526.974,451.972 527.5,449C 528.416,448.626 529.25,448.126 530,447.5C 530.991,448.939 532.324,449.939 534,450.5C 534.973,448.36 536.473,446.693 538.5,445.5C 539.952,448.122 542.119,449.788 545,450.5C 552.991,447.857 559.991,443.523 566,437.5C 568.876,431.638 567.543,426.971 562,423.5C 561.261,417.969 562.595,412.969 566,408.5C 567.726,409.576 569.559,409.743 571.5,409C 575.411,407.209 579.411,405.709 583.5,404.5C 585.688,404.307 587.355,405.141 588.5,407C 598.395,406.439 603.729,401.105 604.5,391C 601.669,382.466 603.836,375.632 611,370.5C 611.797,367.78 612.963,365.28 614.5,363C 618.392,361.36 622.392,360.027 626.5,359C 634.372,358.826 642.039,357.492 649.5,355C 652.789,353.609 654.456,351.442 654.5,348.5C 650.755,350.704 646.755,352.371 642.5,353.5C 641,353.547 640,352.881 639.5,351.5C 640.333,349.833 641.167,348.167 642,346.5C 646.709,341.959 651.209,337.292 655.5,332.5C 656.544,320.625 661.71,310.958 671,303.5C 673.132,296.333 674.132,288.999 674,281.5C 668.744,285.211 663.578,289.045 658.5,293C 654.882,294.993 651.216,295.826 647.5,295.5C 645.88,292.119 646.713,289.453 650,287.5C 650.333,284.833 650.667,282.167 651,279.5C 653.222,277.615 655.056,275.449 656.5,273C 655.681,271.681 654.681,270.515 653.5,269.5C 646.824,275.267 640.824,281.6 635.5,288.5C 630.891,291.11 626.558,294.11 622.5,297.5C 622.167,296.5 621.833,295.5 621.5,294.5C 622.963,289.443 624.63,284.443 626.5,279.5C 625.604,277.199 625.438,274.866 626,272.5C 629.667,268.833 633.333,265.167 637,261.5C 637.975,254.832 638.809,248.166 639.5,241.5C 638.819,238.831 639.152,236.165 640.5,233.5C 633.504,222.688 631.337,211.021 634,198.5C 639.949,190.437 644.449,181.603 647.5,172C 647,170.5 646.5,169 646,167.5C 640.667,163.5 636,158.833 632,153.5C 630.177,146.606 629.011,139.606 628.5,132.5C 624.486,132.334 620.486,132.501 616.5,133C 602.242,138.397 587.909,138.73 573.5,134C 568.28,131.277 564.28,127.444 561.5,122.5C 564.083,118.986 564.583,115.319 563,111.5C 559.376,109.741 557.709,106.741 558,102.5C 557.215,100.714 556.049,99.214 554.5,98C 556.614,93.552 559.781,90.052 564,87.5C 567.596,80.2096 571.096,72.8763 574.5,65.5C 573.572,64.2322 573.405,62.8989 574,61.5C 576.026,57.9738 578.859,55.3071 582.5,53.5C 586.63,54.6238 590.63,55.9571 594.5,57.5C 598.375,57.1298 601.375,55.2964 603.5,52C 608.909,51.5952 613.075,49.0952 616,44.5C 617.074,40.6953 618.408,37.0286 620,33.5C 630.694,23.5678 642.527,15.2345 655.5,8.5C 656.944,6.39209 657.61,4.05875 657.5,1.5C 668.776,3.32624 680.109,4.82624 691.5,6C 699.848,11.1754 708.515,15.842 717.5,20C 728.672,20.3935 739.838,20.8935 751,21.5C 756.342,21.7158 761.509,20.8825 766.5,19C 775.089,14.734 783.422,10.0674 791.5,5C 796.168,2.82005 800.834,0.986719 805.5,-0.5 Z"/></g>
<g><path style="opacity:0.004" fill="#fefffe" d="M 42.5,501.5 C 42.8966,500.475 43.5632,500.308 44.5,501C 43.9056,501.464 43.2389,501.631 42.5,501.5 Z"/></g>
</svg>
