<?xml version="1.0" encoding="UTF-8"?>
<!DOCTYPE svg PUBLIC "-//W3C//DTD SVG 1.1//EN" "http://www.w3.org/Graphics/SVG/1.1/DTD/svg11.dtd">
<svg xmlns="http://www.w3.org/2000/svg" version="1.1" width="287px" height="201px" style="shape-rendering:geometricPrecision; text-rendering:geometricPrecision; image-rendering:optimizeQuality; fill-rule:evenodd; clip-rule:evenodd" xmlns:xlink="http://www.w3.org/1999/xlink">
<g><path style="opacity:0.012" fill="#fefffe" d="M 283.5,-0.5 C 283.833,-0.5 284.167,-0.5 284.5,-0.5C 284.523,24.0109 285.189,48.3442 286.5,72.5C 286.5,73.8333 286.5,75.1667 286.5,76.5C 276.816,91.6379 275.316,107.638 282,124.5C 282.667,127.167 282.667,129.833 282,132.5C 275.014,145.81 266.847,158.31 257.5,170C 251.757,168.367 245.757,167.701 239.5,168C 232.272,171.781 224.605,174.114 216.5,175C 212.993,177.254 209.327,179.254 205.5,181C 201.789,181.175 198.122,181.675 194.5,182.5C 193.948,184.333 193.115,186 192,187.5C 185.284,185.993 178.451,184.993 171.5,184.5C 159.009,185.946 146.676,188.113 134.5,191C 133.035,195.289 130.369,198.455 126.5,200.5C 125.5,200.5 124.5,200.5 123.5,200.5C 117.967,200.152 112.801,198.486 108,195.5C 104.67,196.977 101.17,197.811 97.5,198C 95.9336,198.608 94.6002,199.442 93.5,200.5C 91.8333,200.5 90.1667,200.5 88.5,200.5C 88.0472,199.542 87.3805,198.708 86.5,198C 84.0995,197.814 81.7662,197.314 79.5,196.5C 80.0402,195.252 80.7069,194.085 81.5,193C 81.1667,192.833 80.8333,192.667 80.5,192.5C 76.8614,194.811 73.0281,195.145 69,193.5C 61.3587,194.541 53.8587,195.874 46.5,197.5C 42.55,196.961 38.8833,195.628 35.5,193.5C 34.9276,191.922 34.5943,190.422 34.5,189C 23.2421,185.442 16.9088,178.109 15.5,167C 13.9697,164.648 12.3031,162.481 10.5,160.5C 10.6716,159.508 10.3382,158.842 9.5,158.5C 9.14138,156.515 8.30804,155.849 7,156.5C 6.83333,155.5 6.66667,154.5 6.5,153.5C 7.86613,147.123 10.0328,141.123 13,135.5C 17.28,133.553 20.6133,130.553 23,126.5C 27.0948,118.833 30.5948,110.833 33.5,102.5C 41.6112,98.2238 47.4445,91.8905 51,83.5C 54,81.1667 57,78.8333 60,76.5C 62.9299,70.4783 65.4299,64.3116 67.5,58C 72.359,54.5994 77.6923,53.2661 83.5,54C 85.3333,55.8333 87.1667,57.6667 89,59.5C 90,59.1667 91,58.8333 92,58.5C 92.3333,61.1667 92.6667,63.8333 93,66.5C 96.0075,68.0862 98.5075,70.2528 100.5,73C 103.741,74.0969 106.908,75.2635 110,76.5C 112.275,76.7224 113.441,75.7224 113.5,73.5C 119.07,71.2575 123.57,72.5908 127,77.5C 128.067,82.3676 129.734,87.0342 132,91.5C 132.893,92.0814 133.893,92.4148 135,92.5C 143.207,88.8777 151.707,86.0443 160.5,84C 164.605,80.9524 168.939,78.4524 173.5,76.5C 173.822,74.2776 173.155,72.4443 171.5,71C 165.917,66.694 159.584,64.3606 152.5,64C 150.004,62.9196 147.67,61.5862 145.5,60C 149.311,56.7046 153.645,55.7046 158.5,57C 160.087,56.1376 161.754,55.4709 163.5,55C 168.308,48.6804 174.475,46.8471 182,49.5C 185.985,46.0067 190.318,43.0067 195,40.5C 196,41.1667 197,41.8333 198,42.5C 203.683,37.153 209.683,32.153 216,27.5C 213.338,13.8589 218.504,5.19222 231.5,1.5C 233.029,1.52884 234.196,2.19551 235,3.5C 238.209,0.483411 241.709,-0.0165888 245.5,2C 249.101,7.80582 254.101,9.63916 260.5,7.5C 265.068,9.62429 269.401,8.95763 273.5,5.5C 274.086,5.70931 274.586,6.04265 275,6.5C 277.414,3.57936 280.247,1.24603 283.5,-0.5 Z"/></g>
<g><path style="opacity:0.004" fill="#fefffe" d="M 93.5,27.5 C 94.8333,28.1667 94.8333,28.1667 93.5,27.5 Z"/></g>
<g><path style="opacity:0.004" fill="#fefffe" d="M 96.5,29.5 C 95.8333,28.1667 95.8333,28.1667 96.5,29.5 Z"/></g>
<g><path style="opacity:0.004" fill="#fefffe" d="M 96.5,29.5 C 97.1667,29.5 97.5,29.8333 97.5,30.5C 97.1667,30.1667 96.8333,29.8333 96.5,29.5 Z"/></g>
<g><path style="opacity:0.004" fill="#fefffe" d="M 97.5,30.5 C 98.8333,31.1667 98.8333,31.1667 97.5,30.5 Z"/></g>
<g><path style="opacity:0.004" fill="#fefffe" d="M 98.5,32.5 C 99.8333,33.1667 99.8333,33.1667 98.5,32.5 Z"/></g>
<g><path style="opacity:0.004" fill="#fefffe" d="M 99.5,35.5 C 100.573,36.2506 100.74,37.2506 100,38.5C 99.5172,37.552 99.3505,36.552 99.5,35.5 Z"/></g>
<g><path style="opacity:0.004" fill="#fefffe" d="M 100.5,41.5 C 101.573,42.2506 101.74,43.2506 101,44.5C 100.517,43.552 100.351,42.552 100.5,41.5 Z"/></g>
<g><path style="opacity:0.004" fill="#fefffe" d="M 101.5,46.5 C 102.525,46.8966 102.692,47.5632 102,48.5C 101.536,47.9056 101.369,47.2389 101.5,46.5 Z"/></g>
<g><path style="opacity:0.004" fill="#fefffe" d="M 102.5,50.5 C 103.573,51.2506 103.74,52.2506 103,53.5C 102.517,52.552 102.351,51.552 102.5,50.5 Z"/></g>
<g><path style="opacity:0.004" fill="#fefffe" d="M 103.5,54.5 C 104.573,55.2506 104.74,56.2506 104,57.5C 103.517,56.552 103.351,55.552 103.5,54.5 Z"/></g>
<g><path style="opacity:0.004" fill="#fefffe" d="M 104.5,59.5 C 105.833,60.1667 105.833,60.1667 104.5,59.5 Z"/></g>
<g><path style="opacity:0.004" fill="#fefffe" d="M 105.5,61.5 C 106.833,62.1667 106.833,62.1667 105.5,61.5 Z"/></g>
<g><path style="opacity:0.004" fill="#fefffe" d="M 107.5,64.5 C 106.833,63.1667 106.833,63.1667 107.5,64.5 Z"/></g>
<g><path style="opacity:0.004" fill="#fefffe" d="M 107.5,64.5 C 108.833,65.1667 108.833,65.1667 107.5,64.5 Z"/></g>
<g><path style="opacity:0.004" fill="#fefffe" d="M 109.5,67.5 C 108.833,66.1667 108.833,66.1667 109.5,67.5 Z"/></g>
<g><path style="opacity:0.004" fill="#fefffe" d="M 109.5,67.5 C 110.833,68.1667 110.833,68.1667 109.5,67.5 Z"/></g>
<g><path style="opacity:0.004" fill="#fefffe" d="M 110.5,69.5 C 111.833,70.1667 111.833,70.1667 110.5,69.5 Z"/></g>
<g><path style="opacity:0.004" fill="#fefffe" d="M 112.5,72.5 C 111.833,71.1667 111.833,71.1667 112.5,72.5 Z"/></g>
<g><path style="opacity:0.004" fill="#fefffe" d="M 112.5,72.5 C 113.167,72.5 113.5,72.8333 113.5,73.5C 113.167,73.1667 112.833,72.8333 112.5,72.5 Z"/></g>
<g><path style="opacity:0.004" fill="#fefffe" d="M 9.5,158.5 C 8.83333,159.167 8.83333,159.167 9.5,158.5 Z"/></g>
<g><path style="opacity:0.004" fill="#fefffe" d="M -0.5,160.5 C 0.166667,160.5 0.5,160.833 0.5,161.5C 0.166667,161.167 -0.166667,160.833 -0.5,160.5 Z"/></g>
<g><path style="opacity:0.004" fill="#fefffe" d="M 10.5,160.5 C 9.83333,161.167 9.83333,161.167 10.5,160.5 Z"/></g>
<g><path style="opacity:0.004" fill="#fefffe" d="M 0.5,161.5 C 1.16667,161.5 1.5,161.833 1.5,162.5C 1.16667,162.167 0.833333,161.833 0.5,161.5 Z"/></g>
<g><path style="opacity:0.004" fill="#fefffe" d="M 1.5,162.5 C 2.83333,163.167 2.83333,163.167 1.5,162.5 Z"/></g>
<g><path style="opacity:0.004" fill="#fefffe" d="M 3.5,163.5 C 4.83333,164.167 4.83333,164.167 3.5,163.5 Z"/></g>
<g><path style="opacity:0.004" fill="#fefffe" d="M 5.5,165.5 C 5.89657,164.475 6.56323,164.308 7.5,165C 6.90558,165.464 6.23891,165.631 5.5,165.5 Z"/></g>
<g><path style="opacity:0.004" fill="#fefffe" d="M 9.5,166.5 C 9.89657,165.475 10.5632,165.308 11.5,166C 10.9056,166.464 10.2389,166.631 9.5,166.5 Z"/></g>
</svg>
