<?xml version="1.0" encoding="UTF-8"?>
<!DOCTYPE svg PUBLIC "-//W3C//DTD SVG 1.1//EN" "http://www.w3.org/Graphics/SVG/1.1/DTD/svg11.dtd">
<svg xmlns="http://www.w3.org/2000/svg" version="1.1" width="226px" height="166px" style="shape-rendering:geometricPrecision; text-rendering:geometricPrecision; image-rendering:optimizeQuality; fill-rule:evenodd; clip-rule:evenodd" xmlns:xlink="http://www.w3.org/1999/xlink">
<g><path style="opacity:0.012" fill="#fefffe" d="M 42.5,-0.5 C 42.8333,-0.5 43.1667,-0.5 43.5,-0.5C 45.0252,3.40899 46.3586,7.40899 47.5,11.5C 48.6651,12.5836 49.9984,13.4169 51.5,14C 61.1895,14.3521 70.8562,15.0187 80.5,16C 84.5,17.6667 88.5,19.3333 92.5,21C 109,22.8333 125.5,24.6667 142,26.5C 149.488,25.834 156.988,25.334 164.5,25C 172.847,21.6446 181.514,20.6446 190.5,22C 198.057,26.4416 201.724,33.1082 201.5,42C 203.29,43.7339 205.29,45.2339 207.5,46.5C 213.527,57.2291 219.527,67.8957 225.5,78.5C 225.5,79.1667 225.5,79.8333 225.5,80.5C 222.204,92.3 214.537,100.133 202.5,104C 194.191,105.061 190.524,109.894 191.5,118.5C 192.335,125.843 192.835,133.176 193,140.5C 189.814,142.839 187.648,145.839 186.5,149.5C 177.69,151.244 168.857,152.91 160,154.5C 150.493,153.611 140.993,153.111 131.5,153C 126.379,156.453 121.546,160.286 117,164.5C 113.55,163.617 110.05,162.784 106.5,162C 94.7594,153.071 81.7594,150.737 67.5,155C 57.4394,155.895 47.4394,155.562 37.5,154C 31.0303,151.203 27.197,146.37 26,139.5C 25.6667,131.5 25.3333,123.5 25,115.5C 22.7098,112.42 20.5431,109.253 18.5,106C 14.6667,103.5 10.8333,101 7,98.5C 5.25405,94.6733 3.25405,91.0066 1,87.5C 0.826691,81.9842 0.326691,76.6509 -0.5,71.5C -0.5,61.5 -0.5,51.5 -0.5,41.5C 1.60068,37.3898 3.43401,33.0565 5,28.5C 13.1667,21 21.3333,13.5 29.5,6C 34.4847,4.84122 38.818,2.67455 42.5,-0.5 Z"/></g>
<g><path style="opacity:0.004" fill="#fefffe" d="M 24.5,140.5 C 25.8333,141.167 25.8333,141.167 24.5,140.5 Z"/></g>
<g><path style="opacity:0.004" fill="#fefffe" d="M 24.5,141.5 C 23.8333,142.167 23.8333,142.167 24.5,141.5 Z"/></g>
<g><path style="opacity:0.004" fill="#fefffe" d="M 23.5,142.5 C 22.8333,143.167 22.8333,143.167 23.5,142.5 Z"/></g>
<g><path style="opacity:0.004" fill="#fefffe" d="M 22.5,143.5 C 21.8333,144.167 21.8333,144.167 22.5,143.5 Z"/></g>
<g><path style="opacity:0.004" fill="#fefffe" d="M 21.5,144.5 C 20.8333,145.167 20.8333,145.167 21.5,144.5 Z"/></g>
<g><path style="opacity:0.004" fill="#fefffe" d="M 20.5,145.5 C 19.8333,146.167 19.8333,146.167 20.5,145.5 Z"/></g>
<g><path style="opacity:0.004" fill="#fefffe" d="M 19.5,146.5 C 18.8333,147.167 18.8333,147.167 19.5,146.5 Z"/></g>
<g><path style="opacity:0.004" fill="#fefffe" d="M 18.5,147.5 C 17.8333,148.167 17.8333,148.167 18.5,147.5 Z"/></g>
<g><path style="opacity:0.004" fill="#fefffe" d="M 17.5,148.5 C 16.8333,149.167 16.8333,149.167 17.5,148.5 Z"/></g>
<g><path style="opacity:0.004" fill="#fefffe" d="M 16.5,149.5 C 15.8333,150.167 15.8333,150.167 16.5,149.5 Z"/></g>
<g><path style="opacity:0.004" fill="#fefffe" d="M 186.5,149.5 C 187.167,149.5 187.5,149.833 187.5,150.5C 187.167,150.167 186.833,149.833 186.5,149.5 Z"/></g>
<g><path style="opacity:0.004" fill="#fefffe" d="M 15.5,150.5 C 14.8333,151.167 14.8333,151.167 15.5,150.5 Z"/></g>
<g><path style="opacity:0.004" fill="#fefffe" d="M 187.5,150.5 C 188.833,151.167 188.833,151.167 187.5,150.5 Z"/></g>
<g><path style="opacity:0.004" fill="#fefffe" d="M 14.5,151.5 C 13.8333,152.167 13.8333,152.167 14.5,151.5 Z"/></g>
<g><path style="opacity:0.004" fill="#fefffe" d="M 13.5,152.5 C 12.8333,153.167 12.8333,153.167 13.5,152.5 Z"/></g>
<g><path style="opacity:0.004" fill="#fefffe" d="M 189.5,153.5 C 188.833,152.167 188.833,152.167 189.5,153.5 Z"/></g>
<g><path style="opacity:0.004" fill="#fefffe" d="M 12.5,153.5 C 11.8333,154.167 11.8333,154.167 12.5,153.5 Z"/></g>
<g><path style="opacity:0.004" fill="#fefffe" d="M 189.5,153.5 C 190.167,153.5 190.5,153.833 190.5,154.5C 190.167,154.167 189.833,153.833 189.5,153.5 Z"/></g>
<g><path style="opacity:0.004" fill="#fefffe" d="M 190.5,154.5 C 191.833,155.167 191.833,155.167 190.5,154.5 Z"/></g>
<g><path style="opacity:0.004" fill="#fefffe" d="M 192.5,157.5 C 191.833,156.167 191.833,156.167 192.5,157.5 Z"/></g>
<g><path style="opacity:0.004" fill="#fefffe" d="M 192.5,157.5 C 193.167,157.5 193.5,157.833 193.5,158.5C 193.167,158.167 192.833,157.833 192.5,157.5 Z"/></g>
<g><path style="opacity:0.004" fill="#fefffe" d="M 193.5,158.5 C 194.833,159.167 194.833,159.167 193.5,158.5 Z"/></g>
<g><path style="opacity:0.004" fill="#fefffe" d="M 196.5,162.5 C 195.833,161.167 195.833,161.167 196.5,162.5 Z"/></g>
<g><path style="opacity:0.004" fill="#fefffe" d="M 196.5,162.5 C 197.167,162.5 197.5,162.833 197.5,163.5C 197.167,163.167 196.833,162.833 196.5,162.5 Z"/></g>
<g><path style="opacity:0.004" fill="#fefffe" d="M 197.5,163.5 C 198.833,164.167 198.833,164.167 197.5,163.5 Z"/></g>
<g><path style="opacity:0.004" fill="#fefffe" d="M 201.5,165.5 C 200.833,164.167 200.833,164.167 201.5,165.5 Z"/></g>
</svg>
