<?xml version="1.0" encoding="UTF-8"?>
<!DOCTYPE svg PUBLIC "-//W3C//DTD SVG 1.1//EN" "http://www.w3.org/Graphics/SVG/1.1/DTD/svg11.dtd">
<svg xmlns="http://www.w3.org/2000/svg" version="1.1" width="288px" height="271px" style="shape-rendering:geometricPrecision; text-rendering:geometricPrecision; image-rendering:optimizeQuality; fill-rule:evenodd; clip-rule:evenodd" xmlns:xlink="http://www.w3.org/1999/xlink">
<g><path style="opacity:0.012" fill="#fefffe" d="M 140.5,-0.5 C 141.5,-0.5 142.5,-0.5 143.5,-0.5C 145.273,0.892318 147.273,2.05898 149.5,3C 152.56,8.36955 157.227,11.3696 163.5,12C 169.833,12.6667 176.167,12.6667 182.5,12C 194.841,10.8694 207.175,9.70275 219.5,8.5C 229.671,8.0394 239.337,9.87274 248.5,14C 255.5,14.3333 262.5,14.6667 269.5,15C 277.652,16.8817 283.652,21.3817 287.5,28.5C 287.5,30.1667 287.5,31.8333 287.5,33.5C 286.531,35.663 285.698,37.9963 285,40.5C 281.368,43.1298 278.035,46.1298 275,49.5C 271.274,54.228 267.941,59.228 265,64.5C 264.107,67.433 263.607,70.433 263.5,73.5C 263.931,77.2497 264.431,80.9164 265,84.5C 260.753,87.7084 256.253,90.5417 251.5,93C 249.951,94.214 248.785,95.714 248,97.5C 245.414,107.888 244.914,118.388 246.5,129C 245.601,133.363 244.101,137.529 242,141.5C 234.377,147.122 227.377,153.456 221,160.5C 219.963,163.276 219.13,166.11 218.5,169C 220.269,174.974 222.436,180.808 225,186.5C 225.498,189.482 225.665,192.482 225.5,195.5C 219.045,195.15 212.711,195.817 206.5,197.5C 202.419,207.081 195.752,214.248 186.5,219C 168.933,222.393 151.6,226.393 134.5,231C 135.931,230.535 137.097,229.701 138,228.5C 139.663,224.504 141.829,220.837 144.5,217.5C 143.608,214.716 142.442,212.05 141,209.5C 134.459,202.628 128.293,195.461 122.5,188C 116.584,187.81 110.751,187.31 105,186.5C 99.6278,178.422 95.2945,169.756 92,160.5C 89.1655,151.161 86.3322,141.828 83.5,132.5C 80.579,130.911 77.579,129.411 74.5,128C 71.8742,123.916 69.3742,119.75 67,115.5C 65.8289,114.107 64.3289,113.273 62.5,113C 63.3081,112.692 63.9747,112.192 64.5,111.5C 59.904,100.837 61.0707,90.837 68,81.5C 72.0884,65.3807 74.9217,49.0473 76.5,32.5C 86.7204,32.0917 93.2204,27.0917 96,17.5C 97.923,16.6839 99.923,16.0172 102,15.5C 106.333,17.5 110.667,19.5 115,21.5C 125.093,22.0713 131.093,17.4047 133,7.5C 135.705,4.96376 138.205,2.29709 140.5,-0.5 Z"/></g>
<g><path style="opacity:0.004" fill="#fefffe" d="M -0.5,79.5 C 0.833333,80.1667 0.833333,80.1667 -0.5,79.5 Z"/></g>
<g><path style="opacity:0.004" fill="#fefffe" d="M 1.5,81.5 C 2.25057,80.4265 3.25057,80.2599 4.5,81C 3.55198,81.4828 2.55198,81.6495 1.5,81.5 Z"/></g>
<g><path style="opacity:0.004" fill="#fefffe" d="M 5.5,82.5 C 5.89657,81.475 6.56323,81.3083 7.5,82C 6.90558,82.4643 6.23891,82.631 5.5,82.5 Z"/></g>
<g><path style="opacity:0.004" fill="#fefffe" d="M 8.5,82.5 C 9.83333,83.1667 9.83333,83.1667 8.5,82.5 Z"/></g>
<g><path style="opacity:0.004" fill="#fefffe" d="M 10.5,83.5 C 11.8333,84.1667 11.8333,84.1667 10.5,83.5 Z"/></g>
<g><path style="opacity:0.004" fill="#fefffe" d="M 13.5,85.5 C 12.8333,84.1667 12.8333,84.1667 13.5,85.5 Z"/></g>
<g><path style="opacity:0.004" fill="#fefffe" d="M 13.5,85.5 C 14.8333,86.1667 14.8333,86.1667 13.5,85.5 Z"/></g>
<g><path style="opacity:0.004" fill="#fefffe" d="M 15.5,86.5 C 16.8333,87.1667 16.8333,87.1667 15.5,86.5 Z"/></g>
<g><path style="opacity:0.004" fill="#fefffe" d="M 18.5,88.5 C 17.8333,87.1667 17.8333,87.1667 18.5,88.5 Z"/></g>
<g><path style="opacity:0.004" fill="#fefffe" d="M 18.5,88.5 C 19.8333,89.1667 19.8333,89.1667 18.5,88.5 Z"/></g>
<g><path style="opacity:0.004" fill="#fefffe" d="M 20.5,89.5 C 21.8333,90.1667 21.8333,90.1667 20.5,89.5 Z"/></g>
<g><path style="opacity:0.004" fill="#fefffe" d="M 22.5,90.5 C 23.8333,91.1667 23.8333,91.1667 22.5,90.5 Z"/></g>
<g><path style="opacity:0.004" fill="#fefffe" d="M 25.5,92.5 C 24.8333,91.1667 24.8333,91.1667 25.5,92.5 Z"/></g>
<g><path style="opacity:0.004" fill="#fefffe" d="M 25.5,92.5 C 26.8333,93.1667 26.8333,93.1667 25.5,92.5 Z"/></g>
<g><path style="opacity:0.004" fill="#fefffe" d="M 27.5,93.5 C 28.8333,94.1667 28.8333,94.1667 27.5,93.5 Z"/></g>
<g><path style="opacity:0.004" fill="#fefffe" d="M 30.5,95.5 C 29.8333,94.1667 29.8333,94.1667 30.5,95.5 Z"/></g>
<g><path style="opacity:0.004" fill="#fefffe" d="M 30.5,95.5 C 31.8333,96.1667 31.8333,96.1667 30.5,95.5 Z"/></g>
<g><path style="opacity:0.004" fill="#fefffe" d="M 32.5,96.5 C 33.8333,97.1667 33.8333,97.1667 32.5,96.5 Z"/></g>
<g><path style="opacity:0.004" fill="#fefffe" d="M 35.5,98.5 C 34.8333,97.1667 34.8333,97.1667 35.5,98.5 Z"/></g>
<g><path style="opacity:0.004" fill="#fefffe" d="M 35.5,98.5 C 36.8333,99.1667 36.8333,99.1667 35.5,98.5 Z"/></g>
<g><path style="opacity:0.004" fill="#fefffe" d="M 37.5,99.5 C 38.8333,100.167 38.8333,100.167 37.5,99.5 Z"/></g>
<g><path style="opacity:0.004" fill="#fefffe" d="M 40.5,101.5 C 39.8333,100.167 39.8333,100.167 40.5,101.5 Z"/></g>
<g><path style="opacity:0.004" fill="#fefffe" d="M 40.5,101.5 C 41.8333,102.167 41.8333,102.167 40.5,101.5 Z"/></g>
<g><path style="opacity:0.004" fill="#fefffe" d="M 42.5,102.5 C 43.8333,103.167 43.8333,103.167 42.5,102.5 Z"/></g>
<g><path style="opacity:0.004" fill="#fefffe" d="M 45.5,104.5 C 44.8333,103.167 44.8333,103.167 45.5,104.5 Z"/></g>
<g><path style="opacity:0.004" fill="#fefffe" d="M 45.5,104.5 C 46.8333,105.167 46.8333,105.167 45.5,104.5 Z"/></g>
<g><path style="opacity:0.004" fill="#fefffe" d="M 47.5,105.5 C 48.8333,106.167 48.8333,106.167 47.5,105.5 Z"/></g>
<g><path style="opacity:0.004" fill="#fefffe" d="M 50.5,107.5 C 49.8333,106.167 49.8333,106.167 50.5,107.5 Z"/></g>
<g><path style="opacity:0.004" fill="#fefffe" d="M 50.5,107.5 C 51.8333,108.167 51.8333,108.167 50.5,107.5 Z"/></g>
<g><path style="opacity:0.004" fill="#fefffe" d="M 52.5,108.5 C 53.8333,109.167 53.8333,109.167 52.5,108.5 Z"/></g>
<g><path style="opacity:0.004" fill="#fefffe" d="M 55.5,110.5 C 54.8333,109.167 54.8333,109.167 55.5,110.5 Z"/></g>
<g><path style="opacity:0.004" fill="#fefffe" d="M 55.5,110.5 C 56.2389,110.369 56.9056,110.536 57.5,111C 56.5632,111.692 55.8966,111.525 55.5,110.5 Z"/></g>
<g><path style="opacity:0.004" fill="#fefffe" d="M 59.5,112.5 C 59.8966,111.475 60.5632,111.308 61.5,112C 60.9056,112.464 60.2389,112.631 59.5,112.5 Z"/></g>
<g><path style="opacity:0.004" fill="#fefffe" d="M 131.5,232.5 C 131.897,231.475 132.563,231.308 133.5,232C 132.906,232.464 132.239,232.631 131.5,232.5 Z"/></g>
<g><path style="opacity:0.004" fill="#fefffe" d="M 128.5,232.5 C 129.833,233.167 129.833,233.167 128.5,232.5 Z"/></g>
<g><path style="opacity:0.004" fill="#fefffe" d="M 124.5,234.5 C 124.897,233.475 125.563,233.308 126.5,234C 125.906,234.464 125.239,234.631 124.5,234.5 Z"/></g>
<g><path style="opacity:0.004" fill="#fefffe" d="M 122.5,235.5 C 123.833,236.167 123.833,236.167 122.5,235.5 Z"/></g>
<g><path style="opacity:0.004" fill="#fefffe" d="M 122.5,236.5 C 121.833,237.167 121.833,237.167 122.5,236.5 Z"/></g>
<g><path style="opacity:0.004" fill="#fefffe" d="M 120.5,238.5 C 121.833,239.167 121.833,239.167 120.5,238.5 Z"/></g>
<g><path style="opacity:0.004" fill="#fefffe" d="M 120.5,239.5 C 119.833,240.167 119.833,240.167 120.5,239.5 Z"/></g>
<g><path style="opacity:0.004" fill="#fefffe" d="M 118.5,241.5 C 119.833,242.167 119.833,242.167 118.5,241.5 Z"/></g>
<g><path style="opacity:0.004" fill="#fefffe" d="M 118.5,242.5 C 117.833,243.167 117.833,243.167 118.5,242.5 Z"/></g>
<g><path style="opacity:0.004" fill="#fefffe" d="M 116.5,244.5 C 117.833,245.167 117.833,245.167 116.5,244.5 Z"/></g>
<g><path style="opacity:0.004" fill="#fefffe" d="M 116.5,245.5 C 115.833,246.167 115.833,246.167 116.5,245.5 Z"/></g>
<g><path style="opacity:0.004" fill="#fefffe" d="M 114.5,247.5 C 115.833,248.167 115.833,248.167 114.5,247.5 Z"/></g>
<g><path style="opacity:0.004" fill="#fefffe" d="M 114.5,248.5 C 113.833,249.167 113.833,249.167 114.5,248.5 Z"/></g>
<g><path style="opacity:0.004" fill="#fefffe" d="M 111.5,251.5 C 112.833,252.167 112.833,252.167 111.5,251.5 Z"/></g>
<g><path style="opacity:0.004" fill="#fefffe" d="M 111.5,252.5 C 110.833,253.167 110.833,253.167 111.5,252.5 Z"/></g>
<g><path style="opacity:0.004" fill="#fefffe" d="M 107.5,255.5 C 107.897,254.475 108.563,254.308 109.5,255C 108.906,255.464 108.239,255.631 107.5,255.5 Z"/></g>
<g><path style="opacity:0.004" fill="#fefffe" d="M 104.5,256.5 C 104.897,255.475 105.563,255.308 106.5,256C 105.906,256.464 105.239,256.631 104.5,256.5 Z"/></g>
<g><path style="opacity:0.004" fill="#fefffe" d="M 101.5,257.5 C 101.897,256.475 102.563,256.308 103.5,257C 102.906,257.464 102.239,257.631 101.5,257.5 Z"/></g>
<g><path style="opacity:0.004" fill="#fefffe" d="M 98.5,258.5 C 98.8966,257.475 99.5632,257.308 100.5,258C 99.9056,258.464 99.2389,258.631 98.5,258.5 Z"/></g>
<g><path style="opacity:0.004" fill="#fefffe" d="M 95.5,259.5 C 95.8966,258.475 96.5632,258.308 97.5,259C 96.9056,259.464 96.2389,259.631 95.5,259.5 Z"/></g>
<g><path style="opacity:0.004" fill="#fefffe" d="M 92.5,260.5 C 92.8966,259.475 93.5632,259.308 94.5,260C 93.9056,260.464 93.2389,260.631 92.5,260.5 Z"/></g>
<g><path style="opacity:0.004" fill="#fefffe" d="M 89.5,260.5 C 90.8333,261.167 90.8333,261.167 89.5,260.5 Z"/></g>
<g><path style="opacity:0.004" fill="#fefffe" d="M 85.5,262.5 C 85.8966,261.475 86.5632,261.308 87.5,262C 86.9056,262.464 86.2389,262.631 85.5,262.5 Z"/></g>
<g><path style="opacity:0.004" fill="#fefffe" d="M 82.5,263.5 C 82.8966,262.475 83.5632,262.308 84.5,263C 83.9056,263.464 83.2389,263.631 82.5,263.5 Z"/></g>
<g><path style="opacity:0.004" fill="#fefffe" d="M 79.5,264.5 C 79.8966,263.475 80.5632,263.308 81.5,264C 80.9056,264.464 80.2389,264.631 79.5,264.5 Z"/></g>
<g><path style="opacity:0.004" fill="#fefffe" d="M 77.5,264.5 C 78.8333,265.167 78.8333,265.167 77.5,264.5 Z"/></g>
<g><path style="opacity:0.004" fill="#fefffe" d="M 77.5,265.5 C 76.8333,266.167 76.8333,266.167 77.5,265.5 Z"/></g>
<g><path style="opacity:0.004" fill="#fefffe" d="M 76.5,266.5 C 75.8333,267.167 75.8333,267.167 76.5,266.5 Z"/></g>
<g><path style="opacity:0.004" fill="#fefffe" d="M 72.5,268.5 C 73.8333,269.167 73.8333,269.167 72.5,268.5 Z"/></g>
<g><path style="opacity:0.004" fill="#fefffe" d="M 72.5,269.5 C 72.5,269.833 72.5,270.167 72.5,270.5C 71.8299,270.019 71.8299,269.685 72.5,269.5 Z"/></g>
</svg>
