<?xml version="1.0" encoding="UTF-8"?>
<!DOCTYPE svg PUBLIC "-//W3C//DTD SVG 1.1//EN" "http://www.w3.org/Graphics/SVG/1.1/DTD/svg11.dtd">
<svg xmlns="http://www.w3.org/2000/svg" version="1.1" width="231px" height="280px" style="shape-rendering:geometricPrecision; text-rendering:geometricPrecision; image-rendering:optimizeQuality; fill-rule:evenodd; clip-rule:evenodd" xmlns:xlink="http://www.w3.org/1999/xlink">
<g><path style="opacity:0.012" fill="#fefffe" d="M 170.5,-0.5 C 171.167,-0.5 171.833,-0.5 172.5,-0.5C 174.65,1.9808 177.316,3.64747 180.5,4.5C 194.677,3.0851 208.677,1.41844 222.5,-0.5C 225.167,-0.5 227.833,-0.5 230.5,-0.5C 230.5,0.833333 230.5,2.16667 230.5,3.5C 227.382,13.963 224.549,24.6296 222,35.5C 222.879,44.4593 223.213,53.4593 223,62.5C 216.165,74.1738 208.832,85.5072 201,96.5C 193.777,110.228 189.944,124.895 189.5,140.5C 189.538,162.313 193.205,183.479 200.5,204C 199.389,207.055 197.889,209.888 196,212.5C 196.166,221.827 196.166,231.161 196,240.5C 194.271,246.297 191.271,251.297 187,255.5C 183.821,253.073 180.654,250.739 177.5,248.5C 178.167,243.167 178.833,237.833 179.5,232.5C 178.675,231.614 177.675,231.281 176.5,231.5C 177.15,227.393 176.15,223.893 173.5,221C 162.817,220.354 152.15,220.521 141.5,221.5C 141.44,217.604 139.44,215.438 135.5,215C 115.126,212.062 96.1259,215.729 78.5,226C 72.576,231.928 66.076,237.094 59,241.5C 57.5944,236.427 54.4277,232.927 49.5,231C 46.593,227.849 43.9264,224.516 41.5,221C 33.4049,217.894 26.0715,213.561 19.5,208C 18.1981,205.787 17.1981,203.454 16.5,201C 12.9714,199.534 9.30477,198.534 5.5,198C 3.34004,196.668 1.34004,195.168 -0.5,193.5C -0.5,192.833 -0.5,192.167 -0.5,191.5C 7.13337,182.258 14.3,172.591 21,162.5C 22.6461,158.71 24.1461,154.877 25.5,151C 23.8124,143.25 21.8124,135.583 19.5,128C 20.1114,117.833 22.9447,108.333 28,99.5C 27.8419,73.4933 27.5085,47.4933 27,21.5C 29.2129,22.8019 31.5463,23.8019 34,24.5C 34.3095,25.7659 34.8095,26.9326 35.5,28C 34.1577,30.015 33.6577,32.1817 34,34.5C 36.7359,35.7272 39.5692,36.7272 42.5,37.5C 47.508,36.4945 52.1747,34.6612 56.5,32C 59.8168,31.5017 63.1501,31.335 66.5,31.5C 67.2578,28.5127 68.0911,25.5127 69,22.5C 74.1053,24.4459 78.6053,23.6126 82.5,20C 93.5323,20.511 104.532,19.8443 115.5,18C 118.473,16.6897 120.807,14.6897 122.5,12C 123.872,11.5983 125.205,11.0983 126.5,10.5C 130.941,11.8701 134.441,10.5367 137,6.5C 141.463,5.4218 145.629,6.25514 149.5,9C 153.546,9.65834 156.879,8.32501 159.5,5C 164.306,5.26397 167.972,3.43064 170.5,-0.5 Z"/></g>
<g><path style="opacity:0.004" fill="#fefffe" d="M 59.5,242.5 C 60.525,242.897 60.6917,243.563 60,244.5C 59.5357,243.906 59.369,243.239 59.5,242.5 Z"/></g>
<g><path style="opacity:0.004" fill="#fefffe" d="M 60.5,245.5 C 61.8333,246.167 61.8333,246.167 60.5,245.5 Z"/></g>
<g><path style="opacity:0.004" fill="#fefffe" d="M 62.5,248.5 C 61.8333,247.167 61.8333,247.167 62.5,248.5 Z"/></g>
<g><path style="opacity:0.004" fill="#fefffe" d="M 62.5,248.5 C 63.8333,249.167 63.8333,249.167 62.5,248.5 Z"/></g>
<g><path style="opacity:0.004" fill="#fefffe" d="M 63.5,250.5 C 64.8333,251.167 64.8333,251.167 63.5,250.5 Z"/></g>
<g><path style="opacity:0.004" fill="#fefffe" d="M 65.5,253.5 C 64.8333,252.167 64.8333,252.167 65.5,253.5 Z"/></g>
<g><path style="opacity:0.004" fill="#fefffe" d="M 65.5,253.5 C 66.8333,254.167 66.8333,254.167 65.5,253.5 Z"/></g>
<g><path style="opacity:0.004" fill="#fefffe" d="M 67.5,256.5 C 68.2506,255.427 69.2506,255.26 70.5,256C 69.552,256.483 68.552,256.649 67.5,256.5 Z"/></g>
<g><path style="opacity:0.004" fill="#fefffe" d="M 72.5,257.5 C 73.6009,256.402 74.9343,256.235 76.5,257C 75.2068,257.49 73.8734,257.657 72.5,257.5 Z"/></g>
<g><path style="opacity:0.004" fill="#fefffe" d="M 188.5,256.5 C 189.573,257.251 189.74,258.251 189,259.5C 188.517,258.552 188.351,257.552 188.5,256.5 Z"/></g>
<g><path style="opacity:0.004" fill="#fefffe" d="M 86.5,260.5 C 85.8333,259.167 85.8333,259.167 86.5,260.5 Z"/></g>
<g><path style="opacity:0.004" fill="#fefffe" d="M 86.5,260.5 C 87.8333,261.167 87.8333,261.167 86.5,260.5 Z"/></g>
<g><path style="opacity:0.004" fill="#fefffe" d="M 189.5,261.5 C 190.573,262.251 190.74,263.251 190,264.5C 189.517,263.552 189.351,262.552 189.5,261.5 Z"/></g>
<g><path style="opacity:0.004" fill="#fefffe" d="M 89.5,264.5 C 88.8333,263.167 88.8333,263.167 89.5,264.5 Z"/></g>
<g><path style="opacity:0.004" fill="#fefffe" d="M 89.5,264.5 C 90.8333,265.167 90.8333,265.167 89.5,264.5 Z"/></g>
<g><path style="opacity:0.004" fill="#fefffe" d="M 189.5,265.5 C 190.525,265.897 190.692,266.563 190,267.5C 189.536,266.906 189.369,266.239 189.5,265.5 Z"/></g>
<g><path style="opacity:0.004" fill="#fefffe" d="M 91.5,267.5 C 92.8333,268.167 92.8333,268.167 91.5,267.5 Z"/></g>
<g><path style="opacity:0.004" fill="#fefffe" d="M 93.5,268.5 C 94.8333,269.167 94.8333,269.167 93.5,268.5 Z"/></g>
<g><path style="opacity:0.004" fill="#fefffe" d="M 188.5,268.5 C 189.833,269.167 189.833,269.167 188.5,268.5 Z"/></g>
<g><path style="opacity:0.004" fill="#fefffe" d="M 187.5,270.5 C 188.525,270.897 188.692,271.563 188,272.5C 187.536,271.906 187.369,271.239 187.5,270.5 Z"/></g>
<g><path style="opacity:0.004" fill="#fefffe" d="M 189.5,273.5 C 189.897,272.475 190.563,272.308 191.5,273C 190.906,273.464 190.239,273.631 189.5,273.5 Z"/></g>
<g><path style="opacity:0.004" fill="#fefffe" d="M 192.5,274.5 C 192.897,273.475 193.563,273.308 194.5,274C 193.906,274.464 193.239,274.631 192.5,274.5 Z"/></g>
<g><path style="opacity:0.004" fill="#fefffe" d="M 196.5,275.5 C 196.897,274.475 197.563,274.308 198.5,275C 197.906,275.464 197.239,275.631 196.5,275.5 Z"/></g>
<g><path style="opacity:0.004" fill="#fefffe" d="M 200.5,279.5 C 200.167,279.5 199.833,279.5 199.5,279.5C 199.833,274.167 200.167,274.167 200.5,279.5 Z"/></g>
</svg>
