<?xml version="1.0" encoding="UTF-8"?>
<!DOCTYPE svg PUBLIC "-//W3C//DTD SVG 1.1//EN" "http://www.w3.org/Graphics/SVG/1.1/DTD/svg11.dtd">
<svg xmlns="http://www.w3.org/2000/svg" version="1.1" width="370px" height="244px" style="shape-rendering:geometricPrecision; text-rendering:geometricPrecision; image-rendering:optimizeQuality; fill-rule:evenodd; clip-rule:evenodd" xmlns:xlink="http://www.w3.org/1999/xlink">
<g><path style="opacity:0.004" fill="#fefffe" d="M 368.5,-0.5 C 368.833,-0.5 369.167,-0.5 369.5,-0.5C 369.5,0.166667 369.5,0.833333 369.5,1.5C 368.662,1.15829 368.328,0.491622 368.5,-0.5 Z"/></g>
<g><path style="opacity:0.004" fill="#fefffe" d="M 367.5,3.5 C 368.525,3.89657 368.692,4.56323 368,5.5C 367.536,4.90558 367.369,4.23891 367.5,3.5 Z"/></g>
<g><path style="opacity:0.004" fill="#fefffe" d="M 366.5,6.5 C 367.525,6.89657 367.692,7.56323 367,8.5C 366.536,7.90558 366.369,7.23891 366.5,6.5 Z"/></g>
<g><path style="opacity:0.004" fill="#fefffe" d="M 365.5,10.5 C 366.525,10.8966 366.692,11.5632 366,12.5C 365.536,11.9056 365.369,11.2389 365.5,10.5 Z"/></g>
<g><path style="opacity:0.004" fill="#fefffe" d="M 364.5,14.5 C 365.833,15.1667 365.833,15.1667 364.5,14.5 Z"/></g>
<g><path style="opacity:0.004" fill="#fefffe" d="M 365.5,19.5 C 366.613,20.9464 366.78,22.6131 366,24.5C 365.506,22.8659 365.34,21.1992 365.5,19.5 Z"/></g>
<g><path style="opacity:0.012" fill="#fefffe" d="M 66.5,243.5 C 65.1667,243.5 63.8333,243.5 62.5,243.5C 62.6663,236.159 62.4997,228.826 62,221.5C 60.3804,219.759 58.8804,217.925 57.5,216C 48.746,213.978 40.0794,211.645 31.5,209C 26.9093,202.405 21.576,196.405 15.5,191C 11.3741,189.792 7.37414,188.292 3.5,186.5C 6.2363,181.477 7.06963,176.144 6,170.5C 3.11,164.98 0.943331,159.314 -0.5,153.5C -0.5,152.167 -0.5,150.833 -0.5,149.5C 2.86461,142.965 7.86461,137.798 14.5,134C 24.7043,131.606 35.0376,129.94 45.5,129C 53.0118,126.447 57.0118,121.281 57.5,113.5C 56.4133,104.483 55.5799,95.4831 55,86.5C 55.4893,80.3205 58.3226,75.8205 63.5,73C 77.8971,71.8772 92.2305,70.3772 106.5,68.5C 107.167,68.8333 107.833,69.1667 108.5,69.5C 114.886,66.8712 121.386,64.5379 128,62.5C 138.11,64.9342 148.277,65.1009 158.5,63C 175.646,57.0264 193.312,54.0264 211.5,54C 229.4,48.6913 247.4,43.6913 265.5,39C 280.222,39.8639 294.888,40.1972 309.5,40C 317.072,39.2857 322.072,42.4523 324.5,49.5C 322.393,53.3806 320.559,57.3806 319,61.5C 317.185,63.4049 315.185,65.0716 313,66.5C 311.005,71.1602 308.505,75.4935 305.5,79.5C 299.962,81.9014 294.295,83.9014 288.5,85.5C 282.516,84.7016 276.516,84.0349 270.5,83.5C 243.874,84.7865 217.541,88.2865 191.5,94C 178.584,100.417 164.917,103.75 150.5,104C 144.834,105.221 139.501,107.221 134.5,110C 141.462,114.101 148.796,117.434 156.5,120C 159,122.5 161.5,125 164,127.5C 163.833,131.188 163.166,134.855 162,138.5C 159,141.5 156,144.5 153,147.5C 151.46,151.419 149.293,154.919 146.5,158C 156.093,164.556 166.76,167.556 178.5,167C 178.957,167.414 179.291,167.914 179.5,168.5C 178.522,172.891 177.356,177.224 176,181.5C 173.569,183.089 170.903,184.089 168,184.5C 158.936,182.787 150.102,183.62 141.5,187C 131.697,207.132 117.364,223.132 98.5,235C 87.9435,238.806 77.2768,241.639 66.5,243.5 Z"/></g>
<g><path style="opacity:0.004" fill="#fefffe" d="M 353.5,91.5 C 354.833,92.1667 354.833,92.1667 353.5,91.5 Z"/></g>
<g><path style="opacity:0.004" fill="#fefffe" d="M 353.5,92.5 C 352.833,93.1667 352.833,93.1667 353.5,92.5 Z"/></g>
<g><path style="opacity:0.004" fill="#fefffe" d="M 352.5,93.5 C 351.833,94.1667 351.833,94.1667 352.5,93.5 Z"/></g>
<g><path style="opacity:0.004" fill="#fefffe" d="M 351.5,94.5 C 350.833,95.1667 350.833,95.1667 351.5,94.5 Z"/></g>
<g><path style="opacity:0.004" fill="#fefffe" d="M 350.5,95.5 C 349.833,96.1667 349.833,96.1667 350.5,95.5 Z"/></g>
<g><path style="opacity:0.004" fill="#fefffe" d="M 349.5,96.5 C 348.833,97.1667 348.833,97.1667 349.5,96.5 Z"/></g>
<g><path style="opacity:0.004" fill="#fefffe" d="M 348.5,97.5 C 347.833,98.1667 347.833,98.1667 348.5,97.5 Z"/></g>
<g><path style="opacity:0.004" fill="#fefffe" d="M 346.5,99.5 C 347.833,100.167 347.833,100.167 346.5,99.5 Z"/></g>
<g><path style="opacity:0.004" fill="#fefffe" d="M 287.5,157.5 C 287.897,156.475 288.563,156.308 289.5,157C 288.906,157.464 288.239,157.631 287.5,157.5 Z"/></g>
<g><path style="opacity:0.004" fill="#fefffe" d="M 284.5,158.5 C 284.897,157.475 285.563,157.308 286.5,158C 285.906,158.464 285.239,158.631 284.5,158.5 Z"/></g>
<g><path style="opacity:0.004" fill="#fefffe" d="M 281.5,159.5 C 281.897,158.475 282.563,158.308 283.5,159C 282.906,159.464 282.239,159.631 281.5,159.5 Z"/></g>
<g><path style="opacity:0.004" fill="#fefffe" d="M 276.5,160.5 C 277.251,159.427 278.251,159.26 279.5,160C 278.552,160.483 277.552,160.649 276.5,160.5 Z"/></g>
<g><path style="opacity:0.004" fill="#fefffe" d="M 273.5,160.5 C 274.833,161.167 274.833,161.167 273.5,160.5 Z"/></g>
<g><path style="opacity:0.004" fill="#fefffe" d="M 271.5,161.5 C 272.833,162.167 272.833,162.167 271.5,161.5 Z"/></g>
<g><path style="opacity:0.004" fill="#fefffe" d="M 271.5,162.5 C 270.833,163.167 270.833,163.167 271.5,162.5 Z"/></g>
<g><path style="opacity:0.004" fill="#fefffe" d="M 268.5,163.5 C 269.833,164.167 269.833,164.167 268.5,163.5 Z"/></g>
<g><path style="opacity:0.004" fill="#fefffe" d="M 268.5,164.5 C 267.833,165.167 267.833,165.167 268.5,164.5 Z"/></g>
<g><path style="opacity:0.004" fill="#fefffe" d="M 265.5,165.5 C 266.833,166.167 266.833,166.167 265.5,165.5 Z"/></g>
<g><path style="opacity:0.004" fill="#fefffe" d="M 262.5,167.5 C 263.833,168.167 263.833,168.167 262.5,167.5 Z"/></g>
<g><path style="opacity:0.004" fill="#fefffe" d="M 260.5,170.5 C 261.833,171.167 261.833,171.167 260.5,170.5 Z"/></g>
<g><path style="opacity:0.004" fill="#fefffe" d="M 260.5,171.5 C 259.833,172.167 259.833,172.167 260.5,171.5 Z"/></g>
<g><path style="opacity:0.004" fill="#fefffe" d="M 259.5,172.5 C 258.833,173.167 258.833,173.167 259.5,172.5 Z"/></g>
<g><path style="opacity:0.004" fill="#fefffe" d="M 257.5,177.5 C 258.833,178.167 258.833,178.167 257.5,177.5 Z"/></g>
<g><path style="opacity:0.004" fill="#fefffe" d="M 257.5,178.5 C 256.833,179.167 256.833,179.167 257.5,178.5 Z"/></g>
<g><path style="opacity:0.004" fill="#fefffe" d="M 256.5,179.5 C 255.833,180.167 255.833,180.167 256.5,179.5 Z"/></g>
<g><path style="opacity:0.004" fill="#fefffe" d="M 249.5,185.5 C 250.833,186.167 250.833,186.167 249.5,185.5 Z"/></g>
<g><path style="opacity:0.004" fill="#fefffe" d="M 249.5,186.5 C 248.833,187.167 248.833,187.167 249.5,186.5 Z"/></g>
</svg>
