<?xml version="1.0" encoding="UTF-8"?>
<!DOCTYPE svg PUBLIC "-//W3C//DTD SVG 1.1//EN" "http://www.w3.org/Graphics/SVG/1.1/DTD/svg11.dtd">
<svg xmlns="http://www.w3.org/2000/svg" version="1.1" width="198px" height="222px" style="shape-rendering:geometricPrecision; text-rendering:geometricPrecision; image-rendering:optimizeQuality; fill-rule:evenodd; clip-rule:evenodd" xmlns:xlink="http://www.w3.org/1999/xlink">
<g><path style="opacity:0.012" fill="#fefffe" d="M 60.5,-0.5 C 61.1667,-0.5 61.8333,-0.5 62.5,-0.5C 65.9852,2.63803 69.9852,4.97136 74.5,6.5C 79.2223,4.13886 83.8889,1.80553 88.5,-0.5C 89.5,-0.5 90.5,-0.5 91.5,-0.5C 97.9461,3.73074 104.613,7.8974 111.5,12C 117.842,13.004 124.175,13.6707 130.5,14C 133.637,13.3989 136.637,12.3989 139.5,11C 141.276,9.32922 141.61,7.49589 140.5,5.5C 141,5.16667 141.5,4.83333 142,4.5C 155.098,7.48046 167.931,11.1471 180.5,15.5C 179.061,22.4653 177.728,29.4653 176.5,36.5C 179.628,56.3054 183.461,75.9721 188,95.5C 190.4,99.4022 193.566,102.402 197.5,104.5C 197.5,111.833 197.5,119.167 197.5,126.5C 195.451,145.808 192.618,165.141 189,184.5C 186.833,187.333 184.667,190.167 182.5,193C 179.167,195 175.833,197 172.5,199C 163.853,199.915 155.186,200.582 146.5,201C 141.059,202.382 138.392,205.882 138.5,211.5C 123.303,208.36 108.136,205.027 93,201.5C 92.0979,201.743 91.2646,202.077 90.5,202.5C 89.9355,199.686 88.2689,198.019 85.5,197.5C 68.4803,196.241 51.4803,194.741 34.5,193C 25.2511,187.141 21.5845,178.641 23.5,167.5C 28.1592,157.523 31.8258,147.189 34.5,136.5C 31.9099,129.314 28.7432,122.314 25,115.5C 24.8195,112.305 24.3195,109.305 23.5,106.5C 27.0535,103.673 28.5535,100.006 28,95.5C 25.6405,87.8071 20.6405,82.8071 13,80.5C 7.65216,71.324 10.1522,66.824 20.5,67C 23.3388,65.0797 26.3388,63.4131 29.5,62C 32.984,57.5486 36.8173,53.382 41,49.5C 46.6158,40.7261 46.9491,31.7261 42,22.5C 40.5634,8.70296 46.73,1.0363 60.5,-0.5 Z"/></g>
<g><path style="opacity:0.004" fill="#fefffe" d="M 23.5,106.5 C 22.8333,107.167 22.8333,107.167 23.5,106.5 Z"/></g>
<g><path style="opacity:0.004" fill="#fefffe" d="M 19.5,108.5 C 19.8966,107.475 20.5632,107.308 21.5,108C 20.9056,108.464 20.2389,108.631 19.5,108.5 Z"/></g>
<g><path style="opacity:0.004" fill="#fefffe" d="M 19.5,108.5 C 19.1034,109.525 18.4368,109.692 17.5,109C 18.0944,108.536 18.7611,108.369 19.5,108.5 Z"/></g>
<g><path style="opacity:0.004" fill="#fefffe" d="M 15.5,109.5 C 16.8333,110.167 16.8333,110.167 15.5,109.5 Z"/></g>
<g><path style="opacity:0.004" fill="#fefffe" d="M 13.5,110.5 C 14.8333,111.167 14.8333,111.167 13.5,110.5 Z"/></g>
<g><path style="opacity:0.004" fill="#fefffe" d="M 11.5,111.5 C 12.8333,112.167 12.8333,112.167 11.5,111.5 Z"/></g>
<g><path style="opacity:0.004" fill="#fefffe" d="M 9.5,112.5 C 10.8333,113.167 10.8333,113.167 9.5,112.5 Z"/></g>
<g><path style="opacity:0.004" fill="#fefffe" d="M 7.5,113.5 C 8.83333,114.167 8.83333,114.167 7.5,113.5 Z"/></g>
<g><path style="opacity:0.004" fill="#fefffe" d="M 5.5,114.5 C 6.83333,115.167 6.83333,115.167 5.5,114.5 Z"/></g>
<g><path style="opacity:0.004" fill="#fefffe" d="M 3.5,115.5 C 4.83333,116.167 4.83333,116.167 3.5,115.5 Z"/></g>
<g><path style="opacity:0.004" fill="#fefffe" d="M 3.5,116.5 C 3.63101,117.239 3.46434,117.906 3,118.5C 2.30831,117.563 2.47498,116.897 3.5,116.5 Z"/></g>
<g><path style="opacity:0.004" fill="#fefffe" d="M 1.5,119.5 C 2.83333,120.167 2.83333,120.167 1.5,119.5 Z"/></g>
<g><path style="opacity:0.004" fill="#fefffe" d="M 0.5,121.5 C 1.59832,122.601 1.76498,123.934 1,125.5C 0.50999,124.207 0.343323,122.873 0.5,121.5 Z"/></g>
<g><path style="opacity:0.004" fill="#fefffe" d="M -0.5,129.5 C 0.833333,131.5 0.833333,133.5 -0.5,135.5C -0.5,133.5 -0.5,131.5 -0.5,129.5 Z"/></g>
<g><path style="opacity:0.004" fill="#fefffe" d="M 90.5,202.5 C 89.8333,203.167 89.8333,203.167 90.5,202.5 Z"/></g>
<g><path style="opacity:0.004" fill="#fefffe" d="M 89.5,203.5 C 88.8333,204.167 88.8333,204.167 89.5,203.5 Z"/></g>
<g><path style="opacity:0.004" fill="#fefffe" d="M 88.5,204.5 C 88.631,205.239 88.4643,205.906 88,206.5C 87.3083,205.563 87.475,204.897 88.5,204.5 Z"/></g>
<g><path style="opacity:0.004" fill="#fefffe" d="M 86.5,207.5 C 87.8333,208.167 87.8333,208.167 86.5,207.5 Z"/></g>
<g><path style="opacity:0.004" fill="#fefffe" d="M 85.5,209.5 C 86.8333,210.167 86.8333,210.167 85.5,209.5 Z"/></g>
<g><path style="opacity:0.004" fill="#fefffe" d="M 84.5,211.5 C 85.525,211.897 85.6917,212.563 85,213.5C 84.5357,212.906 84.369,212.239 84.5,211.5 Z"/></g>
<g><path style="opacity:0.004" fill="#fefffe" d="M 83.5,214.5 C 84.8333,215.167 84.8333,215.167 83.5,214.5 Z"/></g>
<g><path style="opacity:0.004" fill="#fefffe" d="M 82.5,216.5 C 83.525,216.897 83.6917,217.563 83,218.5C 82.5357,217.906 82.369,217.239 82.5,216.5 Z"/></g>
<g><path style="opacity:0.004" fill="#fefffe" d="M 82.5,221.5 C 82.1667,221.5 81.8333,221.5 81.5,221.5C 81.8333,218.833 82.1667,218.833 82.5,221.5 Z"/></g>
</svg>
