<?xml version="1.0" encoding="UTF-8"?>
<!DOCTYPE svg PUBLIC "-//W3C//DTD SVG 1.1//EN" "http://www.w3.org/Graphics/SVG/1.1/DTD/svg11.dtd">
<svg xmlns="http://www.w3.org/2000/svg" version="1.1" width="331px" height="289px" style="shape-rendering:geometricPrecision; text-rendering:geometricPrecision; image-rendering:optimizeQuality; fill-rule:evenodd; clip-rule:evenodd" xmlns:xlink="http://www.w3.org/1999/xlink">
<g><path style="opacity:0.012" fill="#fefffe" d="M 120.5,-0.5 C 123.5,-0.5 126.5,-0.5 129.5,-0.5C 131.273,0.892318 133.273,2.05898 135.5,3C 141.162,2.92688 146.829,2.92688 152.5,3C 159.53,10.3648 166.864,17.3648 174.5,24C 180.79,25.8226 187.123,27.4892 193.5,29C 208.5,38 223.5,47 238.5,56C 242.77,57.8181 247.103,59.4848 251.5,61C 254.126,65.0838 256.626,69.2505 259,73.5C 262.035,75.7358 265.369,77.4024 269,78.5C 273.068,97.7152 280.068,115.715 290,132.5C 290.5,133 291,133.5 291.5,134C 297.167,134.333 302.833,134.667 308.5,135C 314.293,142.461 320.459,149.628 327,156.5C 327.942,159.374 329.109,162.04 330.5,164.5C 330.5,164.833 330.5,165.167 330.5,165.5C 329.206,166.29 328.039,167.29 327,168.5C 325.545,171.912 323.712,175.079 321.5,178C 317.09,179.35 312.757,180.85 308.5,182.5C 304.415,189.418 299.748,195.918 294.5,202C 284.229,205.535 273.895,208.868 263.5,212C 257.241,217.048 251.074,222.214 245,227.5C 243.803,230.089 242.803,232.756 242,235.5C 233.333,240.167 226.667,246.833 222,255.5C 220,256.833 218,258.167 216,259.5C 215.481,258.484 214.647,257.818 213.5,257.5C 206.16,258.33 199.66,260.997 194,265.5C 184.918,261.757 175.418,259.924 165.5,260C 163.834,257.048 162.167,254.048 160.5,251C 154.469,247.984 148.469,244.984 142.5,242C 145.311,238.706 144.978,235.706 141.5,233C 132.039,229.105 123.372,223.939 115.5,217.5C 109.995,211.99 105.661,205.657 102.5,198.5C 103.996,195.672 106.329,194.006 109.5,193.5C 112.723,195.08 116.056,195.914 119.5,196C 121.827,191.977 124.827,188.644 128.5,186C 130.5,185.333 132.5,185.333 134.5,186C 138.411,187.791 142.411,189.291 146.5,190.5C 148.694,190.046 150.527,189.046 152,187.5C 161.431,191.393 166.931,188.226 168.5,178C 167.939,174.139 167.606,170.306 167.5,166.5C 166.186,165.687 165.019,164.687 164,163.5C 161.769,165.377 159.269,166.21 156.5,166C 151.902,163.73 147.569,161.063 143.5,158C 136.273,157.082 132.606,152.915 132.5,145.5C 133.981,144.52 135.315,143.353 136.5,142C 134.375,138.918 132.375,135.751 130.5,132.5C 119.572,130.919 108.572,130.086 97.5,130C 96.062,129.781 94.7287,129.281 93.5,128.5C 91.1677,122.494 87.8344,117.16 83.5,112.5C 84.0402,111.252 84.7069,110.085 85.5,109C 80.8333,108.667 76.1667,108.333 71.5,108C 70.2748,106.437 68.7748,105.27 67,104.5C 58.5293,107.456 50.3627,106.956 42.5,103C 41.4636,99.8294 40.1303,96.8294 38.5,94C 38.9574,93.586 39.2907,93.086 39.5,92.5C 37.3542,91.4441 35.6875,89.9441 34.5,88C 36.4051,82.6398 36.9051,77.1398 36,71.5C 26.8334,63.6755 19.1668,54.6755 13,44.5C 8.6981,44.2138 5.36477,42.2138 3,38.5C 2.25711,36.5594 2.42378,34.7261 3.5,33C 2.30665,31.9054 0.973316,31.072 -0.5,30.5C -0.5,28.1667 -0.5,25.8333 -0.5,23.5C 35.3227,27.8116 70.3227,24.3116 104.5,13C 107.538,10.2974 110.205,7.29737 112.5,4C 115.391,2.72576 118.058,1.22576 120.5,-0.5 Z"/></g>
<g><path style="opacity:0.004" fill="#fefffe" d="M 37.5,95.5 C 38.8333,96.1667 38.8333,96.1667 37.5,95.5 Z"/></g>
<g><path style="opacity:0.004" fill="#fefffe" d="M 37.5,96.5 C 36.8333,97.1667 36.8333,97.1667 37.5,96.5 Z"/></g>
<g><path style="opacity:0.004" fill="#fefffe" d="M 36.5,97.5 C 35.8333,98.1667 35.8333,98.1667 36.5,97.5 Z"/></g>
<g><path style="opacity:0.004" fill="#fefffe" d="M 35.5,98.5 C 34.8333,99.1667 34.8333,99.1667 35.5,98.5 Z"/></g>
<g><path style="opacity:0.004" fill="#fefffe" d="M 34.5,99.5 C 33.8333,100.167 33.8333,100.167 34.5,99.5 Z"/></g>
<g><path style="opacity:0.004" fill="#fefffe" d="M 33.5,100.5 C 32.8333,101.167 32.8333,101.167 33.5,100.5 Z"/></g>
<g><path style="opacity:0.004" fill="#fefffe" d="M 32.5,101.5 C 31.8333,102.167 31.8333,102.167 32.5,101.5 Z"/></g>
<g><path style="opacity:0.004" fill="#fefffe" d="M 29.5,102.5 C 30.8333,103.167 30.8333,103.167 29.5,102.5 Z"/></g>
<g><path style="opacity:0.004" fill="#fefffe" d="M 29.5,103.5 C 28.8333,104.167 28.8333,104.167 29.5,103.5 Z"/></g>
<g><path style="opacity:0.004" fill="#fefffe" d="M 26.5,105.5 C 26.8417,104.662 27.5084,104.328 28.5,104.5C 28.1583,105.338 27.4916,105.672 26.5,105.5 Z"/></g>
<g><path style="opacity:0.004" fill="#fefffe" d="M 26.5,105.5 C 26.1034,106.525 25.4368,106.692 24.5,106C 25.0944,105.536 25.7611,105.369 26.5,105.5 Z"/></g>
<g><path style="opacity:0.004" fill="#fefffe" d="M 21.5,107.5 C 21.8966,106.475 22.5632,106.308 23.5,107C 22.9056,107.464 22.2389,107.631 21.5,107.5 Z"/></g>
<g><path style="opacity:0.004" fill="#fefffe" d="M 21.5,107.5 C 21.1034,108.525 20.4368,108.692 19.5,108C 20.0944,107.536 20.7611,107.369 21.5,107.5 Z"/></g>
<g><path style="opacity:0.004" fill="#fefffe" d="M 17.5,108.5 C 18.8333,109.167 18.8333,109.167 17.5,108.5 Z"/></g>
<g><path style="opacity:0.004" fill="#fefffe" d="M 14.5,110.5 C 14.8966,109.475 15.5632,109.308 16.5,110C 15.9056,110.464 15.2389,110.631 14.5,110.5 Z"/></g>
<g><path style="opacity:0.004" fill="#fefffe" d="M 11.5,111.5 C 11.8966,110.475 12.5632,110.308 13.5,111C 12.9056,111.464 12.2389,111.631 11.5,111.5 Z"/></g>
<g><path style="opacity:0.004" fill="#fefffe" d="M 8.5,112.5 C 8.89657,111.475 9.56323,111.308 10.5,112C 9.90558,112.464 9.23891,112.631 8.5,112.5 Z"/></g>
<g><path style="opacity:0.004" fill="#fefffe" d="M 140.5,244.5 C 140.897,243.475 141.563,243.308 142.5,244C 141.906,244.464 141.239,244.631 140.5,244.5 Z"/></g>
<g><path style="opacity:0.004" fill="#fefffe" d="M 135.5,245.5 C 136.251,244.427 137.251,244.26 138.5,245C 137.552,245.483 136.552,245.649 135.5,245.5 Z"/></g>
<g><path style="opacity:0.004" fill="#fefffe" d="M 216.5,262.5 C 215.475,262.103 215.308,261.437 216,260.5C 216.464,261.094 216.631,261.761 216.5,262.5 Z"/></g>
<g><path style="opacity:0.004" fill="#fefffe" d="M 216.5,262.5 C 217.338,262.842 217.672,263.508 217.5,264.5C 216.662,264.158 216.328,263.492 216.5,262.5 Z"/></g>
<g><path style="opacity:0.004" fill="#fefffe" d="M 217.5,264.5 C 218.573,265.251 218.74,266.251 218,267.5C 217.517,266.552 217.351,265.552 217.5,264.5 Z"/></g>
<g><path style="opacity:0.004" fill="#fefffe" d="M 218.5,269.5 C 219.598,270.601 219.765,271.934 219,273.5C 218.51,272.207 218.343,270.873 218.5,269.5 Z"/></g>
<g><path style="opacity:0.004" fill="#fefffe" d="M 219.5,275.5 C 220.643,278.976 220.81,282.642 220,286.5C 219.501,282.848 219.335,279.182 219.5,275.5 Z"/></g>
<g><path style="opacity:0.004" fill="#fefffe" d="M 219.5,288.5 C 218.833,287.167 218.833,287.167 219.5,288.5 Z"/></g>
</svg>
