<?xml version="1.0" encoding="UTF-8"?>
<!DOCTYPE svg PUBLIC "-//W3C//DTD SVG 1.1//EN" "http://www.w3.org/Graphics/SVG/1.1/DTD/svg11.dtd">
<svg xmlns="http://www.w3.org/2000/svg" version="1.1" width="588px" height="568px" style="shape-rendering:geometricPrecision; text-rendering:geometricPrecision; image-rendering:optimizeQuality; fill-rule:evenodd; clip-rule:evenodd" xmlns:xlink="http://www.w3.org/1999/xlink">
<g><path style="opacity:0.012" fill="#fefffe" d="M 73.5,-0.5 C 75.1667,-0.5 76.8333,-0.5 78.5,-0.5C 81.3301,0.51027 83.8301,2.17694 86,4.5C 89.9216,11.3423 93.5883,18.3423 97,25.5C 101.469,31.1067 107.302,34.2734 114.5,35C 117.529,45.5298 124.196,52.6965 134.5,56.5C 138.666,64.3208 144.833,66.3208 153,62.5C 154.226,62.6448 155.393,62.9781 156.5,63.5C 160.751,62.1799 165.084,61.1799 169.5,60.5C 171.274,60.8868 172.941,61.5535 174.5,62.5C 177.037,60.9299 179.704,60.0966 182.5,60C 181.707,61.0852 181.04,62.2519 180.5,63.5C 183.556,63.9382 186.223,65.1049 188.5,67C 190.5,67.6667 192.5,67.6667 194.5,67C 199.052,65.1839 203.719,63.6839 208.5,62.5C 213,65.9431 218.166,67.6097 224,67.5C 226.145,67.604 227.979,66.9373 229.5,65.5C 231.412,63.3428 233.079,61.0094 234.5,58.5C 246.855,55.6221 259.355,53.2888 272,51.5C 278.853,52.4552 285.687,53.4552 292.5,54.5C 292.393,52.0968 293.393,50.2635 295.5,49C 299.195,49.8381 302.862,49.5047 306.5,48C 313.002,43.0838 320.335,40.4171 328.5,40C 332.167,38.3333 335.833,36.6667 339.5,35C 348.422,33.5306 355.755,36.1972 361.5,43C 365.535,43.8735 369.535,44.8735 373.5,46C 374.687,48.7743 376.02,51.441 377.5,54C 380.681,56.0917 383.681,58.425 386.5,61C 390.619,62.5595 394.619,64.3928 398.5,66.5C 402.523,72.6899 407.69,77.6899 414,81.5C 416.124,88.3856 419.291,94.7189 423.5,100.5C 429.331,102.417 435.331,103.584 441.5,104C 444.167,107.333 446.833,110.667 449.5,114C 452.102,114.977 454.602,116.144 457,117.5C 457.943,120.824 458.776,124.157 459.5,127.5C 462.579,127.26 465.579,127.593 468.5,128.5C 469.49,134.485 472.49,139.152 477.5,142.5C 480.641,150.591 483.974,158.591 487.5,166.5C 491.916,168.738 496.582,170.238 501.5,171C 504.036,174.407 506.036,178.074 507.5,182C 506.794,185.862 505.961,189.695 505,193.5C 501.181,201.318 495.014,206.152 486.5,208C 480.81,208.469 475.143,209.136 469.5,210C 463.027,216.945 458.361,224.945 455.5,234C 455.833,234.833 456.167,235.667 456.5,236.5C 460.167,238.667 463.833,240.833 467.5,243C 476.5,243.667 485.5,243.667 494.5,243C 503.7,238.704 513.367,237.371 523.5,239C 528.499,241.891 533.833,242.891 539.5,242C 540.238,238.638 542.238,237.305 545.5,238C 549.252,240.293 553.086,242.46 557,244.5C 558.073,248.084 558.74,251.75 559,255.5C 565.667,262.833 572.333,270.167 579,277.5C 581.704,282.125 583.038,287.125 583,292.5C 585.621,293.747 587.121,295.747 587.5,298.5C 587.5,301.833 587.5,305.167 587.5,308.5C 582.169,317.493 577.669,326.826 574,336.5C 566.457,344.229 557.623,347.062 547.5,345C 545.206,349.614 542.206,353.614 538.5,357C 532.055,356.469 525.722,355.469 519.5,354C 518,355.5 516.5,357 515,358.5C 511.826,369.69 505.993,379.19 497.5,387C 490.374,390.397 483.374,394.063 476.5,398C 470.489,406.85 463.822,407.517 456.5,400C 450.793,398.586 445.293,396.753 440,394.5C 437.409,394.565 434.909,395.065 432.5,396C 424.707,400.895 416.373,404.728 407.5,407.5C 403.368,406.725 399.201,406.059 395,405.5C 389.214,408.26 383.047,409.76 376.5,410C 375.48,411.556 374.147,412.722 372.5,413.5C 362.373,410.185 352.54,406.185 343,401.5C 336.776,404.545 330.276,405.379 323.5,404C 318.169,408.812 311.835,411.145 304.5,411C 302.817,414.529 300.15,416.696 296.5,417.5C 285.738,415.423 275.071,415.59 264.5,418C 253.38,421.81 242.547,426.31 232,431.5C 223.329,428.897 214.496,427.731 205.5,428C 183.359,440.237 160.359,450.57 136.5,459C 126.974,464.595 117.974,470.929 109.5,478C 86.2711,505.078 67.2711,534.911 52.5,567.5C 51.8333,567.5 51.1667,567.5 50.5,567.5C 47.0108,560.83 42.5108,554.83 37,549.5C 28.7522,534.424 23.0856,518.424 20,501.5C 8.80652,481.756 1.97319,460.756 -0.5,438.5C -0.5,432.833 -0.5,427.167 -0.5,421.5C 1.58866,403.527 4.42199,385.527 8,367.5C 9.76691,344.529 11.1002,321.529 12,298.5C 16.3289,266.535 20.3289,234.535 24,202.5C 25.578,166.295 24.7446,130.129 21.5,94C 21.9869,83.2444 23.8202,72.7444 27,62.5C 31.9793,57.1894 37.3126,52.1894 43,47.5C 47.2745,35.3425 51.9411,23.3425 57,11.5C 61.3344,5.63261 66.8344,1.63261 73.5,-0.5 Z M 51.5,134.5 C 157.497,135.376 263.497,135.709 369.5,135.5C 369.667,167.168 369.5,198.835 369,230.5C 368.101,235.764 366.435,240.764 364,245.5C 357.326,259.344 350.826,273.177 344.5,287C 348.35,289.701 350.684,293.367 351.5,298C 350.031,302.604 348.031,306.937 345.5,311C 349.313,314.143 353.147,317.309 357,320.5C 358.775,328.78 355.942,334.614 348.5,338C 347.272,340.14 345.605,341.807 343.5,343C 335.485,343.558 327.485,343.391 319.5,342.5C 319.358,346.056 318.524,349.39 317,352.5C 310.981,348.805 305.148,348.971 299.5,353C 282.135,371.848 260.802,383.015 235.5,386.5C 227.68,380.27 219.013,378.103 209.5,380C 206.684,381.817 204.184,383.983 202,386.5C 197.126,389.153 191.959,389.986 186.5,389C 183.167,386 179.833,383 176.5,380C 177.308,379.692 177.975,379.192 178.5,378.5C 136.209,339.378 94.0422,300.045 52,260.5C 51.5,218.501 51.3333,176.501 51.5,134.5 Z"/></g>
<g><path style="opacity:0.007" fill="#fefffe" d="M 112.5,30.5 C 108.31,28.4534 106.477,25.1201 107,20.5C 109.112,23.7271 110.945,27.0604 112.5,30.5 Z"/></g>
<g><path style="opacity:0.004" fill="#fefffe" d="M 112.5,30.5 C 113.833,31.1667 113.833,31.1667 112.5,30.5 Z"/></g>
</svg>
