<?xml version="1.0" encoding="UTF-8"?>
<!DOCTYPE svg PUBLIC "-//W3C//DTD SVG 1.1//EN" "http://www.w3.org/Graphics/SVG/1.1/DTD/svg11.dtd">
<svg xmlns="http://www.w3.org/2000/svg" version="1.1" width="297px" height="294px" style="shape-rendering:geometricPrecision; text-rendering:geometricPrecision; image-rendering:optimizeQuality; fill-rule:evenodd; clip-rule:evenodd" xmlns:xlink="http://www.w3.org/1999/xlink">
<g><path style="opacity:0.004" fill="#fefffe" d="M 215.5,-0.5 C 215.833,-0.5 216.167,-0.5 216.5,-0.5C 216.315,0.170143 215.981,0.170143 215.5,-0.5 Z"/></g>
<g><path style="opacity:0.004" fill="#fefffe" d="M 213.5,2.5 C 214.833,3.16667 214.833,3.16667 213.5,2.5 Z"/></g>
<g><path style="opacity:0.012" fill="#fefffe" d="M 275.5,157.5 C 273.638,161.542 271.138,165.208 268,168.5C 264.17,181.007 256.004,188.507 243.5,191C 237.003,196.085 230.003,200.418 222.5,204C 200.972,224.42 177.638,242.42 152.5,258C 137.313,263.592 123.313,271.258 110.5,281C 95.2508,279.121 79.9175,277.621 64.5,276.5C 63.5581,276.608 62.7247,276.941 62,277.5C 62.0121,272.495 59.8454,268.662 55.5,266C 45.9182,260.626 36.4182,255.126 27,249.5C 20.2954,241.746 15.4621,233.08 12.5,223.5C 15.2364,207.168 15.4031,190.834 13,174.5C 10.8305,169.495 8.6638,164.495 6.5,159.5C 9.44889,144.152 9.61556,128.819 7,113.5C 6.44269,111.385 5.60936,109.385 4.5,107.5C 8.21498,96.7341 9.21498,85.7341 7.5,74.5C 11.8053,69.245 15.6387,63.5783 19,57.5C 25.1667,52 31.3333,46.5 37.5,41C 47.0343,37.5999 56.7009,34.5999 66.5,32C 70.5,30 74.5,28 78.5,26C 83.5,25.3333 88.5,25.3333 93.5,26C 99.1777,29.8405 105.178,33.1739 111.5,36C 118.084,37.544 124.751,37.8773 131.5,37C 138.083,34.5396 144.75,32.373 151.5,30.5C 161.665,31.452 171.665,33.2854 181.5,36C 191.341,36.5768 199.341,33.0768 205.5,25.5C 212.6,20.2451 219.6,14.7451 226.5,9C 229.833,8.66667 233.167,8.33333 236.5,8C 239.715,6.2257 243.048,4.7257 246.5,3.5C 247.641,5.42131 247.808,7.42131 247,9.5C 239.546,16.5558 231.546,22.8891 223,28.5C 222.219,29.7287 221.719,31.062 221.5,32.5C 224.16,39.6287 225.327,46.962 225,54.5C 218.667,59.5 212.333,64.5 206,69.5C 202.415,76.1687 199.248,83.0021 196.5,90C 197.576,91.7261 197.743,93.5594 197,95.5C 192.219,98.2817 188.886,102.282 187,107.5C 185.127,109.709 182.96,111.542 180.5,113C 174.306,114.843 168.139,116.677 162,118.5C 161.492,114.183 163.158,110.85 167,108.5C 168.92,105.661 170.587,102.661 172,99.5C 172.749,98.365 172.583,97.365 171.5,96.5C 161.41,99.8737 153.077,105.707 146.5,114C 144.833,115 143.167,116 141.5,117C 132.511,116.727 123.511,116.727 114.5,117C 109.401,120.681 108.068,125.514 110.5,131.5C 116.601,131.383 121.601,133.716 125.5,138.5C 121.603,141.609 117.936,144.943 114.5,148.5C 116.363,150.893 117.696,153.56 118.5,156.5C 123.144,153.69 126.977,150.023 130,145.5C 133.446,147.05 135.446,149.717 136,153.5C 138.167,155.667 140.333,157.833 142.5,160C 149.525,164.307 154.859,162.974 158.5,156C 165.592,152.414 172.925,149.414 180.5,147C 202.293,144.427 223.959,141.094 245.5,137C 248.148,134.68 250.481,132.014 252.5,129C 255.622,127.355 258.788,125.855 262,124.5C 263.048,131.115 263.881,137.782 264.5,144.5C 268.701,146.124 273.034,147.124 277.5,147.5C 276.74,151.027 275.406,154.36 273.5,157.5C 273.97,158.463 274.637,158.463 275.5,157.5 Z"/></g>
<g><path style="opacity:0.004" fill="#fefffe" d="M 212.5,4.5 C 213.833,5.16667 213.833,5.16667 212.5,4.5 Z"/></g>
<g><path style="opacity:0.004" fill="#fefffe" d="M 211.5,6.5 C 212.833,7.16667 212.833,7.16667 211.5,6.5 Z"/></g>
<g><path style="opacity:0.004" fill="#fefffe" d="M 207.5,13.5 C 208.833,14.1667 208.833,14.1667 207.5,13.5 Z"/></g>
<g><path style="opacity:0.004" fill="#fefffe" d="M 206.5,15.5 C 207.833,16.1667 207.833,16.1667 206.5,15.5 Z"/></g>
<g><path style="opacity:0.004" fill="#fefffe" d="M 205.5,17.5 C 206.833,18.1667 206.833,18.1667 205.5,17.5 Z"/></g>
<g><path style="opacity:0.004" fill="#fefffe" d="M 204.5,19.5 C 205.833,20.1667 205.833,20.1667 204.5,19.5 Z"/></g>
<g><path style="opacity:0.004" fill="#fefffe" d="M 203.5,21.5 C 204.833,22.1667 204.833,22.1667 203.5,21.5 Z"/></g>
<g><path style="opacity:0.004" fill="#fefffe" d="M 202.5,23.5 C 203.833,24.1667 203.833,24.1667 202.5,23.5 Z"/></g>
<g><path style="opacity:0.004" fill="#fefffe" d="M 205.5,25.5 C 204.833,24.1667 204.833,24.1667 205.5,25.5 Z"/></g>
<g><path style="opacity:0.004" fill="#fefffe" d="M 202.5,25.5 C 203.833,26.1667 203.833,26.1667 202.5,25.5 Z"/></g>
<g><path style="opacity:0.004" fill="#fefffe" d="M -0.5,60.5 C 0.833333,61.1667 0.833333,61.1667 -0.5,60.5 Z"/></g>
<g><path style="opacity:0.004" fill="#fefffe" d="M 0.5,62.5 C 1.83333,63.1667 1.83333,63.1667 0.5,62.5 Z"/></g>
<g><path style="opacity:0.004" fill="#fefffe" d="M 1.5,64.5 C 2.83333,65.1667 2.83333,65.1667 1.5,64.5 Z"/></g>
<g><path style="opacity:0.004" fill="#fefffe" d="M 2.5,66.5 C 3.83333,67.1667 3.83333,67.1667 2.5,66.5 Z"/></g>
<g><path style="opacity:0.004" fill="#fefffe" d="M 3.5,68.5 C 4.83333,69.1667 4.83333,69.1667 3.5,68.5 Z"/></g>
<g><path style="opacity:0.004" fill="#fefffe" d="M 5.5,71.5 C 4.83333,70.1667 4.83333,70.1667 5.5,71.5 Z"/></g>
<g><path style="opacity:0.004" fill="#fefffe" d="M 5.5,71.5 C 6.83333,72.1667 6.83333,72.1667 5.5,71.5 Z"/></g>
<g><path style="opacity:0.004" fill="#fefffe" d="M 7.5,74.5 C 6.83333,73.1667 6.83333,73.1667 7.5,74.5 Z"/></g>
<g><path style="opacity:0.004" fill="#fefffe" d="M 296.5,137.5 C 296.5,137.833 296.5,138.167 296.5,138.5C 295.83,138.019 295.83,137.685 296.5,137.5 Z"/></g>
<g><path style="opacity:0.004" fill="#fefffe" d="M 295.5,138.5 C 294.833,139.167 294.833,139.167 295.5,138.5 Z"/></g>
<g><path style="opacity:0.004" fill="#fefffe" d="M 294.5,139.5 C 293.833,140.167 293.833,140.167 294.5,139.5 Z"/></g>
<g><path style="opacity:0.004" fill="#fefffe" d="M 286.5,145.5 C 287.833,146.167 287.833,146.167 286.5,145.5 Z"/></g>
<g><path style="opacity:0.004" fill="#fefffe" d="M 286.5,146.5 C 285.833,147.167 285.833,147.167 286.5,146.5 Z"/></g>
<g><path style="opacity:0.004" fill="#fefffe" d="M 285.5,147.5 C 284.833,148.167 284.833,148.167 285.5,147.5 Z"/></g>
<g><path style="opacity:0.004" fill="#fefffe" d="M 284.5,148.5 C 283.833,149.167 283.833,149.167 284.5,148.5 Z"/></g>
<g><path style="opacity:0.004" fill="#fefffe" d="M 283.5,149.5 C 282.833,150.167 282.833,150.167 283.5,149.5 Z"/></g>
<g><path style="opacity:0.004" fill="#fefffe" d="M 282.5,150.5 C 281.833,151.167 281.833,151.167 282.5,150.5 Z"/></g>
<g><path style="opacity:0.004" fill="#fefffe" d="M 281.5,151.5 C 280.833,152.167 280.833,152.167 281.5,151.5 Z"/></g>
<g><path style="opacity:0.004" fill="#fefffe" d="M 280.5,152.5 C 279.833,153.167 279.833,153.167 280.5,152.5 Z"/></g>
<g><path style="opacity:0.004" fill="#fefffe" d="M 279.5,153.5 C 278.833,154.167 278.833,154.167 279.5,153.5 Z"/></g>
<g><path style="opacity:0.004" fill="#fefffe" d="M 278.5,154.5 C 277.833,155.167 277.833,155.167 278.5,154.5 Z"/></g>
<g><path style="opacity:0.004" fill="#fefffe" d="M 277.5,155.5 C 276.833,156.167 276.833,156.167 277.5,155.5 Z"/></g>
<g><path style="opacity:0.004" fill="#fefffe" d="M 276.5,156.5 C 275.833,157.167 275.833,157.167 276.5,156.5 Z"/></g>
<g><path style="opacity:0.004" fill="#fefffe" d="M 12.5,223.5 C 11.8333,224.167 11.8333,224.167 12.5,223.5 Z"/></g>
<g><path style="opacity:0.004" fill="#fefffe" d="M 11.5,224.5 C 10.8333,225.167 10.8333,225.167 11.5,224.5 Z"/></g>
<g><path style="opacity:0.004" fill="#fefffe" d="M 10.5,225.5 C 9.83333,226.167 9.83333,226.167 10.5,225.5 Z"/></g>
<g><path style="opacity:0.004" fill="#fefffe" d="M 7.5,228.5 C 8.83333,229.167 8.83333,229.167 7.5,228.5 Z"/></g>
<g><path style="opacity:0.004" fill="#fefffe" d="M 6.5,230.5 C 7.52502,230.897 7.69169,231.563 7,232.5C 6.53566,231.906 6.36899,231.239 6.5,230.5 Z"/></g>
<g><path style="opacity:0.004" fill="#fefffe" d="M 63.5,293.5 C 63.1667,293.5 62.8333,293.5 62.5,293.5C 62.8333,278.833 63.1667,278.833 63.5,293.5 Z"/></g>
</svg>
