<?xml version="1.0" encoding="UTF-8"?>
<!DOCTYPE svg PUBLIC "-//W3C//DTD SVG 1.1//EN" "http://www.w3.org/Graphics/SVG/1.1/DTD/svg11.dtd">
<svg xmlns="http://www.w3.org/2000/svg" version="1.1" width="321px" height="312px" style="shape-rendering:geometricPrecision; text-rendering:geometricPrecision; image-rendering:optimizeQuality; fill-rule:evenodd; clip-rule:evenodd" xmlns:xlink="http://www.w3.org/1999/xlink">
<g><path style="opacity:0.012" fill="#fefffe" d="M 166.5,-0.5 C 167.5,-0.5 168.5,-0.5 169.5,-0.5C 171.544,5.738 173.377,12.0713 175,18.5C 176.292,20.2487 177.458,22.082 178.5,24C 184.79,25.8226 191.123,27.4892 197.5,29C 201.167,34 205.5,38.3333 210.5,42C 212.275,43.4389 214.275,44.4389 216.5,45C 224.48,46.1014 232.48,46.4348 240.5,46C 251.577,42.1968 262.577,38.1968 273.5,34C 280.457,32.6013 287.457,31.4346 294.5,30.5C 300.857,32.2298 307.19,34.0631 313.5,36C 316.358,37.6941 318.691,39.8607 320.5,42.5C 320.5,43.1667 320.5,43.8333 320.5,44.5C 314.522,46.9677 309.522,50.801 305.5,56C 301.5,57.6667 297.5,59.3333 293.5,61C 285.667,68.1667 277.833,75.3333 270,82.5C 268.138,86.4189 266.471,90.4189 265,94.5C 264.333,109.5 264.333,124.5 265,139.5C 267,143.5 269,147.5 271,151.5C 275.08,154.457 279.247,157.29 283.5,160C 285.458,162.748 287.291,165.582 289,168.5C 290.497,176.779 290.831,185.112 290,193.5C 285.2,199.302 280.033,204.802 274.5,210C 262.823,209.333 252.989,213.166 245,221.5C 239.59,232.171 236.924,243.504 237,255.5C 232.216,274.789 220.049,285.789 200.5,288.5C 183.048,286.384 165.715,284.384 148.5,282.5C 141.156,282.024 134.823,284.191 129.5,289C 119.907,294.106 111.24,292.773 103.5,285C 100.637,283.601 97.6366,282.601 94.5,282C 91.6781,278.356 89.6781,274.356 88.5,270C 90.0742,265.399 92.9076,261.566 97,258.5C 99.0836,254.664 101.417,250.997 104,247.5C 103.975,241.066 105.142,234.9 107.5,229C 106.186,219.853 104.852,210.687 103.5,201.5C 95.8683,207.711 87.3683,209.044 78,205.5C 71.7714,206.3 65.6048,207.467 59.5,209C 57.6667,210.167 55.8333,211.333 54,212.5C 53.7744,215.095 53.2744,217.595 52.5,220C 48.1368,220.894 43.8035,221.894 39.5,223C 36.1667,225.333 32.8333,227.667 29.5,230C 20.8366,230.374 12.67,232.541 5,236.5C 3.12073,232.741 1.28739,229.075 -0.5,225.5C -0.5,224.5 -0.5,223.5 -0.5,222.5C 6.20144,215.631 13.3681,209.298 21,203.5C 20.9678,201.402 20.3011,199.402 19,197.5C 16.4886,187.364 19.3219,179.197 27.5,173C 36.3449,172.193 45.0116,170.526 53.5,168C 54.8804,166.075 56.3804,164.241 58,162.5C 59.7894,157.12 61.9561,151.953 64.5,147C 72.0354,144.266 79.7021,141.933 87.5,140C 91.1097,133.726 96.443,129.726 103.5,128C 108.914,127.639 114.248,126.806 119.5,125.5C 123.503,118.988 126.837,112.154 129.5,105C 135.091,102.803 140.758,100.803 146.5,99C 152.201,96.7201 154.034,92.8867 152,87.5C 149.372,85.8745 147.039,83.8745 145,81.5C 144.333,76.8333 144.333,72.1667 145,67.5C 148.591,54.7265 152.591,42.0598 157,29.5C 159.463,21.3178 161.129,12.9844 162,4.5C 163.707,2.96252 165.207,1.29585 166.5,-0.5 Z"/></g>
<g><path style="opacity:0.004" fill="#fefffe" d="M 159.5,285.5 C 160.833,286.167 160.833,286.167 159.5,285.5 Z"/></g>
<g><path style="opacity:0.004" fill="#fefffe" d="M 160.5,287.5 C 161.833,288.167 161.833,288.167 160.5,287.5 Z"/></g>
<g><path style="opacity:0.004" fill="#fefffe" d="M 161.5,289.5 C 162.833,290.167 162.833,290.167 161.5,289.5 Z"/></g>
<g><path style="opacity:0.004" fill="#fefffe" d="M 162.5,291.5 C 163.833,292.167 163.833,292.167 162.5,291.5 Z"/></g>
<g><path style="opacity:0.004" fill="#fefffe" d="M 163.5,293.5 C 164.525,293.897 164.692,294.563 164,295.5C 163.536,294.906 163.369,294.239 163.5,293.5 Z"/></g>
<g><path style="opacity:0.004" fill="#fefffe" d="M 164.5,296.5 C 165.833,297.167 165.833,297.167 164.5,296.5 Z"/></g>
<g><path style="opacity:0.004" fill="#fefffe" d="M 165.5,298.5 C 166.573,299.251 166.74,300.251 166,301.5C 165.517,300.552 165.351,299.552 165.5,298.5 Z"/></g>
<g><path style="opacity:0.004" fill="#fefffe" d="M 164.5,303.5 C 165.833,304.167 165.833,304.167 164.5,303.5 Z"/></g>
<g><path style="opacity:0.004" fill="#fefffe" d="M 163.5,306.5 C 164.525,306.897 164.692,307.563 164,308.5C 163.536,307.906 163.369,307.239 163.5,306.5 Z"/></g>
<g><path style="opacity:0.004" fill="#fefffe" d="M 163.5,311.5 C 163.167,311.5 162.833,311.5 162.5,311.5C 162.833,308.833 163.167,308.833 163.5,311.5 Z"/></g>
</svg>
