<?xml version="1.0" encoding="UTF-8"?>
<!DOCTYPE svg PUBLIC "-//W3C//DTD SVG 1.1//EN" "http://www.w3.org/Graphics/SVG/1.1/DTD/svg11.dtd">
<svg xmlns="http://www.w3.org/2000/svg" version="1.1" width="220px" height="189px" style="shape-rendering:geometricPrecision; text-rendering:geometricPrecision; image-rendering:optimizeQuality; fill-rule:evenodd; clip-rule:evenodd" xmlns:xlink="http://www.w3.org/1999/xlink">
<g><path style="opacity:0.004" fill="#fefffe" d="M 90.5,-0.5 C 90.8333,-0.5 91.1667,-0.5 91.5,-0.5C 91.1667,3.5 90.8333,3.5 90.5,-0.5 Z"/></g>
<g><path style="opacity:0.004" fill="#fefffe" d="M 91.5,6.5 C 92.8333,7.16667 92.8333,7.16667 91.5,6.5 Z"/></g>
<g><path style="opacity:0.004" fill="#fefffe" d="M 90.5,12.5 C 91.525,12.8966 91.6917,13.5632 91,14.5C 90.5357,13.9056 90.369,13.2389 90.5,12.5 Z"/></g>
<g><path style="opacity:0.004" fill="#fefffe" d="M 89.5,15.5 C 90.8333,16.1667 90.8333,16.1667 89.5,15.5 Z"/></g>
<g><path style="opacity:0.004" fill="#fefffe" d="M 86.5,18.5 C 87.8333,19.1667 87.8333,19.1667 86.5,18.5 Z"/></g>
<g><path style="opacity:0.012" fill="#fefffe" d="M 86.5,19.5 C 130.664,20.4987 174.997,20.8321 219.5,20.5C 219.5,61.5 219.5,102.5 219.5,143.5C 172.832,143.667 126.165,143.5 79.5,143C 70.9901,137.245 62.6568,131.245 54.5,125C 47.6277,123.827 41.1277,121.66 35,118.5C 34.1667,118.833 33.3333,119.167 32.5,119.5C 30.6596,123.856 28.3263,127.856 25.5,131.5C 21.1388,128.444 17.9721,124.444 16,119.5C 15.0257,108.485 14.0257,97.4855 13,86.5C 8.25971,81.2689 3.75971,75.9356 -0.5,70.5C -0.5,68.5 -0.5,66.5 -0.5,64.5C 3.67392,62.8192 8.00725,61.3192 12.5,60C 17.0833,56.0877 20.9166,51.5877 24,46.5C 31.3888,36.7681 41.0554,30.7681 53,28.5C 59.5429,29.4361 66.0429,30.2694 72.5,31C 77.0404,26.9545 81.7071,23.1212 86.5,19.5 Z"/></g>
<g><path style="opacity:0.004" fill="#fefffe" d="M 25.5,131.5 C 26.8333,132.167 26.8333,132.167 25.5,131.5 Z"/></g>
<g><path style="opacity:0.004" fill="#fefffe" d="M 28.5,133.5 C 27.8333,132.167 27.8333,132.167 28.5,133.5 Z"/></g>
<g><path style="opacity:0.004" fill="#fefffe" d="M 28.5,133.5 C 29.8333,134.167 29.8333,134.167 28.5,133.5 Z"/></g>
<g><path style="opacity:0.004" fill="#fefffe" d="M 29.5,135.5 C 30.8333,136.167 30.8333,136.167 29.5,135.5 Z"/></g>
<g><path style="opacity:0.004" fill="#fefffe" d="M 31.5,139.5 C 30.475,139.103 30.3083,138.437 31,137.5C 31.4643,138.094 31.631,138.761 31.5,139.5 Z"/></g>
<g><path style="opacity:0.004" fill="#fefffe" d="M 31.5,139.5 C 32.525,139.897 32.6917,140.563 32,141.5C 31.5357,140.906 31.369,140.239 31.5,139.5 Z"/></g>
<g><path style="opacity:0.004" fill="#fefffe" d="M 32.5,142.5 C 33.8333,143.167 33.8333,143.167 32.5,142.5 Z"/></g>
<g><path style="opacity:0.004" fill="#fefffe" d="M 33.5,144.5 C 34.8333,145.167 34.8333,145.167 33.5,144.5 Z"/></g>
<g><path style="opacity:0.004" fill="#fefffe" d="M 34.5,146.5 C 35.8333,147.167 35.8333,147.167 34.5,146.5 Z"/></g>
<g><path style="opacity:0.004" fill="#fefffe" d="M 35.5,148.5 C 36.8333,149.167 36.8333,149.167 35.5,148.5 Z"/></g>
<g><path style="opacity:0.004" fill="#fefffe" d="M 36.5,150.5 C 37.8333,151.167 37.8333,151.167 36.5,150.5 Z"/></g>
<g><path style="opacity:0.004" fill="#fefffe" d="M 37.5,152.5 C 38.8333,153.167 38.8333,153.167 37.5,152.5 Z"/></g>
<g><path style="opacity:0.004" fill="#fefffe" d="M 38.5,154.5 C 39.8333,155.167 39.8333,155.167 38.5,154.5 Z"/></g>
<g><path style="opacity:0.004" fill="#fefffe" d="M 39.5,156.5 C 40.8333,157.167 40.8333,157.167 39.5,156.5 Z"/></g>
<g><path style="opacity:0.004" fill="#fefffe" d="M 40.5,158.5 C 41.8333,159.167 41.8333,159.167 40.5,158.5 Z"/></g>
<g><path style="opacity:0.004" fill="#fefffe" d="M 42.5,161.5 C 41.8333,160.167 41.8333,160.167 42.5,161.5 Z"/></g>
<g><path style="opacity:0.004" fill="#fefffe" d="M 42.5,161.5 C 43.8333,162.167 43.8333,162.167 42.5,161.5 Z"/></g>
<g><path style="opacity:0.004" fill="#fefffe" d="M 44.5,164.5 C 43.8333,163.167 43.8333,163.167 44.5,164.5 Z"/></g>
<g><path style="opacity:0.004" fill="#fefffe" d="M 44.5,164.5 C 45.1667,164.5 45.5,164.833 45.5,165.5C 45.1667,165.167 44.8333,164.833 44.5,164.5 Z"/></g>
<g><path style="opacity:0.004" fill="#fefffe" d="M 45.5,165.5 C 46.1667,165.5 46.5,165.833 46.5,166.5C 46.1667,166.167 45.8333,165.833 45.5,165.5 Z"/></g>
<g><path style="opacity:0.004" fill="#fefffe" d="M 46.5,166.5 C 47.8333,167.167 47.8333,167.167 46.5,166.5 Z"/></g>
<g><path style="opacity:0.004" fill="#fefffe" d="M 49.5,168.5 C 50.8333,169.167 50.8333,169.167 49.5,168.5 Z"/></g>
<g><path style="opacity:0.004" fill="#fefffe" d="M 52.5,170.5 C 51.8333,169.167 51.8333,169.167 52.5,170.5 Z"/></g>
<g><path style="opacity:0.004" fill="#fefffe" d="M 52.5,170.5 C 53.8333,171.167 53.8333,171.167 52.5,170.5 Z"/></g>
<g><path style="opacity:0.004" fill="#fefffe" d="M 54.5,171.5 C 55.8333,172.167 55.8333,172.167 54.5,171.5 Z"/></g>
<g><path style="opacity:0.004" fill="#fefffe" d="M 57.5,173.5 C 56.8333,172.167 56.8333,172.167 57.5,173.5 Z"/></g>
<g><path style="opacity:0.004" fill="#fefffe" d="M 57.5,173.5 C 58.2389,173.369 58.9056,173.536 59.5,174C 58.5632,174.692 57.8966,174.525 57.5,173.5 Z"/></g>
<g><path style="opacity:0.004" fill="#fefffe" d="M 60.5,174.5 C 61.8333,175.167 61.8333,175.167 60.5,174.5 Z"/></g>
<g><path style="opacity:0.004" fill="#fefffe" d="M 63.5,175.5 C 64.8333,176.167 64.8333,176.167 63.5,175.5 Z"/></g>
<g><path style="opacity:0.004" fill="#fefffe" d="M 65.5,177.5 C 65.8966,176.475 66.5632,176.308 67.5,177C 66.9056,177.464 66.2389,177.631 65.5,177.5 Z"/></g>
<g><path style="opacity:0.004" fill="#fefffe" d="M 68.5,177.5 C 69.8333,178.167 69.8333,178.167 68.5,177.5 Z"/></g>
<g><path style="opacity:0.004" fill="#fefffe" d="M 70.5,179.5 C 70.8966,178.475 71.5632,178.308 72.5,179C 71.9056,179.464 71.2389,179.631 70.5,179.5 Z"/></g>
<g><path style="opacity:0.004" fill="#fefffe" d="M 74.5,180.5 C 74.8966,179.475 75.5632,179.308 76.5,180C 75.9056,180.464 75.2389,180.631 74.5,180.5 Z"/></g>
<g><path style="opacity:0.004" fill="#fefffe" d="M 79.5,181.5 C 78.7611,181.631 78.0944,181.464 77.5,181C 78.4368,180.308 79.1034,180.475 79.5,181.5 Z"/></g>
<g><path style="opacity:0.004" fill="#fefffe" d="M 79.5,181.5 C 80.8333,182.167 80.8333,182.167 79.5,181.5 Z"/></g>
<g><path style="opacity:0.004" fill="#fefffe" d="M 81.5,182.5 C 82.8333,183.167 82.8333,183.167 81.5,182.5 Z"/></g>
<g><path style="opacity:0.004" fill="#fefffe" d="M 84.5,184.5 C 83.8333,183.167 83.8333,183.167 84.5,184.5 Z"/></g>
<g><path style="opacity:0.004" fill="#fefffe" d="M 84.5,184.5 C 85.8333,185.167 85.8333,185.167 84.5,184.5 Z"/></g>
<g><path style="opacity:0.004" fill="#fefffe" d="M 87.5,186.5 C 86.8333,185.167 86.8333,185.167 87.5,186.5 Z"/></g>
<g><path style="opacity:0.004" fill="#fefffe" d="M 87.5,186.5 C 88.1667,186.5 88.5,186.833 88.5,187.5C 88.1667,187.167 87.8333,186.833 87.5,186.5 Z"/></g>
<g><path style="opacity:0.004" fill="#fefffe" d="M 88.5,187.5 C 89.1667,187.5 89.5,187.833 89.5,188.5C 89.1667,188.167 88.8333,187.833 88.5,187.5 Z"/></g>
</svg>
