<?xml version="1.0" encoding="UTF-8"?>
<!DOCTYPE svg PUBLIC "-//W3C//DTD SVG 1.1//EN" "http://www.w3.org/Graphics/SVG/1.1/DTD/svg11.dtd">
<svg xmlns="http://www.w3.org/2000/svg" version="1.1" width="269px" height="389px" style="shape-rendering:geometricPrecision; text-rendering:geometricPrecision; image-rendering:optimizeQuality; fill-rule:evenodd; clip-rule:evenodd" xmlns:xlink="http://www.w3.org/1999/xlink">
<g><path style="opacity:0.012" fill="#fefffe" d="M 252.5,-0.5 C 253.167,-0.5 253.833,-0.5 254.5,-0.5C 258.137,2.30598 261.304,5.63932 264,9.5C 264.391,19.1642 265.891,28.4975 268.5,37.5C 268.5,38.5 268.5,39.5 268.5,40.5C 267.833,45.6813 267.167,51.0147 266.5,56.5C 259.294,62.2108 252.627,68.3775 246.5,75C 249.101,82.996 250.268,91.1626 250,99.5C 246.888,102.396 243.555,105.063 240,107.5C 239.495,112.884 239.495,118.218 240,123.5C 237.667,124.5 235.333,125.5 233,126.5C 229.709,124.622 226.209,123.788 222.5,124C 216.62,128.922 212.62,135.088 210.5,142.5C 212.554,147.882 214.22,153.382 215.5,159C 213.339,165.824 210.005,171.991 205.5,177.5C 206.167,179.5 206.833,181.5 207.5,183.5C 206.135,184.456 204.635,185.122 203,185.5C 200.016,183.84 197.016,182.174 194,180.5C 191.522,187.394 189.189,194.394 187,201.5C 183.697,207.939 180.531,214.439 177.5,221C 178.744,223.382 180.577,225.215 183,226.5C 183.5,228 184,229.5 184.5,231C 177.46,238.863 168.794,242.197 158.5,241C 155.365,246.064 153.198,251.564 152,257.5C 151.132,260.485 150.799,263.485 151,266.5C 155.009,267.39 158.343,269.39 161,272.5C 166.104,280.149 169.437,288.482 171,297.5C 172.945,298.863 175.112,299.697 177.5,300C 171.957,308.25 166.79,316.75 162,325.5C 158.884,328.777 156.384,332.443 154.5,336.5C 152.711,337.877 150.711,338.877 148.5,339.5C 140.764,336.397 132.764,335.231 124.5,336C 120.844,339.163 116.844,341.829 112.5,344C 106.154,344.266 99.8211,343.933 93.5,343C 83.3021,338.427 72.6354,336.427 61.5,337C 49.3321,348.843 42.6655,363.343 41.5,380.5C 37.0983,380.228 32.7649,380.561 28.5,381.5C 12.7934,374.281 7.79338,362.614 13.5,346.5C 12.5934,343.579 12.2601,340.579 12.5,337.5C 8.16677,337.085 4.16677,335.752 0.5,333.5C 1.21352,331.189 2.21352,329.022 3.5,327C 2.64787,324.583 1.9812,322.083 1.5,319.5C 1.25284,318.287 0.586173,317.62 -0.5,317.5C -0.5,317.167 -0.5,316.833 -0.5,316.5C 6.35508,310.448 9.68841,302.782 9.5,293.5C 8.6702,288.71 8.00353,283.876 7.5,279C 8.61965,274.432 10.2863,270.099 12.5,266C 2.63752,236.064 0.470856,205.564 6,174.5C 8.39352,168.713 11.0602,163.046 14,157.5C 22.1309,146.073 29.6309,134.239 36.5,122C 35.7397,114.976 34.7397,107.976 33.5,101C 37.0718,87.5464 40.4051,74.0464 43.5,60.5C 78.4324,56.018 111.432,45.518 142.5,29C 151.363,29.3795 160.029,31.0461 168.5,34C 177.284,34.7536 185.95,34.0869 194.5,32C 196.833,29.6667 199.167,27.3333 201.5,25C 220.504,20.1648 237.504,11.6648 252.5,-0.5 Z"/></g>
<g><path style="opacity:0.004" fill="#fefffe" d="M 188.5,297.5 C 188.897,296.475 189.563,296.308 190.5,297C 189.906,297.464 189.239,297.631 188.5,297.5 Z"/></g>
<g><path style="opacity:0.004" fill="#fefffe" d="M 193.5,297.5 C 192.833,296.167 192.833,296.167 193.5,297.5 Z"/></g>
<g><path style="opacity:0.004" fill="#fefffe" d="M 185.5,298.5 C 185.897,297.475 186.563,297.308 187.5,298C 186.906,298.464 186.239,298.631 185.5,298.5 Z"/></g>
<g><path style="opacity:0.004" fill="#fefffe" d="M 193.5,297.5 C 194.167,297.5 194.5,297.833 194.5,298.5C 194.167,298.167 193.833,297.833 193.5,297.5 Z"/></g>
<g><path style="opacity:0.004" fill="#fefffe" d="M 182.5,299.5 C 182.897,298.475 183.563,298.308 184.5,299C 183.906,299.464 183.239,299.631 182.5,299.5 Z"/></g>
<g><path style="opacity:0.004" fill="#fefffe" d="M 194.5,298.5 C 195.167,298.5 195.5,298.833 195.5,299.5C 195.167,299.167 194.833,298.833 194.5,298.5 Z"/></g>
<g><path style="opacity:0.004" fill="#fefffe" d="M 180.5,299.5 C 181.833,300.167 181.833,300.167 180.5,299.5 Z"/></g>
<g><path style="opacity:0.004" fill="#fefffe" d="M 195.5,299.5 C 196.167,299.5 196.5,299.833 196.5,300.5C 196.167,300.167 195.833,299.833 195.5,299.5 Z"/></g>
<g><path style="opacity:0.004" fill="#fefffe" d="M 196.5,300.5 C 197.167,300.5 197.5,300.833 197.5,301.5C 197.167,301.167 196.833,300.833 196.5,300.5 Z"/></g>
<g><path style="opacity:0.004" fill="#fefffe" d="M 197.5,301.5 C 198.833,302.167 198.833,302.167 197.5,301.5 Z"/></g>
<g><path style="opacity:0.004" fill="#fefffe" d="M 199.5,304.5 C 198.833,303.167 198.833,303.167 199.5,304.5 Z"/></g>
<g><path style="opacity:0.004" fill="#fefffe" d="M 199.5,304.5 C 200.833,305.167 200.833,305.167 199.5,304.5 Z"/></g>
<g><path style="opacity:0.004" fill="#fefffe" d="M 201.5,307.5 C 200.833,306.167 200.833,306.167 201.5,307.5 Z"/></g>
<g><path style="opacity:0.004" fill="#fefffe" d="M 201.5,307.5 C 202.833,308.167 202.833,308.167 201.5,307.5 Z"/></g>
<g><path style="opacity:0.004" fill="#fefffe" d="M 203.5,310.5 C 202.833,309.167 202.833,309.167 203.5,310.5 Z"/></g>
<g><path style="opacity:0.004" fill="#fefffe" d="M 203.5,310.5 C 204.833,311.167 204.833,311.167 203.5,310.5 Z"/></g>
<g><path style="opacity:0.004" fill="#fefffe" d="M 205.5,312.5 C 206.601,311.402 207.934,311.235 209.5,312C 208.207,312.49 206.873,312.657 205.5,312.5 Z"/></g>
<g><path style="opacity:0.004" fill="#fefffe" d="M 210.5,311.5 C 211.833,312.167 211.833,312.167 210.5,311.5 Z"/></g>
<g><path style="opacity:0.004" fill="#fefffe" d="M 42.5,388.5 C 42.1667,388.5 41.8333,388.5 41.5,388.5C 41.8333,379.167 42.1667,379.167 42.5,388.5 Z"/></g>
</svg>
