<?xml version="1.0" encoding="UTF-8"?>
<!DOCTYPE svg PUBLIC "-//W3C//DTD SVG 1.1//EN" "http://www.w3.org/Graphics/SVG/1.1/DTD/svg11.dtd">
<svg xmlns="http://www.w3.org/2000/svg" version="1.1" width="413px" height="496px" style="shape-rendering:geometricPrecision; text-rendering:geometricPrecision; image-rendering:optimizeQuality; fill-rule:evenodd; clip-rule:evenodd" xmlns:xlink="http://www.w3.org/1999/xlink">
<g><path style="opacity:0.012" fill="#fefffe" d="M 319.5,-0.5 C 320.5,-0.5 321.5,-0.5 322.5,-0.5C 325.164,2.26626 327.997,4.93293 331,7.5C 334,13.5 337,19.5 340,25.5C 346.08,50.5658 352.413,75.5658 359,100.5C 358.992,112.058 358.492,123.558 357.5,135C 361.662,146.15 365.828,157.317 370,168.5C 370.018,174.012 369.518,179.512 368.5,185C 369.923,190.276 371.923,195.276 374.5,200C 380.126,202.879 386.126,204.212 392.5,204C 396.633,207.131 400.466,210.631 404,214.5C 407.851,226.976 404.684,237.143 394.5,245C 385.226,245.854 376.226,247.854 367.5,251C 364.136,255.16 363.636,259.66 366,264.5C 367.393,268.286 369.059,271.952 371,275.5C 383.035,287.866 394.701,300.533 406,313.5C 410.066,318.545 412.233,324.211 412.5,330.5C 412.5,333.5 412.5,336.5 412.5,339.5C 408.967,346.307 407.3,353.64 407.5,361.5C 406.5,361.5 405.5,361.5 404.5,361.5C 403.825,367.214 402.825,372.881 401.5,378.5C 402.593,384.816 403.593,391.149 404.5,397.5C 404.397,404.688 401.397,410.188 395.5,414C 386.653,414.658 377.82,414.491 369,413.5C 365.448,413.641 361.948,414.141 358.5,415C 354.902,420.031 352.235,425.531 350.5,431.5C 353.172,444.38 354.339,457.38 354,470.5C 353.697,472.888 352.863,475.055 351.5,477C 352.167,477.333 352.833,477.667 353.5,478C 343.021,476.957 332.688,477.957 322.5,481C 312.227,486.872 301.227,489.872 289.5,490C 282.502,486.503 275.835,482.503 269.5,478C 262.497,477.503 262.163,476.837 268.5,476C 272.586,474.203 274.586,471.036 274.5,466.5C 274.471,464.971 273.804,463.804 272.5,463C 265.746,461.522 259.246,459.355 253,456.5C 250.271,458.064 247.438,459.397 244.5,460.5C 238.609,460.774 234.776,458.107 233,452.5C 231.681,450.513 229.848,449.346 227.5,449C 226.696,447.229 225.529,445.729 224,444.5C 222.266,445.249 220.433,445.749 218.5,446C 217.5,447.667 216.5,449.333 215.5,451C 213.385,451.557 211.385,452.391 209.5,453.5C 207.157,452.077 204.657,451.077 202,450.5C 198.511,451.589 195.011,451.589 191.5,450.5C 191.296,453.518 190.963,456.518 190.5,459.5C 189.178,459.67 188.011,459.337 187,458.5C 184.252,463.252 180.752,467.419 176.5,471C 158.17,471.5 139.836,471.667 121.5,471.5C 121.52,466.866 120.354,462.533 118,458.5C 117.503,455.854 117.336,453.187 117.5,450.5C 112.704,449.513 108.037,448.013 103.5,446C 100.667,443.167 97.8333,440.333 95,437.5C 94.4754,432.129 93.3088,426.962 91.5,422C 86.3604,419.731 81.0271,418.065 75.5,417C 66.779,412.371 65.279,406.205 71,398.5C 73.3011,391.703 72.9677,385.036 70,378.5C 66.3333,375.5 62.6667,372.5 59,369.5C 58.6401,367.392 57.9734,365.392 57,363.5C 52.4368,360.605 48.9368,356.772 46.5,352C 46.8333,351 47.1667,350 47.5,349C 43.7343,340.036 40.5676,330.869 38,321.5C 32.5179,313.226 28.6846,304.226 26.5,294.5C 25.1667,295.167 23.8333,295.833 22.5,296.5C 21.3241,288.947 21.6574,281.447 23.5,274C 22.5394,270.197 21.7061,266.364 21,262.5C 16.9976,255.832 14.1642,248.665 12.5,241C 9.56914,238.952 6.73581,236.786 4,234.5C 1.80252,226.816 2.96918,219.649 7.5,213C 6.33773,210.184 5.17106,207.35 4,204.5C 1.83699,202.859 0.336992,200.859 -0.5,198.5C -0.5,197.167 -0.5,195.833 -0.5,194.5C 0.670114,192.35 1.67011,190.016 2.5,187.5C 3.72865,186.719 5.06199,186.219 6.5,186C 4.91143,183.569 3.91143,180.903 3.5,178C 4.26031,172.158 5.09364,166.324 6,160.5C 9.9982,156.808 11.6649,152.141 11,146.5C 12.7812,143.726 14.1145,140.726 15,137.5C 16,136.5 17,135.5 18,134.5C 18.4988,130.514 18.6655,126.514 18.5,122.5C 20.1992,122.66 21.8659,122.494 23.5,122C 28.1988,116.966 33.1988,112.3 38.5,108C 43.3089,108.417 47.3089,106.917 50.5,103.5C 53.6883,104.593 56.355,106.426 58.5,109C 61.8333,109.333 65.1667,109.667 68.5,110C 71.538,112.703 74.2046,115.703 76.5,119C 79.8333,119.333 83.1667,119.667 86.5,120C 89.0745,122.243 91.9078,124.076 95,125.5C 101.584,124.541 107.918,125.541 114,128.5C 120.66,125.32 123.827,119.987 123.5,112.5C 114.098,111.901 110.598,106.901 113,97.5C 117.351,95.9293 121.851,94.9293 126.5,94.5C 126.666,90.4862 126.499,86.4862 126,82.5C 117.536,74.5359 117.536,66.5359 126,58.5C 126.171,53.1358 126.671,47.8025 127.5,42.5C 136.699,35.4021 147.032,30.7355 158.5,28.5C 165.598,33.1339 173.098,37.1339 181,40.5C 187.779,37.8927 193.946,34.2261 199.5,29.5C 210.32,34.9419 221.653,38.4419 233.5,40C 249.531,37.409 265.197,33.409 280.5,28C 295.342,20.9229 308.342,11.4229 319.5,-0.5 Z"/></g>
<g><path style="opacity:0.004" fill="#fefffe" d="M 217.5,478.5 C 219.288,477.378 221.288,477.211 223.5,478C 221.527,478.495 219.527,478.662 217.5,478.5 Z"/></g>
<g><path style="opacity:0.004" fill="#fefffe" d="M 225.5,477.5 C 226.833,478.167 226.833,478.167 225.5,477.5 Z"/></g>
<g><path style="opacity:0.004" fill="#fefffe" d="M 255.5,478.5 C 256.601,477.402 257.934,477.235 259.5,478C 258.207,478.49 256.873,478.657 255.5,478.5 Z"/></g>
<g><path style="opacity:0.004" fill="#fefffe" d="M 211.5,479.5 C 211.897,478.475 212.563,478.308 213.5,479C 212.906,479.464 212.239,479.631 211.5,479.5 Z"/></g>
<g><path style="opacity:0.004" fill="#fefffe" d="M 251.5,479.5 C 251.897,478.475 252.563,478.308 253.5,479C 252.906,479.464 252.239,479.631 251.5,479.5 Z"/></g>
<g><path style="opacity:0.004" fill="#fefffe" d="M 354.5,479.5 C 354.897,478.475 355.563,478.308 356.5,479C 355.906,479.464 355.239,479.631 354.5,479.5 Z"/></g>
<g><path style="opacity:0.004" fill="#fefffe" d="M 208.5,480.5 C 208.897,479.475 209.563,479.308 210.5,480C 209.906,480.464 209.239,480.631 208.5,480.5 Z"/></g>
<g><path style="opacity:0.004" fill="#fefffe" d="M 229.5,480.5 C 228.833,479.167 228.833,479.167 229.5,480.5 Z"/></g>
<g><path style="opacity:0.004" fill="#fefffe" d="M 248.5,480.5 C 248.897,479.475 249.563,479.308 250.5,480C 249.906,480.464 249.239,480.631 248.5,480.5 Z"/></g>
<g><path style="opacity:0.004" fill="#fefffe" d="M 357.5,479.5 C 358.833,480.167 358.833,480.167 357.5,479.5 Z"/></g>
<g><path style="opacity:0.004" fill="#fefffe" d="M 206.5,480.5 C 207.833,481.167 207.833,481.167 206.5,480.5 Z"/></g>
<g><path style="opacity:0.004" fill="#fefffe" d="M 229.5,480.5 C 230.167,480.5 230.5,480.833 230.5,481.5C 230.167,481.167 229.833,480.833 229.5,480.5 Z"/></g>
<g><path style="opacity:0.004" fill="#fefffe" d="M 245.5,480.5 C 246.833,481.167 246.833,481.167 245.5,480.5 Z"/></g>
<g><path style="opacity:0.004" fill="#fefffe" d="M 359.5,480.5 C 360.833,481.167 360.833,481.167 359.5,480.5 Z"/></g>
<g><path style="opacity:0.004" fill="#fefffe" d="M 203.5,481.5 C 204.833,482.167 204.833,482.167 203.5,481.5 Z"/></g>
<g><path style="opacity:0.004" fill="#fefffe" d="M 230.5,481.5 C 231.833,482.167 231.833,482.167 230.5,481.5 Z"/></g>
<g><path style="opacity:0.004" fill="#fefffe" d="M 243.5,481.5 C 244.833,482.167 244.833,482.167 243.5,481.5 Z"/></g>
<g><path style="opacity:0.004" fill="#fefffe" d="M 363.5,482.5 C 362.761,482.631 362.094,482.464 361.5,482C 362.437,481.308 363.103,481.475 363.5,482.5 Z"/></g>
<g><path style="opacity:0.004" fill="#fefffe" d="M 203.5,482.5 C 202.833,483.167 202.833,483.167 203.5,482.5 Z"/></g>
<g><path style="opacity:0.004" fill="#fefffe" d="M 233.5,483.5 C 232.833,482.167 232.833,482.167 233.5,483.5 Z"/></g>
<g><path style="opacity:0.004" fill="#fefffe" d="M 240.5,483.5 C 240.897,482.475 241.563,482.308 242.5,483C 241.906,483.464 241.239,483.631 240.5,483.5 Z"/></g>
<g><path style="opacity:0.004" fill="#fefffe" d="M 363.5,482.5 C 364.338,482.842 364.672,483.508 364.5,484.5C 363.662,484.158 363.328,483.492 363.5,482.5 Z"/></g>
<g><path style="opacity:0.004" fill="#fefffe" d="M 200.5,483.5 C 201.833,484.167 201.833,484.167 200.5,483.5 Z"/></g>
<g><path style="opacity:0.004" fill="#fefffe" d="M 233.5,483.5 C 234.833,484.167 234.833,484.167 233.5,483.5 Z"/></g>
<g><path style="opacity:0.004" fill="#fefffe" d="M 240.5,483.5 C 240.103,484.525 239.437,484.692 238.5,484C 239.094,483.536 239.761,483.369 240.5,483.5 Z"/></g>
<g><path style="opacity:0.004" fill="#fefffe" d="M 200.5,484.5 C 199.833,485.167 199.833,485.167 200.5,484.5 Z"/></g>
<g><path style="opacity:0.004" fill="#fefffe" d="M 364.5,484.5 C 365.338,484.842 365.672,485.508 365.5,486.5C 364.662,486.158 364.328,485.492 364.5,484.5 Z"/></g>
<g><path style="opacity:0.004" fill="#fefffe" d="M 197.5,486.5 C 198.525,486.897 198.692,487.563 198,488.5C 197.536,487.906 197.369,487.239 197.5,486.5 Z"/></g>
<g><path style="opacity:0.004" fill="#fefffe" d="M 365.5,486.5 C 366.338,486.842 366.672,487.508 366.5,488.5C 365.662,488.158 365.328,487.492 365.5,486.5 Z"/></g>
<g><path style="opacity:0.004" fill="#fefffe" d="M 366.5,488.5 C 367.338,488.842 367.672,489.508 367.5,490.5C 366.662,490.158 366.328,489.492 366.5,488.5 Z"/></g>
<g><path style="opacity:0.004" fill="#fefffe" d="M 196.5,489.5 C 197.833,490.167 197.833,490.167 196.5,489.5 Z"/></g>
<g><path style="opacity:0.004" fill="#fefffe" d="M 367.5,490.5 C 368.525,490.897 368.692,491.563 368,492.5C 367.536,491.906 367.369,491.239 367.5,490.5 Z"/></g>
<g><path style="opacity:0.004" fill="#fefffe" d="M 369.5,495.5 C 368.833,494.167 368.833,494.167 369.5,495.5 Z"/></g>
</svg>
