<?xml version="1.0" encoding="UTF-8"?>
<!DOCTYPE svg PUBLIC "-//W3C//DTD SVG 1.1//EN" "http://www.w3.org/Graphics/SVG/1.1/DTD/svg11.dtd">
<svg xmlns="http://www.w3.org/2000/svg" version="1.1" width="270px" height="279px" style="shape-rendering:geometricPrecision; text-rendering:geometricPrecision; image-rendering:optimizeQuality; fill-rule:evenodd; clip-rule:evenodd" xmlns:xlink="http://www.w3.org/1999/xlink">
<g><path style="opacity:0.012" fill="#fefffe" d="M 139.5,-0.5 C 140.5,-0.5 141.5,-0.5 142.5,-0.5C 142.338,1.5273 142.505,3.5273 143,5.5C 146.661,8.99356 148.494,13.3269 148.5,18.5C 151.05,19.9416 153.716,21.1083 156.5,22C 165.501,22.1254 174.501,21.7921 183.5,21C 186.832,20.7512 189.999,19.9179 193,18.5C 198.895,21.1972 204.728,24.0305 210.5,27C 211.877,29.3332 212.877,31.8332 213.5,34.5C 220.09,35.8828 226.757,36.7162 233.5,37C 236.505,38.1697 239.505,39.3364 242.5,40.5C 249.175,36.3205 256.509,33.6538 264.5,32.5C 266.558,38.8136 268.224,45.1469 269.5,51.5C 269.5,55.1667 269.5,58.8333 269.5,62.5C 265.868,70.8875 262.701,79.5542 260,88.5C 256.824,104.092 254.157,119.758 252,135.5C 249.517,140.843 245.684,145.01 240.5,148C 230.158,153.504 219.824,159.004 209.5,164.5C 204.564,180.142 199.73,195.808 195,211.5C 189.094,216.54 182.594,220.706 175.5,224C 167.5,227 159.5,230 151.5,233C 148.023,233.663 144.523,234.163 141,234.5C 137.195,233.501 133.362,233.001 129.5,233C 124.943,237.054 120.943,241.554 117.5,246.5C 113.002,247.102 108.668,248.269 104.5,250C 91.2532,261.757 76.5865,271.257 60.5,278.5C 57.8333,278.5 55.1667,278.5 52.5,278.5C 44.2114,275.235 35.7114,272.235 27,269.5C 22.8918,264.796 19.3918,259.629 16.5,254C 19.8333,252 22.5,249.333 24.5,246C 23.5025,243.015 22.5025,240.015 21.5,237C 22.0471,234.783 23.0471,232.783 24.5,231C 15.5009,216.829 7.16755,202.329 -0.5,187.5C -0.5,186.5 -0.5,185.5 -0.5,184.5C 0.627925,181.595 2.29459,178.928 4.5,176.5C 8.16667,173.5 11.5,170.167 14.5,166.5C 14.2607,162.021 12.4274,158.355 9,155.5C 8.5334,150.325 8.70006,145.158 9.5,140C 7.03616,124.27 9.20283,109.103 16,94.5C 20.1918,88.1567 26.0251,85.8234 33.5,87.5C 36.8333,87.6667 40.1667,87.8333 43.5,88C 45.3325,88.7485 46.9991,89.7485 48.5,91C 58.8355,91.917 69.0021,93.7503 79,96.5C 92.9749,90.7062 96.8083,80.8729 90.5,67C 91.8485,64.0642 94.0151,61.8976 97,60.5C 97.1218,52.4595 99.7885,45.4595 105,39.5C 106.197,36.9109 107.197,34.2442 108,31.5C 111.333,28.8333 114.667,26.1667 118,23.5C 118.333,21.5 118.667,19.5 119,17.5C 125.044,13.1237 130.044,7.79039 134,1.5C 135.948,0.890644 137.782,0.223978 139.5,-0.5 Z"/></g>
<g><path style="opacity:0.004" fill="#fefffe" d="M 134.5,235.5 C 135.833,236.167 135.833,236.167 134.5,235.5 Z"/></g>
<g><path style="opacity:0.004" fill="#fefffe" d="M 133.5,237.5 C 134.833,238.167 134.833,238.167 133.5,237.5 Z"/></g>
<g><path style="opacity:0.004" fill="#fefffe" d="M 132.5,239.5 C 133.833,240.167 133.833,240.167 132.5,239.5 Z"/></g>
<g><path style="opacity:0.004" fill="#fefffe" d="M 132.5,240.5 C 131.833,241.167 131.833,241.167 132.5,240.5 Z"/></g>
<g><path style="opacity:0.004" fill="#fefffe" d="M 130.5,242.5 C 131.833,243.167 131.833,243.167 130.5,242.5 Z"/></g>
<g><path style="opacity:0.004" fill="#fefffe" d="M 130.5,243.5 C 130.649,244.552 130.483,245.552 130,246.5C 129.26,245.251 129.427,244.251 130.5,243.5 Z"/></g>
<g><path style="opacity:0.004" fill="#fefffe" d="M 129.5,249.5 C 130.573,250.251 130.74,251.251 130,252.5C 129.517,251.552 129.351,250.552 129.5,249.5 Z"/></g>
<g><path style="opacity:0.004" fill="#fefffe" d="M 128.5,255.5 C 129.833,256.167 129.833,256.167 128.5,255.5 Z"/></g>
<g><path style="opacity:0.004" fill="#fefffe" d="M 127.5,257.5 C 128.833,258.167 128.833,258.167 127.5,257.5 Z"/></g>
<g><path style="opacity:0.004" fill="#fefffe" d="M 126.5,259.5 C 127.833,260.167 127.833,260.167 126.5,259.5 Z"/></g>
<g><path style="opacity:0.004" fill="#fefffe" d="M 126.5,260.5 C 126.662,262.527 126.495,264.527 126,266.5C 125.211,264.288 125.378,262.288 126.5,260.5 Z"/></g>
</svg>
