<?xml version="1.0" encoding="UTF-8"?>
<!DOCTYPE svg PUBLIC "-//W3C//DTD SVG 1.1//EN" "http://www.w3.org/Graphics/SVG/1.1/DTD/svg11.dtd">
<svg xmlns="http://www.w3.org/2000/svg" version="1.1" width="813px" height="332px" style="shape-rendering:geometricPrecision; text-rendering:geometricPrecision; image-rendering:optimizeQuality; fill-rule:evenodd; clip-rule:evenodd" xmlns:xlink="http://www.w3.org/1999/xlink">
<g><path style="opacity:0.012" fill="#fefffe" d="M 309.5,-0.5 C 312.167,-0.5 314.833,-0.5 317.5,-0.5C 323.331,3.13653 329.331,6.63653 335.5,10C 337.81,10.4966 340.143,10.6633 342.5,10.5C 342.779,13.1178 343.446,15.6178 344.5,18C 357.588,24.431 369.588,32.431 380.5,42C 383.35,43.1711 386.184,44.3377 389,45.5C 391.655,43.9471 394.488,42.7804 397.5,42C 398.65,39.5378 399.983,37.2045 401.5,35C 405.779,32.7438 409.946,32.5771 414,34.5C 420.868,31.0935 428.201,29.7602 436,30.5C 441.565,30.4419 447.065,30.9419 452.5,32C 459.626,35.3967 466.626,39.0634 473.5,43C 475.807,46.9405 478.807,50.2738 482.5,53C 490.089,58.3779 497.589,63.8779 505,69.5C 505.667,72.5 505.667,75.5 505,78.5C 501.047,85.9297 499.547,93.7631 500.5,102C 499.692,104.761 498.692,107.428 497.5,110C 501.371,116.576 502.371,123.576 500.5,131C 501.161,133.464 501.661,135.964 502,138.5C 511.065,148.286 521.898,155.453 534.5,160C 538.024,163.025 541.691,165.858 545.5,168.5C 551.583,163.741 557.917,159.408 564.5,155.5C 570.552,156.565 575.552,159.398 579.5,164C 583.167,164.667 586.833,164.667 590.5,164C 592.775,161.052 595.609,158.886 599,157.5C 601.833,158.667 604.667,159.833 607.5,161C 615.267,161.13 622.934,161.964 630.5,163.5C 638.192,161.103 645.859,158.603 653.5,156C 675.865,144.485 698.198,132.985 720.5,121.5C 729.297,126.468 737.964,131.634 746.5,137C 758.624,140.451 770.957,142.118 783.5,142C 785.333,140.833 787.167,139.667 789,138.5C 797.138,145.533 804.972,145.533 812.5,138.5C 812.5,202.833 812.5,267.167 812.5,331.5C 580.833,331.5 349.167,331.5 117.5,331.5C 115.085,327.578 112.085,324.078 108.5,321C 98.1411,315.969 89.6411,308.803 83,299.5C 78.9405,289.989 75.2739,280.322 72,270.5C 69.3899,262.754 64.5565,256.921 57.5,253C 48.845,249.668 40.1784,246.335 31.5,243C 26.1073,240.274 21.274,236.774 17,232.5C 12.0609,222.955 7.39423,213.289 3,203.5C 2.18405,202.177 1.01739,201.511 -0.5,201.5C -0.5,200.5 -0.5,199.5 -0.5,198.5C 2.66105,195.525 4.82772,191.858 6,187.5C 6.72472,186.941 7.55805,186.608 8.5,186.5C 12.0468,186.957 15.0468,188.457 17.5,191C 20.5,191.333 23.5,191.667 26.5,192C 35.5,198.333 44.5,204.667 53.5,211C 100.165,211.5 146.832,211.667 193.5,211.5C 193.5,171.167 193.5,130.833 193.5,90.5C 148.499,90.6667 103.499,90.5 58.5,90C 63.5661,86.9989 65.8994,82.4989 65.5,76.5C 65.0653,68.6226 63.5653,60.9559 61,53.5C 59.0516,42.9676 61.0516,33.301 67,24.5C 71.1328,21.3689 74.9662,17.8689 78.5,14C 80.3703,12.6338 82.3703,11.4672 84.5,10.5C 89.3121,14.1444 93.9788,17.9777 98.5,22C 102.888,24.8606 107.554,27.1939 112.5,29C 119.992,29.7635 126.992,28.2635 133.5,24.5C 136.079,25.7061 138.579,27.0394 141,28.5C 143.185,27.0716 145.185,25.4049 147,23.5C 148.338,29.6695 152.171,32.6695 158.5,32.5C 161.462,30.6819 164.462,28.8485 167.5,27C 171.167,26.3333 174.833,26.3333 178.5,27C 179.5,28 180.5,29 181.5,30C 186.202,30.8283 190.869,30.6616 195.5,29.5C 197.435,25.0681 200.768,22.2347 205.5,21C 211.24,19.9622 216.907,18.6289 222.5,17C 233.609,16.4663 244.609,17.133 255.5,19C 256.938,18.7811 258.271,18.2811 259.5,17.5C 260.128,15.7419 261.128,14.2419 262.5,13C 271.734,11.8102 280.401,8.81024 288.5,4C 291.833,3.66667 295.167,3.33333 298.5,3C 302.102,1.24278 305.768,0.0761171 309.5,-0.5 Z"/></g>
</svg>
