<?xml version="1.0" encoding="UTF-8"?>
<!DOCTYPE svg PUBLIC "-//W3C//DTD SVG 1.1//EN" "http://www.w3.org/Graphics/SVG/1.1/DTD/svg11.dtd">
<svg xmlns="http://www.w3.org/2000/svg" version="1.1" width="381px" height="355px" style="shape-rendering:geometricPrecision; text-rendering:geometricPrecision; image-rendering:optimizeQuality; fill-rule:evenodd; clip-rule:evenodd" xmlns:xlink="http://www.w3.org/1999/xlink">
<g><path style="opacity:0.012" fill="#fefffe" d="M 166.5,-0.5 C 167.833,-0.5 169.167,-0.5 170.5,-0.5C 174.285,1.26585 178.285,2.76585 182.5,4C 190.167,11.6667 197.833,19.3333 205.5,27C 225.325,37.0785 244.991,47.4118 264.5,58C 282.604,65.2572 300.937,71.9239 319.5,78C 324.167,80.6667 328.833,83.3333 333.5,86C 336.952,89.7336 339.785,93.9003 342,98.5C 342.676,110.573 344.009,122.573 346,134.5C 347.597,137.791 349.097,141.125 350.5,144.5C 360.859,150.008 370.859,156.008 380.5,162.5C 380.5,167.833 380.5,173.167 380.5,178.5C 376.195,181.323 371.862,184.156 367.5,187C 355.946,190.778 344.612,195.111 333.5,200C 325.667,206.5 317.833,213 310,219.5C 307,224.167 304,228.833 301,233.5C 302.163,252.361 299.496,270.694 293,288.5C 285.873,293.959 279.039,299.792 272.5,306C 264.667,310.416 257,315.082 249.5,320C 232.997,325.501 216.164,329.667 199,332.5C 188.515,329.228 178.182,325.561 168,321.5C 164.095,324.206 160.262,327.039 156.5,330C 154.5,330.5 152.5,331 150.5,331.5C 142.184,328.339 134.184,324.673 126.5,320.5C 115.417,323.124 105.251,327.791 96,334.5C 92.8991,332.723 91.8991,330.057 93,326.5C 94,324.167 95,321.833 96,319.5C 97.1131,318.289 98.2798,318.289 99.5,319.5C 100.777,316.966 100.777,314.466 99.5,312C 101.928,306.646 103.928,301.146 105.5,295.5C 100.738,295.037 97.2381,292.704 95,288.5C 90.7679,279.132 86.9346,269.632 83.5,260C 81.7262,259.03 79.8928,258.196 78,257.5C 73.5222,258.539 69.0222,259.039 64.5,259C 57.1412,255.994 50.4746,251.994 44.5,247C 43.1564,243.197 42.1564,239.364 41.5,235.5C 40.5,235.5 39.5,235.5 38.5,235.5C 38.6495,234.448 38.4828,233.448 38,232.5C 28.0715,224.585 17.5715,217.418 6.5,211C 4.30238,207.977 1.96904,205.144 -0.5,202.5C -0.5,199.833 -0.5,197.167 -0.5,194.5C 6.34102,192.206 13.341,190.373 20.5,189C 24.8571,185.571 29.6905,183.071 35,181.5C 38.8498,186.233 43.6831,188.9 49.5,189.5C 49.3433,190.873 49.51,192.207 50,193.5C 51.4443,191.845 53.2776,191.178 55.5,191.5C 55.5,190.5 55.5,189.5 55.5,188.5C 58.3456,188.97 60.6789,188.137 62.5,186C 64.8333,185.333 67.1667,185.333 69.5,186C 72.2847,189.933 72.618,193.933 70.5,198C 71.9921,200.322 73.6588,202.489 75.5,204.5C 77.7802,203.245 78.9468,201.245 79,198.5C 80.353,197.315 81.5197,195.981 82.5,194.5C 87.0995,191.221 90.4329,192.221 92.5,197.5C 93.5,197.833 94.5,198.167 95.5,198.5C 104.44,197.062 113.44,196.229 122.5,196C 129.022,194.826 135.188,192.66 141,189.5C 145.373,191.026 149.873,191.692 154.5,191.5C 154.215,189.712 154.548,188.045 155.5,186.5C 164.781,181.36 174.448,177.027 184.5,173.5C 189.928,174.652 195.261,174.152 200.5,172C 207.833,171.667 215.167,171.333 222.5,171C 225.713,170.394 228.713,169.227 231.5,167.5C 232.521,166.998 232.688,166.332 232,165.5C 228.333,161.833 224.667,158.167 221,154.5C 220.333,151.167 220.333,147.833 221,144.5C 226.08,141.786 231.246,139.453 236.5,137.5C 232.511,134.839 228.178,132.672 223.5,131C 221.833,128.667 220.167,126.333 218.5,124C 208.478,124.999 198.478,124.666 188.5,123C 187.272,122.221 186.272,121.221 185.5,120C 185.038,117.323 184.204,114.823 183,112.5C 172.667,125.833 162.333,125.833 152,112.5C 150.144,105.583 147.144,99.2497 143,93.5C 142.832,84.8142 142.332,76.1475 141.5,67.5C 133.299,64.4309 130.465,58.7642 133,50.5C 135.185,49.0716 137.185,47.4049 139,45.5C 138.755,41.1866 138.755,36.8532 139,32.5C 146.649,25.1913 153.149,17.0246 158.5,8C 157.5,7.66667 156.5,7.33333 155.5,7C 159.345,4.63698 163.011,2.13698 166.5,-0.5 Z"/></g>
<g><path style="opacity:0.004" fill="#fefffe" d="M 93.5,350.5 C 94.8333,351.167 94.8333,351.167 93.5,350.5 Z"/></g>
<g><path style="opacity:0.004" fill="#fefffe" d="M 93.5,351.5 C 92.8333,352.167 92.8333,352.167 93.5,351.5 Z"/></g>
<g><path style="opacity:0.004" fill="#fefffe" d="M 92.5,352.5 C 91.8333,353.167 91.8333,353.167 92.5,352.5 Z"/></g>
<g><path style="opacity:0.004" fill="#fefffe" d="M 91.5,353.5 C 91.5,353.833 91.5,354.167 91.5,354.5C 90.8299,354.019 90.8299,353.685 91.5,353.5 Z"/></g>
</svg>
