<?xml version="1.0" encoding="UTF-8"?>
<!DOCTYPE svg PUBLIC "-//W3C//DTD SVG 1.1//EN" "http://www.w3.org/Graphics/SVG/1.1/DTD/svg11.dtd">
<svg xmlns="http://www.w3.org/2000/svg" version="1.1" width="224px" height="272px" style="shape-rendering:geometricPrecision; text-rendering:geometricPrecision; image-rendering:optimizeQuality; fill-rule:evenodd; clip-rule:evenodd" xmlns:xlink="http://www.w3.org/1999/xlink">
<g><path style="opacity:0.012" fill="#fefffe" d="M 170.5,-0.5 C 174.5,-0.5 178.5,-0.5 182.5,-0.5C 193.632,0.807541 203.799,4.80754 213,11.5C 213.985,15.2637 214.485,19.097 214.5,23C 213.667,30.4926 213.5,37.9926 214,45.5C 216.254,59.1754 219.42,72.5087 223.5,85.5C 223.5,87.5 223.5,89.5 223.5,91.5C 223.039,97.3025 221.539,102.969 219,108.5C 212.667,116.167 206.333,123.833 200,131.5C 198,135.5 196,139.5 194,143.5C 191.948,157.369 189.114,171.036 185.5,184.5C 184.022,184.238 182.689,184.571 181.5,185.5C 182.92,189.345 185.087,192.678 188,195.5C 188.781,196.944 188.614,198.277 187.5,199.5C 174.587,205.195 164.753,214.195 158,226.5C 158.663,235.149 159.497,243.816 160.5,252.5C 152.609,253.986 144.609,254.986 136.5,255.5C 116.161,253.932 95.8273,253.266 75.5,253.5C 73.773,256.064 71.6064,258.064 69,259.5C 55.7985,260.685 42.6318,262.018 29.5,263.5C 28.2546,259.786 28.4213,256.12 30,252.5C 34.1813,250.987 37.8479,248.654 41,245.5C 43.3491,241.805 44.8491,237.805 45.5,233.5C 54.304,232.187 61.4707,228.187 67,221.5C 68.0375,218.595 69.2042,215.761 70.5,213C 66.3675,204.853 62.2008,196.686 58,188.5C 57.4156,184.905 56.5823,181.405 55.5,178C 60.5172,166.595 56.5172,160.262 43.5,159C 37.0703,155.451 30.4036,152.451 23.5,150C 17.7518,144.988 13.0852,139.154 9.5,132.5C 7.32953,130.914 4.99619,129.58 2.5,128.5C 1.48901,124.373 0.489006,120.373 -0.5,116.5C -0.5,114.5 -0.5,112.5 -0.5,110.5C 0.647103,105.358 1.48044,100.025 2,94.5C 5.5,87.5 9,80.5 12.5,73.5C 38.4535,68.681 62.4535,59.181 84.5,45C 90.1667,36.6667 97.1667,29.6667 105.5,24C 126.29,13.131 147.956,4.96433 170.5,-0.5 Z"/></g>
<g><path style="opacity:0.004" fill="#fefffe" d="M 160.5,252.5 C 161.634,254.966 161.801,257.633 161,260.5C 160.503,257.854 160.336,255.187 160.5,252.5 Z"/></g>
<g><path style="opacity:0.004" fill="#fefffe" d="M 159.5,263.5 C 160.573,264.251 160.74,265.251 160,266.5C 159.517,265.552 159.351,264.552 159.5,263.5 Z"/></g>
<g><path style="opacity:0.004" fill="#fefffe" d="M 159.5,271.5 C 159.167,271.5 158.833,271.5 158.5,271.5C 158.833,268.833 159.167,268.833 159.5,271.5 Z"/></g>
</svg>
