<?xml version="1.0" encoding="UTF-8"?>
<!DOCTYPE svg PUBLIC "-//W3C//DTD SVG 1.1//EN" "http://www.w3.org/Graphics/SVG/1.1/DTD/svg11.dtd">
<svg xmlns="http://www.w3.org/2000/svg" version="1.1" width="319px" height="256px" style="shape-rendering:geometricPrecision; text-rendering:geometricPrecision; image-rendering:optimizeQuality; fill-rule:evenodd; clip-rule:evenodd" xmlns:xlink="http://www.w3.org/1999/xlink">
<g><path style="opacity:0.012" fill="#fefffe" d="M -0.5,-0.5 C 100.5,-0.5 201.5,-0.5 302.5,-0.5C 307.64,0.488077 312.974,0.821411 318.5,0.5C 318.5,33.1667 318.5,65.8333 318.5,98.5C 310.966,116.078 302.966,133.578 294.5,151C 295.608,153.112 297.108,154.946 299,156.5C 301.681,163.736 300.181,170.236 294.5,176C 298.951,178.783 303.117,181.95 307,185.5C 308.324,191.114 307.157,196.114 303.5,200.5C 301.513,202.327 299.179,203.327 296.5,203.5C 296.837,206.83 295.337,208.496 292,208.5C 284.514,209.187 277.014,209.354 269.5,209C 268.518,211.738 267.852,214.572 267.5,217.5C 263.756,217.315 260.089,216.648 256.5,215.5C 253.309,216.175 250.309,217.342 247.5,219C 236.869,231.496 223.869,240.829 208.5,247C 200.377,247.091 192.544,248.591 185,251.5C 179.364,248.353 173.364,246.02 167,244.5C 163.849,245.093 160.682,245.593 157.5,246C 155.5,248 153.5,250 151.5,252C 148.626,252.942 145.96,254.109 143.5,255.5C 140.833,255.5 138.167,255.5 135.5,255.5C 132.501,251.668 129.001,248.335 125,245.5C 124.544,244.256 125.044,243.423 126.5,243C 83.9962,203.995 41.6628,164.829 -0.5,125.5C -0.5,83.5 -0.5,41.5 -0.5,-0.5 Z"/></g>
</svg>
