<?xml version="1.0" encoding="UTF-8"?>
<!DOCTYPE svg PUBLIC "-//W3C//DTD SVG 1.1//EN" "http://www.w3.org/Graphics/SVG/1.1/DTD/svg11.dtd">
<svg xmlns="http://www.w3.org/2000/svg" version="1.1" width="386px" height="169px" style="shape-rendering:geometricPrecision; text-rendering:geometricPrecision; image-rendering:optimizeQuality; fill-rule:evenodd; clip-rule:evenodd" xmlns:xlink="http://www.w3.org/1999/xlink">
<g><path style="opacity:0.004" fill="#fefffe" d="M 187.5,-0.5 C 187.833,-0.5 188.167,-0.5 188.5,-0.5C 188.315,0.170143 187.981,0.170143 187.5,-0.5 Z"/></g>
<g><path style="opacity:0.012" fill="#fefffe" d="M 218.5,168.5 C 218.167,168.5 217.833,168.5 217.5,168.5C 215.978,166.667 213.978,165.667 211.5,165.5C 207.007,166.213 202.507,166.88 198,167.5C 195.189,167.297 192.522,166.631 190,165.5C 189.333,164.5 189.333,163.5 190,162.5C 192.414,160.709 194.914,159.043 197.5,157.5C 200.364,152.112 202.364,146.446 203.5,140.5C 190.489,142.085 177.489,143.751 164.5,145.5C 164.994,138.473 162.661,132.64 157.5,128C 156.552,127.517 155.552,127.351 154.5,127.5C 151.603,134.641 146.269,138.974 138.5,140.5C 133.493,140.163 129.493,137.997 126.5,134C 121.977,133.68 117.477,133.18 113,132.5C 110.995,132.001 109.495,130.834 108.5,129C 102.807,128.595 97.1407,128.928 91.5,130C 91.2162,133.62 89.3829,136.12 86,137.5C 80.833,135.374 75.4997,133.707 70,132.5C 68.1105,132.785 66.7771,133.785 66,135.5C 63.6959,133.932 61.1959,132.765 58.5,132C 58.4057,130.578 58.0724,129.078 57.5,127.5C 55.3684,129.117 53.0351,129.617 50.5,129C 47.5,123.333 44.5,117.667 41.5,112C 44.9928,106.711 46.6595,100.878 46.5,94.5C 39.9408,93.0357 33.6074,90.869 27.5,88C 22.4521,86.6642 18.2854,87.8309 15,91.5C 12.6003,90.9559 10.267,90.2892 8,89.5C 7.33333,86.8333 7.33333,84.1667 8,81.5C 13.5249,62.9269 16.0249,43.9269 15.5,24.5C 16.4794,27.6248 16.8128,30.9581 16.5,34.5C 31.8349,30.4662 47.3349,27.1328 63,24.5C 67.8299,25.033 72.6632,25.533 77.5,26C 84.5612,30.1851 92.2278,32.6851 100.5,33.5C 108.527,31.4354 116.527,29.2687 124.5,27C 128.167,26.3333 131.833,26.3333 135.5,27C 142.627,32.4586 149.461,38.2919 156,44.5C 165.373,63.1957 180.539,73.0291 201.5,74C 211.167,74.6667 220.833,74.6667 230.5,74C 242.456,69.6946 253.122,63.3613 262.5,55C 270.363,46.8023 278.53,38.969 287,31.5C 288.035,29.1089 288.202,26.7756 287.5,24.5C 288.04,23.2519 288.707,22.0852 289.5,21C 294.668,20.166 298.835,17.666 302,13.5C 304.167,15.6667 306.333,17.8333 308.5,20C 316.833,20 318.5,16.6667 313.5,10C 316.146,9.50258 318.813,9.33591 321.5,9.5C 323.384,2.40715 327.717,-0.0928508 334.5,2C 336.833,4.33333 339.167,6.66667 341.5,9C 348.277,11.5443 355.277,13.0443 362.5,13.5C 363.287,14.2421 363.953,15.0754 364.5,16C 363.044,17.7448 361.711,19.5781 360.5,21.5C 361.025,22.1924 361.692,22.6924 362.5,23C 360.462,24.236 359.295,26.0694 359,28.5C 346.751,36.2499 334.918,44.5833 323.5,53.5C 321.739,57.4184 320.239,61.4184 319,65.5C 315.699,70.2341 311.199,73.0674 305.5,74C 304.122,75.7134 302.455,77.0467 300.5,78C 295.283,77.3243 289.95,76.491 284.5,75.5C 278.873,78.4138 276.039,83.0805 276,89.5C 273.007,95.7985 270.007,102.132 267,108.5C 262.976,111.024 259.809,114.358 257.5,118.5C 260.414,121.413 261.581,124.747 261,128.5C 262.177,130.176 263.677,131.509 265.5,132.5C 266.947,136.361 266.614,140.027 264.5,143.5C 264.76,145.187 265.427,146.687 266.5,148C 264.47,150.551 262.803,153.384 261.5,156.5C 252.134,161.415 242.134,163.915 231.5,164C 227.285,166.237 222.952,167.737 218.5,168.5 Z"/></g>
<g><path style="opacity:0.004" fill="#fefffe" d="M 188.5,1.5 C 189.833,2.16667 189.833,2.16667 188.5,1.5 Z"/></g>
<g><path style="opacity:0.004" fill="#fefffe" d="M 4.5,3.5 C 3.83333,2.16667 3.83333,2.16667 4.5,3.5 Z"/></g>
<g><path style="opacity:0.004" fill="#fefffe" d="M 193.5,3.5 C 197.646,2.35303 201.98,2.18636 206.5,3C 202.179,3.49902 197.846,3.66568 193.5,3.5 Z"/></g>
<g><path style="opacity:0.004" fill="#fefffe" d="M 4.5,3.5 C 5.83333,4.16667 5.83333,4.16667 4.5,3.5 Z"/></g>
<g><path style="opacity:0.004" fill="#fefffe" d="M 210.5,4.5 C 211.601,3.40168 212.934,3.23502 214.5,4C 213.207,4.49001 211.873,4.65668 210.5,4.5 Z"/></g>
<g><path style="opacity:0.004" fill="#fefffe" d="M 216.5,4.5 C 217.251,3.42654 218.251,3.25988 219.5,4C 218.552,4.48278 217.552,4.64945 216.5,4.5 Z"/></g>
<g><path style="opacity:0.004" fill="#fefffe" d="M 222.5,3.5 C 223.833,4.16667 223.833,4.16667 222.5,3.5 Z"/></g>
<g><path style="opacity:0.004" fill="#fefffe" d="M 224.5,4.5 C 225.833,5.16667 225.833,5.16667 224.5,4.5 Z"/></g>
<g><path style="opacity:0.004" fill="#fefffe" d="M 5.5,5.5 C 6.83333,6.16667 6.83333,6.16667 5.5,5.5 Z"/></g>
<g><path style="opacity:0.004" fill="#fefffe" d="M 227.5,6.5 C 228.251,5.42654 229.251,5.25988 230.5,6C 229.552,6.48278 228.552,6.64945 227.5,6.5 Z"/></g>
<g><path style="opacity:0.004" fill="#fefffe" d="M 232.5,7.5 C 233.601,6.40168 234.934,6.23502 236.5,7C 235.207,7.49001 233.873,7.65668 232.5,7.5 Z"/></g>
<g><path style="opacity:0.004" fill="#fefffe" d="M 257.5,7.5 C 255.801,7.66018 254.134,7.49351 252.5,7C 254.387,6.22039 256.054,6.38705 257.5,7.5 Z"/></g>
<g><path style="opacity:0.004" fill="#fefffe" d="M 6.5,7.5 C 7.83333,8.16667 7.83333,8.16667 6.5,7.5 Z"/></g>
<g><path style="opacity:0.004" fill="#fefffe" d="M 257.5,7.5 C 258.167,7.5 258.5,7.83333 258.5,8.5C 258.167,8.16667 257.833,7.83333 257.5,7.5 Z"/></g>
<g><path style="opacity:0.004" fill="#fefffe" d="M 258.5,8.5 C 259.833,9.16667 259.833,9.16667 258.5,8.5 Z"/></g>
<g><path style="opacity:0.004" fill="#fefffe" d="M 7.5,9.5 C 8.83333,10.1667 8.83333,10.1667 7.5,9.5 Z"/></g>
<g><path style="opacity:0.004" fill="#fefffe" d="M 8.5,11.5 C 9.83333,12.1667 9.83333,12.1667 8.5,11.5 Z"/></g>
<g><path style="opacity:0.004" fill="#fefffe" d="M 260.5,12.5 C 261.573,13.2506 261.74,14.2506 261,15.5C 260.517,14.552 260.351,13.552 260.5,12.5 Z"/></g>
<g><path style="opacity:0.004" fill="#fefffe" d="M 9.5,13.5 C 10.8333,14.1667 10.8333,14.1667 9.5,13.5 Z"/></g>
<g><path style="opacity:0.004" fill="#fefffe" d="M 10.5,15.5 C 11.8333,16.1667 11.8333,16.1667 10.5,15.5 Z"/></g>
<g><path style="opacity:0.004" fill="#fefffe" d="M 261.5,16.5 C 262.833,17.1667 262.833,17.1667 261.5,16.5 Z"/></g>
<g><path style="opacity:0.004" fill="#fefffe" d="M 11.5,17.5 C 12.8333,18.1667 12.8333,18.1667 11.5,17.5 Z"/></g>
<g><path style="opacity:0.004" fill="#fefffe" d="M 262.5,18.5 C 263.833,19.1667 263.833,19.1667 262.5,18.5 Z"/></g>
<g><path style="opacity:0.004" fill="#fefffe" d="M 12.5,19.5 C 13.8333,20.1667 13.8333,20.1667 12.5,19.5 Z"/></g>
<g><path style="opacity:0.004" fill="#fefffe" d="M 264.5,20.5 C 265.601,19.4017 266.934,19.235 268.5,20C 267.207,20.49 265.873,20.6567 264.5,20.5 Z"/></g>
<g><path style="opacity:0.004" fill="#fefffe" d="M 277.5,20.5 C 278.833,21.1667 278.833,21.1667 277.5,20.5 Z"/></g>
<g><path style="opacity:0.004" fill="#fefffe" d="M 13.5,21.5 C 14.8333,22.1667 14.8333,22.1667 13.5,21.5 Z"/></g>
<g><path style="opacity:0.004" fill="#fefffe" d="M 281.5,23.5 C 280.833,22.1667 280.833,22.1667 281.5,23.5 Z"/></g>
<g><path style="opacity:0.004" fill="#fefffe" d="M 15.5,24.5 C 14.8333,23.1667 14.8333,23.1667 15.5,24.5 Z"/></g>
<g><path style="opacity:0.004" fill="#fefffe" d="M 281.5,23.5 C 282.833,24.1667 282.833,24.1667 281.5,23.5 Z"/></g>
<g><path style="opacity:0.004" fill="#fefffe" d="M 364.5,24.5 C 365.601,23.4017 366.934,23.235 368.5,24C 367.207,24.49 365.873,24.6567 364.5,24.5 Z"/></g>
<g><path style="opacity:0.004" fill="#fefffe" d="M 370.5,25.5 C 372.288,24.3775 374.288,24.2109 376.5,25C 374.527,25.4955 372.527,25.6621 370.5,25.5 Z"/></g>
<g><path style="opacity:0.004" fill="#fefffe" d="M 385.5,25.5 C 385.5,25.8333 385.5,26.1667 385.5,26.5C 377.5,26.1667 377.5,25.8333 385.5,25.5 Z"/></g>
<g><path style="opacity:0.004" fill="#fefffe" d="M 16.5,92.5 C 17.525,92.8966 17.6917,93.5632 17,94.5C 16.5357,93.9056 16.369,93.2389 16.5,92.5 Z"/></g>
<g><path style="opacity:0.004" fill="#fefffe" d="M 17.5,99.5 C 17.3505,98.448 17.5172,97.448 18,96.5C 18.7401,97.7494 18.5735,98.7494 17.5,99.5 Z"/></g>
<g><path style="opacity:0.004" fill="#fefffe" d="M 17.5,99.5 C 16.8333,100.167 16.8333,100.167 17.5,99.5 Z"/></g>
<g><path style="opacity:0.004" fill="#fefffe" d="M 16.5,100.5 C 15.8333,101.167 15.8333,101.167 16.5,100.5 Z"/></g>
<g><path style="opacity:0.004" fill="#fefffe" d="M 14.5,102.5 C 15.8333,103.167 15.8333,103.167 14.5,102.5 Z"/></g>
<g><path style="opacity:0.004" fill="#fefffe" d="M 14.5,103.5 C 13.8333,104.167 13.8333,104.167 14.5,103.5 Z"/></g>
<g><path style="opacity:0.004" fill="#fefffe" d="M 12.5,105.5 C 13.8333,106.167 13.8333,106.167 12.5,105.5 Z"/></g>
<g><path style="opacity:0.004" fill="#fefffe" d="M 11.5,107.5 C 12.8333,108.167 12.8333,108.167 11.5,107.5 Z"/></g>
<g><path style="opacity:0.004" fill="#fefffe" d="M 11.5,108.5 C 11.6495,109.552 11.4828,110.552 11,111.5C 10.2599,110.251 10.4265,109.251 11.5,108.5 Z"/></g>
<g><path style="opacity:0.004" fill="#fefffe" d="M 9.5,124.5 C 9.3347,120.818 9.50137,117.152 10,113.5C 10.8099,117.358 10.6433,121.024 9.5,124.5 Z"/></g>
<g><path style="opacity:0.004" fill="#fefffe" d="M 9.5,124.5 C 8.83333,125.167 8.83333,125.167 9.5,124.5 Z"/></g>
<g><path style="opacity:0.004" fill="#fefffe" d="M 8.5,125.5 C 7.83333,126.167 7.83333,126.167 8.5,125.5 Z"/></g>
<g><path style="opacity:0.004" fill="#fefffe" d="M 5.5,126.5 C 6.83333,127.167 6.83333,127.167 5.5,126.5 Z"/></g>
<g><path style="opacity:0.004" fill="#fefffe" d="M 2.5,127.5 C 3.83333,128.167 3.83333,128.167 2.5,127.5 Z"/></g>
<g><path style="opacity:0.004" fill="#fefffe" d="M -0.5,128.5 C 0.833333,129.167 0.833333,129.167 -0.5,128.5 Z"/></g>
<g><path style="opacity:0.004" fill="#fefffe" d="M 269.5,150.5 C 268.833,149.167 268.833,149.167 269.5,150.5 Z"/></g>
<g><path style="opacity:0.004" fill="#fefffe" d="M 269.5,150.5 C 270.833,151.167 270.833,151.167 269.5,150.5 Z"/></g>
<g><path style="opacity:0.004" fill="#fefffe" d="M 273.5,153.5 C 272.833,152.167 272.833,152.167 273.5,153.5 Z"/></g>
<g><path style="opacity:0.004" fill="#fefffe" d="M 319.5,153.5 C 321.288,152.378 323.288,152.211 325.5,153C 323.527,153.495 321.527,153.662 319.5,153.5 Z"/></g>
<g><path style="opacity:0.004" fill="#fefffe" d="M 273.5,153.5 C 274.833,154.167 274.833,154.167 273.5,153.5 Z"/></g>
<g><path style="opacity:0.004" fill="#fefffe" d="M 316.5,153.5 C 317.833,154.167 317.833,154.167 316.5,153.5 Z"/></g>
<g><path style="opacity:0.004" fill="#fefffe" d="M 330.5,153.5 C 331.525,153.897 331.692,154.563 331,155.5C 330.536,154.906 330.369,154.239 330.5,153.5 Z"/></g>
<g><path style="opacity:0.004" fill="#fefffe" d="M 276.5,154.5 C 277.833,155.167 277.833,155.167 276.5,154.5 Z"/></g>
<g><path style="opacity:0.004" fill="#fefffe" d="M 312.5,155.5 C 312.897,154.475 313.563,154.308 314.5,155C 313.906,155.464 313.239,155.631 312.5,155.5 Z"/></g>
<g><path style="opacity:0.004" fill="#fefffe" d="M 278.5,156.5 C 278.897,155.475 279.563,155.308 280.5,156C 279.906,156.464 279.239,156.631 278.5,156.5 Z"/></g>
<g><path style="opacity:0.004" fill="#fefffe" d="M 309.5,156.5 C 309.897,155.475 310.563,155.308 311.5,156C 310.906,156.464 310.239,156.631 309.5,156.5 Z"/></g>
<g><path style="opacity:0.004" fill="#fefffe" d="M 281.5,156.5 C 282.833,157.167 282.833,157.167 281.5,156.5 Z"/></g>
<g><path style="opacity:0.004" fill="#fefffe" d="M 303.5,157.5 C 304.601,156.402 305.934,156.235 307.5,157C 306.207,157.49 304.873,157.657 303.5,157.5 Z"/></g>
<g><path style="opacity:0.004" fill="#fefffe" d="M 286.5,158.5 C 288.288,157.378 290.288,157.211 292.5,158C 290.527,158.495 288.527,158.662 286.5,158.5 Z"/></g>
<g><path style="opacity:0.004" fill="#fefffe" d="M 297.5,158.5 C 298.601,157.402 299.934,157.235 301.5,158C 300.207,158.49 298.873,158.657 297.5,158.5 Z"/></g>
</svg>
