<?xml version="1.0" encoding="UTF-8"?>
<!DOCTYPE svg PUBLIC "-//W3C//DTD SVG 1.1//EN" "http://www.w3.org/Graphics/SVG/1.1/DTD/svg11.dtd">
<svg xmlns="http://www.w3.org/2000/svg" version="1.1" width="422px" height="690px" style="shape-rendering:geometricPrecision; text-rendering:geometricPrecision; image-rendering:optimizeQuality; fill-rule:evenodd; clip-rule:evenodd" xmlns:xlink="http://www.w3.org/1999/xlink">
<g><path style="opacity:0.012" fill="#fefffe" d="M 225.5,-0.5 C 226.167,-0.5 226.833,-0.5 227.5,-0.5C 227.188,5.05857 229.522,8.8919 234.5,11C 241.297,11.9359 247.964,11.4359 254.5,9.5C 255.981,10.4803 257.315,11.647 258.5,13C 263.155,13.4992 267.821,13.6658 272.5,13.5C 270.421,18.1792 271.587,21.8458 276,24.5C 277.579,27.9939 279.413,31.3272 281.5,34.5C 293.415,36.0325 305.415,37.0325 317.5,37.5C 319.461,41.258 321.795,44.758 324.5,48C 319.869,52.3589 319.869,57.0256 324.5,62C 331.016,63.9247 337.016,66.9247 342.5,71C 345.953,71.2501 349.286,70.9167 352.5,70C 354.019,71.3513 355.352,72.8513 356.5,74.5C 355.726,78.7793 355.226,83.1126 355,87.5C 352.358,95.5226 347.191,97.856 339.5,94.5C 337.429,95.6175 335.262,96.6175 333,97.5C 329.418,96.1948 325.918,94.6948 322.5,93C 318.958,92.1488 315.625,92.6488 312.5,94.5C 310.541,97.9582 308.041,100.958 305,103.5C 299.609,99.5077 294.442,99.6744 289.5,104C 297.404,119.9 309.737,130.9 326.5,137C 328.333,138.833 330.167,140.667 332,142.5C 332.854,145.407 332.021,147.74 329.5,149.5C 325.656,150.982 321.656,151.815 317.5,152C 309.826,152.69 302.16,153.023 294.5,153C 291.5,151.5 288.5,150 285.5,148.5C 284.679,145.553 284.179,142.553 284,139.5C 280.893,137.286 279.393,134.286 279.5,130.5C 277.473,130.338 275.473,130.505 273.5,131C 269.376,137.458 264.21,142.958 258,147.5C 257.71,149.952 257.044,152.285 256,154.5C 253,156.833 250,159.167 247,161.5C 245.359,166.786 242.692,171.453 239,175.5C 237.131,180.318 236.131,185.318 236,190.5C 234.172,192.081 232.172,193.415 230,194.5C 231.102,200.416 231.768,206.416 232,212.5C 228.475,222.406 221.641,226.906 211.5,226C 203.637,223.94 195.637,222.607 187.5,222C 185.004,220.92 182.67,219.586 180.5,218C 173.8,217.447 167.133,217.78 160.5,219C 154.238,224.721 150.405,231.888 149,240.5C 148.113,245.658 147.279,250.825 146.5,256C 148.437,266.1 148.937,276.267 148,286.5C 152.061,289.572 153.394,293.572 152,298.5C 149.297,301.538 146.297,304.205 143,306.5C 141.04,309.585 139.207,312.752 137.5,316C 145.17,331.686 153.837,346.686 163.5,361C 162.03,362.793 161.03,364.793 160.5,367C 161.866,370.412 162.366,373.912 162,377.5C 160.328,380.337 158.161,382.67 155.5,384.5C 158.476,389.632 161.809,394.465 165.5,399C 173.5,401.667 181.5,404.333 189.5,407C 192.833,407.667 196.167,407.667 199.5,407C 215.369,399.907 229.703,390.573 242.5,379C 246.668,377.269 251.002,376.102 255.5,375.5C 259.383,370.906 263.383,366.406 267.5,362C 269.441,361.257 271.274,361.424 273,362.5C 273.484,364.913 273.15,367.246 272,369.5C 267.809,373.401 266.475,378.068 268,383.5C 265.543,391.63 262.876,399.63 260,407.5C 256.579,409.461 253.079,411.294 249.5,413C 247.331,415.819 245.831,418.986 245,422.5C 239.665,425.081 235.498,428.914 232.5,434C 229.289,435.153 225.956,435.82 222.5,436C 219.82,438.363 218.487,441.363 218.5,445C 219.041,454.039 223.375,460.539 231.5,464.5C 232.287,467.848 233.121,471.182 234,474.5C 238.489,476.682 240.822,480.349 241,485.5C 247.826,488.145 250.826,493.145 250,500.5C 254.334,504.502 258.334,508.835 262,513.5C 268.648,514.266 274.481,516.766 279.5,521C 281.025,522.009 282.692,522.509 284.5,522.5C 284.598,527.697 286.598,532.03 290.5,535.5C 289.408,537.183 288.741,539.016 288.5,541C 289.271,543.271 290.271,545.438 291.5,547.5C 290.669,549.473 290.502,551.473 291,553.5C 292.697,555.699 294.197,558.032 295.5,560.5C 301.623,561.18 307.623,560.347 313.5,558C 318.701,554.237 324.034,550.737 329.5,547.5C 334.983,548.466 339.983,550.633 344.5,554C 354.902,554.593 360.735,549.76 362,539.5C 368.194,533.96 374.694,533.46 381.5,538C 385.167,538.667 388.833,538.667 392.5,538C 398.833,532.699 404.5,526.699 409.5,520C 413.635,519.589 416.469,517.423 418,513.5C 418.333,518.5 418.667,523.5 419,528.5C 419.204,531.797 420.037,534.797 421.5,537.5C 421.5,541.167 421.5,544.833 421.5,548.5C 420.587,550.933 419.587,553.433 418.5,556C 411.554,559.721 404.721,563.554 398,567.5C 398.115,573.737 400.449,579.071 405,583.5C 408.549,590.607 406.716,596.107 399.5,600C 394.064,601.918 388.731,601.584 383.5,599C 375.19,593.423 366.19,592.09 356.5,595C 348.537,599.44 340.204,600.44 331.5,598C 320.95,591.862 309.617,589.195 297.5,590C 288.017,596.493 277.517,599.326 266,598.5C 264.779,599.272 263.779,600.272 263,601.5C 262.775,608.218 262.108,614.885 261,621.5C 258.06,627.046 255.394,632.713 253,638.5C 249.63,641.535 246.63,644.868 244,648.5C 243.66,652.558 242.993,656.558 242,660.5C 230.836,665.309 221.669,672.809 214.5,683C 209.633,685.774 204.633,687.941 199.5,689.5C 194.167,689.5 188.833,689.5 183.5,689.5C 171.473,684.151 161.473,676.151 153.5,665.5C 159.137,656.697 164.971,648.03 171,639.5C 174,637.167 177,634.833 180,632.5C 181.411,629.421 182.911,626.421 184.5,623.5C 187.601,621.902 190.268,619.735 192.5,617C 197.187,616.886 201.52,615.719 205.5,613.5C 207.689,613.594 209.689,614.261 211.5,615.5C 212.478,615.023 213.311,614.357 214,613.5C 214.556,609.267 215.723,605.267 217.5,601.5C 217.555,595.726 214.889,592.226 209.5,591C 200.201,586.253 194.367,578.753 192,568.5C 189.602,566.82 188.435,564.486 188.5,561.5C 171.218,569.057 163.052,563.39 164,544.5C 159.288,539.457 154.955,534.123 151,528.5C 148.046,526.029 145.046,526.029 142,528.5C 141.436,532.127 139.936,535.293 137.5,538C 103.167,538.667 68.8333,538.667 34.5,538C 38.8094,527.401 43.3094,516.901 48,506.5C 51.5185,497.023 51.1852,487.689 47,478.5C 44.8333,476.333 42.6667,474.167 40.5,472C 33.5925,470.078 28.0925,466.245 24,460.5C 23.3333,457.833 23.3333,455.167 24,452.5C 28.4183,445.663 31.7517,438.33 34,430.5C 34.3808,421.018 32.3808,412.018 28,403.5C 20.2447,392.323 12.2447,381.323 4,370.5C 2.36954,366.429 0.869545,362.429 -0.5,358.5C -0.5,349.167 -0.5,339.833 -0.5,330.5C 3.66436,317.175 8.16436,303.842 13,290.5C 16.0084,268.783 19.3417,247.117 23,225.5C 25,220.833 27,216.167 29,211.5C 28.8171,201.382 31.8171,192.382 38,184.5C 45.5147,176.32 53.6814,168.82 62.5,162C 73.7548,154.406 85.2548,147.239 97,140.5C 98.1984,129.78 99.8651,119.113 102,108.5C 106.516,93.6463 116.349,84.813 131.5,82C 143.829,80.7142 156.163,79.3809 168.5,78C 173.56,76.8187 178.56,75.4854 183.5,74C 185.663,72.0016 187.33,69.6682 188.5,67C 187.102,58.4523 183.602,50.9523 178,44.5C 175.4,37.3027 176.4,30.636 181,24.5C 192.656,19.2802 204.489,14.4469 216.5,10C 220.107,6.90231 223.107,3.40231 225.5,-0.5 Z"/></g>
</svg>
