<?xml version="1.0" encoding="UTF-8"?>
<!DOCTYPE svg PUBLIC "-//W3C//DTD SVG 1.1//EN" "http://www.w3.org/Graphics/SVG/1.1/DTD/svg11.dtd">
<svg xmlns="http://www.w3.org/2000/svg" version="1.1" width="380px" height="276px" style="shape-rendering:geometricPrecision; text-rendering:geometricPrecision; image-rendering:optimizeQuality; fill-rule:evenodd; clip-rule:evenodd" xmlns:xlink="http://www.w3.org/1999/xlink">
<g><path style="opacity:0.012" fill="#fefffe" d="M 299.5,-0.5 C 300.5,-0.5 301.5,-0.5 302.5,-0.5C 306.789,4.96053 311.289,10.2939 316,15.5C 319.333,21.5 322.667,27.5 326,33.5C 332.232,38.6989 338.732,43.5322 345.5,48C 352,55.1667 358.5,62.3333 365,69.5C 366.793,77.4648 368.46,85.4648 370,93.5C 372.943,101.039 376.109,108.373 379.5,115.5C 379.5,115.833 379.5,116.167 379.5,116.5C 378.163,117.315 377.163,118.482 376.5,120C 372.859,121.269 369.192,122.436 365.5,123.5C 352.851,123.515 342.185,119.015 333.5,110C 331.577,109.192 329.577,108.692 327.5,108.5C 321.821,110.524 316.155,112.524 310.5,114.5C 307.394,114.897 305.061,113.731 303.5,111C 301.487,109.743 299.321,108.909 297,108.5C 283.305,110.222 277.638,117.889 280,131.5C 281.902,136.137 283.069,140.971 283.5,146C 277.982,163.19 266.482,173.69 249,177.5C 246.95,185.255 249.783,189.755 257.5,191C 261.89,194.943 264.89,199.776 266.5,205.5C 265.637,209.393 263.637,212.56 260.5,215C 253.801,217.766 247.301,220.933 241,224.5C 239.25,227.246 238.25,230.246 238,233.5C 237.654,240.937 236.654,248.271 235,255.5C 231.833,258 228.667,260.5 225.5,263C 220.847,264.107 216.347,265.607 212,267.5C 200.988,263.093 189.654,261.427 178,262.5C 176.184,261.671 174.351,260.837 172.5,260C 171.337,242.164 162.004,234.831 144.5,238C 135.943,241.891 126.943,243.391 117.5,242.5C 100.438,241.771 83.4382,240.271 66.5,238C 60.1102,236.204 53.7768,234.204 47.5,232C 38.7968,231.753 30.1301,231.086 21.5,230C 19.7774,229.477 18.444,228.477 17.5,227C 16.8284,223.138 15.4951,219.638 13.5,216.5C 19.045,210.717 25.3784,205.884 32.5,202C 36.3333,196.833 40.1667,191.667 44,186.5C 44.3333,174.5 44.6667,162.5 45,150.5C 51.9913,139.022 56.4913,126.688 58.5,113.5C 56.2553,110.911 53.922,108.244 51.5,105.5C 57.2778,100.437 63.2778,95.6042 69.5,91C 87.6895,86.662 106.023,83.162 124.5,80.5C 130.458,82.042 136.458,83.3753 142.5,84.5C 149.699,83.7335 156.865,82.7335 164,81.5C 170.356,82.761 176.19,85.261 181.5,89C 185.46,90.0253 189.46,90.8586 193.5,91.5C 200.951,89.7395 207.951,86.9061 214.5,83C 217.833,82.6667 221.167,82.3333 224.5,82C 228.104,77.2487 232.77,73.7487 238.5,71.5C 239.355,69.3923 240.022,67.2256 240.5,65C 238.284,60.0696 235.951,55.2363 233.5,50.5C 234.664,47.505 235.83,44.505 237,41.5C 243.413,36.8139 250.579,33.9806 258.5,33C 263.483,28.2903 266.317,22.457 267,15.5C 268.455,12.0879 270.288,8.9212 272.5,6C 278.473,5.09338 284.473,4.42671 290.5,4C 293.648,2.57647 296.648,1.07647 299.5,-0.5 Z"/></g>
<g><path style="opacity:0.004" fill="#fefffe" d="M 0.5,193.5 C 1.60093,192.402 2.93426,192.235 4.5,193C 3.20677,193.49 1.87344,193.657 0.5,193.5 Z"/></g>
<g><path style="opacity:0.004" fill="#fefffe" d="M 5.5,194.5 C 5.89657,193.475 6.56323,193.308 7.5,194C 6.90558,194.464 6.23891,194.631 5.5,194.5 Z"/></g>
<g><path style="opacity:0.004" fill="#fefffe" d="M 8.5,195.5 C 8.89657,194.475 9.56323,194.308 10.5,195C 9.90558,195.464 9.23891,195.631 8.5,195.5 Z"/></g>
<g><path style="opacity:0.004" fill="#fefffe" d="M 11.5,196.5 C 11.8966,195.475 12.5632,195.308 13.5,196C 12.9056,196.464 12.2389,196.631 11.5,196.5 Z"/></g>
<g><path style="opacity:0.004" fill="#fefffe" d="M 15.5,197.5 C 15.8966,196.475 16.5632,196.308 17.5,197C 16.9056,197.464 16.2389,197.631 15.5,197.5 Z"/></g>
<g><path style="opacity:0.004" fill="#fefffe" d="M 18.5,198.5 C 18.8966,197.475 19.5632,197.308 20.5,198C 19.9056,198.464 19.2389,198.631 18.5,198.5 Z"/></g>
<g><path style="opacity:0.004" fill="#fefffe" d="M 22.5,199.5 C 21.8333,198.167 21.8333,198.167 22.5,199.5 Z"/></g>
<g><path style="opacity:0.004" fill="#fefffe" d="M 22.5,199.5 C 23.1667,199.5 23.5,199.833 23.5,200.5C 23.1667,200.167 22.8333,199.833 22.5,199.5 Z"/></g>
<g><path style="opacity:0.004" fill="#fefffe" d="M 23.5,200.5 C 24.1667,200.5 24.5,200.833 24.5,201.5C 24.1667,201.167 23.8333,200.833 23.5,200.5 Z"/></g>
<g><path style="opacity:0.004" fill="#fefffe" d="M 24.5,201.5 C 25.8333,202.167 25.8333,202.167 24.5,201.5 Z"/></g>
<g><path style="opacity:0.004" fill="#fefffe" d="M 13.5,216.5 C 12.8333,217.167 12.8333,217.167 13.5,216.5 Z"/></g>
<g><path style="opacity:0.004" fill="#fefffe" d="M 12.5,217.5 C 11.8333,218.167 11.8333,218.167 12.5,217.5 Z"/></g>
<g><path style="opacity:0.004" fill="#fefffe" d="M 8.5,219.5 C 8.89657,218.475 9.56323,218.308 10.5,219C 9.90558,219.464 9.23891,219.631 8.5,219.5 Z"/></g>
<g><path style="opacity:0.004" fill="#fefffe" d="M 6.5,219.5 C 7.83333,220.167 7.83333,220.167 6.5,219.5 Z"/></g>
<g><path style="opacity:0.004" fill="#fefffe" d="M 3.5,221.5 C 3.89657,220.475 4.56323,220.308 5.5,221C 4.90558,221.464 4.23891,221.631 3.5,221.5 Z"/></g>
<g><path style="opacity:0.004" fill="#fefffe" d="M 1.5,221.5 C 2.83333,222.167 2.83333,222.167 1.5,221.5 Z"/></g>
<g><path style="opacity:0.004" fill="#fefffe" d="M -0.5,222.5 C 0.833333,223.167 0.833333,223.167 -0.5,222.5 Z"/></g>
<g><path style="opacity:0.004" fill="#fefffe" d="M 178.5,263.5 C 179.833,264.167 179.833,264.167 178.5,263.5 Z"/></g>
<g><path style="opacity:0.004" fill="#fefffe" d="M 179.5,265.5 C 180.833,266.167 180.833,266.167 179.5,265.5 Z"/></g>
<g><path style="opacity:0.004" fill="#fefffe" d="M 181.5,268.5 C 180.833,267.167 180.833,267.167 181.5,268.5 Z"/></g>
<g><path style="opacity:0.004" fill="#fefffe" d="M 181.5,268.5 C 182.833,269.167 182.833,269.167 181.5,268.5 Z"/></g>
<g><path style="opacity:0.004" fill="#fefffe" d="M 182.5,270.5 C 183.833,271.167 183.833,271.167 182.5,270.5 Z"/></g>
<g><path style="opacity:0.004" fill="#fefffe" d="M 183.5,272.5 C 184.833,273.167 184.833,273.167 183.5,272.5 Z"/></g>
<g><path style="opacity:0.004" fill="#fefffe" d="M 185.5,275.5 C 184.833,274.167 184.833,274.167 185.5,275.5 Z"/></g>
</svg>
