<?xml version="1.0" encoding="UTF-8"?>
<!DOCTYPE svg PUBLIC "-//W3C//DTD SVG 1.1//EN" "http://www.w3.org/Graphics/SVG/1.1/DTD/svg11.dtd">
<svg xmlns="http://www.w3.org/2000/svg" version="1.1" width="530px" height="171px" style="shape-rendering:geometricPrecision; text-rendering:geometricPrecision; image-rendering:optimizeQuality; fill-rule:evenodd; clip-rule:evenodd" xmlns:xlink="http://www.w3.org/1999/xlink">
<g><path style="opacity:0.012" fill="#fefffe" d="M 171.5,-0.5 C 175.833,-0.5 180.167,-0.5 184.5,-0.5C 195.792,6.27244 207.459,12.4391 219.5,18C 224.75,19.174 230.084,19.8407 235.5,20C 236.526,23.6932 238.86,26.0265 242.5,27C 255.354,29.3455 268.021,28.6789 280.5,25C 293.537,24.5769 306.204,26.5769 318.5,31C 320.5,33 322.5,35 324.5,37C 330.008,37.4173 335.508,37.9173 341,38.5C 359.473,38.1562 377.973,37.3229 396.5,36C 400.471,34.7248 404.471,33.3914 408.5,32C 411.257,31.4163 413.923,31.7496 416.5,33C 415.193,38.7787 415.193,44.612 416.5,50.5C 420.893,52.9324 425.56,53.7657 430.5,53C 434.491,51.892 438.325,50.392 442,48.5C 444.79,49.0943 447.29,50.2609 449.5,52C 453.88,56.048 458.546,59.7147 463.5,63C 469.491,63.4995 475.491,63.6662 481.5,63.5C 481.279,66.2788 481.612,68.9455 482.5,71.5C 479.316,75.2119 477.816,79.5452 478,84.5C 486.49,90.7581 486.656,97.2581 478.5,104C 473.813,106.699 469.147,109.366 464.5,112C 460.27,113.246 456.936,112.08 454.5,108.5C 452.747,110.261 450.747,111.594 448.5,112.5C 446.971,112.471 445.804,111.804 445,110.5C 443.129,113.073 441.629,115.906 440.5,119C 442.028,121.281 442.528,123.781 442,126.5C 435.141,129.537 431.808,134.871 432,142.5C 431,141.5 430,140.5 429,139.5C 427.867,141.211 426.367,141.711 424.5,141C 423.15,139.282 421.983,137.448 421,135.5C 417.405,137.456 413.572,137.956 409.5,137C 406.323,135.15 403.157,133.317 400,131.5C 399.228,131.645 398.561,131.978 398,132.5C 395.148,141.619 389.315,144.286 380.5,140.5C 379.702,138.922 379.202,137.256 379,135.5C 374.98,139.387 370.146,141.553 364.5,142C 358.5,142.667 352.5,142.667 346.5,142C 328.755,138.731 311.421,134.231 294.5,128.5C 290.358,130.809 287.024,133.976 284.5,138C 283.167,138.667 281.833,138.667 280.5,138C 274.489,135.875 268.656,133.375 263,130.5C 260.387,132.369 258.221,134.703 256.5,137.5C 252.878,138.325 249.211,138.825 245.5,139C 239.381,142.06 233.047,144.56 226.5,146.5C 218.623,146.197 211.289,144.03 204.5,140C 200.5,136.667 200.5,133.333 204.5,130C 204.167,129.833 203.833,129.667 203.5,129.5C 199.357,131.854 195.023,132.021 190.5,130C 183.167,127 175.833,124 168.5,121C 167.54,119.581 166.707,118.081 166,116.5C 164.34,121.157 162.673,125.823 161,130.5C 160.667,134.833 160.333,139.167 160,143.5C 156.936,144.899 154.936,147.232 154,150.5C 153,149.833 152,149.167 151,148.5C 149.577,150.345 148.41,152.345 147.5,154.5C 145.167,155.667 142.833,156.833 140.5,158C 129.112,159.175 119.112,163.342 110.5,170.5C 109.5,170.5 108.5,170.5 107.5,170.5C 106.469,169.751 105.302,169.085 104,168.5C 103.667,166.167 103.333,163.833 103,161.5C 97.1381,153.488 89.3048,148.988 79.5,148C 69.5,147.667 59.5,147.333 49.5,147C 48.0842,144.735 46.0842,143.569 43.5,143.5C 44.823,146.281 44.6563,148.947 43,151.5C 42.3333,152.833 41.6667,152.833 41,151.5C 37,146.167 33,140.833 29,135.5C 26.7123,131.336 24.879,127.003 23.5,122.5C 1.97278,112.417 -3.52722,96.7504 7,75.5C 7.54105,65.7819 7.04105,56.1152 5.5,46.5C 3.29719,46.3964 1.29719,45.7298 -0.5,44.5C -0.5,44.1667 -0.5,43.8333 -0.5,43.5C 4.21369,39.7209 9.04702,36.0542 14,32.5C 21.5048,39.9177 30.3381,42.0844 40.5,39C 47.051,35.8911 53.7177,33.0577 60.5,30.5C 64.1901,31.1945 67.8568,32.0278 71.5,33C 79.995,37.4132 88.3283,42.0799 96.5,47C 98.8333,47.6667 101.167,47.6667 103.5,47C 119.581,37.9236 134.248,26.9236 147.5,14C 155.43,8.87637 163.43,4.04304 171.5,-0.5 Z"/></g>
<g><path style="opacity:0.004" fill="#fefffe" d="M 529.5,28.5 C 529.5,28.8333 529.5,29.1667 529.5,29.5C 528.83,29.0187 528.83,28.6853 529.5,28.5 Z"/></g>
<g><path style="opacity:0.004" fill="#fefffe" d="M 527.5,30.5 C 528.833,31.1667 528.833,31.1667 527.5,30.5 Z"/></g>
<g><path style="opacity:0.004" fill="#fefffe" d="M 526.5,32.5 C 527.833,33.1667 527.833,33.1667 526.5,32.5 Z"/></g>
<g><path style="opacity:0.004" fill="#fefffe" d="M 524.5,34.5 C 525.833,35.1667 525.833,35.1667 524.5,34.5 Z"/></g>
<g><path style="opacity:0.004" fill="#fefffe" d="M 524.5,35.5 C 523.833,36.1667 523.833,36.1667 524.5,35.5 Z"/></g>
<g><path style="opacity:0.004" fill="#fefffe" d="M 523.5,36.5 C 522.833,37.1667 522.833,37.1667 523.5,36.5 Z"/></g>
<g><path style="opacity:0.004" fill="#fefffe" d="M 520.5,37.5 C 521.573,38.2506 521.74,39.2506 521,40.5C 520.517,39.552 520.351,38.552 520.5,37.5 Z"/></g>
<g><path style="opacity:0.004" fill="#fefffe" d="M 519.5,41.5 C 520.634,43.9664 520.801,46.633 520,49.5C 519.503,46.854 519.336,44.1873 519.5,41.5 Z"/></g>
<g><path style="opacity:0.004" fill="#fefffe" d="M 519.5,56.5 C 520.525,56.8966 520.692,57.5632 520,58.5C 519.536,57.9056 519.369,57.2389 519.5,56.5 Z"/></g>
<g><path style="opacity:0.004" fill="#fefffe" d="M 518.5,62.5 C 518.369,61.7611 518.536,61.0944 519,60.5C 519.692,61.4368 519.525,62.1034 518.5,62.5 Z"/></g>
<g><path style="opacity:0.004" fill="#fefffe" d="M 518.5,62.5 C 517.833,63.1667 517.833,63.1667 518.5,62.5 Z"/></g>
<g><path style="opacity:0.004" fill="#fefffe" d="M 517.5,63.5 C 516.833,64.1667 516.833,64.1667 517.5,63.5 Z"/></g>
<g><path style="opacity:0.004" fill="#fefffe" d="M 516.5,64.5 C 515.833,65.1667 515.833,65.1667 516.5,64.5 Z"/></g>
<g><path style="opacity:0.004" fill="#fefffe" d="M 515.5,65.5 C 514.833,66.1667 514.833,66.1667 515.5,65.5 Z"/></g>
<g><path style="opacity:0.004" fill="#fefffe" d="M 502.5,67.5 C 500.801,67.6602 499.134,67.4935 497.5,67C 499.387,66.2204 501.054,66.3871 502.5,67.5 Z"/></g>
<g><path style="opacity:0.004" fill="#fefffe" d="M 514.5,66.5 C 513.833,67.1667 513.833,67.1667 514.5,66.5 Z"/></g>
<g><path style="opacity:0.004" fill="#fefffe" d="M 494.5,68.5 C 494.897,67.475 495.563,67.3083 496.5,68C 495.906,68.4643 495.239,68.631 494.5,68.5 Z"/></g>
<g><path style="opacity:0.004" fill="#fefffe" d="M 502.5,67.5 C 503.167,67.5 503.5,67.8333 503.5,68.5C 503.167,68.1667 502.833,67.8333 502.5,67.5 Z"/></g>
<g><path style="opacity:0.004" fill="#fefffe" d="M 492.5,68.5 C 493.833,69.1667 493.833,69.1667 492.5,68.5 Z"/></g>
<g><path style="opacity:0.004" fill="#fefffe" d="M 503.5,68.5 C 504.167,68.5 504.5,68.8333 504.5,69.5C 504.167,69.1667 503.833,68.8333 503.5,68.5 Z"/></g>
<g><path style="opacity:0.004" fill="#fefffe" d="M 509.5,69.5 C 509.897,68.475 510.563,68.3083 511.5,69C 510.906,69.4643 510.239,69.631 509.5,69.5 Z"/></g>
<g><path style="opacity:0.004" fill="#fefffe" d="M 490.5,69.5 C 491.833,70.1667 491.833,70.1667 490.5,69.5 Z"/></g>
<g><path style="opacity:0.004" fill="#fefffe" d="M 504.5,69.5 C 505.239,69.369 505.906,69.5357 506.5,70C 505.563,70.6917 504.897,70.525 504.5,69.5 Z"/></g>
<g><path style="opacity:0.004" fill="#fefffe" d="M 487.5,71.5 C 487.897,70.475 488.563,70.3083 489.5,71C 488.906,71.4643 488.239,71.631 487.5,71.5 Z"/></g>
<g><path style="opacity:0.004" fill="#fefffe" d="M 482.5,71.5 C 483.552,71.3505 484.552,71.5172 485.5,72C 484.251,72.7401 483.251,72.5735 482.5,71.5 Z"/></g>
</svg>
