<?xml version="1.0" encoding="UTF-8"?>
<!DOCTYPE svg PUBLIC "-//W3C//DTD SVG 1.1//EN" "http://www.w3.org/Graphics/SVG/1.1/DTD/svg11.dtd">
<svg xmlns="http://www.w3.org/2000/svg" version="1.1" width="594px" height="974px" style="shape-rendering:geometricPrecision; text-rendering:geometricPrecision; image-rendering:optimizeQuality; fill-rule:evenodd; clip-rule:evenodd" xmlns:xlink="http://www.w3.org/1999/xlink">
<g><path style="opacity:0.012" fill="#fefffe" d="M 257.5,-0.5 C 270.5,-0.5 283.5,-0.5 296.5,-0.5C 302.289,1.62023 308.289,3.45356 314.5,5C 318.167,7.33333 321.833,9.66667 325.5,12C 331.454,19.4095 337.287,26.9095 343,34.5C 348.531,40.366 354.365,45.866 360.5,51C 366.33,52.9482 372.33,53.7815 378.5,53.5C 389.743,52.8765 400.91,51.5432 412,49.5C 416.724,51.868 421.391,54.5347 426,57.5C 430.045,55.891 434.211,55.0577 438.5,55C 437.33,58.1783 435.33,60.6783 432.5,62.5C 431.135,66.7513 429.468,70.7513 427.5,74.5C 427.715,80.1838 430.715,82.6838 436.5,82C 439.087,83.5251 439.92,85.6917 439,88.5C 436.114,92.5565 432.281,95.2231 427.5,96.5C 426.722,103.616 429.555,108.616 436,111.5C 439.936,110.378 443.936,109.378 448,108.5C 448.5,108.833 449,109.167 449.5,109.5C 448.456,111.768 448.289,114.101 449,116.5C 450.252,118.001 451.252,119.668 452,121.5C 453.171,122.893 454.671,123.727 456.5,124C 471.218,126.87 485.552,125.537 499.5,120C 502.833,119.333 506.167,119.333 509.5,120C 506.57,123.925 504.07,128.092 502,132.5C 498,136.5 494,140.5 490,144.5C 489.233,148.558 489.4,152.558 490.5,156.5C 488.819,159.926 486.319,162.593 483,164.5C 481.275,173.057 484.608,178.391 493,180.5C 493.816,189.079 493.649,197.579 492.5,206C 493.931,206.465 495.097,207.299 496,208.5C 498.405,214.55 500.905,220.55 503.5,226.5C 507.742,230.787 512.742,233.787 518.5,235.5C 524.336,232.839 529.503,229.172 534,224.5C 534.274,228.634 535.774,232.134 538.5,235C 543.405,236.344 548.405,237.177 553.5,237.5C 558.508,236.661 563.508,236.161 568.5,236C 570.291,238.414 571.957,240.914 573.5,243.5C 578.258,245.308 582.925,247.308 587.5,249.5C 587.135,250.902 586.301,251.902 585,252.5C 579.39,253.099 574.557,255.266 570.5,259C 571.282,261.74 571.782,264.574 572,267.5C 575.667,271.167 579.333,274.833 583,278.5C 583.688,279.332 583.521,279.998 582.5,280.5C 579.034,282.489 575.368,283.989 571.5,285C 558.405,285.134 545.405,286.134 532.5,288C 523.521,291.15 514.855,294.983 506.5,299.5C 505.548,301.045 505.215,302.712 505.5,304.5C 500.608,305.694 495.775,305.361 491,303.5C 486.212,306.26 481.046,308.093 475.5,309C 465.086,309.508 454.753,310.675 444.5,312.5C 442.337,311.168 440.67,309.334 439.5,307C 437.5,306.333 435.5,306.333 433.5,307C 431.116,309.379 429.616,312.213 429,315.5C 427.981,316.687 426.814,317.687 425.5,318.5C 423.529,316.192 421.529,313.858 419.5,311.5C 422.609,306.007 421.442,302.007 416,299.5C 412.659,300.913 409.159,301.913 405.5,302.5C 405.5,303.5 405.5,304.5 405.5,305.5C 402.762,304.965 400.928,305.965 400,308.5C 399.727,306.899 399.227,305.399 398.5,304C 396.392,303.64 394.392,302.973 392.5,302C 389.656,299.819 386.822,297.653 384,295.5C 379.809,297.013 375.976,299.179 372.5,302C 364.854,303.938 357.187,305.771 349.5,307.5C 349.351,310.607 349.851,313.607 351,316.5C 353.043,318.208 354.71,320.208 356,322.5C 366.762,329.464 377.262,336.797 387.5,344.5C 388.386,345.325 388.719,346.325 388.5,347.5C 391.713,347.192 392.713,348.359 391.5,351C 393.25,353.913 394.417,357.08 395,360.5C 400.793,364.647 406.959,368.147 413.5,371C 418.789,371.526 423.956,371.026 429,369.5C 431.172,370.585 433.172,371.919 435,373.5C 438.103,385.198 442.936,396.031 449.5,406C 452,406.885 454.333,408.052 456.5,409.5C 454.302,414.761 452.302,420.095 450.5,425.5C 451.269,428.115 451.603,430.781 451.5,433.5C 450.07,433.579 448.736,433.246 447.5,432.5C 445.306,435.554 443.639,438.888 442.5,442.5C 443.531,443.7 444.365,445.034 445,446.5C 445.667,452.167 445.667,457.833 445,463.5C 437.375,471.422 437.708,479.088 446,486.5C 446.667,490.5 446.667,494.5 446,498.5C 441.541,499.572 437.041,500.572 432.5,501.5C 432.146,505.637 432.646,509.637 434,513.5C 436.621,514.991 439.455,515.658 442.5,515.5C 443.832,524.176 440.498,530.176 432.5,533.5C 426.422,529.565 419.922,528.565 413,530.5C 410.167,528.333 407.333,526.167 404.5,524C 401.118,523.824 397.785,523.324 394.5,522.5C 392.35,519.849 390.017,517.349 387.5,515C 384.5,514.667 381.5,514.333 378.5,514C 375.905,511.787 373.072,509.953 370,508.5C 366.242,510.915 362.075,512.082 357.5,512C 352.833,516.667 348.167,521.333 343.5,526C 341.866,526.494 340.199,526.66 338.5,526.5C 338.665,529.85 338.498,533.183 338,536.5C 333.032,543.761 330.366,551.761 330,560.5C 327.957,562.208 326.29,564.208 325,566.5C 323.18,574.621 323.347,582.621 325.5,590.5C 324.178,590.33 323.011,590.663 322,591.5C 320.86,594.419 320.027,597.419 319.5,600.5C 322.482,605.642 324.816,611.142 326.5,617C 325.493,619.517 324.326,622.017 323,624.5C 322.043,629.857 322.543,635.024 324.5,640C 327.249,641.123 329.749,642.623 332,644.5C 333.316,651.461 335.983,657.794 340,663.5C 341.287,668.766 342.12,674.099 342.5,679.5C 341.45,686.183 341.45,692.849 342.5,699.5C 343.748,698.96 344.915,698.293 346,697.5C 348.06,707.956 352.06,717.623 358,726.5C 359.817,734.466 362.483,742.132 366,749.5C 366.333,752.5 366.667,755.5 367,758.5C 372.267,762.737 376.267,767.737 379,773.5C 382.667,776.5 386.333,779.5 390,782.5C 391.406,788.442 391.739,794.442 391,800.5C 390.755,802.663 389.755,804.33 388,805.5C 387.713,807.891 387.213,810.224 386.5,812.5C 388.65,815.151 390.983,817.651 393.5,820C 399.598,821.524 405.598,823.358 411.5,825.5C 412.897,830.772 414.063,836.105 415,841.5C 417.833,844.333 420.667,847.167 423.5,850C 428.027,851.509 432.527,853.009 437,854.5C 437.496,856.035 437.33,857.535 436.5,859C 438.339,864.162 440.006,869.328 441.5,874.5C 459.503,874.667 477.503,874.5 495.5,874C 499.791,870.548 503.125,866.381 505.5,861.5C 506.167,862.167 506.833,862.833 507.5,863.5C 508.994,861.058 509.994,858.391 510.5,855.5C 516.759,853.044 522.759,853.377 528.5,856.5C 532.863,855.638 535.863,853.138 537.5,849C 541.459,847.638 544.459,848.638 546.5,852C 547.833,852.667 549.167,853.333 550.5,854C 552.35,857.362 554.683,860.362 557.5,863C 560.5,863.667 563.5,863.667 566.5,863C 567.777,861.214 569.444,860.048 571.5,859.5C 578.475,862.989 585.809,865.323 593.5,866.5C 593.5,869.167 593.5,871.833 593.5,874.5C 592.601,877.99 590.268,880.157 586.5,881C 576.953,881.314 567.953,883.647 559.5,888C 557.167,888.667 554.833,888.667 552.5,888C 549.64,885.64 546.64,883.473 543.5,881.5C 536.6,881.892 529.933,883.392 523.5,886C 521.188,887.314 519.188,888.981 517.5,891C 516.05,896.431 514.883,901.931 514,907.5C 502.879,918.56 489.879,926.56 475,931.5C 473.634,931.294 472.301,930.96 471,930.5C 463.58,936.364 455.08,939.364 445.5,939.5C 445.33,940.822 445.663,941.989 446.5,943C 454.494,944.33 462.16,946.663 469.5,950C 470.5,951.667 471.5,953.333 472.5,955C 470.295,958.207 467.295,960.207 463.5,961C 460.796,964.865 457.13,967.531 452.5,969C 446.021,970.461 439.687,971.961 433.5,973.5C 432.833,973.5 432.167,973.5 431.5,973.5C 428.29,969.408 426.457,964.741 426,959.5C 419.508,952.575 413.508,952.908 408,960.5C 406.211,956.513 403.045,954.68 398.5,955C 396.451,952.407 394.285,949.907 392,947.5C 392.131,944.905 391.964,942.405 391.5,940C 388.243,939.251 385.576,937.584 383.5,935C 379.147,934.755 374.813,934.755 370.5,935C 358.806,927.644 347.973,919.144 338,909.5C 336.333,906.833 334.667,904.167 333,901.5C 331.612,888.505 330.278,875.505 329,862.5C 327.011,853.339 322.178,846.172 314.5,841C 303.553,838.411 292.553,836.077 281.5,834C 269.87,828.679 257.87,824.345 245.5,821C 230.338,813.834 216.838,804.334 205,792.5C 202,787.833 199,783.167 196,778.5C 194.985,768.191 194.319,757.857 194,747.5C 191.007,733.167 183.841,721.333 172.5,712C 168.5,710.333 164.5,708.667 160.5,707C 156.5,706.333 152.5,706.333 148.5,707C 136.041,713.063 123.708,719.396 111.5,726C 109.122,726.511 106.788,727.178 104.5,728C 90.1229,728.058 75.7895,727.391 61.5,726C 52.5116,722.177 44.1783,717.343 36.5,711.5C 42.7628,700.905 44.2628,689.572 41,677.5C 39.254,673.673 37.254,670.007 35,666.5C 25.6436,660.739 15.8103,655.905 5.5,652C 2.68648,650.506 0.686482,648.34 -0.5,645.5C -0.5,642.5 -0.5,639.5 -0.5,636.5C 44.5,636.5 89.5,636.5 134.5,636.5C 134.5,595.833 134.5,555.167 134.5,514.5C 131.223,514.784 128.057,514.451 125,513.5C 125.536,504.876 127.536,496.543 131,488.5C 139.923,477.256 147.589,465.256 154,452.5C 154.667,448.833 154.667,445.167 154,441.5C 151.548,436.093 148.714,430.926 145.5,426C 146.405,422.818 148.405,420.818 151.5,420C 155.84,419.583 160.173,419.749 164.5,420.5C 168.627,420.51 172.46,419.51 176,417.5C 176.834,414.828 177.668,412.161 178.5,409.5C 176.703,406.205 174.37,403.372 171.5,401C 163.5,397 155.5,393 147.5,389C 140.004,383.201 137.671,375.701 140.5,366.5C 143.714,367.44 146.714,368.94 149.5,371C 159.67,373.836 170.004,374.836 180.5,374C 183.477,372.682 186.31,371.182 189,369.5C 196.4,359.427 198.067,348.427 194,336.5C 188.455,323.867 184.955,310.7 183.5,297C 184.704,289.305 186.537,281.805 189,274.5C 191.041,270.916 193.208,267.416 195.5,264C 200.001,261.584 204.334,258.917 208.5,256C 229.435,252.477 248.101,244.144 264.5,231C 273.151,218.859 278.318,205.359 280,190.5C 290.547,156.668 281.547,129.668 253,109.5C 249.157,104.832 246.99,99.4982 246.5,93.5C 247.542,87.8036 248.376,82.137 249,76.5C 242.848,70.994 236.015,66.3274 228.5,62.5C 226.258,58.2731 224.925,53.7731 224.5,49C 225.556,35.7208 227.389,22.5542 230,9.5C 239.429,6.63731 248.595,3.30398 257.5,-0.5 Z"/></g>
</svg>
