<?xml version="1.0" encoding="UTF-8"?>
<!DOCTYPE svg PUBLIC "-//W3C//DTD SVG 1.1//EN" "http://www.w3.org/Graphics/SVG/1.1/DTD/svg11.dtd">
<svg xmlns="http://www.w3.org/2000/svg" version="1.1" width="568px" height="250px" style="shape-rendering:geometricPrecision; text-rendering:geometricPrecision; image-rendering:optimizeQuality; fill-rule:evenodd; clip-rule:evenodd" xmlns:xlink="http://www.w3.org/1999/xlink">
<g><path style="opacity:0.012" fill="#fefffe" d="M 225.5,-0.5 C 228.5,-0.5 231.5,-0.5 234.5,-0.5C 240.852,2.66641 247.519,5.33308 254.5,7.5C 255.42,13.6217 254.086,19.2884 250.5,24.5C 253.412,30.6581 256.579,36.6581 260,42.5C 261.987,41.782 263.821,40.782 265.5,39.5C 267.62,40.4033 267.954,41.7367 266.5,43.5C 268.67,45.0862 271.004,46.4196 273.5,47.5C 274.249,45.9884 275.416,44.9884 277,44.5C 282.535,46.0675 288.035,47.7342 293.5,49.5C 296.987,48.4783 298.32,46.145 297.5,42.5C 302.701,42.0888 307.867,41.4222 313,40.5C 314.766,41.2335 316.599,41.5668 318.5,41.5C 318.36,43.1238 319.027,44.2904 320.5,45C 325.167,45.3333 329.833,45.6667 334.5,46C 344.041,55.1151 352.874,54.2818 361,43.5C 361.219,42.062 361.719,40.7287 362.5,39.5C 365.659,40.1555 368.159,41.8221 370,44.5C 372.145,48.9338 373.478,53.6005 374,58.5C 386.771,55.7166 399.604,54.0499 412.5,53.5C 410.898,59.3068 408.898,64.9734 406.5,70.5C 402.681,72.0683 399.681,74.5683 397.5,78C 405.032,79.9526 412.532,79.786 420,77.5C 426.946,80.8631 433.779,80.3631 440.5,76C 450.902,76.1637 460.569,73.6637 469.5,68.5C 470.648,65.7105 471.981,63.0439 473.5,60.5C 482.151,67.7184 492.151,71.385 503.5,71.5C 512.829,70.1956 521.996,68.1956 531,65.5C 533.817,66.0305 536.65,66.3639 539.5,66.5C 539.616,73.2488 540.449,79.9155 542,86.5C 546.333,92.1667 551.333,97.1667 557,101.5C 557.273,103.101 557.773,104.601 558.5,106C 554.581,116.668 549.748,126.835 544,136.5C 542.494,147.642 544.994,157.809 551.5,167C 550.446,169.382 549.779,171.882 549.5,174.5C 544.952,176.107 540.619,178.274 536.5,181C 535.538,184.216 534.372,187.382 533,190.5C 526.121,197.68 518.954,204.513 511.5,211C 509.835,211.788 508.169,212.122 506.5,212C 508.758,205.317 511.924,199.15 516,193.5C 516.667,189.833 516.667,186.167 516,182.5C 515.586,182.043 515.086,181.709 514.5,181.5C 508.674,185.913 502.674,190.08 496.5,194C 493.833,194.333 491.167,194.667 488.5,195C 488.327,199.22 486.66,202.72 483.5,205.5C 475.155,211.683 466.155,216.85 456.5,221C 445.9,233.655 432.233,239.322 415.5,238C 410.652,239.846 406.652,242.846 403.5,247C 401.389,247.845 399.389,248.678 397.5,249.5C 396.833,249.5 396.167,249.5 395.5,249.5C 393.382,247.067 390.716,245.4 387.5,244.5C 383.869,245.515 380.202,245.681 376.5,245C 365.895,239.043 354.895,234.043 343.5,230C 340.574,228.493 338.574,226.159 337.5,223C 332.5,222.333 327.5,222.333 322.5,223C 319.615,227.128 316.281,230.794 312.5,234C 306.948,235.971 301.281,237.471 295.5,238.5C 284.219,236.744 273.219,233.911 262.5,230C 261.692,229.692 261.025,229.192 260.5,228.5C 261.348,226.591 261.682,224.591 261.5,222.5C 260.178,222.67 259.011,222.337 258,221.5C 257.505,218.469 257.671,215.469 258.5,212.5C 254.486,212.334 250.486,212.501 246.5,213C 243.128,214.606 239.628,215.772 236,216.5C 225.374,213.308 214.541,211.141 203.5,210C 200.506,205.647 196.506,202.98 191.5,202C 189.326,198.996 186.992,196.163 184.5,193.5C 176.811,195.727 169.478,198.727 162.5,202.5C 153.425,198.869 144.092,197.869 134.5,199.5C 125.791,193.94 116.624,193.273 107,197.5C 100.863,196.522 94.6961,195.688 88.5,195C 85.8192,192.152 82.4858,190.485 78.5,190C 78.0116,187.824 77.0116,185.991 75.5,184.5C 68.5289,188.235 61.3623,191.569 54,194.5C 49.6306,192.949 45.1306,191.782 40.5,191C 30.1667,190.333 19.8333,190.333 9.5,191C 6.82764,191.834 4.16097,192.668 1.5,193.5C 0.818153,192.757 0.151487,192.091 -0.5,191.5C -0.5,190.833 -0.5,190.167 -0.5,189.5C 1.01027,188.164 2.67694,186.997 4.5,186C 8.8964,185.254 13.2297,184.254 17.5,183C 23.2483,182.435 28.915,182.935 34.5,184.5C 41.4391,183.611 46.9391,180.277 51,174.5C 53,170.5 55,166.5 57,162.5C 62.4984,158.845 66.6651,154.179 69.5,148.5C 67.8096,143.471 67.6429,138.471 69,133.5C 73.015,128.606 78.015,126.939 84,128.5C 85.0296,126.412 85.8629,124.245 86.5,122C 85.1018,117.575 84.1018,113.075 83.5,108.5C 87.4629,108.911 91.1295,108.078 94.5,106C 99.6983,100.467 105.198,95.3004 111,90.5C 112.848,81.574 114.014,72.574 114.5,63.5C 113.344,59.9811 111.01,57.8145 107.5,57C 106,55.5 104.5,54 103,52.5C 102.493,51.0039 102.993,49.8373 104.5,49C 115.384,47.0588 124.717,42.2255 132.5,34.5C 134.539,36.7419 136.205,39.2419 137.5,42C 140.167,42.3333 142.833,42.6667 145.5,43C 146.976,45.6432 148.976,47.8099 151.5,49.5C 154.913,48.3624 158.246,47.0291 161.5,45.5C 164.859,39.9657 169.693,36.6323 176,35.5C 176.833,35.6667 177.667,35.8333 178.5,36C 181.867,39.7026 185.534,43.036 189.5,46C 193.167,46.6667 196.833,46.6667 200.5,46C 205.894,42.9785 211.394,40.1452 217,37.5C 216.133,27.9465 218.8,19.6131 225,12.5C 225.535,9.17295 225.035,6.00629 223.5,3C 224.305,1.88732 224.972,0.72065 225.5,-0.5 Z"/></g>
<g><path style="opacity:0.004" fill="#fefffe" d="M 548.5,177.5 C 549.643,180.976 549.81,184.642 549,188.5C 548.501,184.848 548.335,181.182 548.5,177.5 Z"/></g>
<g><path style="opacity:0.004" fill="#fefffe" d="M 547.5,191.5 C 548.525,191.897 548.692,192.563 548,193.5C 547.536,192.906 547.369,192.239 547.5,191.5 Z"/></g>
<g><path style="opacity:0.004" fill="#fefffe" d="M 546.5,195.5 C 547.833,196.167 547.833,196.167 546.5,195.5 Z"/></g>
<g><path style="opacity:0.004" fill="#fefffe" d="M 546.5,196.5 C 545.833,197.167 545.833,197.167 546.5,196.5 Z"/></g>
<g><path style="opacity:0.004" fill="#fefffe" d="M 545.5,197.5 C 544.833,198.167 544.833,198.167 545.5,197.5 Z"/></g>
<g><path style="opacity:0.004" fill="#fefffe" d="M 544.5,198.5 C 543.833,199.167 543.833,199.167 544.5,198.5 Z"/></g>
<g><path style="opacity:0.004" fill="#fefffe" d="M 543.5,199.5 C 542.833,200.167 542.833,200.167 543.5,199.5 Z"/></g>
<g><path style="opacity:0.004" fill="#fefffe" d="M 542.5,200.5 C 541.833,201.167 541.833,201.167 542.5,200.5 Z"/></g>
<g><path style="opacity:0.004" fill="#fefffe" d="M 541.5,201.5 C 540.833,202.167 540.833,202.167 541.5,201.5 Z"/></g>
<g><path style="opacity:0.004" fill="#fefffe" d="M 540.5,202.5 C 539.833,203.167 539.833,203.167 540.5,202.5 Z"/></g>
<g><path style="opacity:0.004" fill="#fefffe" d="M 562.5,202.5 C 563.833,203.167 563.833,203.167 562.5,202.5 Z"/></g>
<g><path style="opacity:0.004" fill="#fefffe" d="M 562.5,203.5 C 561.833,204.167 561.833,204.167 562.5,203.5 Z"/></g>
<g><path style="opacity:0.004" fill="#fefffe" d="M 566.5,205.5 C 564.972,205.483 564.472,204.816 565,203.5C 565.717,204.044 566.217,204.711 566.5,205.5 Z"/></g>
<g><path style="opacity:0.004" fill="#fefffe" d="M 560.5,205.5 C 561.833,206.167 561.833,206.167 560.5,205.5 Z"/></g>
<g><path style="opacity:0.004" fill="#fefffe" d="M 566.5,205.5 C 566.833,205.5 567.167,205.5 567.5,205.5C 567.5,206.5 567.5,207.5 567.5,208.5C 567.167,208.5 566.833,208.5 566.5,208.5C 566.5,207.5 566.5,206.5 566.5,205.5 Z"/></g>
<g><path style="opacity:0.004" fill="#fefffe" d="M 535.5,206.5 C 536.598,207.601 536.765,208.934 536,210.5C 535.51,209.207 535.343,207.873 535.5,206.5 Z"/></g>
<g><path style="opacity:0.004" fill="#fefffe" d="M 560.5,206.5 C 559.833,207.167 559.833,207.167 560.5,206.5 Z"/></g>
<g><path style="opacity:0.004" fill="#fefffe" d="M 559.5,207.5 C 558.833,208.167 558.833,208.167 559.5,207.5 Z"/></g>
<g><path style="opacity:0.004" fill="#fefffe" d="M 558.5,208.5 C 557.833,209.167 557.833,209.167 558.5,208.5 Z"/></g>
<g><path style="opacity:0.004" fill="#fefffe" d="M 566.5,208.5 C 565.833,209.167 565.833,209.167 566.5,208.5 Z"/></g>
<g><path style="opacity:0.004" fill="#fefffe" d="M 565.5,209.5 C 564.833,210.167 564.833,210.167 565.5,209.5 Z"/></g>
<g><path style="opacity:0.004" fill="#fefffe" d="M 564.5,210.5 C 563.833,211.167 563.833,211.167 564.5,210.5 Z"/></g>
<g><path style="opacity:0.004" fill="#fefffe" d="M 553.5,211.5 C 554.833,212.167 554.833,212.167 553.5,211.5 Z"/></g>
<g><path style="opacity:0.004" fill="#fefffe" d="M 563.5,211.5 C 562.833,212.167 562.833,212.167 563.5,211.5 Z"/></g>
<g><path style="opacity:0.004" fill="#fefffe" d="M 562.5,212.5 C 561.833,213.167 561.833,213.167 562.5,212.5 Z"/></g>
<g><path style="opacity:0.004" fill="#fefffe" d="M 561.5,213.5 C 561.657,214.873 561.49,216.207 561,217.5C 560.235,215.934 560.402,214.601 561.5,213.5 Z"/></g>
<g><path style="opacity:0.004" fill="#fefffe" d="M 551.5,215.5 C 552.833,216.167 552.833,216.167 551.5,215.5 Z"/></g>
<g><path style="opacity:0.004" fill="#fefffe" d="M 535.5,216.5 C 536.833,217.167 536.833,217.167 535.5,216.5 Z"/></g>
<g><path style="opacity:0.004" fill="#fefffe" d="M 551.5,216.5 C 550.833,217.167 550.833,217.167 551.5,216.5 Z"/></g>
<g><path style="opacity:0.004" fill="#fefffe" d="M 548.5,217.5 C 549.833,218.167 549.833,218.167 548.5,217.5 Z"/></g>
<g><path style="opacity:0.004" fill="#fefffe" d="M 534.5,218.5 C 535.833,219.167 535.833,219.167 534.5,218.5 Z"/></g>
<g><path style="opacity:0.004" fill="#fefffe" d="M 548.5,218.5 C 547.833,219.167 547.833,219.167 548.5,218.5 Z"/></g>
<g><path style="opacity:0.004" fill="#fefffe" d="M 533.5,220.5 C 534.525,220.897 534.692,221.563 534,222.5C 533.536,221.906 533.369,221.239 533.5,220.5 Z"/></g>
<g><path style="opacity:0.004" fill="#fefffe" d="M 559.5,221.5 C 560.833,222.167 560.833,222.167 559.5,221.5 Z"/></g>
<g><path style="opacity:0.004" fill="#fefffe" d="M 543.5,222.5 C 544.833,223.167 544.833,223.167 543.5,222.5 Z"/></g>
<g><path style="opacity:0.004" fill="#fefffe" d="M 559.5,222.5 C 558.833,223.167 558.833,223.167 559.5,222.5 Z"/></g>
<g><path style="opacity:0.004" fill="#fefffe" d="M 532.5,223.5 C 533.833,224.167 533.833,224.167 532.5,223.5 Z"/></g>
<g><path style="opacity:0.004" fill="#fefffe" d="M 543.5,223.5 C 542.833,224.167 542.833,224.167 543.5,223.5 Z"/></g>
<g><path style="opacity:0.004" fill="#fefffe" d="M 558.5,223.5 C 557.833,224.167 557.833,224.167 558.5,223.5 Z"/></g>
<g><path style="opacity:0.004" fill="#fefffe" d="M 540.5,224.5 C 541.833,225.167 541.833,225.167 540.5,224.5 Z"/></g>
<g><path style="opacity:0.004" fill="#fefffe" d="M 557.5,224.5 C 557.631,225.239 557.464,225.906 557,226.5C 556.308,225.563 556.475,224.897 557.5,224.5 Z"/></g>
<g><path style="opacity:0.004" fill="#fefffe" d="M 533.5,230.5 C 533.44,231.043 533.107,231.376 532.5,231.5C 531.359,229.579 531.192,227.579 532,225.5C 532.198,227.382 532.698,229.048 533.5,230.5 Z"/></g>
<g><path style="opacity:0.004" fill="#fefffe" d="M 537.5,226.5 C 538.833,227.167 538.833,227.167 537.5,226.5 Z"/></g>
<g><path style="opacity:0.004" fill="#fefffe" d="M 537.5,227.5 C 536.833,228.167 536.833,228.167 537.5,227.5 Z"/></g>
<g><path style="opacity:0.004" fill="#fefffe" d="M 533.5,229.5 C 534.833,230.167 534.833,230.167 533.5,229.5 Z"/></g>
</svg>
