<?xml version="1.0" encoding="UTF-8"?>
<!DOCTYPE svg PUBLIC "-//W3C//DTD SVG 1.1//EN" "http://www.w3.org/Graphics/SVG/1.1/DTD/svg11.dtd">
<svg xmlns="http://www.w3.org/2000/svg" version="1.1" width="244px" height="291px" style="shape-rendering:geometricPrecision; text-rendering:geometricPrecision; image-rendering:optimizeQuality; fill-rule:evenodd; clip-rule:evenodd" xmlns:xlink="http://www.w3.org/1999/xlink">
<g><path style="opacity:0.012" fill="#fefffe" d="M 61.5,-0.5 C 65.8333,-0.5 70.1667,-0.5 74.5,-0.5C 76.2774,0.600473 78.2774,1.43381 80.5,2C 81.1667,3.33333 81.8333,4.66667 82.5,6C 92.4923,5.77863 102.492,5.77863 112.5,6C 117.49,7.92235 118.824,11.4224 116.5,16.5C 117.325,17.3857 118.325,17.719 119.5,17.5C 118.986,23.8217 118.653,30.155 118.5,36.5C 126.445,37.7792 130.445,42.4458 130.5,50.5C 129.825,53.1778 129.158,55.8445 128.5,58.5C 132.211,59.2919 135.878,60.2919 139.5,61.5C 140.828,68.0744 140.495,74.5744 138.5,81C 139.054,83.8236 139.554,86.657 140,89.5C 143.028,95.7377 147.528,100.571 153.5,104C 158.745,103.855 163.911,104.021 169,104.5C 169.336,108.689 169.836,112.856 170.5,117C 168.456,120.205 165.456,122.205 161.5,123C 157.247,125.71 153.08,128.543 149,131.5C 147.882,136.808 146.382,141.975 144.5,147C 149.76,156.189 155.76,164.856 162.5,173C 169.951,175.631 177.618,177.298 185.5,178C 187.333,179.833 189.167,181.667 191,183.5C 194.592,190.354 198.925,196.687 204,202.5C 204.739,208.58 205.739,214.58 207,220.5C 208.413,224.748 211.246,227.415 215.5,228.5C 215.756,230.937 216.423,233.271 217.5,235.5C 214.123,237.944 210.623,240.278 207,242.5C 205.333,250.833 203.667,259.167 202,267.5C 200.5,269 199,270.5 197.5,272C 189.828,274.741 182.661,273.907 176,269.5C 171.521,270.745 167.021,271.911 162.5,273C 160.269,273.622 158.435,274.789 157,276.5C 156.503,274.19 156.337,271.857 156.5,269.5C 157.675,269.719 158.675,269.386 159.5,268.5C 162.097,262.731 164.93,257.064 168,251.5C 169.506,246.254 169.839,240.921 169,235.5C 167.846,234.257 166.512,233.257 165,232.5C 164.94,227.61 163.94,222.943 162,218.5C 155,210.833 148,203.167 141,195.5C 140.793,191.911 140.293,188.411 139.5,185C 135.623,182.562 131.623,180.395 127.5,178.5C 125.603,178.728 124.27,179.728 123.5,181.5C 121.667,181.833 119.833,182.167 118,182.5C 111.22,180.247 104.22,179.247 97,179.5C 89.6599,178.725 82.8266,180.225 76.5,184C 68.1667,184.667 59.8333,184.667 51.5,184C 46.2395,181.549 41.5728,178.383 37.5,174.5C 39.9221,166.989 43.4221,159.989 48,153.5C 49.5429,151.622 51.3762,150.122 53.5,149C 62.6762,149.026 71.3428,147.026 79.5,143C 82.1176,140.261 84.6176,137.427 87,134.5C 88.1711,129.969 89.3378,125.469 90.5,121C 88.4129,117.492 86.0796,114.158 83.5,111C 78.038,110.736 73.2047,108.903 69,105.5C 66.137,98.578 63.4703,91.578 61,84.5C 55.5429,80.5945 52.3762,75.2612 51.5,68.5C 48.3926,68.6488 45.3926,68.1488 42.5,67C 41.2728,64.2641 40.2728,61.4308 39.5,58.5C 33.207,55.2773 28.207,50.6106 24.5,44.5C 18.4277,43.8287 12.4277,42.8287 6.5,41.5C 3.89242,37.938 1.55909,34.2713 -0.5,30.5C -0.5,29.1667 -0.5,27.8333 -0.5,26.5C 5.91472,22.2593 11.9147,17.426 17.5,12C 23.9913,8.92151 30.3246,5.58818 36.5,2C 44.9767,1.09126 53.31,0.25793 61.5,-0.5 Z"/></g>
<g><path style="opacity:0.004" fill="#fefffe" d="M 243.5,214.5 C 243.5,214.833 243.5,215.167 243.5,215.5C 242.83,215.019 242.83,214.685 243.5,214.5 Z"/></g>
<g><path style="opacity:0.004" fill="#fefffe" d="M 242.5,215.5 C 241.833,216.167 241.833,216.167 242.5,215.5 Z"/></g>
<g><path style="opacity:0.004" fill="#fefffe" d="M 239.5,216.5 C 240.833,217.167 240.833,217.167 239.5,216.5 Z"/></g>
<g><path style="opacity:0.004" fill="#fefffe" d="M 222.5,218.5 C 227.65,217.349 232.984,217.183 238.5,218C 233.177,218.499 227.844,218.666 222.5,218.5 Z"/></g>
<g><path style="opacity:0.004" fill="#fefffe" d="M 222.5,218.5 C 221.833,219.167 221.833,219.167 222.5,218.5 Z"/></g>
<g><path style="opacity:0.004" fill="#fefffe" d="M 221.5,219.5 C 220.833,220.167 220.833,220.167 221.5,219.5 Z"/></g>
<g><path style="opacity:0.004" fill="#fefffe" d="M 217.5,223.5 C 218.833,224.167 218.833,224.167 217.5,223.5 Z"/></g>
<g><path style="opacity:0.004" fill="#fefffe" d="M 217.5,224.5 C 217.631,225.239 217.464,225.906 217,226.5C 216.308,225.563 216.475,224.897 217.5,224.5 Z"/></g>
<g><path style="opacity:0.004" fill="#fefffe" d="M 215.5,227.5 C 216.833,228.167 216.833,228.167 215.5,227.5 Z"/></g>
<g><path style="opacity:0.004" fill="#fefffe" d="M 154.5,277.5 C 155.833,278.167 155.833,278.167 154.5,277.5 Z"/></g>
<g><path style="opacity:0.004" fill="#fefffe" d="M 154.5,278.5 C 153.833,279.167 153.833,279.167 154.5,278.5 Z"/></g>
<g><path style="opacity:0.004" fill="#fefffe" d="M 153.5,279.5 C 152.833,280.167 152.833,280.167 153.5,279.5 Z"/></g>
<g><path style="opacity:0.004" fill="#fefffe" d="M 150.5,280.5 C 151.833,281.167 151.833,281.167 150.5,280.5 Z"/></g>
<g><path style="opacity:0.004" fill="#fefffe" d="M 148.5,282.5 C 148.842,281.662 149.508,281.328 150.5,281.5C 150.158,282.338 149.492,282.672 148.5,282.5 Z"/></g>
<g><path style="opacity:0.004" fill="#fefffe" d="M 148.5,282.5 C 148.103,283.525 147.437,283.692 146.5,283C 147.094,282.536 147.761,282.369 148.5,282.5 Z"/></g>
<g><path style="opacity:0.004" fill="#fefffe" d="M 130.5,284.5 C 131.946,283.387 133.613,283.22 135.5,284C 133.866,284.494 132.199,284.66 130.5,284.5 Z"/></g>
<g><path style="opacity:0.004" fill="#fefffe" d="M 144.5,283.5 C 145.833,284.167 145.833,284.167 144.5,283.5 Z"/></g>
<g><path style="opacity:0.004" fill="#fefffe" d="M 130.5,284.5 C 129.833,285.167 129.833,285.167 130.5,284.5 Z"/></g>
<g><path style="opacity:0.004" fill="#fefffe" d="M 137.5,285.5 C 137.897,284.475 138.563,284.308 139.5,285C 138.906,285.464 138.239,285.631 137.5,285.5 Z"/></g>
<g><path style="opacity:0.004" fill="#fefffe" d="M 142.5,284.5 C 143.833,285.167 143.833,285.167 142.5,284.5 Z"/></g>
<g><path style="opacity:0.004" fill="#fefffe" d="M 129.5,285.5 C 128.833,286.167 128.833,286.167 129.5,285.5 Z"/></g>
<g><path style="opacity:0.004" fill="#fefffe" d="M 140.5,285.5 C 141.833,286.167 141.833,286.167 140.5,285.5 Z"/></g>
<g><path style="opacity:0.004" fill="#fefffe" d="M 127.5,287.5 C 128.833,288.167 128.833,288.167 127.5,287.5 Z"/></g>
<g><path style="opacity:0.004" fill="#fefffe" d="M 127.5,290.5 C 126.833,289.167 126.833,289.167 127.5,290.5 Z"/></g>
</svg>
