<?xml version="1.0" encoding="UTF-8"?>
<!DOCTYPE svg PUBLIC "-//W3C//DTD SVG 1.1//EN" "http://www.w3.org/Graphics/SVG/1.1/DTD/svg11.dtd">
<svg xmlns="http://www.w3.org/2000/svg" version="1.1" width="273px" height="234px" style="shape-rendering:geometricPrecision; text-rendering:geometricPrecision; image-rendering:optimizeQuality; fill-rule:evenodd; clip-rule:evenodd" xmlns:xlink="http://www.w3.org/1999/xlink">
<g><path style="opacity:0.012" fill="#fefffe" d="M 37.5,-0.5 C 42.1667,-0.5 46.8333,-0.5 51.5,-0.5C 60.09,0.792041 67.7567,4.29204 74.5,10C 77.2635,10.5323 79.9302,11.3657 82.5,12.5C 89.0855,10.4078 95.0855,7.24111 100.5,3C 108.174,1.22251 115.507,1.72251 122.5,4.5C 125.245,9.48867 127.578,14.6553 129.5,20C 127.333,27.1667 125.167,34.3333 123,41.5C 122.333,49.1667 122.333,56.8333 123,64.5C 126.333,67.1667 129.667,69.8333 133,72.5C 142.155,91.49 152.822,109.49 165,126.5C 171.744,131.788 178.577,136.955 185.5,142C 191.667,142.167 197.833,142.333 204,142.5C 219.539,141.957 235.039,141.124 250.5,140C 257.904,143.076 265.237,146.243 272.5,149.5C 272.5,153.833 272.5,158.167 272.5,162.5C 270.253,181.984 265.253,200.818 257.5,219C 259.069,223.778 260.403,228.612 261.5,233.5C 260.5,233.5 259.5,233.5 258.5,233.5C 240.221,224.107 222.221,213.94 204.5,203C 197.73,201.308 191.064,199.308 184.5,197C 177.691,190.102 170.691,183.436 163.5,177C 158.249,176.196 153.082,176.363 148,177.5C 144.101,174.718 139.767,173.051 135,172.5C 131.106,174.197 127.273,176.03 123.5,178C 121.167,181.667 118.167,184.667 114.5,187C 95.3807,192.757 75.8807,196.591 56,198.5C 40.8392,197.637 25.6726,196.97 10.5,196.5C 10.5,194.833 10.5,193.167 10.5,191.5C 18.0985,192.027 24.2652,189.36 29,183.5C 29.6667,180.5 29.6667,177.5 29,174.5C 27.2156,170.599 25.7156,166.599 24.5,162.5C 21.8268,161.499 19.4935,159.999 17.5,158C 12.2272,158.389 8.89382,156.055 7.5,151C 9.97295,148.527 12.473,146.027 15,143.5C 16.0826,137.83 14.9159,132.663 11.5,128C 12.4316,123.74 15.0983,121.74 19.5,122C 20.8721,120.758 21.8721,119.258 22.5,117.5C 19.8941,113.391 16.7274,109.724 13,106.5C 12.3333,104.5 12.3333,102.5 13,100.5C 18.6538,96.6731 24.6538,93.6731 31,91.5C 31.3333,88.8333 31.6667,86.1667 32,83.5C 34.8065,81.6053 37.1398,79.2719 39,76.5C 40.0646,78.3963 40.8979,78.563 41.5,77C 40.244,75.5212 39.244,73.8546 38.5,72C 39.7138,68.4493 41.3804,65.116 43.5,62C 42.6766,59.3731 42.0099,56.7065 41.5,54C 43.1704,46.9856 44.8371,39.9856 46.5,33C 45.7511,31.2663 45.2511,29.433 45,27.5C 42.3304,25.9952 40.1637,23.9952 38.5,21.5C 38.8862,18.3301 40.2196,15.6635 42.5,13.5C 40.1667,10.1667 37.8333,6.83333 35.5,3.5C 36.1799,2.14011 36.8466,0.806777 37.5,-0.5 Z"/></g>
<g><path style="opacity:0.004" fill="#fefffe" d="M -0.5,103.5 C -0.5,103.167 -0.5,102.833 -0.5,102.5C 2.16667,102.833 2.16667,103.167 -0.5,103.5 Z"/></g>
<g><path style="opacity:0.004" fill="#fefffe" d="M 5.5,104.5 C 4.44802,104.649 3.44802,104.483 2.5,104C 3.74943,103.26 4.74943,103.427 5.5,104.5 Z"/></g>
<g><path style="opacity:0.004" fill="#fefffe" d="M 5.5,104.5 C 6.83333,105.167 6.83333,105.167 5.5,104.5 Z"/></g>
<g><path style="opacity:0.004" fill="#fefffe" d="M 7.5,105.5 C 8.83333,106.167 8.83333,106.167 7.5,105.5 Z"/></g>
<g><path style="opacity:0.004" fill="#fefffe" d="M 9.5,106.5 C 10.8333,107.167 10.8333,107.167 9.5,106.5 Z"/></g>
<g><path style="opacity:0.004" fill="#fefffe" d="M 12.5,108.5 C 11.8333,107.167 11.8333,107.167 12.5,108.5 Z"/></g>
<g><path style="opacity:0.004" fill="#fefffe" d="M 12.5,108.5 C 13.1667,108.5 13.5,108.833 13.5,109.5C 13.1667,109.167 12.8333,108.833 12.5,108.5 Z"/></g>
<g><path style="opacity:0.004" fill="#fefffe" d="M 13.5,109.5 C 14.8333,110.167 14.8333,110.167 13.5,109.5 Z"/></g>
<g><path style="opacity:0.004" fill="#fefffe" d="M 15.5,112.5 C 14.8333,111.167 14.8333,111.167 15.5,112.5 Z"/></g>
<g><path style="opacity:0.004" fill="#fefffe" d="M 15.5,112.5 C 16.8333,113.167 16.8333,113.167 15.5,112.5 Z"/></g>
<g><path style="opacity:0.004" fill="#fefffe" d="M 16.5,114.5 C 17.8333,115.167 17.8333,115.167 16.5,114.5 Z"/></g>
<g><path style="opacity:0.004" fill="#fefffe" d="M 17.5,116.5 C 18.525,116.897 18.6917,117.563 18,118.5C 17.5357,117.906 17.369,117.239 17.5,116.5 Z"/></g>
<g><path style="opacity:0.004" fill="#fefffe" d="M 18.5,119.5 C 19.8333,120.167 19.8333,120.167 18.5,119.5 Z"/></g>
<g><path style="opacity:0.004" fill="#fefffe" d="M 10.5,202.5 C 11.8333,203.167 11.8333,203.167 10.5,202.5 Z"/></g>
<g><path style="opacity:0.004" fill="#fefffe" d="M 13.5,204.5 C 14.8333,205.167 14.8333,205.167 13.5,204.5 Z"/></g>
<g><path style="opacity:0.004" fill="#fefffe" d="M 14.5,211.5 C 13.3871,210.054 13.2204,208.387 14,206.5C 14.4935,208.134 14.6602,209.801 14.5,211.5 Z"/></g>
<g><path style="opacity:0.004" fill="#fefffe" d="M 14.5,211.5 C 15.8333,212.167 15.8333,212.167 14.5,211.5 Z"/></g>
</svg>
