<?xml version="1.0" encoding="UTF-8"?>
<!DOCTYPE svg PUBLIC "-//W3C//DTD SVG 1.1//EN" "http://www.w3.org/Graphics/SVG/1.1/DTD/svg11.dtd">
<svg xmlns="http://www.w3.org/2000/svg" version="1.1" width="410px" height="371px" style="shape-rendering:geometricPrecision; text-rendering:geometricPrecision; image-rendering:optimizeQuality; fill-rule:evenodd; clip-rule:evenodd" xmlns:xlink="http://www.w3.org/1999/xlink">
<g><path style="opacity:0.012" fill="#fefffe" d="M 317.5,-0.5 C 323.833,-0.5 330.167,-0.5 336.5,-0.5C 348.364,1.91771 360.03,5.41771 371.5,10C 371.623,14.0522 371.79,18.2189 372,22.5C 373.218,25.5577 375.051,28.2244 377.5,30.5C 386.374,35.4369 395.374,40.1036 404.5,44.5C 406.219,46.5441 407.886,48.5441 409.5,50.5C 409.5,52.5 409.5,54.5 409.5,56.5C 408.59,58.0188 407.757,59.6854 407,61.5C 403.527,63.1188 399.86,64.1188 396,64.5C 390.489,63.3445 384.989,63.3445 379.5,64.5C 378.696,65.9411 378.029,67.4411 377.5,69C 380.185,74.1992 383.018,79.3659 386,84.5C 386.496,89.208 386.162,93.8747 385,98.5C 378.324,110.525 370.657,121.858 362,132.5C 359.022,140.261 357.188,148.261 356.5,156.5C 306.166,156.667 255.832,156.5 205.5,156C 199.518,151.009 193.185,146.509 186.5,142.5C 184.742,143.128 183.242,144.128 182,145.5C 179.95,149.261 178.783,153.261 178.5,157.5C 179.21,162.194 179.71,166.861 180,171.5C 176.398,175.705 173.564,180.372 171.5,185.5C 172.03,194.88 172.863,204.214 174,213.5C 176.871,217.016 180.371,219.683 184.5,221.5C 189.651,229.453 192.485,238.12 193,247.5C 200.631,249.811 206.298,254.478 210,261.5C 216.984,267.65 223.817,273.983 230.5,280.5C 230.861,284.791 232.028,288.791 234,292.5C 244.605,297.478 255.105,302.644 265.5,308C 268.835,312.01 271.335,316.51 273,321.5C 273.667,329.167 273.667,336.833 273,344.5C 271.879,349.107 269.546,352.774 266,355.5C 255.81,354.275 245.643,352.942 235.5,351.5C 235.506,348.482 236.506,345.816 238.5,343.5C 238.291,342.914 237.957,342.414 237.5,342C 233.833,341.667 230.167,341.333 226.5,341C 223.422,339.227 220.089,338.06 216.5,337.5C 213.709,335.211 211.042,332.711 208.5,330C 202.908,329.112 198.908,331.279 196.5,336.5C 194.234,337.314 191.9,337.814 189.5,338C 193.257,344.061 191.757,347.894 185,349.5C 182.037,347.539 179.371,345.206 177,342.5C 173.547,346.145 169.38,348.645 164.5,350C 163.233,351.796 163.233,353.629 164.5,355.5C 164,355.833 163.5,356.167 163,356.5C 159.232,354.403 155.732,351.903 152.5,349C 147.78,348.779 143.113,348.279 138.5,347.5C 136.283,344.932 135.116,341.932 135,338.5C 134.167,337.667 133.333,336.833 132.5,336C 125.019,334.398 117.519,334.231 110,335.5C 105.11,334.923 100.444,333.589 96,331.5C 93.8755,332.063 91.7088,332.396 89.5,332.5C 81.8439,331.852 74.1772,331.352 66.5,331C 63.8153,330.155 62.1486,328.322 61.5,325.5C 51.3034,322.864 40.9701,321.697 30.5,322C 26.6492,322.754 22.8159,323.588 19,324.5C 14.8817,321.005 10.0484,318.838 4.5,318C 3.97814,317.439 3.6448,316.772 3.5,316C 9.19574,309.971 14.5291,303.638 19.5,297C 15.9728,290.823 10.6394,288.156 3.5,289C 2.30665,287.905 0.973316,287.072 -0.5,286.5C -0.5,285.5 -0.5,284.5 -0.5,283.5C 6.23466,282.288 11.568,278.788 15.5,273C 21.7485,269.905 28.0818,269.738 34.5,272.5C 39.4621,272.09 44.2954,271.09 49,269.5C 51.8466,266.853 53.5133,263.52 54,259.5C 56.0322,263.408 58.8655,266.575 62.5,269C 74.3638,270.173 83.1972,265.673 89,255.5C 88.0886,249.282 90.0886,243.948 95,239.5C 94.8195,230.874 94.9862,222.208 95.5,213.5C 97.8056,213.007 100.139,212.674 102.5,212.5C 103.481,209.193 104.481,205.86 105.5,202.5C 103.556,198.112 101.223,193.945 98.5,190C 99.5174,187.213 99.6841,184.38 99,181.5C 94.6126,176.623 89.9459,171.956 85,167.5C 84.4918,162.988 82.3251,159.488 78.5,157C 80.4111,155.584 82.5777,154.75 85,154.5C 91.5515,154.599 97.7181,156.099 103.5,159C 114.038,160.164 124.371,159.33 134.5,156.5C 138.135,152.986 139.802,148.652 139.5,143.5C 144.511,143.666 149.511,143.499 154.5,143C 159.809,140.552 162.142,136.386 161.5,130.5C 156.276,130.308 151.776,128.308 148,124.5C 147.08,121.692 147.913,119.525 150.5,118C 153.149,117.548 155.649,116.714 158,115.5C 158.452,112.851 159.286,110.351 160.5,108C 157.095,104.989 155.095,101.156 154.5,96.5C 151.5,95.5 149.5,93.5 148.5,90.5C 153.711,90.4897 159.044,90.323 164.5,90C 169.647,89.6393 173.98,87.6393 177.5,84C 186.23,80.8017 194.563,76.8017 202.5,72C 216.138,59.3628 229.471,46.3628 242.5,33C 252.185,26.8241 261.519,20.1575 270.5,13C 285.49,5.77697 301.157,1.27697 317.5,-0.5 Z"/></g>
<g><path style="opacity:0.004" fill="#fefffe" d="M 235.5,351.5 C 234.833,352.167 234.833,352.167 235.5,351.5 Z"/></g>
<g><path style="opacity:0.004" fill="#fefffe" d="M 233.5,355.5 C 234.833,356.167 234.833,356.167 233.5,355.5 Z"/></g>
<g><path style="opacity:0.004" fill="#fefffe" d="M 269.5,355.5 C 270.833,356.167 270.833,356.167 269.5,355.5 Z"/></g>
<g><path style="opacity:0.004" fill="#fefffe" d="M 272.5,357.5 C 273.833,358.167 273.833,358.167 272.5,357.5 Z"/></g>
<g><path style="opacity:0.004" fill="#fefffe" d="M 275.5,359.5 C 274.833,358.167 274.833,358.167 275.5,359.5 Z"/></g>
<g><path style="opacity:0.004" fill="#fefffe" d="M 275.5,359.5 C 276.833,360.167 276.833,360.167 275.5,359.5 Z"/></g>
<g><path style="opacity:0.004" fill="#fefffe" d="M 277.5,360.5 C 278.833,361.167 278.833,361.167 277.5,360.5 Z"/></g>
<g><path style="opacity:0.004" fill="#fefffe" d="M 280.5,362.5 C 281.833,363.167 281.833,363.167 280.5,362.5 Z"/></g>
<g><path style="opacity:0.004" fill="#fefffe" d="M 284.5,364.5 C 283.761,364.631 283.094,364.464 282.5,364C 283.437,363.308 284.103,363.475 284.5,364.5 Z"/></g>
<g><path style="opacity:0.004" fill="#fefffe" d="M 284.5,364.5 C 285.492,364.328 286.158,364.662 286.5,365.5C 285.508,365.672 284.842,365.338 284.5,364.5 Z"/></g>
<g><path style="opacity:0.004" fill="#fefffe" d="M 286.5,365.5 C 287.492,365.328 288.158,365.662 288.5,366.5C 287.508,366.672 286.842,366.338 286.5,365.5 Z"/></g>
<g><path style="opacity:0.004" fill="#fefffe" d="M 288.5,366.5 C 289.239,366.369 289.906,366.536 290.5,367C 289.563,367.692 288.897,367.525 288.5,366.5 Z"/></g>
<g><path style="opacity:0.004" fill="#fefffe" d="M 291.5,367.5 C 292.833,368.167 292.833,368.167 291.5,367.5 Z"/></g>
<g><path style="opacity:0.004" fill="#fefffe" d="M 293.5,368.5 C 294.833,369.167 294.833,369.167 293.5,368.5 Z"/></g>
<g><path style="opacity:0.004" fill="#fefffe" d="M 299.5,370.5 C 302.5,369.167 305.5,369.167 308.5,370.5C 305.5,370.5 302.5,370.5 299.5,370.5 Z"/></g>
</svg>
