<?xml version="1.0" encoding="UTF-8"?>
<!DOCTYPE svg PUBLIC "-//W3C//DTD SVG 1.1//EN" "http://www.w3.org/Graphics/SVG/1.1/DTD/svg11.dtd">
<svg xmlns="http://www.w3.org/2000/svg" version="1.1" width="359px" height="248px" style="shape-rendering:geometricPrecision; text-rendering:geometricPrecision; image-rendering:optimizeQuality; fill-rule:evenodd; clip-rule:evenodd" xmlns:xlink="http://www.w3.org/1999/xlink">
<g><path style="opacity:0.012" fill="#fefffe" d="M 93.5,-0.5 C 95.8333,-0.5 98.1667,-0.5 100.5,-0.5C 126.673,2.45396 153.007,2.78729 179.5,0.5C 178.547,10.3358 177.547,20.1692 176.5,30C 175.466,35.9538 177.133,40.9538 181.5,45C 186.64,46.9948 191.973,48.1615 197.5,48.5C 206.875,47.6614 216.209,46.4948 225.5,45C 237.22,43.3785 248.553,44.7118 259.5,49C 262.369,52.2041 265.535,55.0374 269,57.5C 270.421,61.8694 272.921,65.3694 276.5,68C 279.207,68.3283 281.874,67.995 284.5,67C 288.278,65.3614 292.111,63.8614 296,62.5C 297.982,62.9903 299.649,63.9903 301,65.5C 302.661,74.4426 303.328,83.4426 303,92.5C 291.872,114.283 297.372,130.283 319.5,140.5C 320.602,145.976 322.769,150.976 326,155.5C 330.075,160.065 333.909,164.732 337.5,169.5C 335.833,174.168 333.166,178.168 329.5,181.5C 328.167,180.5 326.833,179.5 325.5,178.5C 319.621,182.012 313.454,184.678 307,186.5C 299.586,181.656 291.419,180.156 282.5,182C 276.48,182.693 270.48,183.527 264.5,184.5C 263.106,184.379 261.772,184.046 260.5,183.5C 259.304,183.846 259.304,184.346 260.5,185C 258.156,185.837 256.156,187.171 254.5,189C 252.966,189.923 251.299,190.423 249.5,190.5C 245.042,189.802 240.709,188.635 236.5,187C 235.072,185.084 234.072,182.917 233.5,180.5C 230.06,178.631 226.393,177.465 222.5,177C 219.163,174.329 215.496,172.163 211.5,170.5C 210.5,169.167 209.5,167.833 208.5,166.5C 206.016,169.484 203.35,172.318 200.5,175C 189.063,179.551 178.73,185.884 169.5,194C 160.785,196.794 152.118,199.794 143.5,203C 136.947,202.909 130.447,202.075 124,200.5C 117.934,201.955 112.601,200.622 108,196.5C 104.928,197.953 102.095,199.787 99.5,202C 95.1667,202.667 90.8333,202.667 86.5,202C 84.7068,199.205 82.5402,196.705 80,194.5C 77.916,197.033 75.916,197.033 74,194.5C 66.7043,199.11 59.371,203.777 52,208.5C 48.9514,206.59 46.4514,204.09 44.5,201C 41.0498,199.97 37.7165,198.637 34.5,197C 27.1044,190.885 19.271,185.385 11,180.5C 9.17776,176.239 9.0111,171.905 10.5,167.5C 8.23064,162.423 6.8973,157.089 6.5,151.5C 7.86286,143.546 9.02952,135.546 10,127.5C 10.8917,124.048 12.5584,121.048 15,118.5C 15.6667,114.833 15.6667,111.167 15,107.5C 9.96032,102.956 4.79366,98.6223 -0.5,94.5C -0.5,93.8333 -0.5,93.1667 -0.5,92.5C 3.73879,90.5187 5.40546,87.3521 4.5,83C 7.10282,80.9221 10.1028,79.5888 13.5,79C 22.655,69.2079 26.4884,57.7079 25,44.5C 31.5,33.5 38,22.5 44.5,11.5C 59.0862,9.3398 73.7529,7.8398 88.5,7C 90.4146,4.60039 92.0812,2.10039 93.5,-0.5 Z"/></g>
<g><path style="opacity:0.004" fill="#fefffe" d="M 338.5,161.5 C 339.5,160.167 340.5,160.167 341.5,161.5C 340.5,161.5 339.5,161.5 338.5,161.5 Z"/></g>
<g><path style="opacity:0.004" fill="#fefffe" d="M 338.5,161.5 C 337.833,162.167 337.833,162.167 338.5,161.5 Z"/></g>
<g><path style="opacity:0.004" fill="#fefffe" d="M 341.5,161.5 C 342.167,161.5 342.5,161.833 342.5,162.5C 342.167,162.167 341.833,161.833 341.5,161.5 Z"/></g>
<g><path style="opacity:0.004" fill="#fefffe" d="M 342.5,162.5 C 343.167,162.5 343.5,162.833 343.5,163.5C 343.167,163.167 342.833,162.833 342.5,162.5 Z"/></g>
<g><path style="opacity:0.004" fill="#fefffe" d="M 343.5,163.5 C 344.167,163.5 344.5,163.833 344.5,164.5C 344.167,164.167 343.833,163.833 343.5,163.5 Z"/></g>
<g><path style="opacity:0.004" fill="#fefffe" d="M 338.5,164.5 C 339.573,165.251 339.74,166.251 339,167.5C 338.517,166.552 338.351,165.552 338.5,164.5 Z"/></g>
<g><path style="opacity:0.004" fill="#fefffe" d="M 344.5,164.5 C 349.167,164.5 353.833,164.5 358.5,164.5C 358.5,164.833 358.5,165.167 358.5,165.5C 353.637,165.819 348.97,165.486 344.5,164.5 Z"/></g>
<g><path style="opacity:0.004" fill="#fefffe" d="M 337.5,168.5 C 338.833,169.167 338.833,169.167 337.5,168.5 Z"/></g>
<g><path style="opacity:0.004" fill="#fefffe" d="M 263.5,188.5 C 262.833,187.167 262.833,187.167 263.5,188.5 Z"/></g>
<g><path style="opacity:0.004" fill="#fefffe" d="M 263.5,188.5 C 264.598,189.601 264.765,190.934 264,192.5C 263.51,191.207 263.343,189.873 263.5,188.5 Z"/></g>
<g><path style="opacity:0.004" fill="#fefffe" d="M 263.5,195.5 C 264.833,196.167 264.833,196.167 263.5,195.5 Z"/></g>
<g><path style="opacity:0.004" fill="#fefffe" d="M 261.5,196.5 C 262.833,197.167 262.833,197.167 261.5,196.5 Z"/></g>
<g><path style="opacity:0.004" fill="#fefffe" d="M 259.5,197.5 C 260.833,198.167 260.833,198.167 259.5,197.5 Z"/></g>
<g><path style="opacity:0.004" fill="#fefffe" d="M 257.5,198.5 C 258.833,199.167 258.833,199.167 257.5,198.5 Z"/></g>
<g><path style="opacity:0.004" fill="#fefffe" d="M 255.5,199.5 C 256.833,200.167 256.833,200.167 255.5,199.5 Z"/></g>
<g><path style="opacity:0.004" fill="#fefffe" d="M 252.5,201.5 C 252.897,200.475 253.563,200.308 254.5,201C 253.906,201.464 253.239,201.631 252.5,201.5 Z"/></g>
<g><path style="opacity:0.004" fill="#fefffe" d="M 250.5,201.5 C 251.833,202.167 251.833,202.167 250.5,201.5 Z"/></g>
<g><path style="opacity:0.004" fill="#fefffe" d="M 247.5,203.5 C 247.897,202.475 248.563,202.308 249.5,203C 248.906,203.464 248.239,203.631 247.5,203.5 Z"/></g>
<g><path style="opacity:0.004" fill="#fefffe" d="M 227.5,204.5 C 231.646,203.353 235.98,203.186 240.5,204C 236.179,204.499 231.846,204.666 227.5,204.5 Z"/></g>
<g><path style="opacity:0.004" fill="#fefffe" d="M 218.5,205.5 C 218.897,204.475 219.563,204.308 220.5,205C 219.906,205.464 219.239,205.631 218.5,205.5 Z"/></g>
<g><path style="opacity:0.004" fill="#fefffe" d="M 216.5,205.5 C 217.833,206.167 217.833,206.167 216.5,205.5 Z"/></g>
<g><path style="opacity:0.004" fill="#fefffe" d="M 214.5,206.5 C 215.833,207.167 215.833,207.167 214.5,206.5 Z"/></g>
<g><path style="opacity:0.004" fill="#fefffe" d="M 214.5,207.5 C 213.833,208.167 213.833,208.167 214.5,207.5 Z"/></g>
<g><path style="opacity:0.004" fill="#fefffe" d="M 213.5,208.5 C 212.833,209.167 212.833,209.167 213.5,208.5 Z"/></g>
<g><path style="opacity:0.004" fill="#fefffe" d="M 211.5,210.5 C 212.525,210.897 212.692,211.563 212,212.5C 211.536,211.906 211.369,211.239 211.5,210.5 Z"/></g>
<g><path style="opacity:0.004" fill="#fefffe" d="M 210.5,216.5 C 211.525,216.897 211.692,217.563 211,218.5C 210.536,217.906 210.369,217.239 210.5,216.5 Z"/></g>
<g><path style="opacity:0.004" fill="#fefffe" d="M 211.5,220.5 C 212.573,221.251 212.74,222.251 212,223.5C 211.517,222.552 211.351,221.552 211.5,220.5 Z"/></g>
<g><path style="opacity:0.004" fill="#fefffe" d="M 213.5,226.5 C 212.475,226.103 212.308,225.437 213,224.5C 213.464,225.094 213.631,225.761 213.5,226.5 Z"/></g>
<g><path style="opacity:0.004" fill="#fefffe" d="M 213.5,226.5 C 214.338,226.842 214.672,227.508 214.5,228.5C 213.662,228.158 213.328,227.492 213.5,226.5 Z"/></g>
<g><path style="opacity:0.004" fill="#fefffe" d="M 214.5,228.5 C 215.833,229.167 215.833,229.167 214.5,228.5 Z"/></g>
<g><path style="opacity:0.004" fill="#fefffe" d="M 215.5,230.5 C 216.833,231.167 216.833,231.167 215.5,230.5 Z"/></g>
<g><path style="opacity:0.004" fill="#fefffe" d="M 292.5,233.5 C 293.601,232.402 294.934,232.235 296.5,233C 295.207,233.49 293.873,233.657 292.5,233.5 Z"/></g>
<g><path style="opacity:0.004" fill="#fefffe" d="M 298.5,232.5 C 299.833,233.167 299.833,233.167 298.5,232.5 Z"/></g>
<g><path style="opacity:0.004" fill="#fefffe" d="M 289.5,233.5 C 290.833,234.167 290.833,234.167 289.5,233.5 Z"/></g>
<g><path style="opacity:0.004" fill="#fefffe" d="M 301.5,234.5 C 300.833,233.167 300.833,233.167 301.5,234.5 Z"/></g>
<g><path style="opacity:0.004" fill="#fefffe" d="M 287.5,234.5 C 288.833,235.167 288.833,235.167 287.5,234.5 Z"/></g>
<g><path style="opacity:0.004" fill="#fefffe" d="M 301.5,234.5 C 302.833,235.167 302.833,235.167 301.5,234.5 Z"/></g>
<g><path style="opacity:0.004" fill="#fefffe" d="M 221.5,236.5 C 220.833,235.167 220.833,235.167 221.5,236.5 Z"/></g>
<g><path style="opacity:0.004" fill="#fefffe" d="M 284.5,236.5 C 284.897,235.475 285.563,235.308 286.5,236C 285.906,236.464 285.239,236.631 284.5,236.5 Z"/></g>
<g><path style="opacity:0.004" fill="#fefffe" d="M 221.5,236.5 C 222.167,236.5 222.5,236.833 222.5,237.5C 222.167,237.167 221.833,236.833 221.5,236.5 Z"/></g>
<g><path style="opacity:0.004" fill="#fefffe" d="M 282.5,236.5 C 283.833,237.167 283.833,237.167 282.5,236.5 Z"/></g>
<g><path style="opacity:0.004" fill="#fefffe" d="M 302.5,236.5 C 303.833,237.167 303.833,237.167 302.5,236.5 Z"/></g>
<g><path style="opacity:0.004" fill="#fefffe" d="M 222.5,237.5 C 223.833,238.167 223.833,238.167 222.5,237.5 Z"/></g>
<g><path style="opacity:0.004" fill="#fefffe" d="M 280.5,237.5 C 281.833,238.167 281.833,238.167 280.5,237.5 Z"/></g>
<g><path style="opacity:0.004" fill="#fefffe" d="M 225.5,239.5 C 224.833,238.167 224.833,238.167 225.5,239.5 Z"/></g>
<g><path style="opacity:0.004" fill="#fefffe" d="M 277.5,239.5 C 277.897,238.475 278.563,238.308 279.5,239C 278.906,239.464 278.239,239.631 277.5,239.5 Z"/></g>
<g><path style="opacity:0.004" fill="#fefffe" d="M 304.5,247.5 C 304.167,247.5 303.833,247.5 303.5,247.5C 303.833,235.5 304.167,235.5 304.5,247.5 Z"/></g>
<g><path style="opacity:0.004" fill="#fefffe" d="M 225.5,239.5 C 226.167,239.5 226.5,239.833 226.5,240.5C 226.167,240.167 225.833,239.833 225.5,239.5 Z"/></g>
<g><path style="opacity:0.004" fill="#fefffe" d="M 274.5,240.5 C 274.897,239.475 275.563,239.308 276.5,240C 275.906,240.464 275.239,240.631 274.5,240.5 Z"/></g>
<g><path style="opacity:0.004" fill="#fefffe" d="M 226.5,240.5 C 227.833,241.167 227.833,241.167 226.5,240.5 Z"/></g>
<g><path style="opacity:0.004" fill="#fefffe" d="M 271.5,241.5 C 271.897,240.475 272.563,240.308 273.5,241C 272.906,241.464 272.239,241.631 271.5,241.5 Z"/></g>
<g><path style="opacity:0.004" fill="#fefffe" d="M 228.5,241.5 C 229.833,242.167 229.833,242.167 228.5,241.5 Z"/></g>
<g><path style="opacity:0.004" fill="#fefffe" d="M 268.5,242.5 C 268.897,241.475 269.563,241.308 270.5,242C 269.906,242.464 269.239,242.631 268.5,242.5 Z"/></g>
<g><path style="opacity:0.004" fill="#fefffe" d="M 230.5,242.5 C 231.833,243.167 231.833,243.167 230.5,242.5 Z"/></g>
<g><path style="opacity:0.004" fill="#fefffe" d="M 265.5,243.5 C 265.897,242.475 266.563,242.308 267.5,243C 266.906,243.464 266.239,243.631 265.5,243.5 Z"/></g>
<g><path style="opacity:0.004" fill="#fefffe" d="M 232.5,244.5 C 232.897,243.475 233.563,243.308 234.5,244C 233.906,244.464 233.239,244.631 232.5,244.5 Z"/></g>
<g><path style="opacity:0.004" fill="#fefffe" d="M 263.5,243.5 C 264.833,244.167 264.833,244.167 263.5,243.5 Z"/></g>
<g><path style="opacity:0.004" fill="#fefffe" d="M 235.5,245.5 C 236.251,244.427 237.251,244.26 238.5,245C 237.552,245.483 236.552,245.649 235.5,245.5 Z"/></g>
<g><path style="opacity:0.004" fill="#fefffe" d="M 260.5,244.5 C 261.833,245.167 261.833,245.167 260.5,244.5 Z"/></g>
<g><path style="opacity:0.004" fill="#fefffe" d="M 240.5,246.5 C 241.601,245.402 242.934,245.235 244.5,246C 243.207,246.49 241.873,246.657 240.5,246.5 Z"/></g>
<g><path style="opacity:0.004" fill="#fefffe" d="M 247.5,246.5 C 250.976,245.357 254.642,245.19 258.5,246C 254.848,246.499 251.182,246.665 247.5,246.5 Z"/></g>
</svg>
