<?xml version="1.0" encoding="UTF-8"?>
<!DOCTYPE svg PUBLIC "-//W3C//DTD SVG 1.1//EN" "http://www.w3.org/Graphics/SVG/1.1/DTD/svg11.dtd">
<svg xmlns="http://www.w3.org/2000/svg" version="1.1" width="494px" height="534px" style="shape-rendering:geometricPrecision; text-rendering:geometricPrecision; image-rendering:optimizeQuality; fill-rule:evenodd; clip-rule:evenodd" xmlns:xlink="http://www.w3.org/1999/xlink">
<g><path style="opacity:0.004" fill="#fefffe" d="M 383.5,-0.5 C 383.833,-0.5 384.167,-0.5 384.5,-0.5C 384.5,-0.166667 384.5,0.166667 384.5,0.5C 384.167,0.166667 383.833,-0.166667 383.5,-0.5 Z"/></g>
<g><path style="opacity:0.004" fill="#fefffe" d="M 384.5,0.5 C 385.167,0.5 385.5,0.833333 385.5,1.5C 385.167,1.16667 384.833,0.833333 384.5,0.5 Z"/></g>
<g><path style="opacity:0.004" fill="#fefffe" d="M 385.5,1.5 C 386.833,2.16667 386.833,2.16667 385.5,1.5 Z"/></g>
<g><path style="opacity:0.012" fill="#fefffe" d="M 445.5,215.5 C 444.064,216.429 442.731,217.595 441.5,219C 438.377,219.206 435.377,219.873 432.5,221C 427.821,221.164 423.155,221.164 418.5,221C 420.062,223.446 422.062,225.446 424.5,227C 425.124,231.4 426.79,235.233 429.5,238.5C 429.088,244.746 425.754,248.246 419.5,249C 418.313,250.019 417.313,251.186 416.5,252.5C 419.828,257.491 424.494,259.824 430.5,259.5C 431.863,265.59 429.863,270.09 424.5,273C 419.833,273.333 415.167,273.667 410.5,274C 409.086,277.055 407.919,280.222 407,283.5C 405.705,285.122 404.205,286.455 402.5,287.5C 392.663,290.148 382.663,290.981 372.5,290C 366.814,286.912 360.647,285.412 354,285.5C 351.949,285.423 350.116,285.923 348.5,287C 351.997,289.166 353.831,292.333 354,296.5C 358.033,300.868 362.366,304.868 367,308.5C 368.215,313.051 368.881,317.718 369,322.5C 371.757,325.429 373.924,328.762 375.5,332.5C 374.167,335.833 372.833,339.167 371.5,342.5C 369.604,343.466 367.604,343.799 365.5,343.5C 364.393,351.685 364.393,359.852 365.5,368C 362.969,370.889 360.802,374.056 359,377.5C 359.368,388.837 353.868,396.004 342.5,399C 336.661,401.691 331.494,400.858 327,396.5C 324.61,389.886 322.944,389.553 322,395.5C 321.215,397.286 320.049,398.786 318.5,400C 313.287,401.702 307.954,402.869 302.5,403.5C 296.964,401.084 291.298,400.917 285.5,403C 282.833,405.667 280.167,408.333 277.5,411C 275.091,412.707 272.425,413.54 269.5,413.5C 269.33,414.822 269.663,415.989 270.5,417C 278.61,416.718 284.61,420.051 288.5,427C 284.775,434.061 279.609,439.894 273,444.5C 272.517,445.448 272.351,446.448 272.5,447.5C 276.874,448.344 281.207,449.344 285.5,450.5C 285.5,451.833 285.5,453.167 285.5,454.5C 292.399,452.693 299.399,451.359 306.5,450.5C 314.4,452.308 322.4,453.474 330.5,454C 331.692,455.912 332.692,457.912 333.5,460C 342.451,460.153 351.284,460.986 360,462.5C 361.667,461.833 363.333,461.167 365,460.5C 367.795,462.646 370.961,463.813 374.5,464C 383.5,464.333 392.5,464.667 401.5,465C 402.333,465.833 403.167,466.667 404,467.5C 404.919,470.778 406.086,473.945 407.5,477C 412.453,477.995 417.453,478.662 422.5,479C 425.63,481.128 428.463,483.628 431,486.5C 431.333,486.167 431.667,485.833 432,485.5C 432.667,486.833 432.667,488.167 432,489.5C 420.5,500.333 409,511.167 397.5,522C 389.494,525.336 381.827,529.17 374.5,533.5C 369.833,533.5 365.167,533.5 360.5,533.5C 352.637,532.778 344.637,531.945 336.5,531C 319.547,528.265 307.38,519.098 300,503.5C 292.864,496.187 285.031,489.853 276.5,484.5C 265.598,486.132 254.931,488.799 244.5,492.5C 236.654,491.306 229.321,488.806 222.5,485C 217.688,484.294 212.854,483.794 208,483.5C 191.569,485.619 175.402,488.953 159.5,493.5C 159.665,489.818 159.499,486.152 159,482.5C 152.597,467.493 144.097,453.993 133.5,442C 111.247,439.486 88.9139,438.486 66.5,439C 61.318,442.682 56.9847,447.182 53.5,452.5C 52.2653,449.699 50.7653,447.032 49,444.5C 38.6667,434.833 28.3333,425.167 18,415.5C 16.8333,412.667 15.6667,409.833 14.5,407C 15.7986,401.636 17.6319,396.47 20,391.5C 21.1314,382.876 21.798,374.21 22,365.5C 23.4669,362.734 25.3002,360.234 27.5,358C 57.1908,351.947 76.0241,334.447 84,305.5C 84.8191,294.923 84.6524,284.423 83.5,274C 100.254,273.959 116.92,274.959 133.5,277C 146.313,267.258 160.313,259.592 175.5,254C 199.461,238.842 221.794,221.509 242.5,202C 248.67,198.081 255.003,194.414 261.5,191C 265.249,187.129 269.915,185.129 275.5,185C 278.667,181.833 281.833,178.667 285,175.5C 288.782,166.723 293.782,158.723 300,151.5C 305.531,145.634 311.365,140.134 317.5,135C 323.53,135.364 329.53,135.197 335.5,134.5C 336.326,130.864 336.992,127.197 337.5,123.5C 342.255,123.258 345.922,121.091 348.5,117C 363.311,113.341 375.477,105.507 385,93.5C 385.25,87.2044 387.583,81.8711 392,77.5C 398.17,66.8458 396.836,57.1791 388,48.5C 389.798,37.613 387.631,27.613 381.5,18.5C 382.799,14.6025 385.299,13.2692 389,14.5C 395.88,23.9274 400.88,34.2607 404,45.5C 408.333,50.5 412.667,55.5 417,60.5C 421.379,71.0323 418.712,79.3656 409,85.5C 406.029,93.3807 403.362,101.381 401,109.5C 398.305,111.694 395.472,113.694 392.5,115.5C 389.944,121.612 387.111,127.612 384,133.5C 382.184,134.329 380.351,135.163 378.5,136C 379.333,136.833 380.167,137.667 381,138.5C 381.947,148.267 381.613,157.934 380,167.5C 375.922,170.039 371.588,172.039 367,173.5C 365.128,172.932 363.295,172.265 361.5,171.5C 361.167,172.167 360.833,172.833 360.5,173.5C 363.043,184.047 364.876,194.713 366,205.5C 367.833,204.333 369.667,203.167 371.5,202C 375.167,197.667 378.833,193.333 382.5,189C 386.486,188.501 390.486,188.334 394.5,188.5C 393.085,205.478 400.418,210.811 416.5,204.5C 417.429,203.311 417.762,201.978 417.5,200.5C 427.654,203.994 436.987,208.994 445.5,215.5 Z"/></g>
<g><path style="opacity:0.004" fill="#fefffe" d="M 493.5,181.5 C 493.5,181.833 493.5,182.167 493.5,182.5C 492.83,182.019 492.83,181.685 493.5,181.5 Z"/></g>
<g><path style="opacity:0.004" fill="#fefffe" d="M 492.5,182.5 C 491.833,183.167 491.833,183.167 492.5,182.5 Z"/></g>
<g><path style="opacity:0.004" fill="#fefffe" d="M 491.5,183.5 C 490.833,184.167 490.833,184.167 491.5,183.5 Z"/></g>
<g><path style="opacity:0.004" fill="#fefffe" d="M 490.5,184.5 C 489.833,185.167 489.833,185.167 490.5,184.5 Z"/></g>
<g><path style="opacity:0.004" fill="#fefffe" d="M 489.5,185.5 C 488.833,186.167 488.833,186.167 489.5,185.5 Z"/></g>
<g><path style="opacity:0.004" fill="#fefffe" d="M 488.5,186.5 C 487.833,187.167 487.833,187.167 488.5,186.5 Z"/></g>
<g><path style="opacity:0.004" fill="#fefffe" d="M 487.5,187.5 C 486.833,188.167 486.833,188.167 487.5,187.5 Z"/></g>
<g><path style="opacity:0.004" fill="#fefffe" d="M 486.5,188.5 C 485.833,189.167 485.833,189.167 486.5,188.5 Z"/></g>
<g><path style="opacity:0.004" fill="#fefffe" d="M 485.5,189.5 C 484.833,190.167 484.833,190.167 485.5,189.5 Z"/></g>
<g><path style="opacity:0.004" fill="#fefffe" d="M 484.5,190.5 C 483.833,191.167 483.833,191.167 484.5,190.5 Z"/></g>
<g><path style="opacity:0.004" fill="#fefffe" d="M 483.5,191.5 C 482.833,192.167 482.833,192.167 483.5,191.5 Z"/></g>
<g><path style="opacity:0.004" fill="#fefffe" d="M 482.5,192.5 C 481.833,193.167 481.833,193.167 482.5,192.5 Z"/></g>
<g><path style="opacity:0.004" fill="#fefffe" d="M 481.5,193.5 C 480.833,194.167 480.833,194.167 481.5,193.5 Z"/></g>
<g><path style="opacity:0.004" fill="#fefffe" d="M 480.5,194.5 C 479.833,195.167 479.833,195.167 480.5,194.5 Z"/></g>
<g><path style="opacity:0.004" fill="#fefffe" d="M 479.5,195.5 C 478.833,196.167 478.833,196.167 479.5,195.5 Z"/></g>
<g><path style="opacity:0.004" fill="#fefffe" d="M 472.5,200.5 C 473.833,201.167 473.833,201.167 472.5,200.5 Z"/></g>
<g><path style="opacity:0.004" fill="#fefffe" d="M 472.5,201.5 C 471.833,202.167 471.833,202.167 472.5,201.5 Z"/></g>
<g><path style="opacity:0.004" fill="#fefffe" d="M 469.5,202.5 C 470.833,203.167 470.833,203.167 469.5,202.5 Z"/></g>
<g><path style="opacity:0.004" fill="#fefffe" d="M 467.5,203.5 C 468.833,204.167 468.833,204.167 467.5,203.5 Z"/></g>
<g><path style="opacity:0.004" fill="#fefffe" d="M 465.5,205.5 C 465.842,204.662 466.508,204.328 467.5,204.5C 467.158,205.338 466.492,205.672 465.5,205.5 Z"/></g>
<g><path style="opacity:0.004" fill="#fefffe" d="M 465.5,205.5 C 464.833,206.167 464.833,206.167 465.5,205.5 Z"/></g>
<g><path style="opacity:0.004" fill="#fefffe" d="M 462.5,206.5 C 463.833,207.167 463.833,207.167 462.5,206.5 Z"/></g>
<g><path style="opacity:0.004" fill="#fefffe" d="M 460.5,207.5 C 461.833,208.167 461.833,208.167 460.5,207.5 Z"/></g>
<g><path style="opacity:0.004" fill="#fefffe" d="M 458.5,208.5 C 459.833,209.167 459.833,209.167 458.5,208.5 Z"/></g>
<g><path style="opacity:0.004" fill="#fefffe" d="M 456.5,209.5 C 457.833,210.167 457.833,210.167 456.5,209.5 Z"/></g>
<g><path style="opacity:0.004" fill="#fefffe" d="M 454.5,210.5 C 455.833,211.167 455.833,211.167 454.5,210.5 Z"/></g>
<g><path style="opacity:0.004" fill="#fefffe" d="M 451.5,212.5 C 451.897,211.475 452.563,211.308 453.5,212C 452.906,212.464 452.239,212.631 451.5,212.5 Z"/></g>
<g><path style="opacity:0.004" fill="#fefffe" d="M 449.5,212.5 C 450.833,213.167 450.833,213.167 449.5,212.5 Z"/></g>
<g><path style="opacity:0.004" fill="#fefffe" d="M 446.5,214.5 C 446.897,213.475 447.563,213.308 448.5,214C 447.906,214.464 447.239,214.631 446.5,214.5 Z"/></g>
<g><path style="opacity:0.004" fill="#fefffe" d="M 446.5,214.5 C 445.833,215.167 445.833,215.167 446.5,214.5 Z"/></g>
<g><path style="opacity:0.004" fill="#fefffe" d="M 53.5,452.5 C 52.8333,453.167 52.8333,453.167 53.5,452.5 Z"/></g>
<g><path style="opacity:0.004" fill="#fefffe" d="M 50.5,454.5 C 51.8333,455.167 51.8333,455.167 50.5,454.5 Z"/></g>
<g><path style="opacity:0.004" fill="#fefffe" d="M 47.5,456.5 C 47.8966,455.475 48.5632,455.308 49.5,456C 48.9056,456.464 48.2389,456.631 47.5,456.5 Z"/></g>
<g><path style="opacity:0.004" fill="#fefffe" d="M 44.5,457.5 C 44.8966,456.475 45.5632,456.308 46.5,457C 45.9056,457.464 45.2389,457.631 44.5,457.5 Z"/></g>
<g><path style="opacity:0.004" fill="#fefffe" d="M 42.5,457.5 C 43.8333,458.167 43.8333,458.167 42.5,457.5 Z"/></g>
<g><path style="opacity:0.004" fill="#fefffe" d="M 39.5,459.5 C 39.8966,458.475 40.5632,458.308 41.5,459C 40.9056,459.464 40.2389,459.631 39.5,459.5 Z"/></g>
<g><path style="opacity:0.004" fill="#fefffe" d="M 37.5,459.5 C 38.8333,460.167 38.8333,460.167 37.5,459.5 Z"/></g>
<g><path style="opacity:0.004" fill="#fefffe" d="M 34.5,461.5 C 34.8966,460.475 35.5632,460.308 36.5,461C 35.9056,461.464 35.2389,461.631 34.5,461.5 Z"/></g>
<g><path style="opacity:0.004" fill="#fefffe" d="M 32.5,461.5 C 33.8333,462.167 33.8333,462.167 32.5,461.5 Z"/></g>
<g><path style="opacity:0.004" fill="#fefffe" d="M 29.5,463.5 C 29.8966,462.475 30.5632,462.308 31.5,463C 30.9056,463.464 30.2389,463.631 29.5,463.5 Z"/></g>
<g><path style="opacity:0.004" fill="#fefffe" d="M 27.5,463.5 C 28.8333,464.167 28.8333,464.167 27.5,463.5 Z"/></g>
<g><path style="opacity:0.004" fill="#fefffe" d="M 27.5,464.5 C 26.8333,465.167 26.8333,465.167 27.5,464.5 Z"/></g>
<g><path style="opacity:0.004" fill="#fefffe" d="M 24.5,465.5 C 25.8333,466.167 25.8333,466.167 24.5,465.5 Z"/></g>
<g><path style="opacity:0.004" fill="#fefffe" d="M 24.5,466.5 C 23.8333,467.167 23.8333,467.167 24.5,466.5 Z"/></g>
<g><path style="opacity:0.004" fill="#fefffe" d="M 21.5,467.5 C 22.8333,468.167 22.8333,468.167 21.5,467.5 Z"/></g>
<g><path style="opacity:0.004" fill="#fefffe" d="M 21.5,468.5 C 20.8333,469.167 20.8333,469.167 21.5,468.5 Z"/></g>
<g><path style="opacity:0.004" fill="#fefffe" d="M 18.5,469.5 C 19.8333,470.167 19.8333,470.167 18.5,469.5 Z"/></g>
<g><path style="opacity:0.004" fill="#fefffe" d="M 18.5,470.5 C 17.8333,471.167 17.8333,471.167 18.5,470.5 Z"/></g>
<g><path style="opacity:0.004" fill="#fefffe" d="M 15.5,471.5 C 16.8333,472.167 16.8333,472.167 15.5,471.5 Z"/></g>
<g><path style="opacity:0.004" fill="#fefffe" d="M 15.5,472.5 C 14.8333,473.167 14.8333,473.167 15.5,472.5 Z"/></g>
<g><path style="opacity:0.004" fill="#fefffe" d="M 12.5,473.5 C 13.8333,474.167 13.8333,474.167 12.5,473.5 Z"/></g>
<g><path style="opacity:0.004" fill="#fefffe" d="M 12.5,474.5 C 11.8333,475.167 11.8333,475.167 12.5,474.5 Z"/></g>
<g><path style="opacity:0.004" fill="#fefffe" d="M 9.5,475.5 C 10.8333,476.167 10.8333,476.167 9.5,475.5 Z"/></g>
<g><path style="opacity:0.004" fill="#fefffe" d="M 9.5,476.5 C 8.83333,477.167 8.83333,477.167 9.5,476.5 Z"/></g>
<g><path style="opacity:0.004" fill="#fefffe" d="M 8.5,477.5 C 7.83333,478.167 7.83333,478.167 8.5,477.5 Z"/></g>
<g><path style="opacity:0.004" fill="#fefffe" d="M 5.5,478.5 C 6.83333,479.167 6.83333,479.167 5.5,478.5 Z"/></g>
<g><path style="opacity:0.004" fill="#fefffe" d="M 5.5,479.5 C 4.83333,480.167 4.83333,480.167 5.5,479.5 Z"/></g>
<g><path style="opacity:0.004" fill="#fefffe" d="M 4.5,480.5 C 3.83333,481.167 3.83333,481.167 4.5,480.5 Z"/></g>
<g><path style="opacity:0.004" fill="#fefffe" d="M 431.5,481.5 C 432.525,481.897 432.692,482.563 432,483.5C 431.536,482.906 431.369,482.239 431.5,481.5 Z"/></g>
<g><path style="opacity:0.004" fill="#fefffe" d="M 0.5,482.5 C 1.83333,483.167 1.83333,483.167 0.5,482.5 Z"/></g>
<g><path style="opacity:0.004" fill="#fefffe" d="M -0.5,483.5 C -0.166667,483.5 0.166667,483.5 0.5,483.5C 0.31468,484.17 -0.0186536,484.17 -0.5,483.5 Z"/></g>
</svg>
