<?xml version="1.0" encoding="UTF-8"?>
<!DOCTYPE svg PUBLIC "-//W3C//DTD SVG 1.1//EN" "http://www.w3.org/Graphics/SVG/1.1/DTD/svg11.dtd">
<svg xmlns="http://www.w3.org/2000/svg" version="1.1" width="417px" height="171px" style="shape-rendering:geometricPrecision; text-rendering:geometricPrecision; image-rendering:optimizeQuality; fill-rule:evenodd; clip-rule:evenodd" xmlns:xlink="http://www.w3.org/1999/xlink">
<g><path style="opacity:0.012" fill="#fefffe" d="M 379.5,-0.5 C 380.167,-0.5 380.833,-0.5 381.5,-0.5C 384.308,12.9292 380.308,23.5958 369.5,31.5C 368.213,34.7087 368.213,37.8753 369.5,41C 366.356,45.7583 364.856,50.925 365,56.5C 368.734,53.0483 372.9,50.215 377.5,48C 382.765,40.9331 388.765,34.4331 395.5,28.5C 397.307,29.3951 398.64,30.7284 399.5,32.5C 398.272,35.2376 396.438,37.5709 394,39.5C 393.602,44.9629 391.769,49.7962 388.5,54C 388.833,54.3333 389.167,54.6667 389.5,55C 392.897,54.9874 396.23,54.3207 399.5,53C 404.792,48.5282 410.459,44.6948 416.5,41.5C 416.5,47.1667 416.5,52.8333 416.5,58.5C 414.883,59.5893 414.05,61.256 414,63.5C 404.723,70.5614 399.89,79.728 399.5,91C 393.967,96.1983 388.8,101.698 384,107.5C 382.991,109.025 382.491,110.692 382.5,112.5C 384.199,112.66 385.866,112.494 387.5,112C 391.188,110.487 394.855,108.987 398.5,107.5C 397.909,110.614 396.242,113.114 393.5,115C 381.138,117.833 368.805,120.666 356.5,123.5C 355.115,129.109 352.115,133.609 347.5,137C 346.721,143.797 346.221,150.63 346,157.5C 341.669,167.432 334.835,170.099 325.5,165.5C 320.541,166.66 315.874,168.327 311.5,170.5C 310.5,170.5 309.5,170.5 308.5,170.5C 307.032,167.722 306.199,164.722 306,161.5C 300.162,162.882 294.329,162.716 288.5,161C 282.5,156.667 276.5,152.333 270.5,148C 264.755,149.27 258.922,150.436 253,151.5C 243.549,152.536 239.382,148.369 240.5,139C 240.555,136.443 240.888,133.943 241.5,131.5C 240.333,131.167 239.167,130.833 238,130.5C 232.859,131.743 227.693,132.91 222.5,134C 198.511,136.495 174.511,136.828 150.5,135C 145.138,129.303 138.472,125.97 130.5,125C 124.854,124.027 119.187,123.193 113.5,122.5C 104.052,125.277 94.3851,126.943 84.5,127.5C 79.1695,126.97 73.8362,126.47 68.5,126C 65.1667,124 62.5,121.333 60.5,118C 54.7835,117.718 49.1169,117.052 43.5,116C 32.5478,110.857 21.8812,105.191 11.5,99C 7.5598,97.9847 3.5598,97.4847 -0.5,97.5C -0.5,97.1667 -0.5,96.8333 -0.5,96.5C 10.8594,95.0817 19.6928,89.7483 26,80.5C 27.5157,67.5009 27.849,54.5009 27,41.5C 28.8006,38.8366 31.3006,37.0033 34.5,36C 46.4992,36.2626 58.1659,38.4293 69.5,42.5C 75.8644,37.998 82.8644,36.498 90.5,38C 91.5947,40.2689 91.2614,42.4355 89.5,44.5C 90.7144,46.4212 92.2144,48.0879 94,49.5C 94.6514,51.235 94.4847,52.9017 93.5,54.5C 96.0409,55.9367 98.7076,57.1034 101.5,58C 110.205,60.061 118.871,62.2276 127.5,64.5C 133.315,63.1295 138.982,61.2962 144.5,59C 148.281,55.7943 151.615,52.1276 154.5,48C 159.167,47.3333 163.833,47.3333 168.5,48C 170.518,49.8573 172.185,52.024 173.5,54.5C 185.46,58.3135 196.793,63.4802 207.5,70C 211.649,71.887 215.649,71.7203 219.5,69.5C 222.837,71.1724 226.17,72.839 229.5,74.5C 234.424,73.0914 238.424,70.2581 241.5,66C 248.811,62.9741 256.478,61.6408 264.5,62C 274.266,59.1307 282.266,53.7974 288.5,46C 298.274,42.2822 307.274,37.2822 315.5,31C 316.64,29.0266 317.973,27.1933 319.5,25.5C 318.253,23.9579 318.253,22.4579 319.5,21C 329.897,18.801 338.897,13.9676 346.5,6.5C 348.069,7.71403 348.902,9.3807 349,11.5C 349.667,13.8333 349.667,16.1667 349,18.5C 346.622,23.5851 343.956,28.5851 341,33.5C 340.691,34.7659 340.191,35.9326 339.5,37C 339.833,37.1667 340.167,37.3333 340.5,37.5C 349.327,30.9866 357.493,23.6533 365,15.5C 365.993,12.692 366.827,9.85869 367.5,7C 371.407,4.24109 375.407,1.74109 379.5,-0.5 Z"/></g>
<g><path style="opacity:0.004" fill="#fefffe" d="M 398.5,106.5 C 399.833,107.167 399.833,107.167 398.5,106.5 Z"/></g>
</svg>
