<?xml version="1.0" encoding="UTF-8"?>
<!DOCTYPE svg PUBLIC "-//W3C//DTD SVG 1.1//EN" "http://www.w3.org/Graphics/SVG/1.1/DTD/svg11.dtd">
<svg xmlns="http://www.w3.org/2000/svg" version="1.1" width="196px" height="161px" style="shape-rendering:geometricPrecision; text-rendering:geometricPrecision; image-rendering:optimizeQuality; fill-rule:evenodd; clip-rule:evenodd" xmlns:xlink="http://www.w3.org/1999/xlink">
<g><path style="opacity:0.004" fill="#fefffe" d="M 188.5,-0.5 C 188.833,-0.5 189.167,-0.5 189.5,-0.5C 189.167,2.16667 188.833,2.16667 188.5,-0.5 Z"/></g>
<g><path style="opacity:0.004" fill="#fefffe" d="M 187.5,3.5 C 188.525,3.89657 188.692,4.56323 188,5.5C 187.536,4.90558 187.369,4.23891 187.5,3.5 Z"/></g>
<g><path style="opacity:0.012" fill="#fefffe" d="M 195.5,19.5 C 195.5,60.8333 195.5,102.167 195.5,143.5C 149.832,143.667 104.165,143.5 58.5,143C 49.1396,134.973 40.4729,126.306 32.5,117C 28.9434,114.602 25.2768,112.435 21.5,110.5C 19.8822,106.356 19.0489,102.022 19,97.5C 16.7263,93.2864 14.7263,88.9531 13,84.5C 1.44973,79.2215 -2.38361,70.3882 1.5,58C 1.19301,54.6235 0.526342,51.4569 -0.5,48.5C -0.5,47.8333 -0.5,47.1667 -0.5,46.5C 2.08713,42.7334 4.92047,39.0667 8,35.5C 7.66667,29.1667 7.33333,22.8333 7,16.5C 7.77464,10.9461 10.608,6.94606 15.5,4.5C 21.8333,9 28.1667,13.5 34.5,18C 84.4989,18.5 134.499,18.6667 184.5,18.5C 185.003,13.5 185.336,13.8333 185.5,19.5C 188.833,19.5 192.167,19.5 195.5,19.5 Z"/></g>
<g><path style="opacity:0.004" fill="#fefffe" d="M 186.5,6.5 C 187.525,6.89657 187.692,7.56323 187,8.5C 186.536,7.90558 186.369,7.23891 186.5,6.5 Z"/></g>
<g><path style="opacity:0.004" fill="#fefffe" d="M 185.5,10.5 C 186.525,10.8966 186.692,11.5632 186,12.5C 185.536,11.9056 185.369,11.2389 185.5,10.5 Z"/></g>
<g><path style="opacity:0.004" fill="#fefffe" d="M 59.5,144.5 C 60.6291,146.628 60.7958,148.961 60,151.5C 59.5034,149.19 59.3367,146.857 59.5,144.5 Z"/></g>
<g><path style="opacity:0.004" fill="#fefffe" d="M 60.5,152.5 C 61.8333,153.167 61.8333,153.167 60.5,152.5 Z"/></g>
<g><path style="opacity:0.004" fill="#fefffe" d="M 65.5,157.5 C 64.8333,156.167 64.8333,156.167 65.5,157.5 Z"/></g>
<g><path style="opacity:0.004" fill="#fefffe" d="M 65.5,157.5 C 66.8333,158.167 66.8333,158.167 65.5,157.5 Z"/></g>
<g><path style="opacity:0.004" fill="#fefffe" d="M 68.5,158.5 C 69.8333,159.167 69.8333,159.167 68.5,158.5 Z"/></g>
<g><path style="opacity:0.004" fill="#fefffe" d="M 70.5,160.5 C 71.1667,159.167 71.8333,159.167 72.5,160.5C 71.8333,160.5 71.1667,160.5 70.5,160.5 Z"/></g>
</svg>
