<?xml version="1.0" encoding="UTF-8"?>
<!DOCTYPE svg PUBLIC "-//W3C//DTD SVG 1.1//EN" "http://www.w3.org/Graphics/SVG/1.1/DTD/svg11.dtd">
<svg xmlns="http://www.w3.org/2000/svg" version="1.1" width="474px" height="243px" style="shape-rendering:geometricPrecision; text-rendering:geometricPrecision; image-rendering:optimizeQuality; fill-rule:evenodd; clip-rule:evenodd" xmlns:xlink="http://www.w3.org/1999/xlink">
<g><path style="opacity:0.004" fill="#fefffe" d="M 445.5,-0.5 C 445.833,-0.5 446.167,-0.5 446.5,-0.5C 446.315,0.170143 445.981,0.170143 445.5,-0.5 Z"/></g>
<g><path style="opacity:0.004" fill="#fefffe" d="M 445.5,0.5 C 444.833,1.16667 444.833,1.16667 445.5,0.5 Z"/></g>
<g><path style="opacity:0.004" fill="#fefffe" d="M 442.5,1.5 C 443.833,2.16667 443.833,2.16667 442.5,1.5 Z"/></g>
<g><path style="opacity:0.004" fill="#fefffe" d="M 442.5,2.5 C 441.833,3.16667 441.833,3.16667 442.5,2.5 Z"/></g>
<g><path style="opacity:0.004" fill="#fefffe" d="M 438.5,4.5 C 439.833,5.16667 439.833,5.16667 438.5,4.5 Z"/></g>
<g><path style="opacity:0.004" fill="#fefffe" d="M 438.5,5.5 C 437.833,6.16667 437.833,6.16667 438.5,5.5 Z"/></g>
<g><path style="opacity:0.004" fill="#fefffe" d="M 435.5,6.5 C 436.833,7.16667 436.833,7.16667 435.5,6.5 Z"/></g>
<g><path style="opacity:0.004" fill="#fefffe" d="M 435.5,7.5 C 434.833,8.16667 434.833,8.16667 435.5,7.5 Z"/></g>
<g><path style="opacity:0.004" fill="#fefffe" d="M 434.5,8.5 C 434.103,9.52502 433.437,9.69169 432.5,9C 433.094,8.53566 433.761,8.36899 434.5,8.5 Z"/></g>
<g><path style="opacity:0.004" fill="#fefffe" d="M 430.5,9.5 C 431.833,10.1667 431.833,10.1667 430.5,9.5 Z"/></g>
<g><path style="opacity:0.004" fill="#fefffe" d="M 428.5,10.5 C 429.833,11.1667 429.833,11.1667 428.5,10.5 Z"/></g>
<g><path style="opacity:0.004" fill="#fefffe" d="M 425.5,12.5 C 425.897,11.475 426.563,11.3083 427.5,12C 426.906,12.4643 426.239,12.631 425.5,12.5 Z"/></g>
<g><path style="opacity:0.004" fill="#fefffe" d="M 422.5,13.5 C 422.897,12.475 423.563,12.3083 424.5,13C 423.906,13.4643 423.239,13.631 422.5,13.5 Z"/></g>
<g><path style="opacity:0.004" fill="#fefffe" d="M 418.5,14.5 C 418.897,13.475 419.563,13.3083 420.5,14C 419.906,14.4643 419.239,14.631 418.5,14.5 Z"/></g>
<g><path style="opacity:0.004" fill="#fefffe" d="M 415.5,15.5 C 415.897,14.475 416.563,14.3083 417.5,15C 416.906,15.4643 416.239,15.631 415.5,15.5 Z"/></g>
<g><path style="opacity:0.004" fill="#fefffe" d="M 409.5,16.5 C 410.601,15.4017 411.934,15.235 413.5,16C 412.207,16.49 410.873,16.6567 409.5,16.5 Z"/></g>
<g><path style="opacity:0.004" fill="#fefffe" d="M 401.5,17.5 C 402.946,16.3871 404.613,16.2204 406.5,17C 404.866,17.4935 403.199,17.6602 401.5,17.5 Z"/></g>
<g><path style="opacity:0.004" fill="#fefffe" d="M 393.5,18.5 C 394.946,17.3871 396.613,17.2204 398.5,18C 396.866,18.4935 395.199,18.6602 393.5,18.5 Z"/></g>
<g><path style="opacity:0.004" fill="#fefffe" d="M 390.5,19.5 C 390.897,18.475 391.563,18.3083 392.5,19C 391.906,19.4643 391.239,19.631 390.5,19.5 Z"/></g>
<g><path style="opacity:0.004" fill="#fefffe" d="M 387.5,20.5 C 387.897,19.475 388.563,19.3083 389.5,20C 388.906,20.4643 388.239,20.631 387.5,20.5 Z"/></g>
<g><path style="opacity:0.004" fill="#fefffe" d="M 384.5,20.5 C 385.833,21.1667 385.833,21.1667 384.5,20.5 Z"/></g>
<g><path style="opacity:0.004" fill="#fefffe" d="M 381.5,21.5 C 382.833,22.1667 382.833,22.1667 381.5,21.5 Z"/></g>
<g><path style="opacity:0.004" fill="#fefffe" d="M 379.5,23.5 C 379.842,22.6618 380.508,22.3284 381.5,22.5C 381.158,23.3382 380.492,23.6716 379.5,23.5 Z"/></g>
<g><path style="opacity:0.004" fill="#fefffe" d="M 379.5,23.5 C 378.833,24.1667 378.833,24.1667 379.5,23.5 Z"/></g>
<g><path style="opacity:0.004" fill="#fefffe" d="M 376.5,24.5 C 377.833,25.1667 377.833,25.1667 376.5,24.5 Z"/></g>
<g><path style="opacity:0.004" fill="#fefffe" d="M 373.5,26.5 C 374.833,27.1667 374.833,27.1667 373.5,26.5 Z"/></g>
<g><path style="opacity:0.012" fill="#fefffe" d="M 373.5,27.5 C 373.864,32.2474 372.198,36.0807 368.5,39C 357.15,45.1773 345.484,50.5106 333.5,55C 330.453,59.085 327.953,63.585 326,68.5C 324.167,70.3333 322.333,72.1667 320.5,74C 308.721,78.3898 297.054,83.0565 285.5,88C 280.796,92.3673 277.296,97.5339 275,103.5C 272.749,105.377 270.249,106.877 267.5,108C 271.833,108.667 276.167,108.667 280.5,108C 288.046,105.262 295.713,102.929 303.5,101C 306.128,99.3745 308.461,97.3745 310.5,95C 315.372,94.7538 320.205,94.2538 325,93.5C 328.772,89.4683 331.938,84.9683 334.5,80C 343.027,75.1449 350.693,69.1449 357.5,62C 359.387,61.8374 360.887,62.6707 362,64.5C 364.113,69.1914 363.446,73.5248 360,77.5C 356.492,79.5871 353.158,81.9204 350,84.5C 348.918,89.2478 347.585,93.9145 346,98.5C 343.285,101.731 339.785,103.564 335.5,104C 332.328,105.752 329.328,107.752 326.5,110C 321.476,110.919 316.476,111.919 311.5,113C 307.686,115.481 305.519,118.981 305,123.5C 302.926,125.452 300.759,127.285 298.5,129C 301.61,131.657 303.61,134.991 304.5,139C 307.904,141.816 311.57,142.149 315.5,140C 317.641,138.692 319.641,137.192 321.5,135.5C 322.768,136.428 324.101,136.595 325.5,136C 328.167,133 330.833,130 333.5,127C 336.244,126.197 338.911,125.197 341.5,124C 351.035,114.461 361.702,106.461 373.5,100C 378.573,94.2561 384.24,89.2561 390.5,85C 396.097,83.5439 401.763,83.2106 407.5,84C 408.78,86.1317 408.78,88.2984 407.5,90.5C 400.964,94.5999 394.298,98.4332 387.5,102C 391.327,104.905 391.327,107.905 387.5,111C 373.11,117.532 360.443,126.532 349.5,138C 357.559,139.414 365.225,138.414 372.5,135C 376.88,130.289 380.88,125.289 384.5,120C 390.13,118.815 395.797,117.815 401.5,117C 406.19,112.973 410.19,108.306 413.5,103C 414.672,102.581 415.672,101.915 416.5,101C 419.956,100.82 423.289,100.153 426.5,99C 435.833,91.6667 445.167,84.3333 454.5,77C 456.891,76.7132 459.224,76.2132 461.5,75.5C 461.757,77.082 462.424,78.9153 463.5,81C 452.535,90.811 441.202,100.144 429.5,109C 426.316,110.504 423.149,112.004 420,113.5C 421.245,119.104 420.412,124.438 417.5,129.5C 408.623,130.469 400.29,133.136 392.5,137.5C 391.873,143.214 389.54,148.047 385.5,152C 360.707,159.115 335.707,165.448 310.5,171C 307.661,172.92 304.661,174.587 301.5,176C 291.5,188.667 281.5,201.333 271.5,214C 264.776,217.654 257.609,219.487 250,219.5C 245.026,226.964 240.526,234.631 236.5,242.5C 236.167,242.5 235.833,242.5 235.5,242.5C 234.532,237.904 233.699,233.237 233,228.5C 232.028,226.695 230.861,225.028 229.5,223.5C 221.654,222.874 214.321,220.708 207.5,217C 205.69,212.38 203.357,208.046 200.5,204C 198.833,203.333 197.167,203.333 195.5,204C 187.806,213.007 178.14,216.007 166.5,213C 164.226,211.235 162.559,209.068 161.5,206.5C 162.914,202.34 164.247,198.173 165.5,194C 163.645,193.578 161.811,193.078 160,192.5C 154.268,194.8 148.434,196.8 142.5,198.5C 134.054,197.054 130.054,192.054 130.5,183.5C 125.73,183.308 121.063,182.475 116.5,181C 107.564,178.651 100.064,180.818 94,187.5C 92.3742,189.917 90.8742,192.417 89.5,195C 82.2783,199.104 74.945,199.104 67.5,195C 63.1321,190.967 59.1321,186.634 55.5,182C 44.4103,182.916 33.9103,186.083 24,191.5C 20.1622,191.055 16.6622,189.721 13.5,187.5C 15.1184,185.684 17.1184,184.351 19.5,183.5C 20.6609,179.205 20.8275,174.871 20,170.5C 15.7002,165.199 11.0336,160.199 6,155.5C 3.96797,148.998 1.80131,142.665 -0.5,136.5C -0.5,135.833 -0.5,135.167 -0.5,134.5C 7.30605,137.33 15.3061,138.33 23.5,137.5C 23.6574,131.574 22.9908,125.741 21.5,120C 21.7413,118.016 22.4079,116.183 23.5,114.5C 30.2766,112.213 37.2766,110.88 44.5,110.5C 48.0441,114.207 52.0441,117.374 56.5,120C 60.1221,121.106 63.7887,121.439 67.5,121C 68.1873,117.234 68.3539,113.401 68,109.5C 70.4469,104.38 72.2803,99.0462 73.5,93.5C 80.4115,92.9183 87.2448,91.9183 94,90.5C 97.4888,93.3196 100.989,96.153 104.5,99C 111.687,99.91 117.354,97.2434 121.5,91C 132.19,90.7273 142.524,88.7273 152.5,85C 156.8,81.7019 160.8,78.0352 164.5,74C 172.491,73.2314 180.491,72.5648 188.5,72C 195.436,68.0604 202.103,63.727 208.5,59C 215.216,55.2568 222.216,53.0901 229.5,52.5C 224.194,60.3061 218.694,67.9727 213,75.5C 211.655,81.581 213.988,84.9144 220,85.5C 224.866,83.2088 230.032,81.7088 235.5,81C 237.333,79.1667 239.167,77.3333 241,75.5C 243.176,77.8749 245.343,80.2082 247.5,82.5C 251.251,80.1349 253.585,76.8016 254.5,72.5C 256.642,71.3995 258.808,70.3995 261,69.5C 265.415,71.6227 269.582,74.1227 273.5,77C 276.833,77.6667 280.167,77.6667 283.5,77C 289.833,74.6667 296.167,72.3333 302.5,70C 307.833,66.6667 313.167,63.3333 318.5,60C 319.43,58.8061 320.097,57.4728 320.5,56C 319.359,53.5514 318.359,51.0514 317.5,48.5C 317.833,47.8333 318.167,47.1667 318.5,46.5C 323.464,45.1953 328.464,44.0286 333.5,43C 339.989,38.4221 346.989,34.9221 354.5,32.5C 355.689,32.7556 356.856,33.0889 358,33.5C 363.137,31.3454 368.303,29.3454 373.5,27.5 Z"/></g>
<g><path style="opacity:0.004" fill="#fefffe" d="M 473.5,72.5 C 473.5,72.8333 473.5,73.1667 473.5,73.5C 469.5,73.1667 469.5,72.8333 473.5,72.5 Z"/></g>
<g><path style="opacity:0.004" fill="#fefffe" d="M 466.5,73.5 C 467.833,74.1667 467.833,74.1667 466.5,73.5 Z"/></g>
<g><path style="opacity:0.004" fill="#fefffe" d="M 463.5,75.5 C 463.897,74.475 464.563,74.3083 465.5,75C 464.906,75.4643 464.239,75.631 463.5,75.5 Z"/></g>
<g><path style="opacity:0.004" fill="#fefffe" d="M 265.5,223.5 C 266.833,224.167 266.833,224.167 265.5,223.5 Z"/></g>
<g><path style="opacity:0.004" fill="#fefffe" d="M 263.5,224.5 C 264.833,225.167 264.833,225.167 263.5,224.5 Z"/></g>
<g><path style="opacity:0.004" fill="#fefffe" d="M 263.5,225.5 C 262.833,226.167 262.833,226.167 263.5,225.5 Z"/></g>
</svg>
