<?xml version="1.0" encoding="UTF-8"?>
<!DOCTYPE svg PUBLIC "-//W3C//DTD SVG 1.1//EN" "http://www.w3.org/Graphics/SVG/1.1/DTD/svg11.dtd">
<svg xmlns="http://www.w3.org/2000/svg" version="1.1" width="349px" height="329px" style="shape-rendering:geometricPrecision; text-rendering:geometricPrecision; image-rendering:optimizeQuality; fill-rule:evenodd; clip-rule:evenodd" xmlns:xlink="http://www.w3.org/1999/xlink">
<g><path style="opacity:0.012" fill="#fefffe" d="M 251.5,-0.5 C 264.833,-0.5 278.167,-0.5 291.5,-0.5C 300.347,0.33046 309.347,1.16379 318.5,2C 319.833,2.66667 321.167,3.33333 322.5,4C 331.718,16.2578 339.551,29.4244 346,43.5C 346.695,62.5559 344.361,81.2225 339,99.5C 338.502,102.482 338.335,105.482 338.5,108.5C 343.485,108.195 346.818,110.195 348.5,114.5C 348.5,115.833 348.5,117.167 348.5,118.5C 341.622,125.298 338.788,133.632 340,143.5C 333.851,146.664 327.684,149.83 321.5,153C 318.167,153.667 314.833,153.667 311.5,153C 307.534,150.036 303.867,146.703 300.5,143C 297.406,142.348 294.406,142.682 291.5,144C 288.833,146.667 286.167,149.333 283.5,152C 280.065,153.699 276.565,155.199 273,156.5C 270.791,154.627 268.958,152.46 267.5,150C 264.833,149.667 262.167,149.333 259.5,149C 257.709,146.586 256.043,144.086 254.5,141.5C 246.429,148.702 237.096,153.536 226.5,156C 226.043,156.414 225.709,156.914 225.5,157.5C 226.521,161.023 228.855,162.856 232.5,163C 233.787,164.41 234.954,165.91 236,167.5C 236.175,177.213 235.508,186.88 234,196.5C 227.749,200.874 222.249,206.041 217.5,212C 214.072,213.94 210.406,215.106 206.5,215.5C 207.111,220.108 208.111,224.608 209.5,229C 208.5,230.667 207.5,232.333 206.5,234C 200.126,233.453 194.959,235.62 191,240.5C 191.173,246.185 191.506,251.852 192,257.5C 187.967,261.868 183.634,265.868 179,269.5C 176.442,276.79 172.276,282.957 166.5,288C 158.939,291.124 151.272,291.291 143.5,288.5C 136.625,290.133 129.958,292.133 123.5,294.5C 106.825,289.332 89.6587,285.999 72,284.5C 61.9232,285.622 52.7565,289.122 44.5,295C 37.6617,296.405 31.3284,295.239 25.5,291.5C 24.549,292.326 23.549,292.492 22.5,292C 27.7581,278.299 31.2581,264.132 33,249.5C 39.1248,238.039 46.7914,227.706 56,218.5C 60.4642,210.383 62.1309,201.717 61,192.5C 57.2793,178.117 54.1126,163.617 51.5,149C 52.0976,141.61 52.7642,134.277 53.5,127C 52.5805,124.165 51.5805,121.332 50.5,118.5C 54.9316,111.899 59.9316,105.732 65.5,100C 70.0222,99.9606 74.5222,100.461 79,101.5C 84.6093,92.2434 92.7759,86.4101 103.5,84C 115.664,82.5004 127.664,80.1671 139.5,77C 143.007,74.746 146.673,72.746 150.5,71C 171.22,55.2801 192.22,39.9468 213.5,25C 221.388,21.5563 229.388,18.3897 237.5,15.5C 241.188,9.1561 245.854,3.82277 251.5,-0.5 Z"/></g>
<g><path style="opacity:0.004" fill="#fefffe" d="M 19.5,292.5 C 20.8333,293.167 20.8333,293.167 19.5,292.5 Z"/></g>
<g><path style="opacity:0.004" fill="#fefffe" d="M 21.5,296.5 C 20.475,296.103 20.3083,295.437 21,294.5C 21.4643,295.094 21.631,295.761 21.5,296.5 Z"/></g>
<g><path style="opacity:0.004" fill="#fefffe" d="M 123.5,294.5 C 122.833,295.167 122.833,295.167 123.5,294.5 Z"/></g>
<g><path style="opacity:0.004" fill="#fefffe" d="M 122.5,295.5 C 122.631,296.239 122.464,296.906 122,297.5C 121.308,296.563 121.475,295.897 122.5,295.5 Z"/></g>
<g><path style="opacity:0.004" fill="#fefffe" d="M 133.5,296.5 C 138.65,295.349 143.984,295.183 149.5,296C 144.177,296.499 138.844,296.666 133.5,296.5 Z"/></g>
<g><path style="opacity:0.004" fill="#fefffe" d="M 21.5,296.5 C 22.525,296.897 22.6917,297.563 22,298.5C 21.5357,297.906 21.369,297.239 21.5,296.5 Z"/></g>
<g><path style="opacity:0.004" fill="#fefffe" d="M 129.5,297.5 C 129.897,296.475 130.563,296.308 131.5,297C 130.906,297.464 130.239,297.631 129.5,297.5 Z"/></g>
<g><path style="opacity:0.004" fill="#fefffe" d="M 163.5,297.5 C 163.897,296.475 164.563,296.308 165.5,297C 164.906,297.464 164.239,297.631 163.5,297.5 Z"/></g>
<g><path style="opacity:0.004" fill="#fefffe" d="M 125.5,298.5 C 125.897,297.475 126.563,297.308 127.5,298C 126.906,298.464 126.239,298.631 125.5,298.5 Z"/></g>
<g><path style="opacity:0.004" fill="#fefffe" d="M 167.5,298.5 C 167.897,297.475 168.563,297.308 169.5,298C 168.906,298.464 168.239,298.631 167.5,298.5 Z"/></g>
<g><path style="opacity:0.004" fill="#fefffe" d="M 122.5,299.5 C 122.897,298.475 123.563,298.308 124.5,299C 123.906,299.464 123.239,299.631 122.5,299.5 Z"/></g>
<g><path style="opacity:0.004" fill="#fefffe" d="M 171.5,299.5 C 171.897,298.475 172.563,298.308 173.5,299C 172.906,299.464 172.239,299.631 171.5,299.5 Z"/></g>
<g><path style="opacity:0.004" fill="#fefffe" d="M 23.5,300.5 C 22.8333,299.167 22.8333,299.167 23.5,300.5 Z"/></g>
<g><path style="opacity:0.004" fill="#fefffe" d="M 23.5,300.5 C 24.1667,300.5 24.5,300.833 24.5,301.5C 24.1667,301.167 23.8333,300.833 23.5,300.5 Z"/></g>
<g><path style="opacity:0.004" fill="#fefffe" d="M 24.5,301.5 C 25.1667,301.5 25.5,301.833 25.5,302.5C 25.1667,302.167 24.8333,301.833 24.5,301.5 Z"/></g>
<g><path style="opacity:0.004" fill="#fefffe" d="M 25.5,302.5 C 26.8333,303.167 26.8333,303.167 25.5,302.5 Z"/></g>
<g><path style="opacity:0.004" fill="#fefffe" d="M 26.5,304.5 C 27.8333,305.167 27.8333,305.167 26.5,304.5 Z"/></g>
<g><path style="opacity:0.004" fill="#fefffe" d="M 25.5,307.5 C 25.8966,306.475 26.5632,306.308 27.5,307C 26.9056,307.464 26.2389,307.631 25.5,307.5 Z"/></g>
<g><path style="opacity:0.004" fill="#fefffe" d="M 25.5,307.5 C 24.8333,308.167 24.8333,308.167 25.5,307.5 Z"/></g>
<g><path style="opacity:0.004" fill="#fefffe" d="M 22.5,308.5 C 23.8333,309.167 23.8333,309.167 22.5,308.5 Z"/></g>
<g><path style="opacity:0.004" fill="#fefffe" d="M 20.5,309.5 C 21.8333,310.167 21.8333,310.167 20.5,309.5 Z"/></g>
<g><path style="opacity:0.004" fill="#fefffe" d="M 18.5,310.5 C 19.8333,311.167 19.8333,311.167 18.5,310.5 Z"/></g>
<g><path style="opacity:0.004" fill="#fefffe" d="M 16.5,311.5 C 17.8333,312.167 17.8333,312.167 16.5,311.5 Z"/></g>
<g><path style="opacity:0.004" fill="#fefffe" d="M 16.5,312.5 C 15.8333,313.167 15.8333,313.167 16.5,312.5 Z"/></g>
<g><path style="opacity:0.004" fill="#fefffe" d="M 13.5,313.5 C 14.8333,314.167 14.8333,314.167 13.5,313.5 Z"/></g>
<g><path style="opacity:0.004" fill="#fefffe" d="M 13.5,314.5 C 12.8333,315.167 12.8333,315.167 13.5,314.5 Z"/></g>
<g><path style="opacity:0.004" fill="#fefffe" d="M 12.5,315.5 C 11.8333,316.167 11.8333,316.167 12.5,315.5 Z"/></g>
<g><path style="opacity:0.004" fill="#fefffe" d="M 11.5,316.5 C 10.8333,317.167 10.8333,317.167 11.5,316.5 Z"/></g>
<g><path style="opacity:0.004" fill="#fefffe" d="M 5.5,320.5 C 6.83333,321.167 6.83333,321.167 5.5,320.5 Z"/></g>
<g><path style="opacity:0.004" fill="#fefffe" d="M 5.5,321.5 C 4.83333,322.167 4.83333,322.167 5.5,321.5 Z"/></g>
<g><path style="opacity:0.004" fill="#fefffe" d="M 4.5,322.5 C 3.83333,323.167 3.83333,323.167 4.5,322.5 Z"/></g>
<g><path style="opacity:0.004" fill="#fefffe" d="M 3.5,323.5 C 2.83333,324.167 2.83333,324.167 3.5,323.5 Z"/></g>
<g><path style="opacity:0.004" fill="#fefffe" d="M 2.5,324.5 C 1.83333,325.167 1.83333,325.167 2.5,324.5 Z"/></g>
<g><path style="opacity:0.004" fill="#fefffe" d="M 1.5,325.5 C 1.67158,326.492 1.33825,327.158 0.5,327.5C 0.32842,326.508 0.661754,325.842 1.5,325.5 Z"/></g>
<g><path style="opacity:0.004" fill="#fefffe" d="M -0.5,327.5 C -0.166667,327.5 0.166667,327.5 0.5,327.5C 0.5,327.833 0.5,328.167 0.5,328.5C 0.166667,328.167 -0.166667,327.833 -0.5,327.5 Z"/></g>
</svg>
