<?xml version="1.0" encoding="UTF-8"?>
<!DOCTYPE svg PUBLIC "-//W3C//DTD SVG 1.1//EN" "http://www.w3.org/Graphics/SVG/1.1/DTD/svg11.dtd">
<svg xmlns="http://www.w3.org/2000/svg" version="1.1" width="667px" height="387px" style="shape-rendering:geometricPrecision; text-rendering:geometricPrecision; image-rendering:optimizeQuality; fill-rule:evenodd; clip-rule:evenodd" xmlns:xlink="http://www.w3.org/1999/xlink">
<g><path style="opacity:0.012" fill="#fefffe" d="M 360.5,-0.5 C 362.167,-0.5 363.833,-0.5 365.5,-0.5C 365.5,1.16667 365.5,2.83333 365.5,4.5C 371.856,5.83871 378.189,7.33871 384.5,9C 385.878,10.7134 387.545,12.0467 389.5,13C 396.711,12.6189 402.711,14.9522 407.5,20C 409.955,21.3116 412.455,22.4782 415,23.5C 420.407,19.168 426.407,17.5013 433,18.5C 433.405,21.78 434.905,24.28 437.5,26C 441.958,27.3112 446.458,28.4778 451,29.5C 454.619,27.7931 458.453,27.2931 462.5,28C 468.668,36.6141 477.001,39.9474 487.5,38C 489.604,37.2092 490.937,35.7092 491.5,33.5C 502.044,34.6105 512.377,36.7772 522.5,40C 524.444,41.4205 526.277,42.9205 528,44.5C 531.401,44.3898 533.401,42.7231 534,39.5C 536.384,43.8931 539.551,47.7265 543.5,51C 552.631,58.4619 561.464,66.2952 570,74.5C 573,78.8333 576,83.1667 579,87.5C 581.123,97.1963 578.29,105.03 570.5,111C 566.026,113.973 561.693,117.14 557.5,120.5C 551.371,132.58 554.704,141.08 567.5,146C 581.17,146.145 594.837,146.145 608.5,146C 616.265,148.677 620.265,154.177 620.5,162.5C 617.602,176.464 610.935,188.297 600.5,198C 597.088,199.455 593.921,201.288 591,203.5C 590.851,209.342 589.851,215.008 588,220.5C 580.39,229.116 571.89,236.616 562.5,243C 549.12,248.845 535.12,252.178 520.5,253C 509.749,256.878 499.416,261.544 489.5,267C 485.833,267.333 482.167,267.667 478.5,268C 472.5,271.333 466.5,274.667 460.5,278C 456.916,279.073 453.25,279.74 449.5,280C 447.59,280.408 446.59,281.575 446.5,283.5C 446.97,285.774 447.97,287.774 449.5,289.5C 448.752,291.332 447.752,292.999 446.5,294.5C 433.706,304.234 419.373,310.067 403.5,312C 398.531,309.516 393.531,307.016 388.5,304.5C 386.459,305.236 384.459,306.069 382.5,307C 381.842,311.816 379.342,315.316 375,317.5C 373.237,314.98 371.237,312.647 369,310.5C 367.167,312.333 365.333,314.167 363.5,316C 357.867,315.9 352.7,317.4 348,320.5C 341.702,319.594 339.035,315.927 340,309.5C 345.5,302 351,294.5 356.5,287C 349.927,287.967 343.594,289.967 337.5,293C 331.167,297.333 324.833,301.667 318.5,306C 309.833,307 301.167,308 292.5,309C 289.167,312.333 285.833,315.667 282.5,319C 271.918,323.351 260.918,325.685 249.5,326C 246.688,328.901 243.688,331.568 240.5,334C 238.167,334.667 235.833,334.667 233.5,334C 229.636,330.908 225.636,328.074 221.5,325.5C 214.935,327.133 208.268,327.8 201.5,327.5C 201.077,332.864 199.577,337.864 197,342.5C 196.283,346.045 196.45,349.545 197.5,353C 197.241,354.261 196.574,355.261 195.5,356C 186.569,356.701 179.569,353.368 174.5,346C 167.105,345.722 159.772,346.389 152.5,348C 151.5,349.667 150.5,351.333 149.5,353C 151.937,359.341 152.604,365.841 151.5,372.5C 149.453,372.511 147.453,372.844 145.5,373.5C 136.953,371.196 128.286,369.53 119.5,368.5C 109.48,370.226 99.4802,372.059 89.5,374C 80.1695,377.668 71.1695,381.835 62.5,386.5C 60.1667,386.5 57.8333,386.5 55.5,386.5C 51.3223,380.864 46.6556,375.531 41.5,370.5C 35.81,373.457 29.81,374.624 23.5,374C 19.83,370.754 17.9967,366.588 18,361.5C 15.8404,354.502 12.1737,348.502 7,343.5C 4.56667,342.521 2.06667,341.855 -0.5,341.5C -0.5,340.5 -0.5,339.5 -0.5,338.5C 1.52175,331.254 3.68842,323.921 6,316.5C 7.79272,315.03 9.79272,314.03 12,313.5C 14.8075,314.386 17.6408,314.553 20.5,314C 25.5825,311.736 29.9158,308.569 33.5,304.5C 32.3154,300.644 29.982,297.644 26.5,295.5C 30,288.5 33.5,281.5 37,274.5C 38.704,267.349 40.8707,260.349 43.5,253.5C 46.5596,255.696 49.893,257.363 53.5,258.5C 55.0004,258.547 56.0004,257.881 56.5,256.5C 55.9067,254.618 55.2401,252.785 54.5,251C 58.9545,245.872 62.6211,240.205 65.5,234C 57.2047,218.902 60.038,206.402 74,196.5C 78.7725,199.396 83.6059,199.729 88.5,197.5C 87.8423,191.757 88.5089,186.09 90.5,180.5C 93.2456,178.377 96.079,176.377 99,174.5C 99.7732,165.587 98.6066,156.92 95.5,148.5C 101.863,141.97 108.697,135.97 116,130.5C 116.056,124.174 116.889,118.007 118.5,112C 117.142,108.927 115.975,105.76 115,102.5C 114.818,96.1031 114.152,89.7697 113,83.5C 110.133,79.6378 106.966,76.1378 103.5,73C 104.805,69.4179 106.305,65.9179 108,62.5C 112.333,73.5169 119.666,81.8502 130,87.5C 131.667,91.8333 133.333,96.1667 135,100.5C 135.105,113.242 136.105,125.908 138,138.5C 139.443,143.389 141.443,148.055 144,152.5C 150.665,154.154 155.998,157.821 160,163.5C 163.038,170.409 166.205,177.242 169.5,184C 177.955,187.727 186.288,191.727 194.5,196C 201.328,196.874 208.162,197.708 215,198.5C 228.581,196.48 241.747,192.98 254.5,188C 258.613,180.554 264.613,175.221 272.5,172C 273.5,171.333 274.5,171.333 275.5,172C 276.305,173.972 277.639,175.472 279.5,176.5C 287.557,175.231 295.557,173.731 303.5,172C 309.597,164.23 316.097,156.73 323,149.5C 322.544,146.572 322.544,143.572 323,140.5C 331.17,133.52 334.836,124.854 334,114.5C 336.057,110.777 339.057,108.11 343,106.5C 340.811,89.0101 342.811,72.0101 349,55.5C 356.286,48.9142 360.953,40.9142 363,31.5C 364,30.8333 365,30.1667 366,29.5C 365.561,19.5068 363.061,10.0068 358.5,1C 359.416,0.721579 360.082,0.221579 360.5,-0.5 Z"/></g>
<g><path style="opacity:0.004" fill="#fefffe" d="M 666.5,75.5 C 666.5,75.8333 666.5,76.1667 666.5,76.5C 663.833,76.1667 663.833,75.8333 666.5,75.5 Z"/></g>
<g><path style="opacity:0.004" fill="#fefffe" d="M 662.5,76.5 C 663.833,77.1667 663.833,77.1667 662.5,76.5 Z"/></g>
<g><path style="opacity:0.004" fill="#fefffe" d="M 659.5,77.5 C 660.833,78.1667 660.833,78.1667 659.5,77.5 Z"/></g>
<g><path style="opacity:0.004" fill="#fefffe" d="M 656.5,78.5 C 657.833,79.1667 657.833,79.1667 656.5,78.5 Z"/></g>
<g><path style="opacity:0.004" fill="#fefffe" d="M 656.5,79.5 C 655.833,80.1667 655.833,80.1667 656.5,79.5 Z"/></g>
<g><path style="opacity:0.004" fill="#fefffe" d="M 655.5,80.5 C 654.833,81.1667 654.833,81.1667 655.5,80.5 Z"/></g>
<g><path style="opacity:0.004" fill="#fefffe" d="M 652.5,83.5 C 653.833,84.1667 653.833,84.1667 652.5,83.5 Z"/></g>
<g><path style="opacity:0.004" fill="#fefffe" d="M 652.5,84.5 C 651.833,85.1667 651.833,85.1667 652.5,84.5 Z"/></g>
<g><path style="opacity:0.004" fill="#fefffe" d="M 649.5,87.5 C 650.833,88.1667 650.833,88.1667 649.5,87.5 Z"/></g>
<g><path style="opacity:0.004" fill="#fefffe" d="M 649.5,88.5 C 648.833,89.1667 648.833,89.1667 649.5,88.5 Z"/></g>
<g><path style="opacity:0.004" fill="#fefffe" d="M 648.5,89.5 C 647.833,90.1667 647.833,90.1667 648.5,89.5 Z"/></g>
<g><path style="opacity:0.004" fill="#fefffe" d="M 645.5,92.5 C 646.833,93.1667 646.833,93.1667 645.5,92.5 Z"/></g>
<g><path style="opacity:0.004" fill="#fefffe" d="M 645.5,93.5 C 644.833,94.1667 644.833,94.1667 645.5,93.5 Z"/></g>
<g><path style="opacity:0.004" fill="#fefffe" d="M 644.5,94.5 C 643.833,95.1667 643.833,95.1667 644.5,94.5 Z"/></g>
<g><path style="opacity:0.004" fill="#fefffe" d="M 641.5,97.5 C 642.833,98.1667 642.833,98.1667 641.5,97.5 Z"/></g>
<g><path style="opacity:0.004" fill="#fefffe" d="M 641.5,98.5 C 640.833,99.1667 640.833,99.1667 641.5,98.5 Z"/></g>
<g><path style="opacity:0.004" fill="#fefffe" d="M 639.5,101.5 C 640.833,102.167 640.833,102.167 639.5,101.5 Z"/></g>
<g><path style="opacity:0.004" fill="#fefffe" d="M 638.5,103.5 C 639.525,103.897 639.692,104.563 639,105.5C 638.536,104.906 638.369,104.239 638.5,103.5 Z"/></g>
<g><path style="opacity:0.004" fill="#fefffe" d="M 637.5,106.5 C 638.833,107.167 638.833,107.167 637.5,106.5 Z"/></g>
<g><path style="opacity:0.004" fill="#fefffe" d="M 636.5,109.5 C 637.833,110.167 637.833,110.167 636.5,109.5 Z"/></g>
<g><path style="opacity:0.004" fill="#fefffe" d="M 635.5,111.5 C 636.833,112.167 636.833,112.167 635.5,111.5 Z"/></g>
<g><path style="opacity:0.004" fill="#fefffe" d="M 634.5,114.5 C 635.833,115.167 635.833,115.167 634.5,114.5 Z"/></g>
<g><path style="opacity:0.004" fill="#fefffe" d="M 633.5,116.5 C 634.525,116.897 634.692,117.563 634,118.5C 633.536,117.906 633.369,117.239 633.5,116.5 Z"/></g>
<g><path style="opacity:0.004" fill="#fefffe" d="M 632.5,119.5 C 633.833,120.167 633.833,120.167 632.5,119.5 Z"/></g>
<g><path style="opacity:0.004" fill="#fefffe" d="M 631.5,122.5 C 632.833,123.167 632.833,123.167 631.5,122.5 Z"/></g>
<g><path style="opacity:0.004" fill="#fefffe" d="M 630.5,124.5 C 631.833,125.167 631.833,125.167 630.5,124.5 Z"/></g>
<g><path style="opacity:0.004" fill="#fefffe" d="M 629.5,126.5 C 630.833,127.167 630.833,127.167 629.5,126.5 Z"/></g>
<g><path style="opacity:0.004" fill="#fefffe" d="M 628.5,128.5 C 629.833,129.167 629.833,129.167 628.5,128.5 Z"/></g>
<g><path style="opacity:0.004" fill="#fefffe" d="M 627.5,130.5 C 628.833,131.167 628.833,131.167 627.5,130.5 Z"/></g>
<g><path style="opacity:0.004" fill="#fefffe" d="M 626.5,132.5 C 627.833,133.167 627.833,133.167 626.5,132.5 Z"/></g>
<g><path style="opacity:0.004" fill="#fefffe" d="M 625.5,134.5 C 626.833,135.167 626.833,135.167 625.5,134.5 Z"/></g>
<g><path style="opacity:0.004" fill="#fefffe" d="M 624.5,136.5 C 625.833,137.167 625.833,137.167 624.5,136.5 Z"/></g>
<g><path style="opacity:0.004" fill="#fefffe" d="M 624.5,137.5 C 623.833,138.167 623.833,138.167 624.5,137.5 Z"/></g>
<g><path style="opacity:0.004" fill="#fefffe" d="M 623.5,138.5 C 622.833,139.167 622.833,139.167 623.5,138.5 Z"/></g>
<g><path style="opacity:0.004" fill="#fefffe" d="M 622.5,139.5 C 621.833,140.167 621.833,140.167 622.5,139.5 Z"/></g>
<g><path style="opacity:0.004" fill="#fefffe" d="M 621.5,140.5 C 620.833,141.167 620.833,141.167 621.5,140.5 Z"/></g>
<g><path style="opacity:0.004" fill="#fefffe" d="M 620.5,141.5 C 619.833,142.167 619.833,142.167 620.5,141.5 Z"/></g>
<g><path style="opacity:0.004" fill="#fefffe" d="M 619.5,142.5 C 618.833,143.167 618.833,143.167 619.5,142.5 Z"/></g>
<g><path style="opacity:0.004" fill="#fefffe" d="M 618.5,143.5 C 617.833,144.167 617.833,144.167 618.5,143.5 Z"/></g>
</svg>
