<?xml version="1.0" encoding="UTF-8"?>
<!DOCTYPE svg PUBLIC "-//W3C//DTD SVG 1.1//EN" "http://www.w3.org/Graphics/SVG/1.1/DTD/svg11.dtd">
<svg xmlns="http://www.w3.org/2000/svg" version="1.1" width="479px" height="444px" style="shape-rendering:geometricPrecision; text-rendering:geometricPrecision; image-rendering:optimizeQuality; fill-rule:evenodd; clip-rule:evenodd" xmlns:xlink="http://www.w3.org/1999/xlink">
<g><path style="opacity:0.012" fill="#fefffe" d="M 358.5,-0.5 C 364.167,-0.5 369.833,-0.5 375.5,-0.5C 382.795,3.14762 390.129,6.81429 397.5,10.5C 397.308,19.9424 396.141,29.2757 394,38.5C 393.333,44.1667 393.333,49.8333 394,55.5C 394.689,58.4081 395.855,61.0748 397.5,63.5C 402.844,67.1736 408.51,70.3403 414.5,73C 415.833,75 417.167,77 418.5,79C 413.693,89.7229 414.526,99.8896 421,109.5C 434.473,118.452 444.14,130.452 450,145.5C 451.384,167.842 449.384,189.842 444,211.5C 440.548,218.905 436.715,226.072 432.5,233C 426.556,236.611 420.889,240.611 415.5,245C 409.833,247.333 404.167,249.667 398.5,252C 390.301,253.716 382.301,256.049 374.5,259C 370.667,261.5 366.833,264 363,266.5C 353.315,281.609 350.649,297.943 355,315.5C 359.52,326.725 363.02,338.225 365.5,350C 364.578,354.106 363.744,358.273 363,362.5C 360.71,365.58 358.543,368.747 356.5,372C 351.393,374.904 345.893,376.071 340,375.5C 329.45,375.885 319.616,373.552 310.5,368.5C 309.808,369.025 309.308,369.692 309,370.5C 304.466,367.42 299.466,365.087 294,363.5C 263.208,354.524 233.708,357.691 205.5,373C 197.446,379.387 189.112,385.387 180.5,391C 167.471,404.363 154.138,417.363 140.5,430C 131.898,434.8 123.231,439.3 114.5,443.5C 113.5,443.5 112.5,443.5 111.5,443.5C 110.375,441.871 109.041,440.371 107.5,439C 100.307,436.154 93.4736,432.654 87,428.5C 85.9914,430.025 85.4914,431.692 85.5,433.5C 80.9249,434.102 76.4249,435.102 72,436.5C 69.5952,435.047 67.0952,433.713 64.5,432.5C 62.0498,427.466 61.0498,422.133 61.5,416.5C 57.8183,416.335 54.1516,416.501 50.5,417C 47.1667,421.333 43.8333,425.667 40.5,430C 38.1825,431.993 35.5158,433.159 32.5,433.5C 32.1956,422.142 30.5289,410.975 27.5,400C 27.8333,399.5 28.1667,399 28.5,398.5C 30.6416,399.601 32.8083,400.601 35,401.5C 39.1062,399.407 43.2728,397.407 47.5,395.5C 49.6554,385.92 49.9888,376.253 48.5,366.5C 47.354,365.855 46.354,365.022 45.5,364C 47.7463,362.961 49.913,361.794 52,360.5C 54.8833,355.401 57.2166,350.067 59,344.5C 62.289,342.112 65.4557,339.612 68.5,337C 70.9382,329.076 73.6049,321.243 76.5,313.5C 86.3969,306.975 88.8969,298.309 84,287.5C 79.6321,283.467 75.6321,279.134 72,274.5C 69.8235,266.131 66.4901,258.131 62,250.5C 60.3333,248.833 58.6667,247.167 57,245.5C 56.6667,241.167 56.3333,236.833 56,232.5C 50.8121,226.648 44.9787,221.481 38.5,217C 29.5696,214.118 21.0696,210.285 13,205.5C 11.8443,201.877 10.8443,198.211 10,194.5C 9.89967,184.108 9.233,173.775 8,163.5C 7.1083,160.716 5.94163,158.05 4.5,155.5C 3.15017,154.05 1.4835,153.383 -0.5,153.5C -0.5,150.5 -0.5,147.5 -0.5,144.5C 0.309426,143.531 1.30943,142.698 2.5,142C 11.8333,141.667 21.1667,141.333 30.5,141C 35.1875,140.08 38.6875,137.58 41,133.5C 41,130.833 41,128.167 41,125.5C 42.6667,123.833 44.3333,122.167 46,120.5C 50.0671,122.06 54.2338,123.393 58.5,124.5C 65.176,123.777 71.8426,122.943 78.5,122C 80.058,116.043 82.058,110.209 84.5,104.5C 88.6931,101.14 93.0264,97.9734 97.5,95C 100.167,94.6667 102.833,94.3333 105.5,94C 108.268,91.1314 110.268,87.7981 111.5,84C 122.962,82.3863 133.962,79.3863 144.5,75C 152.397,66.0828 158.23,55.9161 162,44.5C 164.833,42.3333 167.667,40.1667 170.5,38C 175.817,38.0278 181.15,38.3611 186.5,39C 198.254,43.4052 210.254,44.4052 222.5,42C 230.677,37.8287 239.344,35.162 248.5,34C 262.164,32.4397 275.83,32.1064 289.5,33C 293.608,31.9735 297.608,30.6401 301.5,29C 315.761,21.0648 329.761,12.7314 343.5,4C 348.414,1.7466 353.414,0.246595 358.5,-0.5 Z M 174.5,71.5 C 223.5,71.5 272.5,71.5 321.5,71.5C 321.5,119.5 321.5,167.5 321.5,215.5C 253.833,215.667 186.166,215.5 118.5,215C 109.455,202.411 100.289,189.911 91,177.5C 88,175.167 85,172.833 82,170.5C 81.654,168.782 81.154,167.115 80.5,165.5C 80.7093,164.914 81.0426,164.414 81.5,164C 86.8333,163.667 92.1667,163.333 97.5,163C 100.362,162.07 102.695,160.403 104.5,158C 107.5,157.667 110.5,157.333 113.5,157C 133.966,128.559 154.299,100.059 174.5,71.5 Z"/></g>
<g><path style="opacity:0.004" fill="#fefffe" d="M 425.5,1.5 C 427.288,0.377527 429.288,0.210861 431.5,1C 429.527,1.49546 427.527,1.66212 425.5,1.5 Z"/></g>
<g><path style="opacity:0.004" fill="#fefffe" d="M 452.5,1.5 C 455.976,0.356734 459.642,0.190067 463.5,1C 459.848,1.49863 456.182,1.6653 452.5,1.5 Z"/></g>
<g><path style="opacity:0.004" fill="#fefffe" d="M 423.5,1.5 C 424.833,2.16667 424.833,2.16667 423.5,1.5 Z"/></g>
<g><path style="opacity:0.004" fill="#fefffe" d="M 465.5,2.5 C 465.897,1.47498 466.563,1.30831 467.5,2C 466.906,2.46434 466.239,2.63101 465.5,2.5 Z"/></g>
<g><path style="opacity:0.004" fill="#fefffe" d="M 420.5,2.5 C 421.833,3.16667 421.833,3.16667 420.5,2.5 Z"/></g>
<g><path style="opacity:0.004" fill="#fefffe" d="M 469.5,3.5 C 469.897,2.47498 470.563,2.30831 471.5,3C 470.906,3.46434 470.239,3.63101 469.5,3.5 Z"/></g>
<g><path style="opacity:0.004" fill="#fefffe" d="M 417.5,4.5 C 417.897,3.47498 418.563,3.30831 419.5,4C 418.906,4.46434 418.239,4.63101 417.5,4.5 Z"/></g>
<g><path style="opacity:0.004" fill="#fefffe" d="M 473.5,4.5 C 473.897,3.47498 474.563,3.30831 475.5,4C 474.906,4.46434 474.239,4.63101 473.5,4.5 Z"/></g>
<g><path style="opacity:0.004" fill="#fefffe" d="M 414.5,5.5 C 414.897,4.47498 415.563,4.30831 416.5,5C 415.906,5.46434 415.239,5.63101 414.5,5.5 Z"/></g>
<g><path style="opacity:0.004" fill="#fefffe" d="M 478.5,4.5 C 478.5,4.83333 478.5,5.16667 478.5,5.5C 475.833,5.16667 475.833,4.83333 478.5,4.5 Z"/></g>
<g><path style="opacity:0.004" fill="#fefffe" d="M 411.5,6.5 C 411.897,5.47498 412.563,5.30831 413.5,6C 412.906,6.46434 412.239,6.63101 411.5,6.5 Z"/></g>
<g><path style="opacity:0.004" fill="#fefffe" d="M 409.5,6.5 C 410.833,7.16667 410.833,7.16667 409.5,6.5 Z"/></g>
<g><path style="opacity:0.004" fill="#fefffe" d="M 405.5,8.5 C 405.897,7.47498 406.563,7.30831 407.5,8C 406.906,8.46434 406.239,8.63101 405.5,8.5 Z"/></g>
<g><path style="opacity:0.004" fill="#fefffe" d="M 402.5,9.5 C 402.897,8.47498 403.563,8.30831 404.5,9C 403.906,9.46434 403.239,9.63101 402.5,9.5 Z"/></g>
<g><path style="opacity:0.004" fill="#fefffe" d="M 399.5,9.5 C 400.833,10.1667 400.833,10.1667 399.5,9.5 Z"/></g>
<g><path style="opacity:0.004" fill="#fefffe" d="M 307.5,373.5 C 308.622,375.288 308.789,377.288 308,379.5C 307.505,377.527 307.338,375.527 307.5,373.5 Z"/></g>
<g><path style="opacity:0.004" fill="#fefffe" d="M 309.5,383.5 C 308.427,382.749 308.26,381.749 309,380.5C 309.483,381.448 309.649,382.448 309.5,383.5 Z"/></g>
<g><path style="opacity:0.004" fill="#fefffe" d="M 309.5,383.5 C 310.167,383.5 310.5,383.833 310.5,384.5C 310.167,384.167 309.833,383.833 309.5,383.5 Z"/></g>
<g><path style="opacity:0.004" fill="#fefffe" d="M 310.5,384.5 C 311.167,384.5 311.5,384.833 311.5,385.5C 311.167,385.167 310.833,384.833 310.5,384.5 Z"/></g>
<g><path style="opacity:0.004" fill="#fefffe" d="M 311.5,385.5 C 312.167,385.5 312.5,385.833 312.5,386.5C 312.167,386.167 311.833,385.833 311.5,385.5 Z"/></g>
<g><path style="opacity:0.004" fill="#fefffe" d="M 312.5,386.5 C 313.833,387.167 313.833,387.167 312.5,386.5 Z"/></g>
<g><path style="opacity:0.004" fill="#fefffe" d="M 315.5,389.5 C 316.833,390.167 316.833,390.167 315.5,389.5 Z"/></g>
<g><path style="opacity:0.004" fill="#fefffe" d="M 317.5,390.5 C 318.833,391.167 318.833,391.167 317.5,390.5 Z"/></g>
<g><path style="opacity:0.004" fill="#fefffe" d="M 319.5,391.5 C 320.833,392.167 320.833,392.167 319.5,391.5 Z"/></g>
<g><path style="opacity:0.004" fill="#fefffe" d="M 321.5,392.5 C 322.833,393.167 322.833,393.167 321.5,392.5 Z"/></g>
<g><path style="opacity:0.004" fill="#fefffe" d="M 323.5,393.5 C 324.833,394.167 324.833,394.167 323.5,393.5 Z"/></g>
<g><path style="opacity:0.004" fill="#fefffe" d="M 325.5,394.5 C 326.833,395.167 326.833,395.167 325.5,394.5 Z"/></g>
<g><path style="opacity:0.004" fill="#fefffe" d="M 327.5,395.5 C 328.833,396.167 328.833,396.167 327.5,395.5 Z"/></g>
<g><path style="opacity:0.004" fill="#fefffe" d="M 329.5,396.5 C 330.833,397.167 330.833,397.167 329.5,396.5 Z"/></g>
<g><path style="opacity:0.004" fill="#fefffe" d="M 331.5,397.5 C 332.833,398.167 332.833,398.167 331.5,397.5 Z"/></g>
<g><path style="opacity:0.004" fill="#fefffe" d="M 335.5,399.5 C 334.761,399.631 334.094,399.464 333.5,399C 334.437,398.308 335.103,398.475 335.5,399.5 Z"/></g>
<g><path style="opacity:0.004" fill="#fefffe" d="M 335.5,399.5 C 336.833,400.167 336.833,400.167 335.5,399.5 Z"/></g>
<g><path style="opacity:0.004" fill="#fefffe" d="M 337.5,400.5 C 338.833,401.167 338.833,401.167 337.5,400.5 Z"/></g>
<g><path style="opacity:0.004" fill="#fefffe" d="M 339.5,401.5 C 340.833,402.167 340.833,402.167 339.5,401.5 Z"/></g>
<g><path style="opacity:0.004" fill="#fefffe" d="M 343.5,405.5 C 342.833,404.167 342.833,404.167 343.5,405.5 Z"/></g>
<g><path style="opacity:0.004" fill="#fefffe" d="M 343.5,405.5 C 344.167,405.5 344.5,405.833 344.5,406.5C 344.167,406.167 343.833,405.833 343.5,405.5 Z"/></g>
<g><path style="opacity:0.004" fill="#fefffe" d="M 344.5,406.5 C 345.833,407.167 345.833,407.167 344.5,406.5 Z"/></g>
<g><path style="opacity:0.004" fill="#fefffe" d="M 345.5,412.5 C 346.525,412.897 346.692,413.563 346,414.5C 345.536,413.906 345.369,413.239 345.5,412.5 Z"/></g>
<g><path style="opacity:0.004" fill="#fefffe" d="M 344.5,415.5 C 345.525,415.897 345.692,416.563 345,417.5C 344.536,416.906 344.369,416.239 344.5,415.5 Z"/></g>
<g><path style="opacity:0.004" fill="#fefffe" d="M 343.5,418.5 C 344.833,419.167 344.833,419.167 343.5,418.5 Z"/></g>
<g><path style="opacity:0.004" fill="#fefffe" d="M 343.5,419.5 C 343.103,420.525 342.437,420.692 341.5,420C 342.094,419.536 342.761,419.369 343.5,419.5 Z"/></g>
<g><path style="opacity:0.004" fill="#fefffe" d="M 319.5,421.5 C 321.628,420.371 323.961,420.204 326.5,421C 324.19,421.497 321.857,421.663 319.5,421.5 Z"/></g>
<g><path style="opacity:0.004" fill="#fefffe" d="M 338.5,421.5 C 338.897,420.475 339.563,420.308 340.5,421C 339.906,421.464 339.239,421.631 338.5,421.5 Z"/></g>
<g><path style="opacity:0.004" fill="#fefffe" d="M 329.5,422.5 C 331.628,421.371 333.961,421.204 336.5,422C 334.19,422.497 331.857,422.663 329.5,422.5 Z"/></g>
<g><path style="opacity:0.004" fill="#fefffe" d="M 315.5,422.5 C 316.833,423.167 316.833,423.167 315.5,422.5 Z"/></g>
<g><path style="opacity:0.004" fill="#fefffe" d="M 314.5,424.5 C 315.833,425.167 315.833,425.167 314.5,424.5 Z"/></g>
<g><path style="opacity:0.004" fill="#fefffe" d="M 313.5,426.5 C 314.833,427.167 314.833,427.167 313.5,426.5 Z"/></g>
<g><path style="opacity:0.004" fill="#fefffe" d="M 314.5,428.5 C 315.525,428.897 315.692,429.563 315,430.5C 314.536,429.906 314.369,429.239 314.5,428.5 Z"/></g>
<g><path style="opacity:0.004" fill="#fefffe" d="M 317.5,433.5 C 316.833,432.167 316.833,432.167 317.5,433.5 Z"/></g>
<g><path style="opacity:0.004" fill="#fefffe" d="M 317.5,433.5 C 318.833,434.167 318.833,434.167 317.5,433.5 Z"/></g>
<g><path style="opacity:0.004" fill="#fefffe" d="M 319.5,436.5 C 318.833,435.167 318.833,435.167 319.5,436.5 Z"/></g>
<g><path style="opacity:0.004" fill="#fefffe" d="M 319.5,436.5 C 320.833,437.167 320.833,437.167 319.5,436.5 Z"/></g>
</svg>
