<?xml version="1.0" encoding="UTF-8"?>
<!DOCTYPE svg PUBLIC "-//W3C//DTD SVG 1.1//EN" "http://www.w3.org/Graphics/SVG/1.1/DTD/svg11.dtd">
<svg xmlns="http://www.w3.org/2000/svg" version="1.1" width="305px" height="258px" style="shape-rendering:geometricPrecision; text-rendering:geometricPrecision; image-rendering:optimizeQuality; fill-rule:evenodd; clip-rule:evenodd" xmlns:xlink="http://www.w3.org/1999/xlink">
<g><path style="opacity:0.012" fill="#fefffe" d="M 159.5,-0.5 C 162.5,-0.5 165.5,-0.5 168.5,-0.5C 173.563,1.43251 178.896,2.76584 184.5,3.5C 184.344,10.72 187.677,15.22 194.5,17C 201.277,16.8872 207.61,15.0539 213.5,11.5C 215.115,12.154 216.782,12.654 218.5,13C 219.272,17.9293 218.272,22.596 215.5,27C 217.167,28.6667 218.833,30.3333 220.5,32C 232.198,35.4336 241.864,32.4336 249.5,23C 251.167,22.3333 252.833,22.3333 254.5,23C 257.939,27.2102 260.606,31.8769 262.5,37C 268.7,40.5106 275.366,42.1772 282.5,42C 287.781,47.3437 290.114,53.8437 289.5,61.5C 289.056,65.1625 288.722,68.8292 288.5,72.5C 290.167,72.5 291.833,72.5 293.5,72.5C 292.081,73.4511 290.415,73.7845 288.5,73.5C 288.664,76.1873 288.497,78.854 288,81.5C 285.56,86.0466 283.393,90.7133 281.5,95.5C 276.457,97.7717 271.624,100.438 267,103.5C 267.086,113.187 269.086,122.52 273,131.5C 274.355,137.785 274.689,144.118 274,150.5C 271.768,155.731 267.935,159.231 262.5,161C 249.838,160.819 237.172,160.819 224.5,161C 222.167,162 219.833,163 217.5,164C 215.192,168.975 211.525,172.641 206.5,175C 199.5,177.333 192.5,179.667 185.5,182C 179.782,182.211 174.115,182.711 168.5,183.5C 159.799,188.367 151.799,194.2 144.5,201C 136.076,203.829 127.41,205.163 118.5,205C 105.822,211.346 96.9889,221.18 92,234.5C 89.295,237.036 86.795,239.703 84.5,242.5C 79.2803,236.418 74.7803,229.751 71,222.5C 68.8726,214.196 66.8726,205.863 65,197.5C 62.1575,192.481 58.8241,187.814 55,183.5C 52.5,177.833 50,172.167 47.5,166.5C 37.0278,164.43 27.3611,160.43 18.5,154.5C 15.2732,148.26 16.2732,142.76 21.5,138C 28.5778,132.653 35.7445,126.487 43,119.5C 43.4221,117.645 43.9221,115.811 44.5,114C 41.6804,110.511 38.847,107.011 36,103.5C 33.8029,97.9089 31.8029,92.2422 30,86.5C 28.3346,70.5202 27.3346,54.5202 27,38.5C 29.7976,33.7372 32.9643,29.2372 36.5,25C 47.0581,18.5573 57.7247,12.3906 68.5,6.5C 70.7373,8.86855 73.5706,10.2019 77,10.5C 84.4329,7.53539 91.9329,4.70206 99.5,2C 103.167,1.33333 106.833,1.33333 110.5,2C 113.798,6.29983 117.465,10.2998 121.5,14C 128.386,17.8143 135.386,18.1476 142.5,15C 144.417,12.5015 146.084,9.83486 147.5,7C 150.128,5.37445 152.461,3.37445 154.5,1C 156.382,0.801916 158.048,0.301916 159.5,-0.5 Z"/></g>
<g><path style="opacity:0.004" fill="#fefffe" d="M 74.5,0.5 C 75.8333,1.16667 75.8333,1.16667 74.5,0.5 Z"/></g>
<g><path style="opacity:0.004" fill="#fefffe" d="M 73.5,2.5 C 74.8333,3.16667 74.8333,3.16667 73.5,2.5 Z"/></g>
<g><path style="opacity:0.004" fill="#fefffe" d="M 71.5,4.5 C 71.8417,3.66175 72.5084,3.32842 73.5,3.5C 73.1583,4.33825 72.4916,4.67158 71.5,4.5 Z"/></g>
<g><path style="opacity:0.004" fill="#fefffe" d="M 71.5,4.5 C 70.8333,5.16667 70.8333,5.16667 71.5,4.5 Z"/></g>
<g><path style="opacity:0.004" fill="#fefffe" d="M 68.5,5.5 C 69.8333,6.16667 69.8333,6.16667 68.5,5.5 Z"/></g>
<g><path style="opacity:0.004" fill="#fefffe" d="M 304.5,38.5 C 304.5,38.8333 304.5,39.1667 304.5,39.5C 303.83,39.0187 303.83,38.6853 304.5,38.5 Z"/></g>
<g><path style="opacity:0.004" fill="#fefffe" d="M 301.5,41.5 C 302.833,42.1667 302.833,42.1667 301.5,41.5 Z"/></g>
<g><path style="opacity:0.004" fill="#fefffe" d="M 301.5,42.5 C 300.833,43.1667 300.833,43.1667 301.5,42.5 Z"/></g>
<g><path style="opacity:0.004" fill="#fefffe" d="M 298.5,45.5 C 299.833,46.1667 299.833,46.1667 298.5,45.5 Z"/></g>
<g><path style="opacity:0.004" fill="#fefffe" d="M 298.5,46.5 C 297.833,47.1667 297.833,47.1667 298.5,46.5 Z"/></g>
<g><path style="opacity:0.004" fill="#fefffe" d="M 296.5,49.5 C 297.833,50.1667 297.833,50.1667 296.5,49.5 Z"/></g>
<g><path style="opacity:0.004" fill="#fefffe" d="M 295.5,51.5 C 296.525,51.8966 296.692,52.5632 296,53.5C 295.536,52.9056 295.369,52.2389 295.5,51.5 Z"/></g>
<g><path style="opacity:0.004" fill="#fefffe" d="M 294.5,54.5 C 295.525,54.8966 295.692,55.5632 295,56.5C 294.536,55.9056 294.369,55.2389 294.5,54.5 Z"/></g>
<g><path style="opacity:0.004" fill="#fefffe" d="M 292.5,58.5 C 293.833,59.1667 293.833,59.1667 292.5,58.5 Z"/></g>
<g><path style="opacity:0.004" fill="#fefffe" d="M 292.5,59.5 C 291.833,60.1667 291.833,60.1667 292.5,59.5 Z"/></g>
<g><path style="opacity:0.004" fill="#fefffe" d="M 291.5,60.5 C 290.833,61.1667 290.833,61.1667 291.5,60.5 Z"/></g>
<g><path style="opacity:0.004" fill="#fefffe" d="M 304.5,63.5 C 304.5,63.8333 304.5,64.1667 304.5,64.5C 303.83,64.0187 303.83,63.6853 304.5,63.5 Z"/></g>
<g><path style="opacity:0.004" fill="#fefffe" d="M 303.5,64.5 C 302.833,65.1667 302.833,65.1667 303.5,64.5 Z"/></g>
<g><path style="opacity:0.004" fill="#fefffe" d="M 302.5,65.5 C 301.833,66.1667 301.833,66.1667 302.5,65.5 Z"/></g>
<g><path style="opacity:0.004" fill="#fefffe" d="M 301.5,66.5 C 300.833,67.1667 300.833,67.1667 301.5,66.5 Z"/></g>
<g><path style="opacity:0.004" fill="#fefffe" d="M 300.5,67.5 C 299.833,68.1667 299.833,68.1667 300.5,67.5 Z"/></g>
<g><path style="opacity:0.004" fill="#fefffe" d="M 296.5,69.5 C 297.833,70.1667 297.833,70.1667 296.5,69.5 Z"/></g>
<g><path style="opacity:0.004" fill="#fefffe" d="M 293.5,71.5 C 294.833,72.1667 294.833,72.1667 293.5,71.5 Z"/></g>
<g><path style="opacity:0.004" fill="#fefffe" d="M 18.5,137.5 C 19.8333,138.167 19.8333,138.167 18.5,137.5 Z"/></g>
<g><path style="opacity:0.004" fill="#fefffe" d="M 11.5,139.5 C 12.6009,138.402 13.9343,138.235 15.5,139C 14.2068,139.49 12.8734,139.657 11.5,139.5 Z"/></g>
<g><path style="opacity:0.004" fill="#fefffe" d="M 4.5,140.5 C 5.60093,139.402 6.93426,139.235 8.5,140C 7.20677,140.49 5.87344,140.657 4.5,140.5 Z"/></g>
<g><path style="opacity:0.004" fill="#fefffe" d="M -0.5,140.5 C 0.833333,141.167 0.833333,141.167 -0.5,140.5 Z"/></g>
<g><path style="opacity:0.004" fill="#fefffe" d="M 269.5,159.5 C 270.525,159.897 270.692,160.563 270,161.5C 269.536,160.906 269.369,160.239 269.5,159.5 Z"/></g>
<g><path style="opacity:0.004" fill="#fefffe" d="M 271.5,163.5 C 270.833,162.167 270.833,162.167 271.5,163.5 Z"/></g>
<g><path style="opacity:0.004" fill="#fefffe" d="M 271.5,163.5 C 272.167,163.5 272.5,163.833 272.5,164.5C 272.167,164.167 271.833,163.833 271.5,163.5 Z"/></g>
<g><path style="opacity:0.004" fill="#fefffe" d="M 272.5,164.5 C 274.857,164.337 277.19,164.503 279.5,165C 276.961,165.796 274.628,165.629 272.5,164.5 Z"/></g>
<g><path style="opacity:0.004" fill="#fefffe" d="M 280.5,165.5 C 281.833,166.167 281.833,166.167 280.5,165.5 Z"/></g>
<g><path style="opacity:0.004" fill="#fefffe" d="M 282.5,166.5 C 283.833,167.167 283.833,167.167 282.5,166.5 Z"/></g>
<g><path style="opacity:0.004" fill="#fefffe" d="M 284.5,167.5 C 285.573,168.251 285.74,169.251 285,170.5C 284.517,169.552 284.351,168.552 284.5,167.5 Z"/></g>
<g><path style="opacity:0.004" fill="#fefffe" d="M 285.5,172.5 C 286.573,173.251 286.74,174.251 286,175.5C 285.517,174.552 285.351,173.552 285.5,172.5 Z"/></g>
<g><path style="opacity:0.004" fill="#fefffe" d="M 285.5,178.5 C 284.833,177.167 284.833,177.167 285.5,178.5 Z"/></g>
<g><path style="opacity:0.004" fill="#fefffe" d="M 285.5,178.5 C 286.239,178.369 286.906,178.536 287.5,179C 286.563,179.692 285.897,179.525 285.5,178.5 Z"/></g>
<g><path style="opacity:0.004" fill="#fefffe" d="M 84.5,242.5 C 85.1667,242.5 85.5,242.833 85.5,243.5C 85.1667,243.167 84.8333,242.833 84.5,242.5 Z"/></g>
<g><path style="opacity:0.004" fill="#fefffe" d="M 85.5,243.5 C 86.1667,243.5 86.5,243.833 86.5,244.5C 86.1667,244.167 85.8333,243.833 85.5,243.5 Z"/></g>
<g><path style="opacity:0.004" fill="#fefffe" d="M 86.5,244.5 C 87.8333,245.167 87.8333,245.167 86.5,244.5 Z"/></g>
<g><path style="opacity:0.004" fill="#fefffe" d="M 89.5,247.5 C 88.8333,246.167 88.8333,246.167 89.5,247.5 Z"/></g>
<g><path style="opacity:0.004" fill="#fefffe" d="M 89.5,247.5 C 90.8333,248.167 90.8333,248.167 89.5,247.5 Z"/></g>
<g><path style="opacity:0.004" fill="#fefffe" d="M 92.5,249.5 C 91.8333,248.167 91.8333,248.167 92.5,249.5 Z"/></g>
<g><path style="opacity:0.004" fill="#fefffe" d="M 92.5,249.5 C 93.8333,250.167 93.8333,250.167 92.5,249.5 Z"/></g>
<g><path style="opacity:0.004" fill="#fefffe" d="M 95.5,251.5 C 94.8333,250.167 94.8333,250.167 95.5,251.5 Z"/></g>
<g><path style="opacity:0.004" fill="#fefffe" d="M 95.5,251.5 C 96.8333,252.167 96.8333,252.167 95.5,251.5 Z"/></g>
<g><path style="opacity:0.004" fill="#fefffe" d="M 98.5,253.5 C 97.8333,252.167 97.8333,252.167 98.5,253.5 Z"/></g>
<g><path style="opacity:0.004" fill="#fefffe" d="M 98.5,253.5 C 99.8333,254.167 99.8333,254.167 98.5,253.5 Z"/></g>
<g><path style="opacity:0.004" fill="#fefffe" d="M 101.5,255.5 C 100.833,254.167 100.833,254.167 101.5,255.5 Z"/></g>
<g><path style="opacity:0.004" fill="#fefffe" d="M 101.5,255.5 C 102.833,256.167 102.833,256.167 101.5,255.5 Z"/></g>
<g><path style="opacity:0.004" fill="#fefffe" d="M 103.5,257.5 C 113.5,256.167 123.5,256.167 133.5,257.5C 123.5,257.5 113.5,257.5 103.5,257.5 Z"/></g>
</svg>
