<?xml version="1.0" encoding="UTF-8"?>
<!DOCTYPE svg PUBLIC "-//W3C//DTD SVG 1.1//EN" "http://www.w3.org/Graphics/SVG/1.1/DTD/svg11.dtd">
<svg xmlns="http://www.w3.org/2000/svg" version="1.1" width="340px" height="378px" style="shape-rendering:geometricPrecision; text-rendering:geometricPrecision; image-rendering:optimizeQuality; fill-rule:evenodd; clip-rule:evenodd" xmlns:xlink="http://www.w3.org/1999/xlink">
<g><path style="opacity:0.012" fill="#fefffe" d="M 318.5,-0.5 C 318.833,-0.5 319.167,-0.5 319.5,-0.5C 318.908,2.69069 317.741,5.69069 316,8.5C 314.816,12.4489 314.482,16.4489 315,20.5C 321.844,27.3324 329.344,33.499 337.5,39C 338.085,40.3024 338.751,41.469 339.5,42.5C 339.5,46.1667 339.5,49.8333 339.5,53.5C 338.206,54.2899 337.039,55.2899 336,56.5C 335.38,60.2209 334.547,63.8876 333.5,67.5C 331.082,68.4572 328.916,69.7905 327,71.5C 325.929,78.8746 324.595,86.2079 323,93.5C 321.927,94.2797 320.76,94.113 319.5,93C 318.65,85.4947 315.817,84.6614 311,90.5C 309.967,98.6319 308.3,106.632 306,114.5C 301.795,126.782 297.795,139.116 294,151.5C 291.358,160.913 293.691,168.579 301,174.5C 301.982,175.759 302.315,177.092 302,178.5C 299.833,180.667 297.667,182.833 295.5,185C 289.421,187.137 283.421,189.471 277.5,192C 274.839,199.155 271.506,205.989 267.5,212.5C 254.353,211.745 243.686,216.412 235.5,226.5C 227.673,228.539 220.006,231.039 212.5,234C 209.95,241.101 206.616,247.767 202.5,254C 193.737,256.962 184.737,258.962 175.5,260C 173.957,261.878 172.124,263.378 170,264.5C 165.704,272.87 165.871,281.037 170.5,289C 162.234,295.262 154.568,302.262 147.5,310C 149.408,313.896 151.408,317.729 153.5,321.5C 161.381,317.63 169.714,315.463 178.5,315C 181.5,312.667 184.5,310.333 187.5,308C 191.834,307.1 196.168,306.266 200.5,305.5C 199.373,299.115 202.04,295.281 208.5,294C 213.737,292.524 219.07,291.69 224.5,291.5C 232.357,293.292 240.024,292.792 247.5,290C 248.685,288.647 250.019,287.48 251.5,286.5C 252.192,287.025 252.692,287.692 253,288.5C 252.941,297.188 253.774,305.855 255.5,314.5C 255.409,329.773 249.576,342.44 238,352.5C 236.735,357.635 238.068,361.968 242,365.5C 242.781,366.944 242.614,368.277 241.5,369.5C 234.173,367.497 229.507,370.164 227.5,377.5C 227.167,377.5 226.833,377.5 226.5,377.5C 213.185,360.02 197.518,357.854 179.5,371C 174.527,372.744 169.527,372.744 164.5,371C 159.503,367.166 154.17,363.833 148.5,361C 140.833,360.333 133.167,360.333 125.5,361C 104.755,366.772 83.5884,369.605 62,369.5C 46.7736,370.057 32.6069,366.557 19.5,359C 16.3333,355.833 13.1667,352.667 10,349.5C 5.27385,335.671 1.77385,321.671 -0.5,307.5C -0.5,298.167 -0.5,288.833 -0.5,279.5C 1.45706,271.793 3.95706,264.126 7,256.5C 23.8835,237.073 38.5501,216.073 51,193.5C 52.5354,189.227 53.8688,184.894 55,180.5C 63.1939,165.445 70.8606,150.112 78,134.5C 85.399,122.759 92.399,110.759 99,98.5C 107.402,86.0952 116.569,74.2618 126.5,63C 134.5,57 142.5,51 150.5,45C 175.918,35.747 200.584,24.747 224.5,12C 227.167,11.3333 229.833,11.3333 232.5,12C 237.92,13.5423 243.42,14.709 249,15.5C 261.868,9.87707 275.035,5.04373 288.5,1C 296.512,0.389404 304.512,0.556071 312.5,1.5C 314.952,1.46093 316.952,0.794259 318.5,-0.5 Z"/></g>
<g><path style="opacity:0.004" fill="#fefffe" d="M 38.5,87.5 C 39.525,87.8966 39.6917,88.5632 39,89.5C 38.5357,88.9056 38.369,88.2389 38.5,87.5 Z"/></g>
<g><path style="opacity:0.004" fill="#fefffe" d="M 39.5,91.5 C 40.525,91.8966 40.6917,92.5632 40,93.5C 39.5357,92.9056 39.369,92.2389 39.5,91.5 Z"/></g>
<g><path style="opacity:0.004" fill="#fefffe" d="M 40.5,95.5 C 41.525,95.8966 41.6917,96.5632 41,97.5C 40.5357,96.9056 40.369,96.2389 40.5,95.5 Z"/></g>
<g><path style="opacity:0.004" fill="#fefffe" d="M 41.5,99.5 C 42.525,99.8966 42.6917,100.563 42,101.5C 41.5357,100.906 41.369,100.239 41.5,99.5 Z"/></g>
<g><path style="opacity:0.004" fill="#fefffe" d="M 42.5,103.5 C 43.525,103.897 43.6917,104.563 43,105.5C 42.5357,104.906 42.369,104.239 42.5,103.5 Z"/></g>
<g><path style="opacity:0.004" fill="#fefffe" d="M 43.5,107.5 C 44.525,107.897 44.6917,108.563 44,109.5C 43.5357,108.906 43.369,108.239 43.5,107.5 Z"/></g>
<g><path style="opacity:0.004" fill="#fefffe" d="M 44.5,110.5 C 45.525,110.897 45.6917,111.563 45,112.5C 44.5357,111.906 44.369,111.239 44.5,110.5 Z"/></g>
<g><path style="opacity:0.004" fill="#fefffe" d="M 45.5,113.5 C 46.525,113.897 46.6917,114.563 46,115.5C 45.5357,114.906 45.369,114.239 45.5,113.5 Z"/></g>
<g><path style="opacity:0.004" fill="#fefffe" d="M 46.5,116.5 C 47.525,116.897 47.6917,117.563 47,118.5C 46.5357,117.906 46.369,117.239 46.5,116.5 Z"/></g>
<g><path style="opacity:0.004" fill="#fefffe" d="M 47.5,119.5 C 48.8333,120.167 48.8333,120.167 47.5,119.5 Z"/></g>
<g><path style="opacity:0.004" fill="#fefffe" d="M 48.5,121.5 C 49.8333,122.167 49.8333,122.167 48.5,121.5 Z"/></g>
<g><path style="opacity:0.004" fill="#fefffe" d="M 49.5,123.5 C 50.8333,124.167 50.8333,124.167 49.5,123.5 Z"/></g>
<g><path style="opacity:0.004" fill="#fefffe" d="M 50.5,125.5 C 51.8333,126.167 51.8333,126.167 50.5,125.5 Z"/></g>
<g><path style="opacity:0.004" fill="#fefffe" d="M 51.5,127.5 C 52.8333,128.167 52.8333,128.167 51.5,127.5 Z"/></g>
<g><path style="opacity:0.004" fill="#fefffe" d="M 52.5,129.5 C 53.8333,130.167 53.8333,130.167 52.5,129.5 Z"/></g>
<g><path style="opacity:0.004" fill="#fefffe" d="M 53.5,131.5 C 54.8333,132.167 54.8333,132.167 53.5,131.5 Z"/></g>
<g><path style="opacity:0.004" fill="#fefffe" d="M 55.5,134.5 C 54.8333,133.167 54.8333,133.167 55.5,134.5 Z"/></g>
<g><path style="opacity:0.004" fill="#fefffe" d="M 55.5,134.5 C 56.1667,134.5 56.5,134.833 56.5,135.5C 56.1667,135.167 55.8333,134.833 55.5,134.5 Z"/></g>
<g><path style="opacity:0.004" fill="#fefffe" d="M 56.5,135.5 C 57.1667,135.5 57.5,135.833 57.5,136.5C 57.1667,136.167 56.8333,135.833 56.5,135.5 Z"/></g>
<g><path style="opacity:0.004" fill="#fefffe" d="M 57.5,136.5 C 58.8333,137.167 58.8333,137.167 57.5,136.5 Z"/></g>
<g><path style="opacity:0.004" fill="#fefffe" d="M 60.5,140.5 C 59.8333,139.167 59.8333,139.167 60.5,140.5 Z"/></g>
<g><path style="opacity:0.004" fill="#fefffe" d="M 60.5,140.5 C 61.1667,140.5 61.5,140.833 61.5,141.5C 61.1667,141.167 60.8333,140.833 60.5,140.5 Z"/></g>
<g><path style="opacity:0.004" fill="#fefffe" d="M 61.5,141.5 C 62.8333,142.167 62.8333,142.167 61.5,141.5 Z"/></g>
<g><path style="opacity:0.004" fill="#fefffe" d="M 64.5,145.5 C 63.8333,144.167 63.8333,144.167 64.5,145.5 Z"/></g>
<g><path style="opacity:0.004" fill="#fefffe" d="M 64.5,145.5 C 65.8333,146.167 65.8333,146.167 64.5,145.5 Z"/></g>
<g><path style="opacity:0.004" fill="#fefffe" d="M 67.5,149.5 C 66.8333,148.167 66.8333,148.167 67.5,149.5 Z"/></g>
<g><path style="opacity:0.004" fill="#fefffe" d="M 67.5,149.5 C 68.8333,150.167 68.8333,150.167 67.5,149.5 Z"/></g>
</svg>
