<?xml version="1.0" encoding="UTF-8"?>
<!DOCTYPE svg PUBLIC "-//W3C//DTD SVG 1.1//EN" "http://www.w3.org/Graphics/SVG/1.1/DTD/svg11.dtd">
<svg xmlns="http://www.w3.org/2000/svg" version="1.1" width="394px" height="454px" style="shape-rendering:geometricPrecision; text-rendering:geometricPrecision; image-rendering:optimizeQuality; fill-rule:evenodd; clip-rule:evenodd" xmlns:xlink="http://www.w3.org/1999/xlink">
<g><path style="opacity:0.012" fill="#fefffe" d="M 73.5,-0.5 C 88.5,-0.5 103.5,-0.5 118.5,-0.5C 131.224,5.01777 142.224,13.1844 151.5,24C 160.706,27.9692 170.039,31.6358 179.5,35C 183.496,36.6627 187.163,38.8294 190.5,41.5C 191.5,46.1667 192.5,50.8333 193.5,55.5C 190.667,60.5 187.833,65.5 185,70.5C 183.727,76.0941 182.227,81.5941 180.5,87C 181.916,91.4022 183.082,95.9022 184,100.5C 190.558,106.805 198.391,110.638 207.5,112C 216.106,113.21 224.773,113.877 233.5,114C 242.677,116.391 251.51,119.557 260,123.5C 263.382,127.906 264.382,132.906 263,138.5C 259.697,142.775 257.197,147.441 255.5,152.5C 256.023,157.648 257.357,162.482 259.5,167C 266.643,170.325 273.976,173.159 281.5,175.5C 311.979,165.253 338.979,170.753 362.5,192C 367.833,194.667 373.167,197.333 378.5,200C 383.464,200.912 388.464,201.412 393.5,201.5C 393.5,275.5 393.5,349.5 393.5,423.5C 385.796,430.091 378.13,430.091 370.5,423.5C 367.613,425.111 364.613,426.444 361.5,427.5C 349.331,426.3 337.331,424.133 325.5,421C 317.845,415.354 309.678,410.521 301,406.5C 278.438,417.865 255.938,429.365 233.5,441C 226.022,443.882 218.355,446.049 210.5,447.5C 203.514,446.824 196.514,446.324 189.5,446C 186.136,444.901 182.97,443.401 180,441.5C 177.205,443.293 174.705,445.46 172.5,448C 168.167,448.667 163.833,448.667 159.5,448C 155.633,443.898 150.967,441.064 145.5,439.5C 139.171,443.839 133.171,448.506 127.5,453.5C 127.167,453.5 126.833,453.5 126.5,453.5C 119.682,446.877 111.682,442.044 102.5,439C 94.3772,434.687 87.5439,428.854 82,421.5C 81.6667,414.833 81.3333,408.167 81,401.5C 80.0187,399.04 79.1854,396.54 78.5,394C 80.3261,389.902 80.6594,385.735 79.5,381.5C 80.3825,375.192 82.2158,369.192 85,363.5C 85.5351,360.439 85.8684,357.439 86,354.5C 78.4344,348.301 70.6011,342.468 62.5,337C 52.0928,324.461 38.7594,317.127 22.5,315C 23.7932,314.51 25.1266,314.343 26.5,314.5C 27.1151,310.153 28.6151,306.153 31,302.5C 37.5142,295.505 44.6809,289.339 52.5,284C 56.2615,279.896 58.5948,275.063 59.5,269.5C 57.1843,258.78 57.1843,248.114 59.5,237.5C 69.0287,236.703 78.0287,234.203 86.5,230C 95,222.167 103.5,214.333 112,206.5C 112.782,203.743 112.282,201.243 110.5,199C 103.237,195.412 95.5706,193.079 87.5,192C 83.1597,182.818 78.6597,173.652 74,164.5C 65.7122,160.622 57.2122,157.122 48.5,154C 41.2638,148.324 37.4305,140.824 37,131.5C 35.5,128.5 34,125.5 32.5,122.5C 28.9568,119.728 24.9568,118.061 20.5,117.5C 21.7659,112.743 22.7659,107.909 23.5,103C 22.0029,92.6896 20.6695,82.3563 19.5,72C 20.0293,64.7398 22.6959,58.4065 27.5,53C 36.3143,51.6464 45.1476,51.8131 54,53.5C 66.2612,54.2412 72.4279,48.4079 72.5,36C 69.5972,23.6974 69.9305,11.5307 73.5,-0.5 Z"/></g>
<g><path style="opacity:0.004" fill="#fefffe" d="M 5.5,315.5 C 7.96638,314.366 10.633,314.199 13.5,315C 10.854,315.497 8.1873,315.664 5.5,315.5 Z"/></g>
<g><path style="opacity:0.004" fill="#fefffe" d="M -0.5,315.5 C 0.833333,316.167 0.833333,316.167 -0.5,315.5 Z"/></g>
</svg>
