<?xml version="1.0" encoding="UTF-8"?>
<!DOCTYPE svg PUBLIC "-//W3C//DTD SVG 1.1//EN" "http://www.w3.org/Graphics/SVG/1.1/DTD/svg11.dtd">
<svg xmlns="http://www.w3.org/2000/svg" version="1.1" width="796px" height="949px" style="shape-rendering:geometricPrecision; text-rendering:geometricPrecision; image-rendering:optimizeQuality; fill-rule:evenodd; clip-rule:evenodd" xmlns:xlink="http://www.w3.org/1999/xlink">
<g><path style="opacity:0.012" fill="#fefffe" d="M 96.5,-0.5 C 106.833,-0.5 117.167,-0.5 127.5,-0.5C 134.644,1.43078 141.311,4.59745 147.5,9C 153.377,17.9181 158.877,27.0847 164,36.5C 166.523,39.8769 169.69,42.2102 173.5,43.5C 176.301,43.5359 178.135,42.2026 179,39.5C 182.216,33.7357 184.883,27.7357 187,21.5C 190.833,16.3333 195.333,11.8333 200.5,8C 210.215,4.79763 219.048,6.63097 227,13.5C 229.564,17.4622 231.731,21.6288 233.5,26C 229.858,25.7122 227.358,27.2122 226,30.5C 226.361,33.9243 227.361,37.2577 229,40.5C 230.239,46.6289 227.906,50.9623 222,53.5C 221.706,58.5411 224.206,61.0411 229.5,61C 232.333,63.3908 235.5,65.2241 239,66.5C 240.365,72.0554 241.865,77.5554 243.5,83C 242.908,87.6273 240.574,91.294 236.5,94C 232.297,95.5691 227.964,96.4024 223.5,96.5C 223.335,99.8499 223.502,103.183 224,106.5C 226.755,108.766 228.088,111.766 228,115.5C 230.518,118.508 233.684,120.508 237.5,121.5C 243.722,131.225 251.222,139.892 260,147.5C 261.967,153.188 261.801,158.854 259.5,164.5C 260.707,166.449 262.373,167.949 264.5,169C 261.547,174.286 257.547,178.62 252.5,182C 241.5,186.333 230.5,190.667 219.5,195C 214.808,200.693 213.308,207.193 215,214.5C 221.708,221.909 225.042,230.576 225,240.5C 223.38,242.241 221.88,244.075 220.5,246C 204.048,249.779 187.381,252.112 170.5,253C 161.396,254.302 153.562,258.136 147,264.5C 138.968,277.667 135.302,292 136,307.5C 134.939,310.562 133.106,313.062 130.5,315C 108.787,325.384 89.9541,339.551 74,357.5C 69.1579,364.356 66.8245,372.023 67,380.5C 65,385.167 63,389.833 61,394.5C 57.0545,417.118 53.3878,439.785 50,462.5C 45.7066,474.75 41.7066,487.083 38,499.5C 35.4483,513.017 36.115,526.351 40,539.5C 48.3333,550.833 56.6667,562.167 65,573.5C 70.1806,582.885 72.1806,592.885 71,603.5C 68.2892,609.924 65.2892,616.257 62,622.5C 61.3333,625.833 61.3333,629.167 62,632.5C 66.3673,637.204 71.5339,640.704 77.5,643C 79.3884,645.19 81.5551,647.023 84,648.5C 88.577,659.793 88.577,671.126 84,682.5C 79.4948,690.841 75.6615,699.508 72.5,708.5C 69.8322,709.738 67.1655,709.738 64.5,708.5C 63.5001,758.829 63.1667,809.162 63.5,859.5C 99.4897,860.599 135.49,860.765 171.5,860C 177.31,851.86 183.477,844.027 190,836.5C 197.707,846.2 207.207,853.7 218.5,859C 229.861,861.827 240.528,860.16 250.5,854C 257.443,843.803 266.61,836.636 278,832.5C 279.275,827.919 280.275,823.252 281,818.5C 293.393,805.708 299.727,790.375 300,772.5C 300.5,770.667 301.667,769.5 303.5,769C 314.548,769.092 324.881,766.426 334.5,761C 341.982,760.058 349.315,760.725 356.5,763C 360.714,765.274 365.047,767.274 369.5,769C 374.167,769.667 378.833,769.667 383.5,769C 392.901,764.618 402.567,763.285 412.5,765C 417.676,768.588 423.343,771.088 429.5,772.5C 436.971,771.691 441.638,767.691 443.5,760.5C 439.402,753.968 436.069,746.968 433.5,739.5C 439.642,734.924 446.308,731.09 453.5,728C 455.487,726.681 456.654,724.848 457,722.5C 457.554,719.342 458.054,716.175 458.5,713C 456.69,706.428 455.357,699.762 454.5,693C 455.045,689.813 455.711,686.646 456.5,683.5C 461.312,679.856 465.979,676.022 470.5,672C 474.636,671.329 478.636,671.829 482.5,673.5C 483.167,673.167 483.833,672.833 484.5,672.5C 485.53,665.371 487.03,658.371 489,651.5C 497.544,646.981 506.211,642.648 515,638.5C 517.604,644.714 517.604,651.047 515,657.5C 512.412,661.674 510.079,666.007 508,670.5C 504.859,673.438 501.193,675.438 497,676.5C 496.508,677.549 496.674,678.549 497.5,679.5C 495.885,682.45 493.885,685.116 491.5,687.5C 496.466,692.295 501.632,696.961 507,701.5C 507.667,704.833 507.667,708.167 507,711.5C 504.938,713.901 503.271,716.567 502,719.5C 501.052,728.237 499.885,736.904 498.5,745.5C 498.358,750.766 499.691,755.6 502.5,760C 501.371,764.079 501.204,768.245 502,772.5C 504.631,776.079 508.131,778.579 512.5,780C 518.918,786.758 526.584,791.424 535.5,794C 537.389,797.391 540.055,799.891 543.5,801.5C 550.528,796.642 557.695,791.975 565,787.5C 566.916,790.033 568.916,790.033 571,787.5C 573.872,790.037 576.372,792.87 578.5,796C 582.869,796.425 587.203,796.092 591.5,795C 593.993,792.92 596.659,791.086 599.5,789.5C 603.559,794.301 608.559,795.634 614.5,793.5C 620.269,794.359 625.936,795.692 631.5,797.5C 640.752,794.038 650.085,790.871 659.5,788C 668.395,779.383 678.729,773.049 690.5,769C 693.683,765.985 696.683,762.818 699.5,759.5C 700.624,760.914 701.624,762.414 702.5,764C 709.685,768.547 717.352,772.047 725.5,774.5C 726.298,776.078 726.798,777.744 727,779.5C 731.338,781.545 735.838,783.212 740.5,784.5C 744.075,782.93 747.408,780.93 750.5,778.5C 755.354,781.258 756.687,785.258 754.5,790.5C 741.404,797.393 727.404,800.226 712.5,799C 705.776,799.891 702.442,803.724 702.5,810.5C 703.27,819.546 707.27,826.713 714.5,832C 725.819,839.609 738.152,841.942 751.5,839C 763.309,834.675 775.142,830.508 787,826.5C 791.392,826.435 794.226,828.435 795.5,832.5C 795.5,835.5 795.5,838.5 795.5,841.5C 794.108,843.273 792.941,845.273 792,847.5C 788.034,850.464 784.367,853.797 781,857.5C 772.903,867.353 764.57,877.02 756,886.5C 752.828,890.841 750.161,895.508 748,900.5C 747.5,905.5 747,910.5 746.5,915.5C 747.351,926.492 748.018,937.492 748.5,948.5C 498.833,948.5 249.167,948.5 -0.5,948.5C -0.5,637.833 -0.5,327.167 -0.5,16.5C 10.9169,16.8026 22.2503,15.9693 33.5,14C 54.8026,9.92194 75.8026,5.0886 96.5,-0.5 Z"/></g>
</svg>
