<?xml version="1.0" encoding="UTF-8"?>
<!DOCTYPE svg PUBLIC "-//W3C//DTD SVG 1.1//EN" "http://www.w3.org/Graphics/SVG/1.1/DTD/svg11.dtd">
<svg xmlns="http://www.w3.org/2000/svg" version="1.1" width="402px" height="487px" style="shape-rendering:geometricPrecision; text-rendering:geometricPrecision; image-rendering:optimizeQuality; fill-rule:evenodd; clip-rule:evenodd" xmlns:xlink="http://www.w3.org/1999/xlink">
<g><path style="opacity:0.012" fill="#fefffe" d="M 217.5,-0.5 C 222.5,-0.5 227.5,-0.5 232.5,-0.5C 241.33,9.1652 249.997,18.9985 258.5,29C 260.833,30.6667 263.167,32.3333 265.5,34C 271.053,34.5992 276.386,35.9325 281.5,38C 288.189,43.3483 293.355,49.8483 297,57.5C 299.869,60.7041 303.035,63.5374 306.5,66C 311.418,67.0813 316.418,67.5813 321.5,67.5C 330.497,67.0334 339.497,66.7001 348.5,66.5C 348.74,69.5788 348.407,72.5788 347.5,75.5C 352.201,79.6088 357.035,83.6088 362,87.5C 363.174,91.0458 363.84,94.7125 364,98.5C 373.408,103.745 383.074,108.411 393,112.5C 393.333,119.167 393.667,125.833 394,132.5C 396.364,135.69 398.864,138.69 401.5,141.5C 401.5,142.167 401.5,142.833 401.5,143.5C 400.466,144.687 399.133,145.52 397.5,146C 388.388,146.065 379.388,147.065 370.5,149C 368.939,149.318 367.772,150.151 367,151.5C 348.096,150.627 329.263,148.627 310.5,145.5C 304.432,146.345 298.432,147.511 292.5,149C 288.416,153.829 285.083,159.162 282.5,165C 276.003,168.414 269.67,172.081 263.5,176C 257.833,177.667 252.167,179.333 246.5,181C 245.667,181.833 244.833,182.667 244,183.5C 242.082,190.42 240.415,197.42 239,204.5C 237.667,207.167 235.667,209.167 233,210.5C 232.833,211.333 232.667,212.167 232.5,213C 234.584,220.407 235.75,227.907 236,235.5C 226.185,239.157 217.018,243.99 208.5,250C 205.667,253.5 202.833,257 200,260.5C 198.46,266.066 199.793,270.732 204,274.5C 205.639,278.278 207.139,282.111 208.5,286C 204.78,293.704 204.946,301.204 209,308.5C 210.715,310.759 212.548,312.926 214.5,315C 220.325,317.745 225.992,320.745 231.5,324C 232.227,326.124 232.894,328.291 233.5,330.5C 237.801,332.1 242.135,333.6 246.5,335C 248.293,337.795 250.46,340.295 253,342.5C 253.842,346.869 254.842,351.203 256,355.5C 258.5,358 261,360.5 263.5,363C 271.849,364.502 280.183,366.002 288.5,367.5C 297.671,364.22 307.004,361.554 316.5,359.5C 315.975,364.011 315.308,368.511 314.5,373C 315.811,379.792 316.311,386.626 316,393.5C 307.214,397.578 303.881,404.244 306,413.5C 303.816,418.688 300.482,423.022 296,426.5C 295.667,430.167 295.333,433.833 295,437.5C 289.956,442.876 285.289,448.542 281,454.5C 278.635,457.869 275.468,460.036 271.5,461C 264.207,462.424 256.874,463.091 249.5,463C 247.751,459.088 245.085,458.422 241.5,461C 239.167,462.5 236.833,464 234.5,465.5C 231.835,469.36 228.835,472.86 225.5,476C 213.667,480.454 201.667,483.954 189.5,486.5C 188.167,486.5 186.833,486.5 185.5,486.5C 169.33,484.936 154.33,479.603 140.5,470.5C 137.667,464.167 134.833,457.833 132,451.5C 129.167,448.667 126.333,445.833 123.5,443C 120.592,442.311 117.925,441.145 115.5,439.5C 113.667,435.833 111.833,432.167 110,428.5C 107.35,414.629 106.016,400.629 106,386.5C 104.529,382.419 102.862,378.419 101,374.5C 91.5665,368.727 84.5665,360.727 80,350.5C 78.3262,354.021 77.1596,357.687 76.5,361.5C 67.7234,366.392 59.0567,371.559 50.5,377C 43.0556,379.556 35.7223,382.389 28.5,385.5C 23.2317,378.062 17.3984,371.062 11,364.5C 9.06565,360.241 6.73232,356.241 4,352.5C 2.49022,343.707 0.990217,335.041 -0.5,326.5C -0.5,324.5 -0.5,322.5 -0.5,320.5C 0.044084,314.974 1.54408,309.641 4,304.5C 6.83333,301.667 9.66667,298.833 12.5,296C 26.5702,287.428 38.5702,276.595 48.5,263.5C 44.3833,252.599 39.7166,241.933 34.5,231.5C 37.1164,217.138 39.9497,202.804 43,188.5C 46.946,182.221 51.2794,176.221 56,170.5C 64.2417,154.344 73.2417,138.677 83,123.5C 87.8333,117.333 93.3333,111.833 99.5,107C 105.137,103.802 111.137,101.468 117.5,100C 131.22,89.9527 144.054,78.786 156,66.5C 170.745,51.0923 184.745,35.0923 198,18.5C 204.395,11.9365 210.895,5.60321 217.5,-0.5 Z"/></g>
<g><path style="opacity:0.004" fill="#fefffe" d="M 76.5,361.5 C 77.8333,362.167 77.8333,362.167 76.5,361.5 Z"/></g>
<g><path style="opacity:0.004" fill="#fefffe" d="M 80.5,364.5 C 79.8333,363.167 79.8333,363.167 80.5,364.5 Z"/></g>
<g><path style="opacity:0.004" fill="#fefffe" d="M 80.5,364.5 C 81.1667,364.5 81.5,364.833 81.5,365.5C 81.1667,365.167 80.8333,364.833 80.5,364.5 Z"/></g>
<g><path style="opacity:0.004" fill="#fefffe" d="M 81.5,365.5 C 82.1667,365.5 82.5,365.833 82.5,366.5C 82.1667,366.167 81.8333,365.833 81.5,365.5 Z"/></g>
<g><path style="opacity:0.004" fill="#fefffe" d="M 82.5,366.5 C 83.8333,367.167 83.8333,367.167 82.5,366.5 Z"/></g>
<g><path style="opacity:0.004" fill="#fefffe" d="M 84.5,369.5 C 83.8333,368.167 83.8333,368.167 84.5,369.5 Z"/></g>
<g><path style="opacity:0.004" fill="#fefffe" d="M 84.5,369.5 C 85.1667,369.5 85.5,369.833 85.5,370.5C 85.1667,370.167 84.8333,369.833 84.5,369.5 Z"/></g>
<g><path style="opacity:0.004" fill="#fefffe" d="M 85.5,370.5 C 86.5983,371.601 86.765,372.934 86,374.5C 85.51,373.207 85.3433,371.873 85.5,370.5 Z"/></g>
<g><path style="opacity:0.004" fill="#fefffe" d="M 86.5,380.5 C 87.6378,383.304 87.8045,386.304 87,389.5C 86.502,386.518 86.3354,383.518 86.5,380.5 Z"/></g>
<g><path style="opacity:0.004" fill="#fefffe" d="M 23.5,386.5 C 23.8966,385.475 24.5632,385.308 25.5,386C 24.9056,386.464 24.2389,386.631 23.5,386.5 Z"/></g>
<g><path style="opacity:0.004" fill="#fefffe" d="M 23.5,386.5 C 22.8333,387.167 22.8333,387.167 23.5,386.5 Z"/></g>
<g><path style="opacity:0.004" fill="#fefffe" d="M 22.5,387.5 C 21.8333,388.167 21.8333,388.167 22.5,387.5 Z"/></g>
<g><path style="opacity:0.004" fill="#fefffe" d="M 21.5,388.5 C 20.8333,389.167 20.8333,389.167 21.5,388.5 Z"/></g>
<g><path style="opacity:0.004" fill="#fefffe" d="M 20.5,389.5 C 19.8333,390.167 19.8333,390.167 20.5,389.5 Z"/></g>
<g><path style="opacity:0.004" fill="#fefffe" d="M 19.5,390.5 C 18.8333,391.167 18.8333,391.167 19.5,390.5 Z"/></g>
<g><path style="opacity:0.004" fill="#fefffe" d="M 87.5,390.5 C 88.525,390.897 88.6917,391.563 88,392.5C 87.5357,391.906 87.369,391.239 87.5,390.5 Z"/></g>
<g><path style="opacity:0.004" fill="#fefffe" d="M 18.5,391.5 C 17.8333,392.167 17.8333,392.167 18.5,391.5 Z"/></g>
<g><path style="opacity:0.004" fill="#fefffe" d="M 17.5,392.5 C 16.8333,393.167 16.8333,393.167 17.5,392.5 Z"/></g>
<g><path style="opacity:0.004" fill="#fefffe" d="M 13.5,393.5 C 14.8333,394.167 14.8333,394.167 13.5,393.5 Z"/></g>
<g><path style="opacity:0.004" fill="#fefffe" d="M 88.5,393.5 C 89.525,393.897 89.6917,394.563 89,395.5C 88.5357,394.906 88.369,394.239 88.5,393.5 Z"/></g>
<g><path style="opacity:0.004" fill="#fefffe" d="M 7.5,395.5 C 8.94639,394.387 10.6131,394.22 12.5,395C 10.8659,395.494 9.19919,395.66 7.5,395.5 Z"/></g>
<g><path style="opacity:0.006" fill="#fefffe" d="M 89.5,396.5 C 90.6225,398.288 90.7891,400.288 90,402.5C 89.5045,400.527 89.3379,398.527 89.5,396.5 Z"/></g>
<g><path style="opacity:0.004" fill="#fefffe" d="M 88.5,403.5 C 89.6484,407.981 89.8151,412.648 89,417.5C 88.5008,412.845 88.3342,408.179 88.5,403.5 Z"/></g>
<g><path style="opacity:0.004" fill="#fefffe" d="M 85.5,418.5 C 86.8333,419.167 86.8333,419.167 85.5,418.5 Z"/></g>
<g><path style="opacity:0.004" fill="#fefffe" d="M 85.5,419.5 C 84.8333,420.167 84.8333,420.167 85.5,419.5 Z"/></g>
<g><path style="opacity:0.004" fill="#fefffe" d="M 84.5,420.5 C 83.8333,421.167 83.8333,421.167 84.5,420.5 Z"/></g>
<g><path style="opacity:0.004" fill="#fefffe" d="M 83.5,421.5 C 82.8333,422.167 82.8333,422.167 83.5,421.5 Z"/></g>
<g><path style="opacity:0.004" fill="#fefffe" d="M 79.5,423.5 C 80.8333,424.167 80.8333,424.167 79.5,423.5 Z"/></g>
<g><path style="opacity:0.004" fill="#fefffe" d="M 79.5,424.5 C 78.8333,425.167 78.8333,425.167 79.5,424.5 Z"/></g>
<g><path style="opacity:0.004" fill="#fefffe" d="M 78.5,425.5 C 77.8333,426.167 77.8333,426.167 78.5,425.5 Z"/></g>
<g><path style="opacity:0.004" fill="#fefffe" d="M 77.5,426.5 C 76.8333,427.167 76.8333,427.167 77.5,426.5 Z"/></g>
<g><path style="opacity:0.004" fill="#fefffe" d="M 72.5,429.5 C 73.8333,430.167 73.8333,430.167 72.5,429.5 Z"/></g>
<g><path style="opacity:0.004" fill="#fefffe" d="M 72.5,430.5 C 71.8333,431.167 71.8333,431.167 72.5,430.5 Z"/></g>
<g><path style="opacity:0.004" fill="#fefffe" d="M 71.5,431.5 C 70.8333,432.167 70.8333,432.167 71.5,431.5 Z"/></g>
<g><path style="opacity:0.004" fill="#fefffe" d="M 70.5,432.5 C 69.8333,433.167 69.8333,433.167 70.5,432.5 Z"/></g>
<g><path style="opacity:0.004" fill="#fefffe" d="M 67.5,434.5 C 68.525,434.897 68.6917,435.563 68,436.5C 67.5357,435.906 67.369,435.239 67.5,434.5 Z"/></g>
<g><path style="opacity:0.004" fill="#fefffe" d="M 68.5,438.5 C 69.525,438.897 69.6917,439.563 69,440.5C 68.5357,439.906 68.369,439.239 68.5,438.5 Z"/></g>
<g><path style="opacity:0.004" fill="#fefffe" d="M 69.5,442.5 C 70.5735,443.251 70.7401,444.251 70,445.5C 69.5172,444.552 69.3505,443.552 69.5,442.5 Z"/></g>
<g><path style="opacity:0.004" fill="#fefffe" d="M 70.5,447.5 C 71.525,447.897 71.6917,448.563 71,449.5C 70.5357,448.906 70.369,448.239 70.5,447.5 Z"/></g>
<g><path style="opacity:0.004" fill="#fefffe" d="M 71.5,451.5 C 72.6341,453.966 72.8007,456.633 72,459.5C 71.5026,456.854 71.3359,454.187 71.5,451.5 Z"/></g>
<g><path style="opacity:0.004" fill="#fefffe" d="M 70.5,461.5 C 71.8333,462.167 71.8333,462.167 70.5,461.5 Z"/></g>
<g><path style="opacity:0.004" fill="#fefffe" d="M 68.5,462.5 C 69.8333,463.167 69.8333,463.167 68.5,462.5 Z"/></g>
<g><path style="opacity:0.004" fill="#fefffe" d="M 68.5,463.5 C 67.8333,464.167 67.8333,464.167 68.5,463.5 Z"/></g>
</svg>
