<?xml version="1.0" encoding="UTF-8"?>
<!DOCTYPE svg PUBLIC "-//W3C//DTD SVG 1.1//EN" "http://www.w3.org/Graphics/SVG/1.1/DTD/svg11.dtd">
<svg xmlns="http://www.w3.org/2000/svg" version="1.1" width="314px" height="259px" style="shape-rendering:geometricPrecision; text-rendering:geometricPrecision; image-rendering:optimizeQuality; fill-rule:evenodd; clip-rule:evenodd" xmlns:xlink="http://www.w3.org/1999/xlink">
<g><path style="opacity:0.004" fill="#fefffe" d="M 193.5,-0.5 C 193.833,-0.5 194.167,-0.5 194.5,-0.5C 194.315,0.170143 193.981,0.170143 193.5,-0.5 Z"/></g>
<g><path style="opacity:0.004" fill="#fefffe" d="M 195.5,2.5 C 196.833,3.16667 196.833,3.16667 195.5,2.5 Z"/></g>
<g><path style="opacity:0.004" fill="#fefffe" d="M 198.5,6.5 C 197.833,5.16667 197.833,5.16667 198.5,6.5 Z"/></g>
<g><path style="opacity:0.004" fill="#fefffe" d="M 198.5,6.5 C 199.833,7.16667 199.833,7.16667 198.5,6.5 Z"/></g>
<g><path style="opacity:0.004" fill="#fefffe" d="M 200.5,9.5 C 201.833,10.1667 201.833,10.1667 200.5,9.5 Z"/></g>
<g><path style="opacity:0.004" fill="#fefffe" d="M 201.5,11.5 C 202.833,12.1667 202.833,12.1667 201.5,11.5 Z"/></g>
<g><path style="opacity:0.004" fill="#fefffe" d="M 200.5,13.5 C 201.833,14.1667 201.833,14.1667 200.5,13.5 Z"/></g>
<g><path style="opacity:0.012" fill="#fefffe" d="M 313.5,189.5 C 313.5,190.5 313.5,191.5 313.5,192.5C 309.851,193.313 307.518,195.48 306.5,199C 304.726,199.97 302.893,200.804 301,201.5C 299.522,200.022 298.022,198.522 296.5,197C 285.811,193.288 274.811,191.122 263.5,190.5C 263.5,191.833 263.5,193.167 263.5,194.5C 252.162,196.879 242.829,193.712 235.5,185C 229.845,185.198 224.179,185.198 218.5,185C 215.27,183.692 211.936,182.692 208.5,182C 207.214,179.978 206.214,177.811 205.5,175.5C 204.5,175.167 203.5,174.833 202.5,174.5C 197.975,175.428 193.642,176.928 189.5,179C 183.846,178.84 179.18,176.507 175.5,172C 168.038,171.755 161.371,169.422 155.5,165C 149.859,163.639 144.192,162.472 138.5,161.5C 138.662,159.473 138.495,157.473 138,155.5C 136.175,156.103 134.341,156.77 132.5,157.5C 136.759,166.432 139.259,175.765 140,185.5C 139,186.167 138,186.833 137,187.5C 134.923,196.985 130.256,204.985 123,211.5C 120.794,216.285 119.294,221.285 118.5,226.5C 118.182,227.647 117.516,228.481 116.5,229C 107.238,231.815 97.9049,234.315 88.5,236.5C 80.8006,235.55 73.1339,234.383 65.5,233C 57.3549,228.217 53.1883,221.051 53,211.5C 50.7152,209.093 48.5486,206.593 46.5,204C 42.1912,202.673 37.8579,201.506 33.5,200.5C 33.477,198.073 32.977,195.74 32,193.5C 26.0868,190.46 20.2534,187.294 14.5,184C 10.4684,179.601 7.46843,174.601 5.5,169C 7.12085,163.573 7.95419,158.073 8,152.5C 6.16539,146.819 3.33206,141.819 -0.5,137.5C -0.5,137.167 -0.5,136.833 -0.5,136.5C 0.321791,129.765 3.32179,123.932 8.5,119C 17.0498,112.975 26.2165,108.142 36,104.5C 36.1366,96.5076 34.9699,88.6743 32.5,81C 34.2708,78.5127 36.4375,76.346 39,74.5C 40.3686,66.6526 42.3686,58.9859 45,51.5C 50.4741,48.5618 56.3074,46.3951 62.5,45C 69.1667,41.3333 75.8333,37.6667 82.5,34C 84.9856,30.8629 86.8189,27.3629 88,23.5C 94.1417,16.49 101.975,13.49 111.5,14.5C 129.734,17.1358 148.067,18.6358 166.5,19C 170.64,27.157 175.64,34.8237 181.5,42C 187.18,42.4455 192.846,42.9455 198.5,43.5C 197.102,50.08 199.602,53.7467 206,54.5C 206.333,58.8333 206.667,63.1667 207,67.5C 208.92,70.3388 210.587,73.3388 212,76.5C 213.552,77.9661 215.386,78.9661 217.5,79.5C 220.708,78.198 224.041,77.5313 227.5,77.5C 227.602,85.8264 230.602,92.8264 236.5,98.5C 234.409,102.926 231.076,105.926 226.5,107.5C 226.919,108.672 227.585,109.672 228.5,110.5C 237.943,113.986 240.443,120.319 236,129.5C 232.124,131.257 229.124,133.924 227,137.5C 227.035,141.521 227.535,145.521 228.5,149.5C 234.55,149.172 240.216,150.339 245.5,153C 246.685,155.776 246.685,158.61 245.5,161.5C 245.59,163.425 246.59,164.592 248.5,165C 255.886,165.556 263.219,165.556 270.5,165C 272.511,167.877 273.845,171.044 274.5,174.5C 287.466,179.826 300.466,184.826 313.5,189.5 Z"/></g>
<g><path style="opacity:0.004" fill="#fefffe" d="M 183.5,15.5 C 188.316,14.3503 193.316,14.1837 198.5,15C 193.511,15.4993 188.511,15.6659 183.5,15.5 Z"/></g>
<g><path style="opacity:0.004" fill="#fefffe" d="M 178.5,16.5 C 179.251,15.4265 180.251,15.2599 181.5,16C 180.552,16.4828 179.552,16.6495 178.5,16.5 Z"/></g>
<g><path style="opacity:0.004" fill="#fefffe" d="M 173.5,17.5 C 174.251,16.4265 175.251,16.2599 176.5,17C 175.552,17.4828 174.552,17.6495 173.5,17.5 Z"/></g>
<g><path style="opacity:0.004" fill="#fefffe" d="M 168.5,18.5 C 169.251,17.4265 170.251,17.2599 171.5,18C 170.552,18.4828 169.552,18.6495 168.5,18.5 Z"/></g>
<g><path style="opacity:0.004" fill="#fefffe" d="M 116.5,230.5 C 117.525,230.897 117.692,231.563 117,232.5C 116.536,231.906 116.369,231.239 116.5,230.5 Z"/></g>
<g><path style="opacity:0.004" fill="#fefffe" d="M 115.5,234.5 C 116.613,235.946 116.78,237.613 116,239.5C 115.506,237.866 115.34,236.199 115.5,234.5 Z"/></g>
<g><path style="opacity:0.004" fill="#fefffe" d="M 115.5,244.5 C 116.613,245.946 116.78,247.613 116,249.5C 115.506,247.866 115.34,246.199 115.5,244.5 Z"/></g>
<g><path style="opacity:0.004" fill="#fefffe" d="M 117.5,258.5 C 117.167,258.5 116.833,258.5 116.5,258.5C 116.833,251.833 117.167,251.833 117.5,258.5 Z"/></g>
</svg>
