<?xml version="1.0" encoding="UTF-8"?>
<!DOCTYPE svg PUBLIC "-//W3C//DTD SVG 1.1//EN" "http://www.w3.org/Graphics/SVG/1.1/DTD/svg11.dtd">
<svg xmlns="http://www.w3.org/2000/svg" version="1.1" width="560px" height="704px" style="shape-rendering:geometricPrecision; text-rendering:geometricPrecision; image-rendering:optimizeQuality; fill-rule:evenodd; clip-rule:evenodd" xmlns:xlink="http://www.w3.org/1999/xlink">
<g><path style="opacity:0.012" fill="#fefffe" d="M 460.5,-0.5 C 461.167,-0.5 461.833,-0.5 462.5,-0.5C 470.512,0.786469 478.512,2.6198 486.5,5C 498.435,9.96631 509.768,15.9663 520.5,23C 534.409,36.0731 547.409,49.9064 559.5,64.5C 559.5,67.1667 559.5,69.8333 559.5,72.5C 556.947,85.6142 550.614,96.7808 540.5,106C 533.684,110.682 526.351,111.682 518.5,109C 510.717,105.942 503.05,102.608 495.5,99C 480.426,96.6293 466.759,100.129 454.5,109.5C 443.053,126.721 432.887,144.721 424,163.5C 423.667,168.167 423.333,172.833 423,177.5C 421.299,181.604 419.799,185.771 418.5,190C 420.248,194.998 422.415,199.832 425,204.5C 425.168,209.172 424.834,213.839 424,218.5C 418.623,224.208 413.623,230.208 409,236.5C 409.572,258.146 409.572,279.813 409,301.5C 407,305.5 405,309.5 403,313.5C 397.234,319.424 392.067,325.757 387.5,332.5C 388.229,337.47 388.729,342.47 389,347.5C 397.294,353.39 405.46,359.39 413.5,365.5C 405.879,371.287 399.045,377.954 393,385.5C 384.161,399.842 375.827,414.508 368,429.5C 363.577,436.011 358.911,442.345 354,448.5C 350.682,462.908 347.849,477.408 345.5,492C 350.029,502.891 354.696,513.725 359.5,524.5C 349.57,537.595 337.57,548.428 323.5,557C 320,560.5 316.5,564 313,567.5C 305.966,596.095 313.299,620.095 335,639.5C 335.914,641.664 337.081,643.664 338.5,645.5C 334.126,647.369 330.459,650.202 327.5,654C 325.913,654.862 324.246,655.529 322.5,656C 308.527,657.562 294.86,656.229 281.5,652C 278.833,651.333 276.167,651.333 273.5,652C 256.399,661.551 238.399,668.884 219.5,674C 204.471,677.206 189.471,680.539 174.5,684C 165.178,685.032 155.845,685.866 146.5,686.5C 147.519,681.272 148.853,676.105 150.5,671C 149.804,664.151 148.971,657.318 148,650.5C 145.667,647.167 143.333,643.833 141,640.5C 140.333,634.833 140.333,629.167 141,623.5C 144.183,616.953 146.349,610.12 147.5,603C 146.821,594.31 142.321,588.477 134,585.5C 130.158,586.279 126.325,587.113 122.5,588C 117.999,590.416 113.666,593.083 109.5,596C 101.651,607.083 90.8178,612.917 77,613.5C 69.4412,612.791 62.7745,610.124 57,605.5C 53.9075,599.151 52.9075,592.485 54,585.5C 63.7556,571.656 73.7556,557.989 84,544.5C 95.873,515.214 105.54,485.214 113,454.5C 113.288,445.094 113.288,435.761 113,426.5C 104.746,418.082 95.2456,411.416 84.5,406.5C 83.1789,402.216 82.0123,397.883 81,393.5C 72.0379,389.208 64.2046,383.374 57.5,376C 47.207,376.818 36.8737,377.151 26.5,377C 17.6093,374.093 10.4426,368.926 5,361.5C 3.25842,354.844 6.09175,351.011 13.5,350C 34.1494,348.88 54.8161,348.213 75.5,348C 80.4199,345.084 84.7533,341.418 88.5,337C 90.6487,336.421 92.8154,335.921 95,335.5C 101.882,337.694 107.715,341.527 112.5,347C 115.833,348.333 119.167,349.667 122.5,351C 135.443,350.242 146.443,345.242 155.5,336C 162.466,325.709 170.133,316.042 178.5,307C 186.373,302.049 195.04,300.049 204.5,301C 210.954,298.273 217.288,295.273 223.5,292C 229.033,286.802 234.2,281.302 239,275.5C 241.638,266.987 242.971,258.321 243,249.5C 240.365,233.263 236.699,217.263 232,201.5C 231.064,188.173 230.73,174.839 231,161.5C 235.745,151.676 240.745,142.01 246,132.5C 246.152,126.413 245.818,120.413 245,114.5C 252.15,111.671 259.316,108.838 266.5,106C 270.844,103.829 274.844,101.163 278.5,98C 286.197,97.5219 293.864,97.5219 301.5,98C 311.26,89.9624 319.76,80.7957 327,70.5C 335.5,62 344,53.5 352.5,45C 368.297,40.4381 382.297,32.7714 394.5,22C 396.087,21.1376 397.754,20.4709 399.5,20C 409.512,19.6679 419.512,19.6679 429.5,20C 437.453,14.3816 445.12,8.38161 452.5,2C 455.31,1.21774 457.977,0.384409 460.5,-0.5 Z"/></g>
<g><path style="opacity:0.004" fill="#fefffe" d="M -0.5,336.5 C 0.833333,337.167 0.833333,337.833 -0.5,338.5C -0.5,337.833 -0.5,337.167 -0.5,336.5 Z"/></g>
<g><path style="opacity:0.004" fill="#fefffe" d="M 0.5,339.5 C 1.52502,339.897 1.69169,340.563 1,341.5C 0.535656,340.906 0.368989,340.239 0.5,339.5 Z"/></g>
<g><path style="opacity:0.004" fill="#fefffe" d="M 1.5,342.5 C 2.57346,343.251 2.74012,344.251 2,345.5C 1.51722,344.552 1.35055,343.552 1.5,342.5 Z"/></g>
<g><path style="opacity:0.004" fill="#fefffe" d="M 2.5,348.5 C 3.61295,349.946 3.77961,351.613 3,353.5C 2.50649,351.866 2.33982,350.199 2.5,348.5 Z"/></g>
<g><path style="opacity:0.004" fill="#fefffe" d="M 174.5,685.5 C 175.525,685.897 175.692,686.563 175,687.5C 174.536,686.906 174.369,686.239 174.5,685.5 Z"/></g>
<g><path style="opacity:0.004" fill="#fefffe" d="M 137.5,687.5 C 139.628,686.371 141.961,686.204 144.5,687C 142.19,687.497 139.857,687.663 137.5,687.5 Z"/></g>
<g><path style="opacity:0.004" fill="#fefffe" d="M 127.5,688.5 C 129.628,687.371 131.961,687.204 134.5,688C 132.19,688.497 129.857,688.663 127.5,688.5 Z"/></g>
<g><path style="opacity:0.004" fill="#fefffe" d="M 173.5,689.5 C 174.525,689.897 174.692,690.563 174,691.5C 173.536,690.906 173.369,690.239 173.5,689.5 Z"/></g>
<g><path style="opacity:0.004" fill="#fefffe" d="M 172.5,693.5 C 173.525,693.897 173.692,694.563 173,695.5C 172.536,694.906 172.369,694.239 172.5,693.5 Z"/></g>
<g><path style="opacity:0.004" fill="#fefffe" d="M 171.5,697.5 C 172.525,697.897 172.692,698.563 172,699.5C 171.536,698.906 171.369,698.239 171.5,697.5 Z"/></g>
<g><path style="opacity:0.004" fill="#fefffe" d="M 171.5,703.5 C 171.167,703.5 170.833,703.5 170.5,703.5C 170.833,700.833 171.167,700.833 171.5,703.5 Z"/></g>
</svg>
