<?xml version="1.0" encoding="UTF-8"?>
<!DOCTYPE svg PUBLIC "-//W3C//DTD SVG 1.1//EN" "http://www.w3.org/Graphics/SVG/1.1/DTD/svg11.dtd">
<svg xmlns="http://www.w3.org/2000/svg" version="1.1" width="381px" height="220px" style="shape-rendering:geometricPrecision; text-rendering:geometricPrecision; image-rendering:optimizeQuality; fill-rule:evenodd; clip-rule:evenodd" xmlns:xlink="http://www.w3.org/1999/xlink">
<g><path style="opacity:0.012" fill="#fefffe" d="M 75.5,-0.5 C 76.5,-0.5 77.5,-0.5 78.5,-0.5C 95.3621,1.71265 112.029,5.21265 128.5,10C 126.963,11.1096 126.297,12.6096 126.5,14.5C 144.201,10.7161 161.868,11.0494 179.5,15.5C 186.731,12.6337 193.898,9.63375 201,6.5C 202.107,6.58524 203.107,6.91858 204,7.5C 204.273,9.10119 204.773,10.6012 205.5,12C 210.393,13.2754 215.06,14.942 219.5,17C 223.838,17.4634 228.171,17.9634 232.5,18.5C 241.772,15.4198 250.772,15.9198 259.5,20C 269.345,19.1432 279.012,20.3098 288.5,23.5C 295.999,19.2775 303.999,16.7775 312.5,16C 314.167,18.3333 315.833,20.6667 317.5,23C 322.754,24.0911 326.754,26.9244 329.5,31.5C 326.914,33.0426 324.414,34.7093 322,36.5C 321.667,49.5 321.333,62.5 321,75.5C 319.274,79.8934 316.44,83.3934 312.5,86C 287.318,94.5885 265.318,108.255 246.5,127C 238.766,132.396 230.766,137.396 222.5,142C 220.833,142.667 219.167,142.667 217.5,142C 206.182,134.421 194.015,128.921 181,125.5C 173.565,127.633 166.398,130.467 159.5,134C 150.001,136.447 141.667,134.28 134.5,127.5C 129.409,130.423 124.742,133.923 120.5,138C 121.167,138.333 121.833,138.667 122.5,139C 116.119,142.022 109.453,144.189 102.5,145.5C 98.1633,142.528 94.9966,138.528 93,133.5C 82.2647,123.144 69.4314,118.978 54.5,121C 43.5331,122.746 32.5331,124.246 21.5,125.5C 16.4525,124.524 11.4525,123.357 6.5,122C 0.717409,115.631 -1.11592,108.131 1,99.5C 4.13353,83.9414 3.63353,68.608 -0.5,53.5C -0.5,52.8333 -0.5,52.1667 -0.5,51.5C 2.03882,45.61 5.70548,40.4433 10.5,36C 13.4628,34.0394 16.1294,31.706 18.5,29C 22.5766,27.2131 26.41,25.0464 30,22.5C 30.6667,21.5 30.6667,20.5 30,19.5C 26.9434,16.5539 24.7767,13.0539 23.5,9C 25.6585,8.08796 27.8252,7.25463 30,6.5C 35.7799,11.5688 42.2799,12.7355 49.5,10C 57.3099,4.01621 65.9766,0.516208 75.5,-0.5 Z"/></g>
<g><path style="opacity:0.004" fill="#fefffe" d="M 330.5,31.5 C 331.833,32.1667 331.833,32.1667 330.5,31.5 Z"/></g>
<g><path style="opacity:0.004" fill="#fefffe" d="M 333.5,33.5 C 335.628,32.3709 337.961,32.2042 340.5,33C 338.19,33.4966 335.857,33.6633 333.5,33.5 Z"/></g>
<g><path style="opacity:0.004" fill="#fefffe" d="M 344.5,34.5 C 344.897,33.475 345.563,33.3083 346.5,34C 345.906,34.4643 345.239,34.631 344.5,34.5 Z"/></g>
<g><path style="opacity:0.004" fill="#fefffe" d="M 380.5,33.5 C 380.5,33.8333 380.5,34.1667 380.5,34.5C 371.167,34.1667 371.167,33.8333 380.5,33.5 Z"/></g>
<g><path style="opacity:0.004" fill="#fefffe" d="M 348.5,35.5 C 348.897,34.475 349.563,34.3083 350.5,35C 349.906,35.4643 349.239,35.631 348.5,35.5 Z"/></g>
<g><path style="opacity:0.004" fill="#fefffe" d="M 370.5,35.5 C 370.897,34.475 371.563,34.3083 372.5,35C 371.906,35.4643 371.239,35.631 370.5,35.5 Z"/></g>
<g><path style="opacity:0.004" fill="#fefffe" d="M 352.5,35.5 C 353.833,36.1667 353.833,36.1667 352.5,35.5 Z"/></g>
<g><path style="opacity:0.004" fill="#fefffe" d="M 368.5,35.5 C 369.833,36.1667 369.833,36.1667 368.5,35.5 Z"/></g>
<g><path style="opacity:0.004" fill="#fefffe" d="M 354.5,37.5 C 355.251,36.4265 356.251,36.2599 357.5,37C 356.552,37.4828 355.552,37.6495 354.5,37.5 Z"/></g>
<g><path style="opacity:0.004" fill="#fefffe" d="M 366.5,36.5 C 367.833,37.1667 367.833,37.1667 366.5,36.5 Z"/></g>
<g><path style="opacity:0.004" fill="#fefffe" d="M 358.5,38.5 C 359.251,37.4265 360.251,37.2599 361.5,38C 360.552,38.4828 359.552,38.6495 358.5,38.5 Z"/></g>
<g><path style="opacity:0.004" fill="#fefffe" d="M 364.5,37.5 C 365.833,38.1667 365.833,38.1667 364.5,37.5 Z"/></g>
<g><path style="opacity:0.004" fill="#fefffe" d="M 301.5,94.5 C 302.251,93.4265 303.251,93.2599 304.5,94C 303.552,94.4828 302.552,94.6495 301.5,94.5 Z"/></g>
<g><path style="opacity:0.004" fill="#fefffe" d="M 305.5,94.5 C 306.833,95.1667 306.833,95.1667 305.5,94.5 Z"/></g>
<g><path style="opacity:0.004" fill="#fefffe" d="M 307.5,95.5 C 308.833,96.1667 308.833,96.1667 307.5,95.5 Z"/></g>
<g><path style="opacity:0.004" fill="#fefffe" d="M 310.5,97.5 C 309.833,96.1667 309.833,96.1667 310.5,97.5 Z"/></g>
<g><path style="opacity:0.004" fill="#fefffe" d="M 310.5,97.5 C 311.833,98.1667 311.833,98.1667 310.5,97.5 Z"/></g>
<g><path style="opacity:0.004" fill="#fefffe" d="M 313.5,99.5 C 312.833,98.1667 312.833,98.1667 313.5,99.5 Z"/></g>
<g><path style="opacity:0.004" fill="#fefffe" d="M 313.5,99.5 C 314.239,99.369 314.906,99.5357 315.5,100C 314.563,100.692 313.897,100.525 313.5,99.5 Z"/></g>
<g><path style="opacity:0.004" fill="#fefffe" d="M 318.5,101.5 C 317.761,101.631 317.094,101.464 316.5,101C 317.437,100.308 318.103,100.475 318.5,101.5 Z"/></g>
<g><path style="opacity:0.004" fill="#fefffe" d="M 318.5,101.5 C 319.167,101.5 319.5,101.833 319.5,102.5C 319.167,102.167 318.833,101.833 318.5,101.5 Z"/></g>
<g><path style="opacity:0.004" fill="#fefffe" d="M 319.5,102.5 C 320.492,102.328 321.158,102.662 321.5,103.5C 320.508,103.672 319.842,103.338 319.5,102.5 Z"/></g>
<g><path style="opacity:0.004" fill="#fefffe" d="M 321.5,103.5 C 322.167,103.5 322.5,103.833 322.5,104.5C 322.167,104.167 321.833,103.833 321.5,103.5 Z"/></g>
<g><path style="opacity:0.004" fill="#fefffe" d="M 322.5,104.5 C 323.833,105.167 323.833,105.167 322.5,104.5 Z"/></g>
<g><path style="opacity:0.004" fill="#fefffe" d="M 324.5,105.5 C 325.833,106.167 325.833,106.167 324.5,105.5 Z"/></g>
<g><path style="opacity:0.004" fill="#fefffe" d="M 328.5,107.5 C 327.761,107.631 327.094,107.464 326.5,107C 327.437,106.308 328.103,106.475 328.5,107.5 Z"/></g>
<g><path style="opacity:0.004" fill="#fefffe" d="M 328.5,107.5 C 329.791,107.263 330.791,107.596 331.5,108.5C 330.209,108.737 329.209,108.404 328.5,107.5 Z"/></g>
<g><path style="opacity:0.004" fill="#fefffe" d="M 331.5,108.5 C 332.492,108.328 333.158,108.662 333.5,109.5C 332.508,109.672 331.842,109.338 331.5,108.5 Z"/></g>
<g><path style="opacity:0.004" fill="#fefffe" d="M 333.5,109.5 C 334.492,109.328 335.158,109.662 335.5,110.5C 334.508,110.672 333.842,110.338 333.5,109.5 Z"/></g>
<g><path style="opacity:0.004" fill="#fefffe" d="M 335.5,110.5 C 336.492,110.328 337.158,110.662 337.5,111.5C 336.508,111.672 335.842,111.338 335.5,110.5 Z"/></g>
<g><path style="opacity:0.004" fill="#fefffe" d="M 337.5,111.5 C 338.239,111.369 338.906,111.536 339.5,112C 338.563,112.692 337.897,112.525 337.5,111.5 Z"/></g>
<g><path style="opacity:0.004" fill="#fefffe" d="M 355.5,114.5 C 354.833,113.167 354.833,113.167 355.5,114.5 Z"/></g>
<g><path style="opacity:0.004" fill="#fefffe" d="M 355.5,114.5 C 356.833,115.167 356.833,115.167 355.5,114.5 Z"/></g>
<g><path style="opacity:0.004" fill="#fefffe" d="M 123.5,139.5 C 124.833,140.167 124.833,140.167 123.5,139.5 Z"/></g>
<g><path style="opacity:0.004" fill="#fefffe" d="M 125.5,141.5 C 126.598,142.601 126.765,143.934 126,145.5C 125.51,144.207 125.343,142.873 125.5,141.5 Z"/></g>
<g><path style="opacity:0.004" fill="#fefffe" d="M 126.5,147.5 C 127.622,149.288 127.789,151.288 127,153.5C 126.505,151.527 126.338,149.527 126.5,147.5 Z"/></g>
<g><path style="opacity:0.004" fill="#fefffe" d="M 126.5,169.5 C 127.833,170.167 127.833,170.167 126.5,169.5 Z"/></g>
<g><path style="opacity:0.004" fill="#fefffe" d="M 125.5,171.5 C 126.525,171.897 126.692,172.563 126,173.5C 125.536,172.906 125.369,172.239 125.5,171.5 Z"/></g>
<g><path style="opacity:0.004" fill="#fefffe" d="M 124.5,174.5 C 125.833,175.167 125.833,175.167 124.5,174.5 Z"/></g>
<g><path style="opacity:0.004" fill="#fefffe" d="M 123.5,176.5 C 124.525,176.897 124.692,177.563 124,178.5C 123.536,177.906 123.369,177.239 123.5,176.5 Z"/></g>
<g><path style="opacity:0.004" fill="#fefffe" d="M 122.5,179.5 C 123.833,180.167 123.833,180.167 122.5,179.5 Z"/></g>
<g><path style="opacity:0.004" fill="#fefffe" d="M 121.5,181.5 C 122.647,185.646 122.814,189.98 122,194.5C 121.501,190.179 121.334,185.846 121.5,181.5 Z"/></g>
<g><path style="opacity:0.004" fill="#fefffe" d="M 122.5,195.5 C 123.833,196.167 123.833,196.167 122.5,195.5 Z"/></g>
<g><path style="opacity:0.004" fill="#fefffe" d="M 123.5,197.5 C 124.525,197.897 124.692,198.563 124,199.5C 123.536,198.906 123.369,198.239 123.5,197.5 Z"/></g>
<g><path style="opacity:0.004" fill="#fefffe" d="M 124.5,200.5 C 125.833,201.167 125.833,201.167 124.5,200.5 Z"/></g>
<g><path style="opacity:0.004" fill="#fefffe" d="M 126.5,203.5 C 125.833,202.167 125.833,202.167 126.5,203.5 Z"/></g>
<g><path style="opacity:0.004" fill="#fefffe" d="M 126.5,203.5 C 127.167,203.5 127.5,203.833 127.5,204.5C 127.167,204.167 126.833,203.833 126.5,203.5 Z"/></g>
<g><path style="opacity:0.004" fill="#fefffe" d="M 127.5,204.5 C 128.167,204.5 128.5,204.833 128.5,205.5C 128.167,205.167 127.833,204.833 127.5,204.5 Z"/></g>
<g><path style="opacity:0.004" fill="#fefffe" d="M 128.5,205.5 C 129.167,205.5 129.5,205.833 129.5,206.5C 129.167,206.167 128.833,205.833 128.5,205.5 Z"/></g>
<g><path style="opacity:0.004" fill="#fefffe" d="M 129.5,206.5 C 130.833,207.167 130.833,207.167 129.5,206.5 Z"/></g>
<g><path style="opacity:0.004" fill="#fefffe" d="M 134.5,210.5 C 133.833,209.167 133.833,209.167 134.5,210.5 Z"/></g>
<g><path style="opacity:0.004" fill="#fefffe" d="M 134.5,210.5 C 135.167,210.5 135.5,210.833 135.5,211.5C 135.167,211.167 134.833,210.833 134.5,210.5 Z"/></g>
<g><path style="opacity:0.004" fill="#fefffe" d="M 135.5,211.5 C 136.833,212.167 136.833,212.167 135.5,211.5 Z"/></g>
<g><path style="opacity:0.004" fill="#fefffe" d="M 137.5,212.5 C 138.833,213.167 138.833,213.167 137.5,212.5 Z"/></g>
<g><path style="opacity:0.004" fill="#fefffe" d="M 140.5,214.5 C 139.833,213.167 139.833,213.167 140.5,214.5 Z"/></g>
<g><path style="opacity:0.004" fill="#fefffe" d="M 140.5,214.5 C 141.492,214.328 142.158,214.662 142.5,215.5C 141.508,215.672 140.842,215.338 140.5,214.5 Z"/></g>
<g><path style="opacity:0.004" fill="#fefffe" d="M 142.5,215.5 C 143.239,215.369 143.906,215.536 144.5,216C 143.563,216.692 142.897,216.525 142.5,215.5 Z"/></g>
<g><path style="opacity:0.004" fill="#fefffe" d="M 145.5,219.5 C 145.167,219.5 144.833,219.5 144.5,219.5C 144.833,216.833 145.167,216.833 145.5,219.5 Z"/></g>
</svg>
